<?xml version="1.0" encoding="utf-8"?>
<!-- Generator: Adobe Illustrator 22.0.0, SVG Export Plug-In . SVG Version: 6.00 Build 0)  -->
<svg version="1.1" id="Calque_1" xmlns="http://www.w3.org/2000/svg" xmlns:xlink="http://www.w3.org/1999/xlink" x="0px" y="0px"
	 viewBox="0 0 356 92" style="enable-background:new 0 0 356 92;" xml:space="preserve">
<style type="text/css">
	.st0{fill:#FFFFFF;stroke:#FFFFFF;stroke-width:2;stroke-miterlimit:10;}
	.st1{fill:none;stroke:#FFFFFF;stroke-width:5;stroke-miterlimit:10;}
	.st2{fill:#FFFFFF;}
	.st3{fill:#FFFFFF;stroke:#FFFFFF;stroke-miterlimit:10;}
	.st4{fill:#FFFFFF;stroke:#FFFFFF;stroke-width:0.25;stroke-miterlimit:10;}
</style>
<g>
	<path class="st0" d="M18.1,29.8h14.3L37,52.2c0.8,4.8,1.4,9.5,2.2,14.4h0.4c0.8-4.9,1.7-9.8,2.9-14.4l5.3-22.4h12.5l5.4,22.4
		c1.2,4.8,2,9.5,3,14.4H69c0.8-4.9,1.4-9.6,2.2-14.4l4.6-22.4h13.3L77.5,78.2H60.7l-4.4-19.4c-0.9-4.5-1.7-8.9-2.6-14.2h-0.4
		c-0.8,5.2-1.5,9.7-2.5,14.2l-4.2,19.3H30.2L18.1,29.8z"/>
</g>
<path class="st1" d="M79.7,80.4c-7.4,5.7-16.6,9.1-26.6,9.1c-24,0-43.4-19.4-43.4-43.4S29.1,2.7,53.1,2.7c17.1,0,31.8,9.8,38.9,24.2
	"/>
<g>
	<g>
		<path class="st2" d="M114.5,39.9c0.1,0.2,0.1,0.3,0.3,0.3c0.1,0,0.2,0,0.3-0.1l0.2-0.1v0.1c0,0.1,0,0.2-0.1,0.3
			c0,0.1-0.1,0.2-0.3,0.3c-0.2,0.1-0.3,0.1-0.5,0.2h-0.3h-0.2v0.3c0,0.1-0.1,0.2-0.2,0.4c-0.2,0.4-0.7,0.6-1.4,0.8h-0.9
			c0,0.2-0.2,0.4-0.4,0.5l-0.3,0.2l-0.7,0.3l-0.8,0.1h-0.6h-0.3l-0.4,0.1c-0.2,0.1-0.4,0.1-0.5,0.2v-0.1V39H93.8
			c0.6-0.2,1.2-0.6,1.7-1.1l1.2-1.3c0.5-0.4,1-0.6,1.5-0.6c0-0.5,0.1-0.9,0.4-1.2l0.6-0.4l0.4-0.1c0,0.7,0.2,1.1,0.5,1.3
			c0.4,0.2,1,0.3,1.7,0.3h8v2.8c0,0.2,0.1,0.4,0.3,0.6l0.3,0.2l0.3,0.1c0.4,0,0.6-0.1,0.9-0.4l0.1-0.3v-0.4v-0.1v-0.1v-5.2
			c0-0.3-0.1-0.5-0.4-0.7c-0.2-0.1-0.5-0.2-0.9-0.2v-0.1l-0.1-0.1c0-0.4,0.2-0.8,0.7-1l0.8-0.1v-0.1l0.1-0.1l0.2-0.6
			c0-0.1,0.3-0.5,1-1c0.6-0.6,1-1.1,1.2-1.6v12.4H114.5z M104.2,30c0,0.5-0.2,0.9-0.5,1.2c-0.3,0.3-0.7,0.4-1.2,0.4
			c-0.4,0-0.8-0.2-1.2-0.5c-0.3-0.3-0.5-0.7-0.5-1.2s0.2-0.9,0.6-1.2c0.3-0.3,0.7-0.4,1.1-0.4s0.7,0.1,1.1,0.4
			C104,29.1,104.2,29.5,104.2,30z M108,30c0,0.5-0.1,1-0.4,1.3s-0.7,0.4-1.1,0.4c-0.5,0-0.9-0.2-1.3-0.6c-0.3-0.4-0.4-0.8-0.4-1.3
			c0-0.1,0.1-0.3,0.2-0.5c0.4-0.6,0.9-1,1.5-1c0.3,0,0.6,0.1,1,0.4C107.8,29.1,108,29.5,108,30z"/>
		<path class="st2" d="M125.8,38.9h-8V7.8l0.7,0.8c0.4,0.5,0.7,0.8,0.8,0.8c0.1,0,0.3,0.2,0.5,0.6c0.3,0.3,0.4,0.7,0.4,1v0.2
			c0.3,0,0.5,0,0.7,0.1c0.4,0.1,0.7,0.5,0.9,1l0.1,0.4c-0.3,0-0.6,0.1-0.9,0.3s-0.4,0.4-0.4,0.7v22.2h5.3L125.8,38.9L125.8,38.9z"/>
		<path class="st2" d="M310.3,39h-1.7h-6.7v-3.1h3.6v-3.1c0-0.3-0.1-0.5-0.3-0.7c-0.2-0.2-0.5-0.3-0.8-0.3l-0.6,0.1v-0.5
			c0.2-0.3,0.5-0.6,0.8-0.9l1.1-0.2c0.1-0.1,0.1-0.2,0.2-0.3c0-0.1,0.1-0.3,0.2-0.6c0.1-0.1,0.3-0.3,0.5-0.5
			c0.1-0.1,0.4-0.3,0.9-0.7l0.8-0.7l0.5-0.6V36h1.5V39z M308.9,22c0,0.5-0.2,0.9-0.6,1.2c-0.4,0.4-0.9,0.5-1.5,0.5
			c-0.5,0-1-0.2-1.5-0.5c-0.4-0.3-0.7-0.7-0.7-1.2s0.2-0.9,0.7-1.2c0.5-0.4,0.9-0.5,1.4-0.5c0.6,0,1.1,0.2,1.5,0.5
			C308.6,21.1,308.9,21.5,308.9,22z"/>
		<path class="st2" d="M320.8,39h-2.5h-8.9v-3.1h5.8v-3.1c0-0.3-0.1-0.5-0.3-0.7c-0.2-0.2-0.5-0.3-0.8-0.3l-0.6,0.1v-0.5
			c0.2-0.3,0.5-0.6,0.8-0.9l1.1-0.2c0.1-0.1,0.1-0.2,0.2-0.3c0-0.1,0.1-0.3,0.2-0.6l0.5-0.5l0.5-0.4l0.5-0.3
			c0.3-0.2,0.6-0.5,0.8-0.7l0.4-0.6V36h2.4v3H320.8z M315,44.1c0,0.5-0.2,0.9-0.6,1.3c-0.4,0.4-0.9,0.6-1.5,0.6
			c-0.5,0-1-0.2-1.4-0.5s-0.6-0.7-0.6-1.3c0-0.4,0.3-0.8,0.8-1.3c0.5-0.3,0.9-0.5,1.3-0.5c0.6,0,1.1,0.2,1.6,0.6
			C314.9,43.3,315,43.7,315,44.1z M320,44.2c0,0.3,0,0.5-0.1,0.7c0,0.1-0.2,0.3-0.4,0.6c-0.4,0.3-0.9,0.5-1.5,0.5
			c-0.5,0-1-0.2-1.5-0.5c-0.5-0.4-0.7-0.7-0.7-1.2s0.2-0.9,0.7-1.3c0.5-0.3,0.9-0.5,1.3-0.5c0.5,0,1,0.2,1.5,0.5
			C319.8,43.2,320,43.6,320,44.2z"/>
		<path class="st2" d="M333.9,37.4c0,0.3,0,0.6-0.1,0.9c-0.1,0.3-0.1,0.5-0.2,0.6l-0.2,0.5c-0.4,0.9-1,1.7-1.8,2.2
			c-1,0.7-2.3,1-3.8,1c-1.3,0-2.5-0.4-3.7-1.1c-1.1-0.7-1.7-1.6-1.7-2.6h-2.7v-3.1h2.3c0.1-0.4,0.2-0.8,0.3-1
			c0.2-0.4,0.6-0.8,1.2-1.4c0.2-0.2,0.6-0.4,1.1-0.7l0.6-0.2h0.2c-0.1-0.2-0.1-0.5-0.1-0.7c0-0.7,0.3-1.3,0.9-2l0.9-0.8l0.1,0.7
			c0,0.1,0,0.3,0.1,0.3c0,0.1,0.1,0.2,0.2,0.4c0.1,0.2,0.5,0.6,0.9,0.9s0.7,0.6,1.2,0.8l1.4,0.7c0.7,0.4,1.3,0.9,1.9,1.6
			C333.6,35.3,333.9,36.3,333.9,37.4z M330,37.4c0-0.5-0.2-0.9-0.6-1.3c-0.5-0.4-1-0.6-1.6-0.6c-0.4,0-0.9,0.2-1.4,0.5
			c-0.5,0.4-0.8,0.8-0.8,1.3c0,0.4,0.2,0.8,0.6,1.2s1,0.7,1.6,0.7c0.5,0,1-0.2,1.5-0.6C329.8,38.3,330,37.9,330,37.4z"/>
		<path class="st2" d="M339.2,7.2l-0.3-0.4c-0.2-0.2-0.4-0.3-0.6-0.3c-0.1,0-0.2,0-0.3,0.1l-0.3,0.2c-0.2,0.2-0.3,0.4-0.3,0.6
			c0,0.3,0.1,0.5,0.3,0.6c0.2,0.1,0.5,0.2,0.7,0.2h0.3h0.3l0.2-0.3V7.7l0.4,0.1c0.2,0.1,0.3,0.2,0.4,0.4l-0.1,0.1h0.5
			c0.3,0.1,0.5,0.3,0.6,0.6h-7.3c0.1-0.2,0.4-0.4,0.8-0.6l0.6-0.1c-0.1-0.1,0-0.2,0.1-0.4c0.1-0.2,0.3-0.3,0.6-0.3
			c0,0.3,0,0.4,0,0.5l0.1,0.1h0.1h0.3l-0.2-0.3L336,7.5V7.2c0-0.5,0.1-0.9,0.4-1.2c0.2-0.2,0.4-0.3,0.6-0.4l0.3-0.1
			c0.1,0,0.3,0,0.5,0h0.4c0.4,0.1,0.7,0.2,0.9,0.4l0.2,0.5l0.1,0.2C339.4,6.7,339.4,6.9,339.2,7.2z M346.1,39h-9.6V10.5l0.8,0.8
			c0.5,0.5,0.8,0.8,1,0.9c0.1,0,0.3,0.2,0.6,0.5c0.3,0.4,0.5,0.7,0.5,1v0.2h0.2c0.4,0,0.7,0.1,0.9,0.2c0.3,0.1,0.6,0.4,0.8,0.9
			l0.1,0.4c-0.4,0-0.8,0.1-1.1,0.3c-0.3,0.2-0.5,0.4-0.5,0.7V36h6.4L346.1,39L346.1,39z"/>
		<path class="st2" d="M343.1,39v-3.1h5.8v-3.2c0-0.2-0.1-0.5-0.3-0.6s-0.5-0.3-0.8-0.3l-0.6,0.1v-0.5c0.1-0.3,0.4-0.7,0.8-0.9
			c0.2-0.1,0.5-0.1,0.8-0.1c0.2,0,0.3,0,0.3,0c0.1,0,0.1-0.2,0.2-0.3c0-0.2,0.1-0.4,0.2-0.6L350,29l0.5-0.4l0.5-0.3l0.5-0.3l0.4-0.4
			l0.5-0.6v12H343.1z M347.4,23.3c0,0.5-0.2,0.9-0.6,1.3s-0.9,0.5-1.5,0.5c-0.5,0-1-0.2-1.4-0.5s-0.6-0.8-0.6-1.2
			c0-0.4,0.2-0.8,0.7-1.2l0.3-0.2l0.4-0.2c0.2-0.1,0.4-0.1,0.6-0.1c0.4,0,0.8,0.1,1.2,0.4C347.1,22.3,347.4,22.7,347.4,23.3z
			 M352.3,23.3c0,0.5-0.2,0.9-0.6,1.2c-0.4,0.4-0.9,0.5-1.5,0.5c-0.5,0-1-0.2-1.5-0.5c-0.4-0.3-0.7-0.7-0.7-1.2s0.2-0.9,0.7-1.3
			s0.9-0.5,1.4-0.5s1,0.2,1.4,0.5C352.1,22.4,352.3,22.8,352.3,23.3z"/>
	</g>
	<rect x="120.3" y="36" class="st2" width="181.7" height="3"/>
</g>
<g>
	<path class="st3" d="M111.8,72.7h-5.1l-2-5.2h-9.2l-1.9,5.2h-4.9l9-23.1h4.9L111.8,72.7z M103.2,63.6L100,55l-3.1,8.6H103.2z"/>
	<path class="st3" d="M114.3,72.7V49.6h15.8v3.9H119V59h9.6v3.9H119v9.8C119,72.7,114.3,72.7,114.3,72.7z"/>
	<path class="st3" d="M153,72.7h-5.1l-2-5.2h-9.2l-1.9,5.2h-4.9l9-23.1h4.9L153,72.7z M144.4,63.6l-3.2-8.6l-3.1,8.6H144.4z"/>
	<path class="st3" d="M154.3,65.2l4.5-0.4c0.3,1.5,0.8,2.6,1.7,3.4c0.8,0.7,2,1.1,3.4,1.1c1.5,0,2.6-0.3,3.4-1
		c0.8-0.6,1.1-1.4,1.1-2.2c0-0.5-0.2-1-0.5-1.4s-0.9-0.7-1.7-1c-0.5-0.2-1.8-0.5-3.7-1c-2.5-0.6-4.3-1.4-5.3-2.3
		c-1.4-1.3-2.1-2.8-2.1-4.6c0-1.2,0.3-2.3,1-3.3s1.6-1.8,2.9-2.3c1.3-0.5,2.8-0.8,4.5-0.8c2.9,0,5.1,0.6,6.5,1.9
		c1.5,1.3,2.2,3,2.3,5.1l-4.7,0.2c-0.2-1.2-0.6-2-1.3-2.6c-0.7-0.5-1.6-0.8-3-0.8s-2.4,0.3-3.2,0.8c-0.5,0.4-0.7,0.8-0.7,1.4
		c0,0.5,0.2,1,0.7,1.4c0.6,0.5,2,1,4.3,1.5s3.9,1.1,5,1.7c1.1,0.6,1.9,1.4,2.6,2.3c0.6,1,0.9,2.2,0.9,3.7c0,1.3-0.4,2.6-1.1,3.7
		c-0.7,1.2-1.8,2-3.1,2.6s-3,0.8-5,0.8c-2.9,0-5.2-0.7-6.7-2C155.5,69.8,154.6,67.8,154.3,65.2z"/>
	<path class="st3" d="M175.8,65.2l4.5-0.4c0.3,1.5,0.8,2.6,1.7,3.4c0.8,0.7,2,1.1,3.4,1.1c1.5,0,2.6-0.3,3.4-1
		c0.8-0.6,1.1-1.4,1.1-2.2c0-0.5-0.2-1-0.5-1.4s-0.9-0.7-1.7-1c-0.5-0.2-1.8-0.5-3.7-1c-2.5-0.6-4.3-1.4-5.3-2.3
		c-1.4-1.3-2.1-2.8-2.1-4.6c0-1.2,0.3-2.3,1-3.3s1.6-1.8,2.9-2.3c1.3-0.5,2.8-0.8,4.5-0.8c2.9,0,5.1,0.6,6.5,1.9
		c1.5,1.3,2.2,3,2.3,5.1l-4.7,0.2c-0.2-1.2-0.6-2-1.3-2.6c-0.7-0.5-1.6-0.8-3-0.8s-2.4,0.3-3.2,0.8c-0.5,0.4-0.7,0.8-0.7,1.4
		c0,0.5,0.2,1,0.7,1.4c0.6,0.5,2,1,4.3,1.5s3.9,1.1,5,1.7c1.1,0.6,1.9,1.4,2.6,2.3c0.6,1,0.9,2.2,0.9,3.7c0,1.3-0.4,2.6-1.1,3.7
		c-0.7,1.2-1.8,2-3.1,2.6s-3,0.8-5,0.8c-2.9,0-5.2-0.7-6.7-2S176.1,67.8,175.8,65.2z"/>
	<path class="st3" d="M198.5,49.6h4.7v12.5c0,2,0.1,3.3,0.2,3.9c0.2,0.9,0.7,1.7,1.4,2.3c0.8,0.6,1.8,0.9,3.1,0.9s2.3-0.3,3-0.8
		s1.1-1.2,1.2-2s0.2-2.1,0.2-3.9V49.6h4.7v12.1c0,2.8-0.1,4.7-0.4,5.9c-0.3,1.1-0.7,2.1-1.4,2.9s-1.6,1.4-2.7,1.9
		c-1.1,0.5-2.6,0.7-4.4,0.7c-2.2,0-3.9-0.3-5-0.8s-2-1.2-2.7-2s-1.1-1.7-1.3-2.6c-0.3-1.3-0.5-3.3-0.5-5.9V49.6H198.5z"/>
	<path class="st3" d="M221.8,72.7V49.6h9.8c2.5,0,4.3,0.2,5.4,0.6c1.1,0.4,2,1.2,2.7,2.2c0.7,1.1,1,2.3,1,3.6c0,1.7-0.5,3.2-1.5,4.3
		s-2.5,1.8-4.6,2.1c1,0.6,1.8,1.2,2.5,1.9c0.7,0.7,1.5,2,2.7,3.7l2.8,4.5H237l-3.4-5c-1.2-1.8-2-2.9-2.5-3.4c-0.4-0.5-0.9-0.8-1.4-1
		s-1.3-0.3-2.3-0.3h-0.9v9.6h-4.7V72.7z M226.4,59.4h3.4c2.2,0,3.6-0.1,4.2-0.3c0.6-0.2,1-0.5,1.3-1s0.5-1,0.5-1.7
		c0-0.8-0.2-1.4-0.6-1.9c-0.4-0.5-1-0.8-1.8-0.9c-0.4-0.1-1.5-0.1-3.4-0.1h-3.6L226.4,59.4L226.4,59.4z"/>
	<path class="st3" d="M265.9,72.7h-5.1l-2-5.2h-9.2l-1.9,5.2h-4.9l9-23.1h4.9L265.9,72.7z M257.3,63.6l-3.2-8.6l-3.1,8.6H257.3z"/>
	<path class="st3" d="M268.4,72.7V49.6h4.5l9.4,15.4V49.6h4.3v23.1H282l-9.3-15.1v15.1H268.4z"/>
	<path class="st3" d="M306.4,64.2l4.5,1.4c-0.7,2.5-1.8,4.4-3.5,5.6c-1.6,1.2-3.7,1.8-6.1,1.8c-3.1,0-5.6-1-7.6-3.1s-3-5-3-8.6
		c0-3.8,1-6.8,3-8.9c2-2.1,4.6-3.2,7.8-3.2c2.8,0,5.1,0.8,6.9,2.5c1,1,1.8,2.4,2.4,4.3l-4.6,1.1c-0.3-1.2-0.8-2.1-1.7-2.8
		c-0.9-0.7-1.9-1-3.2-1c-1.7,0-3.1,0.6-4.2,1.8s-1.6,3.2-1.6,6c0,2.9,0.5,5,1.6,6.2c1,1.2,2.4,1.9,4.1,1.9c1.2,0,2.3-0.4,3.2-1.2
		C305.4,67.2,306,65.9,306.4,64.2z"/>
	<path class="st3" d="M314.9,72.7V49.6H332v3.9h-12.5v5.1h11.6v3.9h-11.6v6.3h12.9v3.9C332.4,72.7,314.9,72.7,314.9,72.7z"/>
	<path class="st3" d="M335.2,65.2l4.5-0.4c0.3,1.5,0.8,2.6,1.7,3.4c0.8,0.7,2,1.1,3.4,1.1c1.5,0,2.6-0.3,3.4-1
		c0.8-0.6,1.1-1.4,1.1-2.2c0-0.5-0.2-1-0.5-1.4s-0.9-0.7-1.7-1c-0.5-0.2-1.8-0.5-3.7-1c-2.5-0.6-4.3-1.4-5.3-2.3
		c-1.4-1.3-2.1-2.8-2.1-4.6c0-1.2,0.3-2.3,1-3.3s1.6-1.8,2.9-2.3s2.8-0.8,4.5-0.8c2.9,0,5.1,0.6,6.5,1.9c1.5,1.3,2.2,3,2.3,5.1
		l-4.7,0.2c-0.2-1.2-0.6-2-1.3-2.6c-0.7-0.5-1.6-0.8-3-0.8s-2.4,0.3-3.2,0.8c-0.5,0.4-0.7,0.8-0.7,1.4c0,0.5,0.2,1,0.7,1.4
		c0.6,0.5,2,1,4.3,1.5s3.9,1.1,5,1.7s1.9,1.4,2.6,2.3c0.6,1,0.9,2.2,0.9,3.7c0,1.3-0.4,2.6-1.1,3.7c-0.7,1.2-1.8,2-3.1,2.6
		c-1.3,0.6-3,0.8-5,0.8c-2.9,0-5.2-0.7-6.7-2S335.5,67.8,335.2,65.2z"/>
</g>
<g>
	<path class="st4" d="M93.3,83.9l1.4,0.5c-0.2,0.8-0.6,1.4-1.1,1.8s-1.2,0.6-1.9,0.6c-1,0-1.8-0.3-2.4-1s-0.9-1.6-0.9-2.7
		c0-1.2,0.3-2.2,0.9-2.8s1.5-1,2.5-1c0.9,0,1.6,0.3,2.2,0.8c0.3,0.3,0.6,0.8,0.7,1.3l-1.5,0.3c-0.1-0.4-0.3-0.7-0.5-0.9
		s-0.6-0.3-1-0.3c-0.5,0-1,0.2-1.3,0.6s-0.5,1-0.5,1.9s0.2,1.6,0.5,2s0.8,0.6,1.3,0.6c0.4,0,0.7-0.1,1-0.4S93.2,84.4,93.3,83.9z"/>
	<path class="st4" d="M95.7,83c0-0.7,0.1-1.4,0.3-1.9c0.2-0.4,0.4-0.7,0.7-1c0.3-0.3,0.6-0.5,0.9-0.7c0.5-0.2,1-0.3,1.6-0.3
		c1.1,0,1.9,0.3,2.6,1c0.6,0.7,1,1.6,1,2.8c0,1.2-0.3,2.1-1,2.8c-0.6,0.7-1.5,1-2.6,1s-2-0.3-2.6-1S95.7,84.1,95.7,83z M97.2,82.9
		c0,0.8,0.2,1.5,0.6,1.9s0.9,0.6,1.5,0.6s1.1-0.2,1.4-0.6s0.6-1.1,0.6-1.9s-0.2-1.5-0.6-1.9s-0.9-0.6-1.5-0.6s-1.1,0.2-1.5,0.6
		C97.4,81.5,97.2,82.1,97.2,82.9z"/>
	<path class="st4" d="M104,86.6v-7.3h1.4l3,4.9v-4.9h1.4v7.3h-1.5l-2.9-4.8v4.8H104z"/>
	<path class="st4" d="M110.9,84.2l1.4-0.1c0.1,0.5,0.3,0.8,0.5,1.1c0.3,0.2,0.6,0.3,1.1,0.3s0.8-0.1,1.1-0.3
		c0.2-0.2,0.4-0.4,0.4-0.7c0-0.2-0.1-0.3-0.2-0.4s-0.3-0.2-0.5-0.3c-0.2-0.1-0.6-0.2-1.2-0.3c-0.8-0.2-1.3-0.4-1.7-0.7
		c-0.4-0.4-0.7-0.9-0.7-1.5c0-0.4,0.1-0.7,0.3-1s0.5-0.6,0.9-0.7c0.4-0.2,0.9-0.3,1.4-0.3c0.9,0,1.6,0.2,2.1,0.6s0.7,0.9,0.7,1.6
		l-1.5,0.1c-0.1-0.4-0.2-0.6-0.4-0.8c-0.2-0.2-0.5-0.2-0.9-0.2s-0.8,0.1-1,0.3c-0.2,0.1-0.2,0.3-0.2,0.5s0.1,0.3,0.2,0.4
		c0.2,0.2,0.6,0.3,1.4,0.5c0.7,0.2,1.2,0.3,1.6,0.5c0.3,0.2,0.6,0.4,0.8,0.7c0.2,0.3,0.3,0.7,0.3,1.2c0,0.4-0.1,0.8-0.3,1.2
		c-0.2,0.4-0.6,0.6-1,0.8c-0.4,0.2-1,0.3-1.6,0.3c-0.9,0-1.6-0.2-2.1-0.6C111.3,85.6,111,85,110.9,84.2z"/>
	<path class="st4" d="M118.1,86.6v-7.3h5.4v1.2h-3.9v1.6h3.7v1.2h-3.7v2h4.1v1.2h-5.6V86.6z"/>
	<path class="st4" d="M124.9,86.6v-7.3h1.5v7.3H124.9z"/>
	<path class="st4" d="M127.8,86.6v-7.2h1.5v6h3.7v1.2H127.8z"/>
	<path class="st4" d="M136.7,86.6v-7.3h5.4v1.2h-3.9v1.6h3.7v1.2h-3.7v2h4.1v1.2h-5.6V86.6z"/>
	<path class="st4" d="M143.5,86.6v-7.3h1.4l3,4.9v-4.9h1.4v7.3h-1.5l-2.9-4.8v4.8H143.5z"/>
	<path class="st4" d="M159.9,86.6h-1.6l-0.6-1.7h-2.9l-0.6,1.7h-1.6l2.8-7.3h1.6L159.9,86.6z M157.2,83.7l-1-2.7l-1,2.7H157.2z"/>
	<path class="st4" d="M160.3,84.2l1.4-0.1c0.1,0.5,0.3,0.8,0.5,1.1c0.3,0.2,0.6,0.3,1.1,0.3s0.8-0.1,1.1-0.3
		c0.2-0.2,0.4-0.4,0.4-0.7c0-0.2-0.1-0.3-0.2-0.4c-0.1-0.1-0.3-0.2-0.5-0.3c-0.2-0.1-0.6-0.2-1.2-0.3c-0.8-0.2-1.3-0.4-1.7-0.7
		c-0.4-0.4-0.7-0.9-0.7-1.5c0-0.4,0.1-0.7,0.3-1s0.5-0.6,0.9-0.7c0.4-0.2,0.9-0.3,1.4-0.3c0.9,0,1.6,0.2,2.1,0.6s0.7,0.9,0.7,1.6
		l-1.5,0.1c-0.1-0.4-0.2-0.6-0.4-0.8s-0.5-0.2-0.9-0.2s-0.8,0.1-1,0.3c-0.2,0.1-0.2,0.3-0.2,0.5s0.1,0.3,0.2,0.4
		c0.2,0.2,0.6,0.3,1.4,0.5c0.7,0.2,1.2,0.3,1.6,0.5s0.6,0.4,0.8,0.7s0.3,0.7,0.3,1.2c0,0.4-0.1,0.8-0.3,1.2c-0.2,0.4-0.6,0.6-1,0.8
		c-0.4,0.2-1,0.3-1.6,0.3c-0.9,0-1.6-0.2-2.1-0.6C160.7,85.6,160.4,85,160.3,84.2z"/>
	<path class="st4" d="M167.1,84.2l1.4-0.1c0.1,0.5,0.3,0.8,0.5,1.1s0.6,0.3,1.1,0.3s0.8-0.1,1.1-0.3s0.4-0.4,0.4-0.7
		c0-0.2-0.1-0.3-0.2-0.4c-0.1-0.1-0.3-0.2-0.5-0.3c-0.2-0.1-0.6-0.2-1.2-0.3c-0.8-0.2-1.3-0.4-1.7-0.7c-0.4-0.4-0.7-0.9-0.7-1.5
		c0-0.4,0.1-0.7,0.3-1s0.5-0.6,0.9-0.7c0.4-0.2,0.9-0.3,1.4-0.3c0.9,0,1.6,0.2,2.1,0.6s0.7,0.9,0.7,1.6l-1.5,0.1
		c-0.1-0.4-0.2-0.6-0.4-0.8s-0.5-0.2-0.9-0.2s-0.8,0.1-1,0.3c-0.2,0.1-0.2,0.3-0.2,0.5s0.1,0.3,0.2,0.4c0.2,0.2,0.6,0.3,1.4,0.5
		c0.7,0.2,1.2,0.3,1.6,0.5s0.6,0.4,0.8,0.7c0.2,0.3,0.3,0.7,0.3,1.2c0,0.4-0.1,0.8-0.3,1.2c-0.2,0.4-0.6,0.6-1,0.8
		c-0.4,0.2-1,0.3-1.6,0.3c-0.9,0-1.6-0.2-2.1-0.6C167.5,85.6,167.2,85,167.1,84.2z"/>
	<path class="st4" d="M174.3,79.3h1.5v4c0,0.6,0,1,0.1,1.2c0.1,0.3,0.2,0.5,0.5,0.7c0.2,0.2,0.6,0.3,1,0.3s0.7-0.1,0.9-0.3
		c0.2-0.2,0.3-0.4,0.4-0.6c0-0.2,0.1-0.7,0.1-1.2v-4h1.5v3.8c0,0.9,0,1.5-0.1,1.9s-0.2,0.7-0.4,0.9c-0.2,0.2-0.5,0.4-0.9,0.6
		s-0.8,0.2-1.4,0.2c-0.7,0-1.2-0.1-1.6-0.2c-0.4-0.2-0.6-0.4-0.9-0.6s-0.3-0.5-0.4-0.8c-0.1-0.4-0.1-1-0.1-1.9v-4H174.3z"/>
	<path class="st4" d="M181.7,86.6v-7.3h3.1c0.8,0,1.3,0.1,1.7,0.2s0.6,0.4,0.8,0.7c0.2,0.3,0.3,0.7,0.3,1.2s-0.2,1-0.5,1.4
		s-0.8,0.6-1.4,0.7c0.3,0.2,0.6,0.4,0.8,0.6s0.5,0.6,0.8,1.2l0.9,1.4h-1.8l-1.1-1.6c-0.4-0.6-0.6-0.9-0.8-1.1s-0.3-0.2-0.4-0.3
		s-0.4-0.1-0.7-0.1h-0.3v3.1L181.7,86.6L181.7,86.6z M183.1,82.4h1.1c0.7,0,1.1,0,1.3-0.1s0.3-0.2,0.4-0.3c0.1-0.1,0.1-0.3,0.1-0.5
		s-0.1-0.4-0.2-0.6c-0.1-0.2-0.3-0.2-0.6-0.3c-0.1,0-0.5,0-1.1,0h-1.2v1.8H183.1z"/>
	<path class="st4" d="M195.6,86.6H194l-0.6-1.7h-2.9l-0.6,1.7h-1.6l2.8-7.3h1.6L195.6,86.6z M192.9,83.7l-1-2.7l-1,2.7H192.9z"/>
	<path class="st4" d="M196.4,86.6v-7.3h1.4l3,4.9v-4.9h1.4v7.3h-1.5l-2.9-4.8v4.8H196.4z"/>
	<path class="st4" d="M208.5,83.9l1.4,0.5c-0.2,0.8-0.6,1.4-1.1,1.8s-1.2,0.6-1.9,0.6c-1,0-1.8-0.3-2.4-1s-0.9-1.6-0.9-2.7
		c0-1.2,0.3-2.2,0.9-2.8c0.6-0.7,1.5-1,2.5-1c0.9,0,1.6,0.3,2.2,0.8c0.3,0.3,0.6,0.8,0.7,1.3l-1.5,0.3c-0.1-0.4-0.3-0.7-0.5-0.9
		c-0.3-0.2-0.6-0.3-1-0.3c-0.5,0-1,0.2-1.3,0.6s-0.5,1-0.5,1.9s0.2,1.6,0.5,2s0.8,0.6,1.3,0.6c0.4,0,0.7-0.1,1-0.4
		S208.3,84.4,208.5,83.9z"/>
	<path class="st4" d="M211.2,86.6v-7.3h5.4v1.2h-3.9v1.6h3.7v1.2h-3.7v2h4.1v1.2h-5.6V86.6z"/>
	<path class="st4" d="M220.8,86.6v-7.3h5.4v1.2h-3.9v1.6h3.7v1.2h-3.7v2h4.1v1.2h-5.6V86.6z"/>
	<path class="st4" d="M229.3,86.6v-6.1h-2.2v-1.2h5.8v1.2h-2.2v6.1H229.3z"/>
	<path class="st4" d="M240.1,83.9v-1.2h3.2v2.9c-0.3,0.3-0.8,0.6-1.3,0.8c-0.6,0.2-1.2,0.3-1.8,0.3c-0.8,0-1.4-0.2-2-0.5
		s-1-0.8-1.3-1.4s-0.4-1.2-0.4-1.9c0-0.8,0.2-1.4,0.5-2s0.8-1,1.4-1.4c0.5-0.2,1.1-0.4,1.7-0.4c0.9,0,1.6,0.2,2.1,0.6s0.8,0.9,1,1.6
		l-1.5,0.3c-0.1-0.4-0.3-0.6-0.6-0.8c-0.3-0.2-0.6-0.3-1.1-0.3c-0.6,0-1.2,0.2-1.5,0.6c-0.4,0.4-0.6,1-0.6,1.8c0,0.9,0.2,1.5,0.6,2
		c0.4,0.4,0.9,0.7,1.5,0.7c0.3,0,0.6-0.1,0.9-0.2c0.3-0.1,0.6-0.3,0.8-0.4v-0.9h-1.6V83.9z"/>
	<path class="st4" d="M244.6,86.6v-7.3h5.4v1.2h-3.9v1.6h3.7v1.2h-3.7v2h4.1v1.2h-5.6V86.6z"/>
	<path class="st4" d="M251.1,84.2l1.4-0.1c0.1,0.5,0.3,0.8,0.5,1.1s0.6,0.3,1.1,0.3s0.8-0.1,1.1-0.3s0.4-0.4,0.4-0.7
		c0-0.2-0.1-0.3-0.2-0.4c-0.1-0.1-0.3-0.2-0.5-0.3c-0.2-0.1-0.6-0.2-1.2-0.3c-0.8-0.2-1.3-0.4-1.7-0.7c-0.4-0.4-0.7-0.9-0.7-1.5
		c0-0.4,0.1-0.7,0.3-1s0.5-0.6,0.9-0.7c0.4-0.2,0.9-0.3,1.4-0.3c0.9,0,1.6,0.2,2.1,0.6c0.5,0.4,0.7,0.9,0.7,1.6l-1.5,0.1
		c-0.1-0.4-0.2-0.6-0.4-0.8s-0.5-0.2-0.9-0.2s-0.8,0.1-1,0.3c-0.2,0.1-0.2,0.3-0.2,0.5s0.1,0.3,0.2,0.4c0.2,0.2,0.6,0.3,1.4,0.5
		c0.7,0.2,1.2,0.3,1.6,0.5c0.4,0.2,0.6,0.4,0.8,0.7c0.2,0.3,0.3,0.7,0.3,1.2c0,0.4-0.1,0.8-0.3,1.2c-0.2,0.4-0.6,0.6-1,0.8
		c-0.4,0.2-1,0.3-1.6,0.3c-0.9,0-1.6-0.2-2.1-0.6C251.5,85.6,251.2,85,251.1,84.2z"/>
	<path class="st4" d="M259.9,86.6v-6.1h-2.2v-1.2h5.8v1.2h-2.2v6.1H259.9z"/>
	<path class="st4" d="M264.4,86.6v-7.3h1.5v7.3H264.4z"/>
	<path class="st4" d="M267,83c0-0.7,0.1-1.4,0.3-1.9c0.2-0.4,0.4-0.7,0.7-1c0.3-0.3,0.6-0.5,0.9-0.7c0.5-0.2,1-0.3,1.6-0.3
		c1.1,0,1.9,0.3,2.6,1s1,1.6,1,2.8c0,1.2-0.3,2.1-1,2.8c-0.6,0.7-1.5,1-2.6,1s-2-0.3-2.6-1C267.3,85,267,84.1,267,83z M268.5,82.9
		c0,0.8,0.2,1.5,0.6,1.9s0.9,0.6,1.5,0.6s1.1-0.2,1.4-0.6c0.4-0.4,0.6-1.1,0.6-1.9s-0.2-1.5-0.6-1.9s-0.9-0.6-1.5-0.6
		s-1.1,0.2-1.5,0.6S268.5,82.1,268.5,82.9z"/>
	<path class="st4" d="M275.3,86.6v-7.3h1.4l3,4.9v-4.9h1.4v7.3h-1.5l-2.9-4.8v4.8H275.3z"/>
	<path class="st4" d="M285.5,79.3h2.7c0.6,0,1.1,0,1.4,0.1c0.4,0.1,0.8,0.4,1.1,0.7c0.3,0.3,0.5,0.7,0.7,1.2s0.2,1,0.2,1.7
		c0,0.6-0.1,1.1-0.2,1.6c-0.2,0.5-0.4,1-0.8,1.3c-0.3,0.2-0.6,0.4-1,0.6c-0.3,0.1-0.8,0.2-1.3,0.2h-2.8L285.5,79.3L285.5,79.3z
		 M286.9,80.5v4.8h1.1c0.4,0,0.7,0,0.9-0.1c0.2-0.1,0.4-0.2,0.6-0.3c0.2-0.1,0.3-0.4,0.4-0.7c0.1-0.3,0.1-0.8,0.1-1.3s0-1-0.1-1.3
		s-0.2-0.5-0.4-0.7c-0.2-0.2-0.4-0.3-0.7-0.3c-0.2,0-0.6-0.1-1.2-0.1H286.9z"/>
	<path class="st4" d="M292.8,86.6v-7.3h5.4v1.2h-3.9v1.6h3.7v1.2h-3.7v2h4.1v1.2h-5.6V86.6z"/>
	<path class="st4" d="M299.3,84.2l1.4-0.1c0.1,0.5,0.3,0.8,0.5,1.1s0.6,0.3,1.1,0.3s0.8-0.1,1.1-0.3s0.4-0.4,0.4-0.7
		c0-0.2-0.1-0.3-0.2-0.4s-0.3-0.2-0.5-0.3c-0.2-0.1-0.6-0.2-1.2-0.3c-0.8-0.2-1.3-0.4-1.7-0.7c-0.4-0.4-0.7-0.9-0.7-1.5
		c0-0.4,0.1-0.7,0.3-1s0.5-0.6,0.9-0.7c0.4-0.2,0.9-0.3,1.4-0.3c0.9,0,1.6,0.2,2.1,0.6s0.7,0.9,0.7,1.6l-1.5,0.1
		c-0.1-0.4-0.2-0.6-0.4-0.8c-0.2-0.2-0.5-0.2-0.9-0.2s-0.8,0.1-1,0.3c-0.2,0.1-0.2,0.3-0.2,0.5s0.1,0.3,0.2,0.4
		c0.2,0.2,0.6,0.3,1.4,0.5c0.7,0.2,1.2,0.3,1.6,0.5c0.3,0.2,0.6,0.4,0.8,0.7c0.2,0.3,0.3,0.7,0.3,1.2c0,0.4-0.1,0.8-0.3,1.2
		c-0.2,0.4-0.6,0.6-1,0.8c-0.4,0.2-1,0.3-1.6,0.3c-0.9,0-1.6-0.2-2.1-0.6C299.7,85.6,299.4,85,299.3,84.2z"/>
	<path class="st4" d="M309.3,86.6v-7.3h3.1c0.8,0,1.3,0.1,1.7,0.2c0.4,0.1,0.6,0.4,0.8,0.7c0.2,0.3,0.3,0.7,0.3,1.2s-0.2,1-0.5,1.4
		s-0.8,0.6-1.4,0.7c0.3,0.2,0.6,0.4,0.8,0.6c0.2,0.2,0.5,0.6,0.8,1.2l0.9,1.4H314l-1-1.7c-0.4-0.6-0.6-0.9-0.8-1.1
		c-0.1-0.1-0.3-0.2-0.4-0.3s-0.4-0.1-0.7-0.1h-0.3v3.1H309.3z M310.8,82.4h1.1c0.7,0,1.1,0,1.3-0.1c0.2-0.1,0.3-0.2,0.4-0.3
		c0.1-0.1,0.1-0.3,0.1-0.5s-0.1-0.4-0.2-0.6s-0.3-0.2-0.6-0.3c-0.1,0-0.5,0-1.1,0h-1.2v1.8H310.8z"/>
	<path class="st4" d="M316.6,86.6v-7.3h1.5v7.3H316.6z"/>
	<path class="st4" d="M319.1,84.2l1.4-0.1c0.1,0.5,0.3,0.8,0.5,1.1s0.6,0.3,1.1,0.3s0.8-0.1,1.1-0.3c0.2-0.2,0.4-0.4,0.4-0.7
		c0-0.2-0.1-0.3-0.2-0.4s-0.3-0.2-0.5-0.3c-0.2-0.1-0.6-0.2-1.2-0.3c-0.8-0.2-1.3-0.4-1.7-0.7c-0.4-0.4-0.7-0.9-0.7-1.5
		c0-0.4,0.1-0.7,0.3-1c0.2-0.3,0.5-0.6,0.9-0.7c0.4-0.2,0.9-0.3,1.4-0.3c0.9,0,1.6,0.2,2.1,0.6s0.7,0.9,0.7,1.6l-1.5,0.1
		c-0.1-0.4-0.2-0.6-0.4-0.8s-0.5-0.2-0.9-0.2s-0.8,0.1-1,0.3c-0.2,0.1-0.2,0.3-0.2,0.5s0.1,0.3,0.2,0.4c0.2,0.2,0.6,0.3,1.4,0.5
		c0.7,0.2,1.2,0.3,1.6,0.5c0.3,0.2,0.6,0.4,0.8,0.7s0.3,0.7,0.3,1.2c0,0.4-0.1,0.8-0.3,1.2c-0.2,0.4-0.6,0.6-1,0.8
		c-0.4,0.2-1,0.3-1.6,0.3c-0.9,0-1.6-0.2-2.1-0.6C319.5,85.6,319.2,85,319.1,84.2z"/>
	<path class="st4" d="M332.2,85.7c0.4,0.3,0.8,0.5,1.2,0.6l-0.5,1c-0.2-0.1-0.4-0.2-0.7-0.3c0,0-0.4-0.2-1-0.6
		c-0.5,0.2-1,0.3-1.6,0.3c-1.1,0-2-0.3-2.6-1s-1-1.6-1-2.8c0-1.2,0.3-2.1,1-2.8c0.6-0.7,1.5-1,2.6-1s1.9,0.3,2.6,1
		c0.6,0.7,1,1.6,1,2.8c0,0.6-0.1,1.2-0.3,1.7C332.7,85,332.5,85.3,332.2,85.7z M331,84.8c0.2-0.2,0.3-0.5,0.4-0.8s0.1-0.7,0.1-1.1
		c0-0.8-0.2-1.5-0.6-1.9s-0.9-0.6-1.5-0.6s-1.1,0.2-1.5,0.6s-0.6,1-0.6,1.9s0.2,1.5,0.6,1.9s0.8,0.6,1.4,0.6c0.2,0,0.4,0,0.6-0.1
		c-0.3-0.2-0.6-0.3-0.9-0.5l0.4-0.8C330.1,84.2,330.6,84.5,331,84.8z"/>
	<path class="st4" d="M334.2,79.3h1.5v4c0,0.6,0,1,0.1,1.2c0.1,0.3,0.2,0.5,0.5,0.7s0.6,0.3,1,0.3s0.7-0.1,0.9-0.3
		c0.2-0.2,0.3-0.4,0.4-0.6c0-0.2,0.1-0.7,0.1-1.2v-4h1.5v3.8c0,0.9,0,1.5-0.1,1.9s-0.2,0.7-0.4,0.9c-0.2,0.2-0.5,0.4-0.9,0.6
		c-0.4,0.1-0.8,0.2-1.4,0.2c-0.7,0-1.2-0.1-1.6-0.2c-0.4-0.2-0.6-0.4-0.9-0.6s-0.3-0.5-0.4-0.8c-0.1-0.4-0.1-1-0.1-1.9v-4H334.2z"/>
	<path class="st4" d="M341.6,86.6v-7.3h5.4v1.2h-3.9v1.6h3.7v1.2h-3.7v2h4.1v1.2h-5.6V86.6z"/>
	<path class="st4" d="M348.1,84.2l1.4-0.1c0.1,0.5,0.3,0.8,0.5,1.1s0.6,0.3,1.1,0.3s0.8-0.1,1.1-0.3s0.4-0.4,0.4-0.7
		c0-0.2-0.1-0.3-0.2-0.4s-0.3-0.2-0.5-0.3c-0.2-0.1-0.6-0.2-1.2-0.3c-0.8-0.2-1.3-0.4-1.7-0.7c-0.4-0.4-0.7-0.9-0.7-1.5
		c0-0.4,0.1-0.7,0.3-1s0.5-0.6,0.9-0.7c0.4-0.2,0.9-0.3,1.4-0.3c0.9,0,1.6,0.2,2.1,0.6s0.7,0.9,0.7,1.6l-1.5,0.1
		c-0.1-0.4-0.2-0.6-0.4-0.8c-0.2-0.2-0.5-0.2-0.9-0.2s-0.8,0.1-1,0.3c-0.2,0.1-0.2,0.3-0.2,0.5s0.1,0.3,0.2,0.4
		c0.2,0.2,0.6,0.3,1.4,0.5c0.7,0.2,1.2,0.3,1.6,0.5c0.3,0.2,0.6,0.4,0.8,0.7c0.2,0.3,0.3,0.7,0.3,1.2c0,0.4-0.1,0.8-0.3,1.2
		c-0.2,0.4-0.6,0.6-1,0.8c-0.4,0.2-1,0.3-1.6,0.3c-0.9,0-1.6-0.2-2.1-0.6C348.5,85.6,348.2,85,348.1,84.2z"/>
</g>
</svg>
