<?xml version="1.0" encoding="utf-8"?>
<!-- Generator: Adobe Illustrator 16.0.0, SVG Export Plug-In . SVG Version: 6.00 Build 0)  -->
<!DOCTYPE svg PUBLIC "-//W3C//DTD SVG 1.1//EN" "http://www.w3.org/Graphics/SVG/1.1/DTD/svg11.dtd">
<svg version="1.1" id="Calque_1" xmlns="http://www.w3.org/2000/svg" xmlns:xlink="http://www.w3.org/1999/xlink" x="0px" y="0px"
	 width="150px" height="61px" viewBox="0 0 150 61" enable-background="new 0 0 150 61" xml:space="preserve">
<g>
	<g>
		<path fill="#FFFFFF" d="M19.348,42.842c-1.559,0.822-3.812,1.23-6.755,1.23c-3.438,0-6.22-0.947-8.348-2.836
			c-2.127-1.895-3.191-4.33-3.191-7.321c0-3.452,1.14-6.172,3.42-8.162c2.28-1.991,5.328-2.985,9.145-2.985
			c2.638,0,4.547,0.317,5.727,0.952v5.317c-1.441-0.979-3.052-1.469-4.83-1.469c-1.981,0-3.553,0.526-4.71,1.577
			c-1.157,1.052-1.737,2.503-1.737,4.354c0,1.799,0.554,3.209,1.66,4.235c1.107,1.025,2.63,1.538,4.568,1.538
			c1.718,0,3.401-0.489,5.049-1.467v5.035H19.348z"/>
		<path fill="#FFFFFF" d="M65.653,35.207h-14.6c0.233,2.949,2.281,4.423,6.144,4.423c2.461,0,4.626-0.529,6.489-1.587v4.524
			c-2.068,1.004-4.758,1.505-8.064,1.505c-3.613,0-6.416-0.907-8.413-2.727c-1.996-1.817-2.995-4.354-2.995-7.606
			c0-3.374,1.078-6.045,3.236-8.016c2.152-1.97,4.805-2.956,7.953-2.956c3.263,0,5.788,0.879,7.577,2.637
			c1.783,1.762,2.673,4.143,2.673,7.164V35.207L65.653,35.207z M59.249,31.357c0-2.909-1.295-4.365-3.891-4.365
			c-1.106,0-2.063,0.419-2.874,1.25c-0.808,0.833-1.299,1.87-1.475,3.115H59.249z"/>
		<path fill="#FFFFFF" d="M88.254,43.575H81.72V40.66h-0.086c-1.502,2.274-3.723,3.412-6.665,3.412c-2.172,0-3.88-0.56-5.128-1.676
			c-1.244-1.118-1.87-2.611-1.87-4.476c0-3.939,2.574-6.215,7.717-6.824l6.073-0.731c0-2.223-1.321-3.333-3.975-3.333
			c-2.666,0-5.204,0.718-7.606,2.162v-4.722c0.961-0.449,2.274-0.846,3.946-1.19c1.667-0.344,3.185-0.515,4.554-0.515
			c6.384,0,9.573,2.89,9.573,8.667V43.575z M81.761,35.323v-1.366l-4.062,0.475c-2.245,0.264-3.366,1.184-3.366,2.756
			c0,0.714,0.275,1.3,0.818,1.758c0.547,0.456,1.289,0.685,2.219,0.685c1.296,0,2.351-0.408,3.17-1.222
			C81.354,37.594,81.761,36.568,81.761,35.323z"/>
		<path fill="#FFFFFF" d="M106.991,43.339c-1.018,0.491-2.555,0.733-4.61,0.733c-4.862,0-7.299-2.293-7.299-6.883v-9.305h-3.628
			v-4.621h3.628V18.88l6.887-1.786v6.17h5.022v4.621h-5.022V36.1c0,2.115,0.923,3.172,2.774,3.172c0.728,0,1.479-0.191,2.248-0.573
			V43.339L106.991,43.339z"/>
		<path fill="#FFFFFF" d="M115.25,20.05c-1.169,0-2.124-0.313-2.868-0.942c-0.739-0.627-1.112-1.398-1.112-2.31
			c0-0.938,0.373-1.707,1.112-2.301c0.744-0.596,1.699-0.893,2.868-0.893c1.176,0,2.138,0.297,2.87,0.893
			c0.738,0.594,1.104,1.362,1.104,2.301c0,0.952-0.367,1.732-1.104,2.34C117.388,19.747,116.426,20.05,115.25,20.05z
			 M118.656,43.575h-6.906V23.264h6.906V43.575z"/>
		<path fill="#FFFFFF" d="M146.578,23.264l-8.327,20.312h-7.868l-7.931-20.312h7.385l3.891,12.517
			c0.438,1.416,0.692,2.618,0.766,3.611h0.087c0.101-0.939,0.372-2.103,0.81-3.492l3.978-12.636H146.578L146.578,23.264z"/>
	</g>
	<path fill="none" stroke="#FFFFFF" stroke-width="3" stroke-miterlimit="10" d="M36.305,1.495"/>
	<g>
		<g>
			<path fill="#FFFFFF" d="M37.48,50.966c0.683,0,1.048-0.281,1.048-0.708c0-0.437-0.333-0.668-0.921-0.668
				c-0.282,0-0.444,0.017-0.555,0.036v1.34h0.002H37.48z"/>
			<path fill="#FFFFFF" d="M21.199,13.604v43.565h20.785V13.604H21.199z M24.089,24.274h7.506v3.508
				c1.181-1.839,3.135-3.425,5.625-3.425c0.73,0,0.81,0,1.881,0.158v5.771c-1.071-0.409-1.975-0.613-3.081-0.613
				c-1.502,0-2.494,0.499-3.336,1.499c-0.846,0.996-1.089,2.355-1.089,4.075v9.401h-7.506V24.274z M29.045,54.438h-1.407
				l-0.485-2.475c-0.113-0.579-0.207-1.116-0.273-1.773H26.86c-0.102,0.648-0.195,1.194-0.333,1.773l-0.546,2.475h-1.424
				l-1.365-5.751h1.39l0.436,2.373c0.127,0.683,0.246,1.425,0.34,2.004h0.019c0.094-0.622,0.229-1.313,0.375-2.021l0.486-2.355
				h1.382l0.462,2.424c0.127,0.674,0.221,1.289,0.307,1.929h0.017c0.085-0.64,0.215-1.313,0.335-1.997l0.467-2.355h1.324
				L29.045,54.438z M34.877,54.438h-3.671v-5.751h3.55v1.067h-2.243v1.196h2.116v1.055h-2.116v1.365h2.364V54.438z M39.433,53.978
				c-0.419,0.334-1.119,0.521-2.261,0.521c-0.641,0-1.117-0.043-1.407-0.085v-5.647c0.342-0.07,1.034-0.12,1.68-0.12
				c0.794,0,1.28,0.078,1.701,0.323c0.4,0.215,0.69,0.607,0.69,1.126c0,0.513-0.3,0.992-0.948,1.229v0.017
				c0.656,0.18,1.144,0.676,1.144,1.415C40.031,53.277,39.792,53.688,39.433,53.978z"/>
			<path fill="#FFFFFF" d="M37.497,51.896h-0.441v1.621c0.127,0.018,0.281,0.018,0.502,0.018c0.59,0,1.109-0.221,1.109-0.828
				C38.666,52.127,38.147,51.896,37.497,51.896z"/>
		</g>
		<path fill="#FFFFFF" d="M49.749,54.619c-0.226,0.112-0.73,0.233-1.39,0.233c-1.875,0-2.838-1.168-2.838-2.711
			c0-1.851,1.319-2.878,2.957-2.878c0.637,0,1.12,0.129,1.335,0.241l-0.247,0.974c-0.251-0.104-0.597-0.2-1.03-0.2
			c-0.975,0-1.729,0.586-1.729,1.793c0,1.085,0.644,1.768,1.737,1.768c0.37,0,0.779-0.08,1.021-0.177L49.749,54.619z"/>
		<path fill="#FFFFFF" d="M55.275,52.004c0,1.777-1.075,2.854-2.662,2.854c-1.609,0-2.546-1.215-2.546-2.757
			c0-1.625,1.036-2.84,2.635-2.84C54.368,49.262,55.275,50.508,55.275,52.004z M51.362,52.078c0,1.063,0.495,1.81,1.318,1.81
			c0.827,0,1.302-0.79,1.302-1.843c0-0.973-0.465-1.811-1.31-1.811C51.842,50.234,51.362,51.024,51.362,52.078z"/>
		<path fill="#FFFFFF" d="M60.666,52.695c-0.021-0.65-0.048-1.439-0.048-2.228h-0.023c-0.167,0.69-0.395,1.466-0.602,2.099
			l-0.66,2.115h-0.958l-0.579-2.098c-0.176-0.637-0.361-1.407-0.489-2.116h-0.017c-0.031,0.732-0.057,1.568-0.097,2.246
			l-0.098,2.056h-1.132l0.346-5.419h1.633l0.528,1.808c0.169,0.63,0.338,1.306,0.459,1.939h0.024
			c0.152-0.628,0.336-1.341,0.515-1.944l0.579-1.803h1.601l0.297,5.419h-1.2L60.666,52.695z"/>
		<path fill="#FFFFFF" d="M67.472,52.695c-0.022-0.65-0.048-1.439-0.048-2.228H67.4c-0.167,0.69-0.393,1.466-0.603,2.099
			l-0.661,2.115h-0.955l-0.58-2.098c-0.175-0.637-0.36-1.407-0.49-2.116h-0.018c-0.032,0.732-0.054,1.568-0.097,2.246l-0.092,2.056
			h-1.138l0.348-5.419h1.632l0.532,1.808c0.169,0.63,0.334,1.306,0.457,1.939h0.022c0.155-0.628,0.338-1.341,0.515-1.944
			l0.579-1.803h1.603l0.294,5.419h-1.196L67.472,52.695z"/>
		<path fill="#FFFFFF" d="M70.92,49.351v3.12c0,0.936,0.352,1.409,0.979,1.409c0.644,0,0.997-0.452,0.997-1.409v-3.12h1.224v3.038
			c0,1.674-0.845,2.47-2.261,2.47c-1.366,0-2.168-0.755-2.168-2.484v-3.023H70.92L70.92,49.351z"/>
		<path fill="#FFFFFF" d="M75.185,54.77v-5.419h1.43l1.126,1.985c0.322,0.57,0.643,1.248,0.886,1.859h0.021
			c-0.08-0.716-0.104-1.447-0.104-2.261v-1.584h1.127v5.419h-1.287l-1.158-2.092c-0.318-0.576-0.678-1.276-0.94-1.912l-0.024,0.007
			c0.03,0.717,0.048,1.479,0.048,2.364v1.633H75.185z"/>
		<path fill="#FFFFFF" d="M81.964,49.351v5.419h-1.23v-5.419H81.964z"/>
		<path fill="#FFFFFF" d="M87.005,54.619c-0.224,0.112-0.729,0.233-1.389,0.233c-1.875,0-2.838-1.168-2.838-2.711
			c0-1.851,1.318-2.878,2.958-2.878c0.637,0,1.117,0.129,1.333,0.241l-0.247,0.974c-0.25-0.104-0.597-0.2-1.031-0.2
			c-0.971,0-1.726,0.586-1.726,1.793c0,1.085,0.642,1.768,1.735,1.768c0.371,0,0.779-0.08,1.023-0.177L87.005,54.619z"/>
		<path fill="#FFFFFF" d="M89.156,53.378L88.77,54.77H87.5l1.656-5.419h1.608l1.678,5.419h-1.314l-0.419-1.392H89.156z
			 M90.532,52.464l-0.336-1.149c-0.1-0.324-0.196-0.726-0.274-1.048h-0.018c-0.079,0.322-0.16,0.73-0.249,1.048l-0.324,1.149H90.532
			z"/>
		<path fill="#FFFFFF" d="M93.551,50.381h-1.456v-1.03h4.165v1.03h-1.479v4.389h-1.232v-4.389H93.551z"/>
		<path fill="#FFFFFF" d="M98.143,49.351v5.419h-1.229v-5.419H98.143z"/>
		<path fill="#FFFFFF" d="M104.167,52.004c0,1.777-1.077,2.854-2.661,2.854c-1.608,0-2.548-1.215-2.548-2.757
			c0-1.625,1.035-2.84,2.637-2.84C103.258,49.262,104.167,50.508,104.167,52.004z M100.251,52.078c0,1.063,0.5,1.81,1.319,1.81
			c0.83,0,1.305-0.79,1.305-1.843c0-0.973-0.469-1.811-1.311-1.811C100.735,50.234,100.251,51.024,100.251,52.078z"/>
		<path fill="#FFFFFF" d="M104.976,54.77v-5.419h1.431l1.127,1.985c0.32,0.57,0.645,1.248,0.883,1.859h0.024
			c-0.081-0.716-0.104-1.447-0.104-2.261v-1.584h1.125v5.419h-1.285l-1.157-2.092c-0.323-0.576-0.677-1.276-0.943-1.912
			l-0.023,0.007c0.033,0.717,0.048,1.479,0.048,2.364v1.633H104.976z"/>
		<path fill="#FFFFFF" d="M112.154,49.424c0.449-0.073,1.034-0.113,1.654-0.113c1.027,0,1.696,0.186,2.217,0.579
			c0.567,0.42,0.919,1.086,0.919,2.044c0,1.036-0.378,1.751-0.901,2.195c-0.571,0.473-1.438,0.699-2.5,0.699
			c-0.637,0-1.087-0.04-1.391-0.08v-5.324H112.154z M113.381,53.846c0.104,0.023,0.273,0.023,0.428,0.023
			c1.109,0.011,1.831-0.603,1.831-1.896c0.009-1.126-0.65-1.721-1.703-1.721c-0.272,0-0.451,0.024-0.556,0.046V53.846
			L113.381,53.846z"/>
		<path fill="#FFFFFF" d="M118.982,49.351v5.419h-1.231v-5.419H118.982z"/>
		<path fill="#FFFFFF" d="M124.572,54.521c-0.381,0.129-1.096,0.306-1.807,0.306c-0.991,0-1.709-0.248-2.206-0.733
			c-0.499-0.464-0.771-1.17-0.766-1.97c0.009-1.801,1.319-2.828,3.099-2.828c0.698,0,1.238,0.137,1.502,0.267l-0.258,0.981
			c-0.298-0.129-0.666-0.233-1.263-0.233c-1.021,0-1.792,0.578-1.792,1.753c0,1.116,0.698,1.776,1.703,1.776
			c0.281,0,0.507-0.031,0.603-0.08v-1.134h-0.836v-0.957h2.021V54.521L124.572,54.521z"/>
		<path fill="#FFFFFF" d="M126.763,49.351v5.419h-1.232v-5.419H126.763z"/>
		<path fill="#FFFFFF" d="M128.87,50.381h-1.454v-1.03h4.165v1.03H130.1v4.389h-1.229V50.381L128.87,50.381z"/>
		<path fill="#FFFFFF" d="M132.92,53.378l-0.389,1.392h-1.273l1.66-5.419h1.608l1.68,5.419h-1.318l-0.42-1.392H132.92z
			 M134.293,52.464l-0.338-1.149c-0.097-0.324-0.192-0.726-0.274-1.048h-0.016c-0.081,0.322-0.158,0.73-0.25,1.048l-0.32,1.149
			H134.293z"/>
		<path fill="#FFFFFF" d="M136.931,49.351h1.233v4.391h2.155v1.028h-3.389V49.351L136.931,49.351z"/>
		<path fill="#FFFFFF" d="M144.271,52.479h-1.995v1.287h2.227v1.003h-3.455v-5.419h3.343v1.008h-2.114v1.125h1.995V52.479z"/>
	</g>
</g>
<ellipse fill="#FFFFFF" cx="115.245" cy="16.836" rx="4.134" ry="3.299"/>
</svg>
