<?xml version="1.0" encoding="utf-8"?>
<!-- Generator: Adobe Illustrator 22.0.0, SVG Export Plug-In . SVG Version: 6.00 Build 0)  -->
<svg version="1.1" id="Calque_1" xmlns="http://www.w3.org/2000/svg" xmlns:xlink="http://www.w3.org/1999/xlink" x="0px" y="0px"
	 viewBox="0 0 200 200" style="enable-background:new 0 0 200 200;" xml:space="preserve">
<style type="text/css">
	.st0{fill:#CBCBFE;}
	.st1{fill:#8280F8;}
	.st2{fill:#2A3554;}
	.st3{fill:#6C5EF0;}
	.st4{fill:#161642;}
	.st5{fill:#827FF8;}
	.st6{fill:#F4AA85;}
	.st7{fill:#5446CE;}
	.st8{fill:#F78165;}
	.st9{fill:#F78769;}
	.st10{fill:#5B4152;}
	.st11{fill:#664352;}
	.st12{fill:#445279;}
	.st13{fill:#FEFEFE;}
	.st14{fill:#E2E2FE;}
	.st15{fill:#B5B5EE;}
	.st16{fill:#D4D0F1;}
	.st17{fill:#A9A2E6;}
	.st18{fill:#9499A9;}
	.st19{fill:#F0F0FE;}
	.st20{fill:#8B8B97;}
	.st21{fill:#A1A8BB;}
	.st22{fill:#D0D3DD;}
	.st23{fill:#9EA4B6;}
	.st24{fill:#F7F7FE;}
	.st25{fill:#C9CCD4;}
	.st26{fill:#8A8A97;}
	.st27{fill:#E5E5FE;}
	.st28{fill:#C5C5CC;}
	.st29{fill:none;stroke:#C0A6EF;stroke-width:2;stroke-miterlimit:10;}
</style>
<g>
	<path class="st0" d="M167.6,158.4c1.8,0,3.5,0.3,5.1,0.7c0.8,0.2,2.1,0.4,2.1,1.4c0,0.8-1.2,1.1-2,1.3c-1.2,0.3-2.4,0.6-3.6,0.7
		c-5.3,0.6-10.6,1.2-15.9,1.4c-4.6,0.2-9.2,0.4-13.8,0.7c-3.4,0.2-6.9,0.1-10.3,0.3c-18.6,0.8-37.3,0.3-55.9,0.3
		c-6.3,0-12.6-0.4-18.9-0.6c-5.1-0.2-10.2-0.5-15.3-1c-4.1-0.4-8.1-0.7-12.1-1.7c-0.4-0.1-0.8-0.2-1.1-0.3c-0.6-0.1-1.2-0.4-1.1-1.1
		c0-0.6,0.6-0.9,1.2-1c0.7-0.2,1.4-0.4,2.1-0.6c1.2,0.3,2.3,0.5,3.1-0.7c3.6-0.6,7.3-1.5,11-0.8c0.6,0.5,0.6,1.3,0.7,2
		c0.2,1,0.6,1.5,1.7,1.5c2.1,0,4.1,0,6.2,0c0.5,0,1.1,0,1.3-0.6c0.1-0.6-0.5-0.8-0.9-1c-0.4-0.2-0.9-0.4-1.3-0.7
		c-0.3-0.2-0.6-0.5-0.8-0.8c-0.4-0.6-0.2-1,0.4-1.1c1.1-0.2,2.2-0.4,2.9,0c-2-1.2-4.6-2.4-6.3-4.7c-0.2-0.4-0.3-0.9-0.3-1.3
		c0-5.9-0.9-11.7-0.7-17.6c0.8-4.5,1.5-8.9,2.2-13.4c0.1-0.7,0.2-1.4,0.6-2.1c0.8-1.1,0.5-2.3,0.7-3.5c0.1-0.6,0.2-1.3,0.5-1.9
		c0.4-0.5,0.8-1,1.5-0.4c0.4,0.8,0.3,1.6,0.3,2.5c0,4.3,0,8.7,0,13c0,2.7,0.5,3.1,3.2,3.1c2,0,4-0.2,6.1,0.2
		c0.5,0.2,0.8,0.6,0.9,1.1c0.7,2.5,2,4.7,3.3,7c0.6,1.1,1.1,2.3,1.5,3.6c0.2,0.6,0.3,1.3-0.3,1.8c-0.7-0.3-0.8-1-1.1-1.7
		c-0.7-1.8-1.4-3.5-2.6-5.1c-0.4-0.5-0.7-1-1.3-1.3c-0.6-0.4-1.2-0.7-1.9-0.3c-0.7,0.4-0.7,1.1-0.7,1.7c0,1,0.4,2,0.9,2.9
		c1,1.7,2.3,3.2,3.4,4.8c0.4,0.6,1,1.2,0.7,2.1c-0.7,1-0.9,2.1-0.9,3.3c0,2.6,0,5.3,0,7.9c0,2.2,0.1,2.3,2.4,2.3c3,0,6-0.1,8.9,0.1
		c1.3,0.3,2.1-0.3,2.9-1.2c1.2-1.4,1.3-1.4,2,0.2c0.3,0.6,0.7,0.8,1.3,0.9c0.6,0,1.1,0,1.7,0c9.9,0,19.8,0,29.8,0
		c1.7,0.3,3.4,0.3,5,0.3c11.3,0,22.5,0,33.8,0c0.8,0,2,0.5,2.4-0.8c-0.4-1.1-1.4-0.7-2.2-0.8c-4.5-0.1-9,0-13.5,0
		c-5.4,0-10.8,0-16.2,0c-0.9,0-2.6,0.4-2.6-0.8c0-1.3,1.6-0.9,2.5-0.9c10.2,0,20.3,0,30.5,0c-10.2,0-20.4,0-30.5,0
		c-0.9,0-2.4,0.3-2.4-0.8c0-1.3,1.6-0.9,2.5-0.9c10.2,0,20.4,0,30.5,0c-10.2,0-20.3,0-30.5,0c-0.7,0-1.4,0.1-2-0.2
		c-0.3-0.1-0.7-0.2-0.7-0.7c0-0.4,0.3-0.6,0.6-0.7c0.8-0.3,1.6-0.2,2.3-0.2c9.7,0,19.4,0,29.1,0c0.9,0,1.9,0.4,2.6-0.6
		c0.1-1.1-0.8-0.9-1.4-1c-1.3-0.1-2.7,0-4,0c-0.7,0-1.3,0-1.9-0.4c-0.2-0.2-0.3-0.5-0.4-0.8c-0.6-1.1-1.7-0.7-2.6-0.7
		c-8.6,0-17.1,0-25.7,0c-1.6,0-3.2,0-4.7,0c-0.6,0-1.1,0-1.7-0.3c-0.3-0.2-0.6-0.4-0.5-0.8c0-0.5,0.3-0.7,0.7-0.8
		c0.6-0.1,1.1-0.1,1.7-0.1c10.2,0,20.4,0,30.6,0c-10.3,0-20.6,0-30.9,0c-0.7,0-2,0.4-2.1-0.8c0-1.4,1.3-0.9,2.1-0.9
		c10.4,0,20.8,0,31.2,0c-10.4,0-20.7,0-31.1,0c-0.8,0-2.2,0.5-2.2-0.8c0-1.3,1.4-1,2.3-1c10.1,0,20.2,0,30.3-0.1
		c0.9,0,2,0.4,2.6-0.7c0.1-0.3,0.2-0.6,0.4-0.8c1.2-0.8,2.6-0.3,3.9-0.5c0.5-0.1,1.4,0.3,1.3-0.8c-0.8-0.8-1.8-0.5-2.7-0.5
		c-9.6,0-19.3,0-28.9,0c-0.8,0-1.6,0.1-2.3-0.2c-0.5-0.2-0.8-0.4-0.7-1c0.1-0.5,0.4-0.6,0.8-0.7c0.4-0.1,0.9,0,1.4,0
		c10.1,0,20.3,0,30.4,0c-10.1,0-20.3,0-30.4,0c-0.8,0-2.2,0.5-2.2-0.8c0-1.4,1.4-0.8,2.1-0.8c10.3,0,20.6,0,30.9,0
		c-10.2,0-20.4,0-30.6,0c-0.6,0-1.1,0-1.7,0c-0.4,0-0.8-0.2-0.8-0.7c-0.1-0.5,0.3-0.8,0.7-1c0.8-0.2,1.6-0.2,2.3-0.2
		c9.8,0,19.5,0,29.3,0c0.8,0,1.8,0.5,2.3-0.7c-0.4-1-1.3-0.6-1.9-0.6c-11.4,0-22.8,0-34.3,0c-0.8,0-1.6,0.1-2.3-0.4
		c-0.4-0.4-0.4-1,0-1.3c1.1-1,1.9-2.3,3.4-2.9c0.8-0.2,1.6-0.2,2.4-0.2c11.2,0,22.5,0,33.7,0c0.8,0,1.6,0,2.3,0.2
		c1.1,0.6,0.7,1.5,0.5,2.4c-0.6,2.9-0.9,5.8-0.5,8.7c0.7,4.5,2.5,8.4,5.8,11.5c0.4,0.4,0.8,0.8,1.1,1.3c0.1,0.2,0.2,0.5,0.2,0.8
		c0.1,0.9,0.3,1.7,0.4,2.6c0.1,2.7,1.1,3.8,3.2,3.7c1.2,0,2-0.6,2.6-1.6C166.9,159.2,167,158.7,167.6,158.4z"/>
	<path class="st1" d="M34.1,84.9c2-1.4,3.9-2.7,6.5-2.6c0.1,0,0.2,0.1,0.3,0.1c1.9,1.6,1.9,1.6,3.8,0.2c1.9,1,3.9,1.8,5.3,3.4
		c1.3,0.8,0.8,2,0.9,3.1c0,4.2-0.2,8.5-0.6,12.7c-0.2,1,0,2-0.2,2.9c-0.1,0.4-0.3,0.8-0.7,0.9c-2.3,1-4.4,2.5-6.9,3
		c-1.7-0.5-2.8-2-4.1-3.1c-1.2-1-2.2-2.3-3.4-3.3c-1.4-1.2-1.8-2.7-1.5-4.5c0.5-3.1,1-6.1,0.9-9.2C34.4,87.3,34,86.1,34.1,84.9z"/>
	<path class="st2" d="M153.7,130.7c-13.1,0-26.2,0-39.3,0c0.3-1.5,0.9-2.7,2.5-3.2c3.5-0.2,7.1-0.1,10.6-0.1c6.9,0,13.9,0,20.8,0
		c3.4,0,3.7-0.3,3.7-3.8c0-17.6,0-35.3,0-52.9c0-0.8,0-1.6,0-2.4c0-0.8,0-1.6,0-2.4c0-2.3-0.6-2.8-2.8-2.8c-2-0.1-4.1,0.2-6.1-0.1
		c-0.8-0.3-0.6-0.9-0.3-1.4c0.4-0.7,0.9-1.3,1.7-1.6c0.1,0,0.2,0,0.3,0c2.7,0,5.4,0,8.1,0c1.7,0,2.4,0.6,2.4,2.4
		c0,7,0,13.9,0.1,20.9c0.6,0.8,0.5,1.7,0.5,2.6c0,6.1,0.1,12.2-0.1,18.4c0.1,0.7-0.2,1.4-0.3,2.1c0.3,1.4,0.3,2.8,0.3,4.2
		c-0.1,4.9,0.1,9.9,0,14.8c0,1.1,0.1,2.2-0.1,3.3C155.6,129.9,155.2,131,153.7,130.7z"/>
	<path class="st2" d="M50.4,89c-0.2-1,0.3-2.1-0.4-3c0-7.7,0-15.4,0.1-23.1c0-2.4,0.6-2.9,2.9-2.9c18.2,0,36.4,0,54.6,0
		c0.2,0.1,0.3,0.3,0.4,0.5c0.2,0.9,0.3,1.7-0.4,2.4c-1,0.5-2,0.3-3,0.3c-15.5,0-30.9,0-46.4,0c-0.6,0-1.1,0-1.7,0
		c-2.3,0.1-3,0.7-3.1,3c0,0.6,0,1.2-0.1,1.9c0.1,9.1,0,18.1,0,27.2c0,0.5,0,1-0.2,1.5c-1,1-1.2-0.2-1.4-0.7c-0.8-1.9-1-3.9-1.1-5.9
		C50.6,89.7,50.7,89.3,50.4,89z"/>
	<path class="st3" d="M114.1,57.1c0.5-1.7,1.6-3.2,1.7-5c0.2-1.4-0.2-2.9,1.4-3.8c0.9,0.8,1.1,1.9,0.9,2.9c-0.3,1.9-0.1,3.7,0.7,5.5
		c0.9-0.5,1.9-0.4,2.9-0.4c1,0,1.9-0.2,2.8-0.4c0.6-0.1,1.5-0.4,1.8,0.4c0.3,0.9-0.8,0.7-1.3,1.1c1.1-0.4,2.2-0.5,3.3-0.4
		c1.2,0.1,1.6-0.5,1.3-1.7c-0.6-2.2-1.3-4.3-1-6.6c0.1-1,0.2-2,1.2-2.7c1.9,0.5,2.4,2.2,3,3.7c0.8,2.1,1.5,4.3,2,6.5
		c0.3,1.2,0.8,1.3,1.7,1.3c3.4,0,6.7,0,10.2,0c-0.2,1.2-1.4,1.5-1.7,2.4c0,0,0,0,0,0c-0.9,0.6-1.9,0.4-2.9,0.5c-1.5,0-3,0-4.5,0
		c-1,0-2,0.2-2.8,0.8c-1.6,1.1-3.4,1.8-5.1,2.6c-1.1,0.4-2.3,0.7-3.4,1.1c-1.2,0.3-2.4,0.7-3.6,0.2c-0.7-0.7-1.1-1.5-0.9-2.6
		c0.5-1.1,1.8-1.3,2.6-1.8c-2.8-0.2-5.7,0.3-8.6-0.3c-0.6-0.5-0.1-0.8,0.1-1.1c0.9-1.4,0.9-1.5-0.8-1.8
		C114.6,57.5,114.3,57.5,114.1,57.1z"/>
	<path class="st0" d="M150.6,49.1c-4.3,0-8.6,0-12.9,0c-1,0-2.2,0.1-2.3-1.3c-0.1-1.3,1.1-1.3,1.8-1.8c2-1.4,3.9-2.2,6.4-1.5
		c0.7,0.2,1.5-1.4,2.7-1.5c1.5-0.2,2.8-0.6,4.1-1.8c2.3-2,6.2-1.1,7.8,1.5c0.5,0.7,0.8,1.3,1.9,1c0.9-0.2,1.8,0.2,2.4,0.9
		c0.7,0.7,1.3,1.5,2.4,1.7c0.7,0.2,1,0.9,0.8,1.6c-0.3,0.9-0.9,1.2-1.8,1.2C159.5,49,155,49.1,150.6,49.1z"/>
	<path class="st0" d="M50.6,48.1c-4.4,0-8.8,0-13.2,0c-1.2,0-2-0.3-1.9-1.7c0-0.2,0.2-0.6,0.3-0.6c2.3,0,3.5-3.1,6-2.4
		c1.4,0.4,2.4,0.1,3.3-0.8c0.2-0.2,0.4-0.3,0.6-0.3c2.4,0.2,4-1.5,5.9-2.6c2.2-1.3,5.5-0.2,6.8,2c0.4,0.8,0.7,1.4,1.9,1
		c1-0.3,2,0.4,2.7,1.1c0.7,0.7,1.1,1.6,2.3,1.6c0.6,0,0.6,0.7,0.5,1.3c-0.1,0.8-0.6,1.3-1.3,1.3c-1.2,0.1-2.4,0-3.5,0
		C57.6,48.1,54.1,48.1,50.6,48.1z"/>
	<path class="st0" d="M117.1,48.4c-0.8,1.1-0.5,2.6-1.3,3.7c-7.7,0-15.4,0-23.1,0c-0.9,0-1.9,0.2-1.9-1.2c-0.1-1.2,0.6-1.6,1.7-1.5
		c0.5,0,0.9-0.2,1.1-0.6c0.9-1.5,2.4-1.7,3.8-1.3c1.2,0.3,1.9-0.4,2.9-0.6c2.5-0.7,4.6-2,6.9-3.1c2.2-1.1,4.5-0.3,6.1,1.8
		c0.7,1,1.3,1.8,2.7,1.4c0.3-0.1,0.8,0.1,1.1,0.2c0.3,0,0.4,0.2,0.5,0.4C117.6,47.8,117.5,48.2,117.1,48.4z"/>
	<path class="st0" d="M155.4,104.6c0-7.1,0-14.2,0-21.3c4.5,2.7,7.5,6.6,8.6,11.7c1.2,5.5,0.7,10.9-1.5,16.1c-1.1-1.6-0.7-3.4-1-5.1
		c-0.4-1.9-1.5-3.5-2.3-5.2c-0.4-0.7-0.7-1.5-1.2-2.4c-0.3,0.9-0.6,1.8-0.8,2.6C156.4,102,156.7,103.7,155.4,104.6z"/>
	<path class="st1" d="M117.1,48.4c0.1-0.3,0.2-0.6,0.3-0.9c0.6-0.8,1.4-1,2.3-0.9c0.2,0.1,0.4,0.2,0.6,0.4c1.2,0.9,1.9,0.9,2.8-0.2
		c0.3-0.4,0.5-1,1-1.3c0.6-0.2,1.2-0.2,1.8,0.2c1.2,0.6,2.5,0.3,3.7,0.4c-1,2.3-1,4.7-0.2,7c0.3,1,0.5,1.9,0.8,2.9
		c0.3,1.1-0.1,1.6-1.2,1.5c-1.5-0.1-2.9,0-4.5,0c0.4-0.6,1.4-0.2,1.6-1.1c-0.5-0.5-0.9-0.2-1.4,0c-1.9,0.9-4,0-5.9,0.8
		c-0.3,0.1-0.3-0.2-0.4-0.4c-0.8-1.4-1.3-3-0.9-4.5C117.9,50.8,117.6,49.6,117.1,48.4z"/>
	<path class="st3" d="M34.1,84.9c1.3,2.6,0.7,5.3,0.6,7.9c-0.1,1.9-0.6,3.9-0.9,5.8c-0.2,1,0.1,1.9,0.9,2.7c2.3,2.2,4.5,4.4,6.9,6.5
		c0.3,0.3,0.6,0.5,1,0.5c0.4,0.2,0.6,0.6,0.6,1c-0.1,1.1-0.9,1.7-1.7,2.2c-1.2,0.3-2.1-0.4-3.1-0.8c-2.1-1.2-4.1-2.5-5.8-4.2
		c-0.5-0.5-0.9-1-1.2-1.6c-2.8-2.1-2.1-5.1-1.7-7.8c0.4-2.9,0.8-5.9,1.9-8.7C32.3,87,32.9,85.8,34.1,84.9z"/>
	<path class="st0" d="M33.9,137.4c-2.7-4.6-4.7-9.4-5.3-14.7c-0.5-4.3-0.3-8.6,2.2-12.4c0.8,0.8,0.5,1.8,0.4,2.7
		c-0.1,1-0.2,1.9,0.3,2.8c1.7,5.3,3.5,10.5,6.1,15.4c0.2,0.3,0.3,0.6,0.2,1C36.5,134,35.7,136.1,33.9,137.4z"/>
	<path class="st4" d="M33.9,137.4c1.2-1.7,2.1-3.7,3.7-5.1c1.1,0.5,1.5,1.6,1.8,2.7c0.4,1.7,0.6,3.5,0.7,5.2
		c-0.1,1.5-1.4,2.1-2.2,3.1c-2.1,2.6-4.5,5-6.7,7.6c-0.4,0.5-0.9,1-1.7,0.9c-0.9-0.6-2-1.1-2.4-2.3c-0.5-0.5-0.1-0.9,0.2-1.4
		c2.2-3.4,4.4-6.9,6.6-10.4C33.9,137.7,33.9,137.6,33.9,137.4z"/>
	<path class="st2" d="M125.9,45.7c-0.7,0-1.3,0-2,0c-0.3-0.1-0.5-0.4-0.6-0.8c-0.1-0.2-0.1-0.5-0.1-0.8c0.2-1.2,0.4-2.3,0.7-3.4
		c0.1-0.3,0.2-0.6,0.3-0.9c0.1-0.3,0.2-0.5,0.2-0.8c0-0.5,0.2-1.2-0.5-1.2c-0.6,0-0.5,0.6-0.5,1.1c0,0.4,0.1,0.8-0.4,1
		c-0.4,0.1-0.6-0.2-0.8-0.5c-0.4-0.9-1-0.3-1.6-0.3c-0.2,0-0.3,0.1-0.5,0.1c-0.3,0-0.6,0-0.8-0.3c-0.8-1.3-1.9-1.4-2.9-0.2
		c1.2,0,2.1,1,1.6,2.1c-0.2,0.4-0.5,0.7-0.9,0.4c-1.1-0.9-1.1,0.3-1.5,0.8c-0.9,0.3-0.9-0.6-1.4-1c0.3,0.4,0.3,0.7-0.1,1
		c-2.2-3.6-1.2-7.7,2.4-9.1c2.9-1.1,6.2-0.7,7.8,2.6c1,2,1.8,4.1,3.5,5.8c1.2,1.1,0.6,2.9-0.9,3.8C126.8,45.3,126.1,45.1,125.9,45.7
		z"/>
	<path class="st1" d="M31.2,116.1c-1-0.7-0.9-1.8-0.6-2.7c0.3-1.1,0.2-2.1,0.2-3.1c0.5-1.8,0.1-3.7,0.8-5.4c2.1,2.1,4.4,4,7.1,5.4
		c0.1,0.8-0.7,0.9-1.2,1.2c-1.5,1-1.8,1.9-1,3.3c0.8,1.4,1.7,1.7,3.4,1c1.5-0.7,2.9-1.4,4.4-1.9c1.8,0.2,2.9-1,4.1-2
		c0.2-0.1,0.5-0.1,0.7,0.1c-0.1,1.5-0.2,3.1-0.3,4.6c0,0.4-0.3,0.7-0.7,0.9c-1.5,1.1-3.3,0.8-5.1,0.8c-0.7,0-1.5,0-2.2,0
		c-2.4,0-4.8-0.4-7.1-1c-0.4-0.1-0.8-0.3-1.3-0.4C32,116.7,31.5,116.5,31.2,116.1z"/>
	<path class="st0" d="M166.5,87.5c-0.2-0.1-0.4,0.2-0.6,0.4c-0.4,0.3-0.7,1-1.3,0.3c-0.5-0.6-1.3-0.9-0.5-1.9
		c0.6-0.8,0.2-1.6-0.9-1.6c-0.9,0-1.1-0.6-1.2-1.3c-0.1-0.8,0.3-1,1-1.2c1.2-0.4,1.8-1.1,0.6-2.2c-0.8-0.8-0.2-1.3,0.2-1.8
		c0.5-0.7,1.1-0.8,1.6,0c0.3,0.4,0.7,0.6,1.3,0.4c0.8-0.3,0.2-0.7,0.3-1.1c0-0.6,0.2-1,0.9-1c0.8,0,1.6-0.1,1.7,0.9
		c0.3,1.5,0.9,1.3,1.7,0.4c0.5-0.5,0.9-0.8,1.5-0.1c0.5,0.5,1.1,1,0.5,1.8c-0.9,1.1-0.5,1.7,0.8,1.7c0.8,0,1.2,0.3,1.1,1.1
		c0,0.6,0.1,1.1-0.8,1.3c-1.2,0.3-1.5,1.5-0.6,2.3c0.9,0.7,0.4,1.1,0,1.6c-0.4,0.5-0.9,1.1-1.6,0.3c-0.9-0.9-1.5-0.7-1.7,0.6
		c-0.1,0.8-0.3,1.2-1.2,1.3c-0.9,0-1.2-0.3-1.2-1.1C167.9,87.7,167.1,87.7,166.5,87.5z"/>
	<path class="st0" d="M85.6,51.3c0.1,0.9-0.2,1.3-1.1,1.2c-0.3,0-0.7-0.4-0.9,0.3c-0.1,0.5-0.1,0.9,0.3,1.2c1.1,0.8,0.5,1.3-0.2,2
		c-0.8,0.8-1.2,0.4-1.7-0.2c-0.9-1.1-1.4-0.3-1.8,0.5c-0.3,0.6-0.3,1.5-1.4,1.3c-0.9-0.2-1.3-0.6-1.2-1.6c0-0.8-0.8-0.9-1.5-0.5
		c-0.9,0.6-1.4,0.1-2-0.5c-0.8-0.7-0.1-1,0.3-1.5c0.6-0.8,0.2-1.9-0.7-2c-0.7-0.1-1.3-0.1-1.1-1c0.1-0.7,0.3-1.4,1.2-1.4
		c1.5,0,1.9-0.5,0.7-1.7c-0.5-0.5-0.6-1,0-1.4c0.6-0.3,1-1.4,1.9-0.4c1.1,1.1,1.8,1,2.2-0.6c0.3-0.9,0.9-0.6,1.5-0.7
		c0.6-0.1,0.9,0.3,0.9,0.9c0,1.6,0.8,1.8,1.9,1c1-0.8,1.2,0.2,1.7,0.6c0.7,0.5,0.2,1-0.2,1.4c-1,0.9-0.8,1.4,0.4,1.7
		C85.5,50,85.7,50.5,85.6,51.3z"/>
	<path class="st3" d="M161.8,105.5c0.6,1.8,0.5,3.7,0.7,5.5c0.5,5.6,1,11.2,1.7,16.8c0.6,5.5,1.2,11.1,1.7,16.6
		c0.3,3.3,1,6.6,0.9,10c-0.4,0.4-0.8,0.7-1.2,0.1c-0.8-3.2-0.8-6.5-1.2-9.7c-0.6-5.1-1.1-10.3-1.6-15.4c-0.5-5-1.1-9.9-1.5-14.9
		c-0.2-2.5-0.6-5-0.8-7.6c0-0.4-0.1-0.8,0.1-1.1C161,105.3,161.4,105.3,161.8,105.5z"/>
	<path class="st2" d="M47.7,75.8c-0.8-1.1-1.9-1.1-3-1c-0.7,0-0.6-0.4-0.3-0.8c0.3-0.4,0.9-0.3,1.4-0.5c-1.7,0.2-3.5-2.2-5.2,0.2
		c-1,0.9-1.5,1-1.8-0.6c-0.6-2.8,0-3.6,2.7-4.2c2.3-0.6,4.4,0.4,6.6,0.1c0.2,0,0.5,0,0.6,0.1c0.8,0.5,1,4.1,0.1,4.6
		c-0.8,0.4-0.8,0.9-0.7,1.6C48.2,75.8,48,75.9,47.7,75.8z"/>
	<path class="st5" d="M30.8,158.4c-0.4,1.7-0.7,1.8-2.7,0.4c-1.4-1.4-2.8-2.8-4.3-4.1c-1.1-0.9-0.9-1.7-0.1-2.5
		c0.6-0.7,1.3-1.4,2.3-1.5c1,0.5,1.7,1.4,2.9,1.6c0.6,0.8,0.7,1.4-0.4,1.8c-0.3,0.1-0.7,0.2-0.7,0.6c0,0.4,0.4,0.5,0.7,0.6
		C29.9,155.8,30.8,156.7,30.8,158.4z"/>
	<path class="st6" d="M47.7,75.8c0.2,0,0.4-0.2,0.4-0.4c1,1.3,0.9,2.7-0.5,3.4c-1.3,0.6-1.4,2.4-3,2.7c-1,1.1-2.1,0.7-3.3,0.3
		c-0.2-0.1-0.3-0.2-0.4-0.3c-0.4-1.2-1.6-2-1.8-3.4c-0.3-0.4-0.6-0.8-0.4-1.4c0.5-0.4,0.7-1,1.2-1.4c0.3,1.4,1,2.3,2.6,2
		c0.5,0.1,0.9-0.2,1.4-0.4c0.8,0.7,1.6,1,2.6,0.4C47.8,77.4,47.1,76.2,47.7,75.8L47.7,75.8z"/>
	<path class="st1" d="M167.6,158.4c-0.4,1.6-0.9,3.1-2.9,3.4c-2.8,0.4-4.3-1.1-4.2-4.1c2.2-0.8,4.4-1,6.7-0.7
		C167.2,157.5,167.2,158,167.6,158.4z"/>
	<path class="st2" d="M167.2,157c-2.2,0.4-4.4,0.7-6.7,0.7c0.1-0.9-0.6-1.7-0.3-2.7c0.2-0.3,0.5-0.4,0.9-0.4c0.3,0,0.6,0,1-0.1
		c0.4,0,0.8-0.2,1.2-0.2c0.2,0,0.5-0.1,0.7-0.1c0.4,0,0.8,0,1.3,0c0.3,0,0.5,0.2,0.7,0.3c0.3-0.1,0.6-0.2,0.9-0.3
		C167.5,155.2,167.1,156.1,167.2,157z"/>
	<path class="st6" d="M114.1,57.1c0.3,0,0.7,0,1,0.1c0.7,0.1,1.7-0.3,1.9,0.5c0.2,0.8-0.3,1.6-1,2.1c-0.2,0.1-0.3,0.3-0.5,0.4
		c-0.5,1.2-1.3,0.4-2,0.3c-2-1-2.1-1.2-1.4-2.9C112.6,57.1,113.4,57.2,114.1,57.1z"/>
	<path class="st3" d="M112,57.6c-0.5,1.4,0.5,2,1.4,2.6c-0.8,0.7-1.7,0.5-2.6,0.5c-0.8,0-1.6,0-2.4-0.1c-0.3,0-0.6-0.2-0.8-0.4
		c0-0.1-0.1-0.2-0.1-0.3c0-0.4,0.1-0.9,0-1.3c-0.1-0.8,0.3-1.1,1.1-1C109.8,57.6,110.9,57.6,112,57.6z"/>
	<path class="st7" d="M166.7,61.3c-1.5,0.2-2-0.8-2.2-2c-0.2-1,1-2.2,2.1-2c1.1,0.1,2,0.7,1.9,2.1C168.6,60.6,168.1,61.4,166.7,61.3
		z"/>
	<path class="st3" d="M34.8,65.1c0-1.6,0.5-2.5,1.9-2.5c1.4-0.1,2,1,2.1,2.1c0,1.1-0.6,2.1-2,2C35.7,66.6,34.7,66.4,34.8,65.1z"/>
	<path class="st5" d="M46.7,53.4c0,1.4-0.7,2.1-2.1,2.1c-1.4,0-1.9-0.9-2-2c-0.1-1.2,0.8-2,2-2C45.8,51.5,46.7,52.1,46.7,53.4z"/>
	<path class="st5" d="M168.6,70.7c-1.4,0-2.1-0.6-2.1-2c0-1.2,0.6-1.9,1.8-2c1.2-0.1,2.4,0.8,2.3,2C170.5,69.7,170,70.7,168.6,70.7z
		"/>
	<path class="st6" d="M40.6,73.8c0.6-1.8,1.3-2.1,2.9-1.3c0.7,0.4,1.4,0.9,2.3,0.5c0.3-0.1,0.9,0.1,0.9,0.8c0,0.9-0.6,0.4-0.9,0.3
		c-1.2,0-1.2,0-1.2,0.7c-0.6,0.4-1.2,0.5-1.7-0.1C42.5,73.6,41.2,74.5,40.6,73.8L40.6,73.8z"/>
	<path class="st2" d="M119.8,46.7c-0.8,0.2-1.6,0.5-2.3,0.7c-0.1-0.1-0.3-0.3-0.4-0.4c-0.7-1.3-1.3-2.7-2-4c0.4-0.3,0.8-0.1,1.1,0
		c1.2,0.7,2.1,1.9,3.4,2.6C119.9,45.9,120.2,46.3,119.8,46.7z"/>
	<path class="st7" d="M44.1,64.4c-0.2-0.9,0.1-2.1-1.4-1.8c-0.3,0.1-0.5-0.2-0.4-0.5c0-0.3,0.2-0.5,0.4-0.4c1.4,0.3,1.2-0.8,1.3-1.6
		c0.6,0,1,0.3,0.9,0.8c-0.2,1.4,1.7,0.4,1.6,1.4c0,1-1.7-0.2-1.6,1.1C45,63.7,44.8,64.1,44.1,64.4z"/>
	<path class="st7" d="M162.6,67c-0.1-0.9,0.1-2-1.3-1.7c-0.3,0-0.4-0.1-0.4-0.4c0-0.3,0.1-0.6,0.4-0.6c0.9,0.1,1.4-0.2,1.2-1.2
		c0-0.3,0.1-0.5,0.5-0.5c0.4,0,0.5,0.2,0.5,0.5c0,0.3-0.1,0.6,0.1,0.8c0.3,0.6,1.4,0,1.5,0.8c0,0.9-1.1,0.3-1.4,0.8
		C163.3,66,163.7,66.8,162.6,67z"/>
	<path class="st7" d="M40.2,57.7c-0.1,0.1-0.2,0.4-0.3,0.4c-0.9,0-1.4,0.4-1.4,1.4c0,0.2-0.3,0.5-0.6,0.4c-0.3-0.1-0.3-0.3-0.2-0.5
		c0.1-1-0.4-1.2-1.2-1.1c-0.3,0-0.5-0.1-0.5-0.5c0-0.3,0.2-0.5,0.5-0.5c1,0.1,1.2-0.4,1.2-1.3c0-0.5,0.5-0.6,0.6-0.2
		c0.3,0.9,0.7,1.6,1.8,1.7C40.1,57.5,40.1,57.6,40.2,57.7z"/>
	<path class="st3" d="M160.9,57.3c-0.4-1.2-0.6-2.2-2-1.9c-0.1,0-0.4-0.3-0.4-0.4c0-0.2,0.3-0.4,0.5-0.4c1.4,0.2,1.5-0.7,1.6-1.8
		c0.5,0.9,0.5,2.2,2,1.8c0.1,0,0.4,0.3,0.4,0.4c0,0.2-0.3,0.4-0.5,0.4C161.3,55.3,160.8,56,160.9,57.3z"/>
	<path class="st6" d="M41,81.6c0.1,0,0.2,0,0.3,0c1,0.8,2.2,0.3,3.3,0.7c0,0.1,0.1,0.2,0.1,0.4c-0.2,1.1-1,1.6-1.9,1.6
		c-1.2,0-1.8-0.9-2.3-1.9C40.9,82.2,40.9,81.8,41,81.6z"/>
	<path class="st6" d="M28.7,152.3c-1.5,0.4-2.1-0.7-2.7-1.7c0.4-0.4,0.7-0.7,1.1-1.1c0.7,0.8,1.8,1.1,2.4,2
		C29.4,152,29.1,152.3,28.7,152.3z"/>
	<path class="st8" d="M38.9,76.8c0.2,0.4,0.4,0.9,0.3,1.4C38,78,37.9,77,37.9,76c0-0.7,0.1-1.3,1-1.2C39.4,75.5,39.4,76.2,38.9,76.8
		z"/>
	<path class="st8" d="M116.1,43.3c-0.4,0.2-0.7-0.2-1-0.2c-0.4-0.2-0.7-0.6-0.7-1.1c0-0.4,0.1-0.8,0.1-1.2c0.8,0,0.5,1.1,1.3,1.1
		C116.2,42.3,116.3,42.7,116.1,43.3z"/>
	<path class="st9" d="M44,77.1c-0.4,0.5-0.6,1.7-1.4,0.4c0.5-0.4,0.7-1.1,0.9-1.7C44.3,76.1,43.9,76.7,44,77.1z"/>
	<path class="st2" d="M40.6,73.8c0.6,0,1.1,0,1.7,0c0.8,0,0.7,0.5,0.7,1c-0.5-0.4-1.2-0.5-1.7-0.3C40.2,74.9,40.6,74.2,40.6,73.8z"
		/>
	<path class="st10" d="M38.9,76.8c0-0.7,0-1.3,0-2c0.4,0.2,0.9,0.1,1.1,0.6C39.9,76.2,40.1,77.1,38.9,76.8z"/>
	<path class="st6" d="M45.7,75.5c0.7,0.2,0.9,0.7,0.5,1.3c-0.2,0.3-0.6,0.4-0.9,0.3c-0.6-0.3-0.9-0.7-0.3-1.3
		C45.3,75.9,45.5,75.7,45.7,75.5z"/>
	<path class="st6" d="M42.4,75.5c0.5,0.6,0.3,1-0.3,1.3c-0.4,0.2-0.8,0-1-0.4c-0.2-0.5-0.4-1.2,0.6-1.1C41.8,75.5,42,75.6,42.4,75.5
		z"/>
	<path class="st11" d="M47.7,75.8c0.1,1.9,0.1,2-1.1,1.7C47.4,77.2,46.4,75.8,47.7,75.8z"/>
	<path class="st8" d="M44.6,82.2c-1.1-0.1-2.4,0.4-3.3-0.7c1.1,0.2,2.3,0.5,3.4,0C44.7,81.8,44.6,82,44.6,82.2z"/>
	<path class="st2" d="M42.4,75.5c0,0.5-0.3,0.9-0.8,0.6c-0.6-0.3,0-0.6,0.1-0.9C41.9,75.1,42.2,75.1,42.4,75.5z"/>
	<path class="st2" d="M45.7,75.5c-0.1,0.3,0.2,0.8-0.4,0.9C45,76.5,45,76,45,75.8C45.1,75.4,45.4,75.5,45.7,75.5z"/>
	<path class="st2" d="M110.7,161.1c-10.7,0-21.4,0-32.1,0.1c-0.8,0-1.1-0.2-1.1-1c0.1-0.5,0-1,0-1.5c-1.5,0.9-1.7,3.9-4.4,2.5
		c-1.5-0.9-1.8-1.7-0.9-3.2c0.3-0.5,0.6-1,1-1.5c2.4-3.5,4.9-7,7.2-10.6c0.3-0.5,0.6-1.1,1.1-1.5c1.8-0.4,3.8,1,3.9,2.9
		c-1.1,2.2-2.6,4.1-4.1,6.3c2.9-0.8,5.7-0.4,8.5-0.6c1.6-0.1,3.6,0.7,4.7-0.4c1.1-1.1,0.4-3.1,0.4-4.7c0.1-3.2,0-6.3,0-9.5
		c0-0.7-0.1-1.5,0.4-2.1c0.9-0.5,1.8-0.1,2.6,0.1c2.6,0.6,5.2,0.3,7.8-0.4c0.7-0.2,1.5-0.6,2.3-0.1c0.3,0.6,0.2,1.2,0.1,1.8
		c-0.2,2,0.2,3.9,0.5,5.8c-0.8,0.6-1.7,0.4-2.6,0.4c-3.3,0-3.6,0.3-3.6,3.7c0,0.5,0,1,0,1.5c0,2.5,0.4,2.9,3,2.9c1.1,0,2.3,0,3.4,0
		c0.6,0,1.2,0,1.8,0.3c0.3,0.2,0.2,0.5,0.2,0.8c-0.9,2.6-0.8,5.1,0,7.7C110.7,160.7,110.7,160.9,110.7,161.1z"/>
	<path class="st12" d="M107.9,135.7c-1.6,0.1-3,0.8-4.6,1.1c-2.8,0.5-5.3-0.1-7.9-0.7c-0.5,0.2-0.9,0-1.4-0.1
		c-2-0.9-3.8-2.2-5.5-3.7c-0.4-0.5-0.7-1-1.2-1.5c-0.8-0.9-1.4-1.9-1.9-2.9c-2.4-4.8-2.6-9.7-0.6-14.7c0.5-1.4,1.4-2.6,2.2-3.9
		c4.9-6.1,11.2-7.9,18.7-6.4c2.2,0.7,4.3,1.6,6.1,3.1c2.5,1.8,4.1,4.4,5.4,7.2c1.7,4,1.7,8.1,0.5,12.2c-0.3,0.9-0.5,1.9-1.3,2.5
		c-1,0.7-1.3,1.9-2.1,2.8c-1,1.1-2.1,2.2-3.1,3.3C110.5,135.2,109.2,135.4,107.9,135.7z"/>
	<path class="st3" d="M62.7,146.5c-1.4-2.1-3.2-4-4.5-6.3c-0.7-1.1-1.1-2.3-1-3.7c0.1-1.7,1.5-2.5,2.9-1.6c2,1.3,3,3.4,3.9,5.5
		c0.5,1,0.8,2,1.3,3c0-2.1-0.9-3.9-1.9-5.6c-1.3-2.3-2.8-4.6-3.1-7.3c-0.8-0.9-0.6-1.8-0.3-2.8c1.3-2.8,3.4-3.2,5.7-1.1
		c0.3,0.3,0.6,0.6,0.9,0.9c0.7,0.9,1.2,2,1.6,3c1.3,3.6,1.8,7.2,1.1,10.4c0.4-3.5,1.6-7.3,4-10.7c0.9-0.9,2-1.6,3.4-1.6
		c1.3,0,2.3,0.4,2.8,1.7c0.4,1.2,0.1,2.3-0.4,3.5c-1.8,4.5-4.6,8.5-6.9,12.7c-0.3,0.2-0.7,0.2-1,0c-0.7-0.9-0.2-1.7,0.1-2.6
		c0.9-3.2,2.3-6.3,3.7-9.4c-1.8,3.3-3,6.8-4.2,10.4c-0.2,0.6-0.2,1.2-0.8,1.6c-0.7,0.3-1.4,0.3-2.2-0.1c-1-1.5-0.6-3.2-0.8-4.7
		c-0.5-3.6-1.5-7-3-10.3c1.6,3.6,2.6,7.4,3.1,11.3c0.1,1.2,0.4,2.5-0.2,3.6c-0.5,0.4-1,0.4-1.5,0.2c-0.8-0.3-1.1-1.1-1.4-1.8
		c-1-2.3-2.4-4.3-3.8-6.3c1.1,2,2.4,3.9,3.4,5.9c0.3,0.6,0.8,1.3,0.1,2C63.2,146.8,62.9,146.8,62.7,146.5z"/>
	<path class="st13" d="M152.6,153.3c0.2,1.4-0.6,1.4-1.6,1.4c-10.5,0-21.1,0-31.6,0c-0.6,0-1.2-0.2-1.9,0.3c0.6,0.5,1.3,0.3,1.9,0.3
		c10.4,0,20.9,0,31.3,0c0.6,0,1.7-0.4,1.7,0.4c0,1.1-1.1,0.5-1.8,0.5c-10.4,0-20.9,0-31.3,0c-0.6,0-1.2-0.2-1.9,0.3
		c0.6,0.6,1.3,0.4,1.9,0.4c10.4,0,20.9,0,31.3,0c0.6,0,1.8-0.5,1.8,0.5c0,0.8-1.1,0.4-1.7,0.4c-10.4,0-20.9,0-31.3,0
		c-0.6,0-1.2-0.2-1.9,0.3c0.5,0.7,1.2,0.4,1.8,0.4c10.5,0,21.1,0,31.6,0c1,0,1.8,0,1.6,1.4c-0.7,0.6-1.5,0.5-2.3,0.5
		c-11.2,0-22.3,0-33.5,0c-1.4,0-2.9-0.1-3.4-1.6c-0.6-1.7-0.7-3.6,0.3-5.2c0.3-0.6,1-0.8,1.6-0.9c0.6-0.1,1.2-0.1,1.9-0.1
		c10.9,0,21.9,0,32.8,0C150.9,152.8,151.9,152.7,152.6,153.3z"/>
	<path class="st2" d="M33.5,116.8c2.4,0.3,4.7,1,7.1,1c0.6,0.6,0.8,1.4,1,2.1c0.9,3.2,2,6.4,3.1,9.6c0.3,1,0.5,2.1,0.6,3.1
		c0.1,3.6,0,7.3,0.5,10.9c0.4,2.8-0.2,5.7,0.6,8.4c0.5,1.1,0.8,2.2-0.2,3.2c-0.7,0.3-1.4,0.3-2.1,0.1c-0.7-0.4-0.8-1-0.9-1.7
		c-0.5-5.3-1.5-10.5-2.5-15.8c-0.9-4.8-3.2-9.1-4.9-13.6c-0.7-1.9-1.6-3.7-2.3-5.6C33.3,118,33,117.4,33.5,116.8z"/>
	<path class="st1" d="M67.7,146.5c0.8,0,1.6,0,2.4,0c0.3-0.3,0.7-0.3,1,0c0.3,0,0.7,0,1,0c1,0,1.7,0.6,1.7,1.5
		c0.2,2.8,0.6,5.6-0.3,8.3c0.1,0.5-0.3,0.8-0.6,1.1c-1.1,1.3-1,2.5,0.3,3.6c-3.5,0-7,0-10.5,0.1c-1.1,0-1.4-0.4-1.4-1.5
		c0.1-3.4,0.1-6.9,0-10.3c0-1.3,0.4-2.2,1.4-2.8c0.3,0,0.7,0,1,0c0.4-0.4,0.9-0.3,1.3,0c0.6,0,1.2,0,1.7,0
		C67,146.3,67.3,146.3,67.7,146.5z"/>
	<path class="st13" d="M144.9,144.2c0.2,1.4-0.6,1.4-1.6,1.4c-10.6,0-21.2,0-31.8,0c-0.7,0-1.9-0.5-1.9,0.6c0,0.8,1.2,0.4,1.9,0.4
		c10.5,0,21,0,31.5,0c0.6,0,1.2-0.1,1.9,0.2c-0.6,0.7-1.3,0.4-1.9,0.4c-10.5,0-21.1,0-31.6,0c-0.6,0-1.8-0.5-1.7,0.6
		c0,0.8,1.1,0.4,1.7,0.4c10.5,0,21.1,0,31.6,0c0.6,0,1.2-0.1,1.9,0.2c-0.6,0.7-1.3,0.4-1.9,0.4c-10.5,0-21.1,0-31.6,0
		c-0.6,0-1.7-0.4-1.7,0.4c0,1.1,1.1,0.6,1.7,0.6c10.7,0,21.3,0,32,0c1,0,1.9,0,1.6,1.4c-0.6,0.5-1.4,0.5-2.1,0.5
		c-11.3,0-22.6,0-34,0c-2.8,0-3.7-1-3.8-3.8c0-2.9,1.1-4.3,3.8-4.3c11.4,0,22.9,0,34.3,0C143.7,143.7,144.4,143.7,144.9,144.2z"/>
	<path class="st13" d="M150.6,135.4c0.2,1.4-0.6,1.4-1.6,1.4c-10.5,0-21,0-31.5,0c-0.7,0-1.9-0.4-1.9,0.4c0,1.1,1.2,0.6,1.9,0.6
		c10.4,0,20.8,0,31.1,0c0.6,0,1.2-0.1,1.9,0.2c-0.6,0.7-1.3,0.4-1.9,0.4c-10.4,0-20.9,0-31.3,0c-0.6,0-1.8-0.5-1.7,0.6
		c0,0.8,1.1,0.4,1.7,0.4c10.4,0,20.9,0,31.3,0c0.6,0,1.2-0.1,1.9,0.2c-0.6,0.7-1.3,0.4-1.9,0.4c-10.4,0-20.9,0-31.3,0
		c-0.6,0-1.8-0.5-1.7,0.6c0,0.8,1.1,0.4,1.7,0.4c10.5,0,21.1,0,31.6,0c1,0,1.9,0,1.6,1.4c-0.6,0.6-1.4,0.5-2.1,0.5
		c-11.1-0.1-22.2,0-33.3,0c-1.4,0-3,0-3.6-1.6c-0.7-1.7-0.8-3.6,0.2-5.2c0.6-1.1,1.8-1.3,3-1.3c3.1,0,6.2,0,9.3,0
		c8.1,0,16.1,0,24.2,0C149,134.9,149.9,134.7,150.6,135.4z"/>
	<path class="st7" d="M49,112c-0.2,0-0.4,0-0.7,0.1c-2.1-0.3-2.9-1.2-2.5-3c-1,0-1.9,1.3-2.9,0.3c-0.1-0.3-0.2-0.7-0.3-1
		c2.4-1.1,4.8-2.1,7.1-3.4c0.1-0.1,0.2-0.2,0.3-0.3c0.5-0.4,1.2-0.6,1.8-1c1.5-0.7,3-1.5,4.6-2.3c0.3-0.1,0.6-0.3,0.8-0.4
		c2.8-1.4,5.7-2.6,8.5-4.1c1.3-0.6,2.6-1.3,3.9-1.9c0.6-0.2,1.1-0.7,1.8-0.5c1.1,1.6,1.9,3.4,2.7,5.2c-1,1.6-2.9,1.8-4.3,2.7
		c-1.2,0.6-2.5,1.1-3.8,1.7c-0.6,0.2-1.2,0.7-1.9,0.4c0,0-0.1-0.1-0.1-0.1c-0.8-0.8-1.9-1.4-2.9-0.9c-1.1,0.6-1.6,1.8-1.3,3.2
		c-0.6,1-1.7,1.2-2.6,1.7c-1.4,0.8-3,1.3-4.4,2c-1,0.3-1.8,1.2-2.9,1C49.7,111.6,49.4,111.8,49,112z"/>
	<path class="st13" d="M28.7,152.3c0.2-0.2,0.5-0.5,0.7-0.7c0.9,0.1,1.2-0.7,1.7-1.2c2.2-2.4,4.3-4.8,6.4-7.3c1-0.2,1.2,0.7,1.7,1.3
		c0.9,0.9,1.7,1.8,2.4,2.9c0.7,1.8,0.7,3.7,1,5.6c0.2,0.8,0.3,1.5,0.5,2.3c0.1,0.4,0.1,0.7,0,1.1c-0.2,0.5-0.4,1-1,1.1
		c-3.8,0-7.6,0.6-11.4,1c-0.8-1.2-1.1-2.8-3.1-2.8c-0.5,0-0.7-0.8-0.6-1.4c0-0.6,0.5-0.6,0.9-0.5C29.4,153.9,28.9,153,28.7,152.3z"
		/>
	<path class="st7" d="M152.6,153.3c-11.9,0-23.9,0-35.8,0c-2.8,0-3.1,0.2-3.1,3c0,0.5,0,0.9,0,1.4c0,1.8,0.6,2.4,2.4,2.4
		c6.6,0,13.2,0,19.8,0c5.6,0,11.2,0,16.7,0c0.2,1-0.2,1.4-1.3,1.4c-12.9,0-25.7,0-38.6,0c-0.7,0-1.4-0.2-2.1-0.4
		c-1.4-2-1.4-6.6,0-8.7c0.4-0.7,1.1-0.7,1.8-0.7c10.3,0,20.7,0,31,0c0.5,0,1,0,1.5,0.3c2.2,0,4.3,0.1,6.5,0
		C152.5,151.9,152.8,152.3,152.6,153.3z"/>
	<path class="st13" d="M153.7,130.7c1.2-0.3,1.8-1.2,1.7-2.5c-0.1-0.9,0-1.8,0-2.7c0.4-0.8,0-2.3,1.7-2c0.9,2.5,0.8,5.1,1.1,7.6
		c0.7,6.1,1.3,12.3,1.9,18.4c0.1,1.6,0.8,3.2,0,4.7c-5.9-5-8.1-11.4-7.1-19C153.1,133.8,153.7,132.3,153.7,130.7z"/>
	<path class="st3" d="M144.9,151.9c-10.5,0-21,0-31.4,0c-1,0-1.9,0.1-2.8,0.4c-2.2,0-4.4,0-6.6,0c-1.5,0-2.2-0.7-2.2-2.2
		c0-1.5,0-3,0-4.6c0-1.7,0.8-2.4,2.5-2.4c1.4,0,2.8,0,4.2,0c1-0.8,2.2-0.6,3.2-0.5c3.8,0.3,7.5,0.2,11.3,0.2c6.6,0,13.3,0,19.9,0
		c0.6,0,1.5-0.4,1.8,0.7c0,0.2,0,0.4,0,0.6c-11.9,0-23.9,0-35.8,0c-1.3,0-2.6,0.1-3.1,1.5c-0.6,1.6-0.7,3.3,0.2,4.9
		c0.5,0.9,1.5,0.8,2.4,0.8c11.4,0,22.9,0,34.3,0c0.7,0,1.4,0,2,0C144.9,151.5,144.9,151.7,144.9,151.9z"/>
	<path class="st5" d="M144.9,143.5c-0.5-0.6-1.3-0.4-1.9-0.4c-11.5,0-22.9,0-34.4,0c-1.7-2.3-1-4.9-0.7-7.4c1-0.9,2.3-1.2,3.4-1.7
		c0.5,0.6,1.3,0.3,1.9,0.3c11.9,0,23.9,0,35.8,0c0.7,0,1.7-0.4,1.6,1c-11.9,0-23.8,0-35.7,0c-2.7,0-3.3,0.5-3.3,3.2
		c0,3.6,0.3,3.9,3.9,3.9c11.7,0,23.3,0,35,0c0.1,0.8-0.3,1-1.1,1C148,143.5,146.4,143.5,144.9,143.5z"/>
	<path class="st2" d="M50.1,111.4c0.9-0.4,1.8-0.9,2.7-1.3c0.7,0.7,0.5,1.6,0.5,2.4c0,3.8,0,7.7,0,11.5c0,2.9,0.6,3.4,3.5,3.5
		c1.1,0,2.4-0.3,3.4,0.5c-0.1,0.9-0.2,1.8,0,2.7c-2.5,0-5.1,0-7.6,0c-1.9,0-2.5-0.7-2.5-2.7C50.1,122.4,50.1,116.9,50.1,111.4z"/>
	<path class="st4" d="M45.3,132.7c-1.6-4.9-3.4-9.8-4.7-14.8c2.5-0.2,5,0.1,7.4-0.4c-0.4,2.5-0.9,5-1.3,7.4
		C46.2,127.5,45.8,130.1,45.3,132.7z"/>
	<path class="st3" d="M160,154.3c-0.4-3.8-0.8-7.6-1.2-11.4c-0.3-2.6-0.5-5.3-0.8-8c-0.4-3.8-0.6-7.7-1.3-11.5
		c-0.9-1.6-0.7-3.4-0.9-5.1c-0.3-2.7-0.3-5.4-0.5-8.1c-0.1-1.4,0.1-2.8-0.3-4.1c0.5-0.5,1-0.9,1.5-0.1c0.6,3.7,0.8,7.4,1.2,11.1
		c0.6,5.1,1.1,10.3,1.6,15.4c0.5,4.8,1,9.6,1.5,14.4c0.2,1.7,0.3,3.5,0.5,5.2c0.1,0.9,0.3,1.9-0.4,2.7c-0.3,0-0.6,0-0.9,0.1
		C160.1,154.8,160.1,154.6,160,154.3z"/>
	<path class="st5" d="M42.3,157.4c0.2-0.3,0.5-0.7,0.7-1c0.9-0.6,2.2,0.1,3-0.8c1.7,0.2,1.9,0.3,1.3,1.7c-0.1,0.3-0.2,0.5,0,0.8
		c0.2,0.3,0.6,0.3,0.9,0.2c0.5-0.2,1-0.6,1.5-0.2c0.7,0.3,1.5,0.5,2.2,0.8c0.7,0.2,1,0.7,0.9,1.4c-0.1,0.7-0.6,0.9-1.2,0.9
		c-2.6,0-5.3,0-7.9,0c-0.7,0-1-0.2-1.1-0.9C42.6,159.2,42.4,158.3,42.3,157.4z"/>
	<path class="st13" d="M49.7,158c-0.3,0.1-0.8,0-0.9,0.2c-0.8,1-1.6,0.7-2.1-0.1c-0.7-1,0.6-1,0.8-1.7c-0.2-0.4-0.8-0.6-1.4-0.7
		c-0.2-0.2-0.3-0.4,0-0.6c0.7-1,0.1-2.1,0.4-3.1c2,1.7,4.2,3.1,6.4,4.7c-1.3,0-2.5,0-3.7,0C48.9,157.4,49.9,157.4,49.7,158z"/>
	<path class="st3" d="M56.5,101.6c-1.5,0.9-3.1,1.8-4.8,2.3c-0.9,0-1.3-0.6-1.7-1.2c-0.2-0.2,0-0.6-0.3-0.8
		c0.4-4.3,0.7-8.6,0.7-12.9c0.4,1.9,0.9,3.8,1.3,5.7c0.2,0.9,0.3,1.7,1,2.4C53.5,99,55,100.3,56.5,101.6z"/>
	<path class="st3" d="M45.7,84.3c-1,2.6-4.6,5-7,4.7C41.3,87.8,43.8,86.5,45.7,84.3z"/>
	<path class="st3" d="M45.7,103.9c-2.8-0.5-4.9-1.8-6.9-3.3c-0.3-0.2-0.6-0.5-0.4-0.8c0.2-0.3,0.5-0.2,0.7,0c1.7,1.8,4,2.6,6.2,3.5
		C45.5,103.2,45.5,103.4,45.7,103.9z"/>
	<path class="st3" d="M38.4,96.4c1.7,1.9,3.4,3.1,5.5,3.8C41.8,100.8,39.2,99.1,38.4,96.4z"/>
	<path class="st0" d="M49.8,101.9c0.3,0.1,0.3,0.4,0.4,0.7c0.4,0.8,0.5,1.6-0.1,2.3c-0.1,0-0.2,0-0.3,0
		C49.8,103.9,49.8,102.9,49.8,101.9z"/>
	<path class="st13" d="M116.5,127.9c0.7-2.5,1.7-4.8,1.7-7.5c0-2.6-0.4-5-1.3-7.4c0.7-0.7,1.6-0.5,2.4-0.5c4.8,0,9.6,0,14.4,0
		c2.9,0,2.9,0,2.9-2.9c0-9.6,0-19.3,0-28.9c0-0.7,0-1.5,0-2.2c0-0.1,0-0.2,0-0.3c0-3,0-3-2.9-3.3c-0.2,0-0.3-0.1-0.5-0.1
		c-0.4-0.2-0.6-0.7-0.3-1c1.8-2.1,3.1-4.7,5.7-6.1c4.2-0.3,8.4-0.1,12.6-0.1c0.5,0,1,0.1,1.4,0.5c0,4.3,0.1,8.7,0.1,13
		c0,14.6,0,29.2,0,43.8c0,2.5-0.6,3.1-3,3.1C138.6,127.9,127.5,127.9,116.5,127.9z"/>
	<path class="st5" d="M138.1,68c-1.6,1.9-3.2,3.7-4.8,5.6c-0.2,0.2-0.2,0.5-0.3,0.7c-0.7,1.5-2.1,2.6-3.1,4
		c-0.9,1.1-1.8,2.2-2.8,3.3c-0.3,0.3-0.6,0.7-0.8,1.1c-1.8,2.1-3.5,4.1-5.2,6.3c-3.7,4.4-7.3,8.9-11,13.2c-0.6,0.7-1.1,1.8-2,1.5
		c-1.1-0.4-0.6-1.7-0.6-2.5c0-5.4,0-10.8,0-16.2c-0.4-2.3-0.4-4.6-0.3-6.9c0-1.2,0-2.5,0-3.7c0-2.1-0.1-4.2,0-6.2c0-0.6,0-1.2,0-1.8
		c0-0.6,0-1.2,0-1.8c0-0.7,0-1.4,0.4-2c0-0.8,0.1-1.6,0.1-2.4c0.2,0,0.4,0,0.7,0c0.8,0.5,1.5,0.5,2.3,0c0.9,0,1.8,0,2.8,0
		c0.7-0.3,1.4,0.9,2.1,0c3.4,0,6.7,0,10.3,0c-1.3,1.2-2.9,1.4-4,2.4c-1.1,0.5-1.3-0.9-2.1-1.1c-0.3,2-2.1,1.8-3.4,2.4
		c-0.7,0.4-1.9-0.4-2.2,1c0,0.5,0,1,0,1.6c0.1,0.6,0,1.2,0,1.7c0.1,2.1,0.1,4.1,0,6.2c0,1.2,0,2.5,0,3.7c-0.2,2.2,0.5,4.4,0.3,6.6
		c0,0.4-0.1,0.7,0,1.1c0.3-0.1,0.4-0.5,0.6-0.7c2.1-2.3,3.9-4.8,6-7.1c1.1-1.2,2.1-2.5,3.1-3.7c1.7-2.2,3.5-4.3,5.3-6.4
		c0.4-0.6,1-1.1,1.5-1.7c0.4-0.6,0.9-1.1,1.3-1.7c-0.3-0.7-0.9-0.3-1.4-0.4c-0.6-0.1-1.2,0.1-1.6-0.5c1.9-1.3,4.3-1.9,6.1-3.5
		c0.2-0.2,0.7-0.1,1.1-0.1c2.8,0,5.6,0,8.4,0c-0.6,1-1.7,1.5-2,2.6c-0.3,0.9-1.1,1.4-1.5,2.2c-0.5,0.5-1,1-1.4,1.7
		C139.5,67.1,138.8,67.6,138.1,68z"/>
	<path class="st14" d="M138.1,68c0.3-0.7,0.9-1.3,1.6-1.7c0.8-0.3,1-1,1.3-1.7c0.4-0.8,0.9-1.6,1.8-2.1c2.4,0,4.7,0,7.1,0
		c2,0,2.7,0.7,2.7,2.7c0,0.9,0,1.8-0.1,2.7C147.8,68,143,68,138.1,68z"/>
	<path class="st6" d="M156.4,106c-0.4,0.1-0.9,0.2-1.3,0.3c0.1-0.6,0.2-1.1,0.3-1.7c0.4-1.4,0.9-2.7,1.3-4.1c0.9-0.1,1.8-0.4,2.7,0
		c1,1.6,2,3.2,2.4,5.1c-0.3,0-0.7,0.1-1,0.1c-0.2,0.1-0.4,0.3-0.6,0.3c-0.3,0.1-0.6,0.1-0.9,0.1c-0.4,0.1-0.8,0.2-1.2,0.2
		c-0.3,0-0.7,0-1,0C156.8,106.3,156.6,106.1,156.4,106z"/>
	<path class="st0" d="M155.4,110.4c0.7,1.3,0.3,2.7,0.5,4c0.5,3,0.6,6.1,0.8,9.1c-0.4,0.7-0.9,1.4-1.3,2.1
		C155.4,120.5,155.4,115.4,155.4,110.4z"/>
	<path class="st13" d="M107.6,68c0,2.1,0,4.3,0,6.4c-0.8,0.7-1.8,0.5-2.8,0.5c-10.3,0-20.6,0-31,0c-0.3,0-0.7,0-1,0
		c-2.5,0-2.5,0-2.6,2.5c0,0.2,0,0.4,0,0.7c0.1,5,0,10,0,15c0,0.7-0.1,1.4-0.5,1.9c-1.2,0.6-2.5,1.3-3.7,1.9
		c-0.6-0.5-0.5-1.2-0.5-1.9c0-5.9-0.1-11.8,0-17.7c0-2.5,0-2.5-2.5-2.5c-0.9,0-1.8,0-2.7,0c-2.5,0-2.5,0-2.6,2.5
		c0.1,7.3,0,14.6,0,21.9c0,0.7-0.1,1.3-0.5,1.9c-0.1,0.3-0.4,0.3-0.7,0.4c-2-0.8-3.6-2.1-3.8-4.5c0-9,0-18,0.1-27.1
		c0-0.7,0-1.4,0.1-2c0.6-0.6,1.5-0.6,2.2-0.6c16.8,0,33.5,0,50.3,0C106.1,67.5,106.9,67.4,107.6,68z"/>
	<path class="st14" d="M107.6,68c-18.2,0-36.5,0-54.7,0c0-0.9-0.1-1.8,0-2.7c0-1.8,1.1-2.7,2.8-2.7c17.3,0,34.7,0,52,0
		c0,0.7,0,1.4,0,2.1c-0.8,0.7-1.8,0.5-2.8,0.5c-11.6,0-23.2,0-34.8,0c-0.8,0-1.6-0.1-2.4,0.3c0.8,0.5,1.6,0.3,2.4,0.3
		c11.6,0,23.2,0,34.8,0c0.9,0,1.9-0.2,2.8,0.5C107.6,66.9,107.6,67.5,107.6,68z"/>
	<path class="st6" d="M116.4,63.6c0.2-0.4,0.7-0.3,1-0.5c1.2-0.4,2.5-0.6,1.7-2.3c1.6-0.1,1.5,1.7,2.7,1.8c-0.1,0.9,0.7,1.5,0.8,2.3
		c-0.4,1.3-1.6,1.2-2.5,1.6c-0.6,0.1-1.2,0.2-1.8,0c-0.7-0.3-1-1.1-1.5-1.7C116.5,64.5,116,64.2,116.4,63.6z"/>
	<path class="st13" d="M120.1,66.3c0.7-0.6,1.8-0.6,2.4-1.3c1.2,0.2,2.4-0.3,3.6-0.4c1.6-0.4,3.2-0.6,4.8-0.5c0.6,0,1.2,0,1.7,0.5
		c-0.4,0.6-0.9,1.1-1.3,1.7c-0.7,0.4-1.5,0.5-2.3,0.5c-2.3,0-4.6,0-6.9,0C121.5,66.9,120.7,66.9,120.1,66.3z"/>
	<path class="st14" d="M132.7,64.6c-2.2,0-4.3,0-6.5,0c1-0.5,2-0.9,3.1-1c1.1,0,2.2,0,3.3,0.1C133.8,63.7,133.3,64.2,132.7,64.6z"/>
	<path class="st2" d="M159.4,100.5c-0.9,0.2-1.8,0.8-2.7,0c0.4-0.9,0.5-2,1.2-3C158.6,98.5,159.2,99.4,159.4,100.5z"/>
	<path class="st6" d="M123.6,45c0.4,0.1,0.3,0.4,0.4,0.7c-0.4,1.6-1.4,2.5-2.7,2.4c-0.7-0.1-1-0.3-1.1-1C121,46,122.4,45.7,123.6,45
		z"/>
	<path class="st8" d="M123.6,45c-0.7,1.4-2.2,1.5-3.4,2.1c-0.1-0.1-0.2-0.2-0.4-0.4c0.2-0.4-0.2-0.7-0.3-1c1.3-0.5,2.7-0.9,4-1.4
		C123.5,44.5,123.5,44.8,123.6,45z"/>
	<path class="st7" d="M44.3,114.1c-1.7,0.8-3.4,1.7-5.1,2.5c-1.4,0.6-2.4,0.1-3.2-1.5c-0.7-1.3-0.8-2.5,0.6-3.5
		c0.6-0.4,1.5-0.6,2-1.2c1,0.5,1.9,1,3,1C42.5,112.2,43.6,113,44.3,114.1z"/>
	<path class="st6" d="M44.3,114.1c-1.1-0.7-2.3-1.4-2.8-2.8c0.3-0.8,1.4-1,1.4-2c1.2,0.6,1.9-0.7,2.9-0.8c0.2,0,0.5-0.4,0.7-0.1
		c0.1,0.1,0.2,0.5,0.1,0.6c-1.6,1.6,0.1,2,1,2.6c0.2,0.2,0.5,0.3,0.7,0.4C47.7,113.5,45.7,114.5,44.3,114.1z"/>
	<path class="st2" d="M43,155.4c-1.1-1.9-0.8-4.2-1.3-6.3c-0.1-0.6-0.3-1.3-0.4-1.9c-0.9-2.2-1.6-4.4-1.6-6.7
		c-0.3-2.8-0.2-5.8-2.1-8.2c-2.7-5.2-4.9-10.5-6.4-16.2c0.5-0.1,0.9,0.1,1.3,0.4c1.2,1.6,1.7,3.5,2.4,5.3c1.9,4.8,4.3,9.4,5.5,14.4
		c1.2,4.9,2,9.8,2.6,14.8c0.2,1.4,0.2,2.8,0.4,4.2C43.3,155.4,43.2,155.5,43,155.4z"/>
	<path class="st0" d="M39.6,140.5c0.6,2.2,1.4,4.4,1.6,6.7c-1.2-1.4-2.5-2.7-3.7-4.1C38.1,142.1,39.4,141.8,39.6,140.5z"/>
	<path class="st6" d="M123.5,44.3c-1.1,1.2-2.5,1.5-4,1.4c-1.6-0.2-2.2-1.7-3.4-2.5c-0.3-0.4-0.4-0.9-0.3-1.3c0-0.3,0-0.7,0-1
		c0-0.5,0.3-0.6,0.7-0.7c0.6-0.2,0.6,0,0.7,0.4c0,0.3,0.2,0.7,0.7,0.4c0.3-0.2,0.2-0.4,0.2-0.7c-0.3-1.8-1.1-1.4-2.1-0.4
		c-0.2-1.2,0.6-2.3,1.1-2.4c0.8-0.2,2.2-0.3,2.7,0.5c0.2,0.3-0.1,1,0.8,0.9c0.1,0.2,0.2,0.4,0.2,0.6c0-0.2-0.1-0.4-0.2-0.6
		c1.3-1.2,2.1-0.7,2.4,1c0.5-0.5,0.1-0.9,0-1.3c-0.1-0.7,0-1.4,0.9-1.4c0.8-0.1,1.1,0.4,1,1.2c-0.1,0.5,0.3,1.1-0.3,1.6
		c-0.3,0-0.6-0.2-0.8-0.4c0-0.2,0-0.3,0.1-0.4c0,0,0,0,0,0c-0.1,0.2-0.1,0.4,0,0.5c0.3,0.3,0.3,0.7,0.3,1
		C124.2,41.9,123.8,43.1,123.5,44.3z"/>
	<path class="st13" d="M124.2,40.7c-0.5-0.2-0.3-0.7-0.3-1l0,0c0.3,0,0.6,0,0.7,0.3C124.5,40.2,124.6,40.6,124.2,40.7z"/>
	<path class="st4" d="M43.3,155.3c-0.3-2.2-0.7-4.5-1-6.7c-1.1-7.4-2.4-14.6-5.6-21.5c-1.6-3.4-2.8-7.1-4.2-10.6
		c0.4-0.2,0.7,0.2,1,0.3c0.7,3,2.1,5.7,3.3,8.4c3.4,7.5,5.3,15.3,6.2,23.4c0.3,2.2,0.7,4.3,1,6.4C43.9,155.6,43.7,155.6,43.3,155.3z
		"/>
	<path class="st15" d="M171.6,83.2c0,2.2-1,3.1-3.4,3.1c-2.1,0-3-1-3-3.3c0-2,1.3-3.4,3.2-3.4C170.3,79.5,171.6,81,171.6,83.2z"/>
	<path class="st15" d="M79,54.1c-2.2,0-3.2-1-3.2-3.2c0-2.1,1.2-3.3,3.3-3.3c2.1,0,3.5,1.4,3.4,3.3C82.5,52.9,81.1,54.2,79,54.1z"/>
	<path class="st7" d="M160.1,105.7c0.2,0,0.4,0,0.7,0c0.5,4.3,0.9,8.7,1.4,13c0.4,3.8,0.9,7.6,1.3,11.5c0.4,3.4,0.7,6.9,1.1,10.3
		c0.4,4.2,0.9,8.4,1.3,12.7c0.1,0.5,0,1,0.1,1.5c-0.2,0-0.5,0-0.7,0c-1.3-1.5-0.9-3.4-1.1-5.2c-0.7-6.1-1.3-12.3-1.9-18.4
		c-0.7-7.2-1.6-14.4-2.2-21.6C159.8,108.2,159.2,106.9,160.1,105.7z"/>
	<path class="st13" d="M43,78.5c0.6,0.1,1.6-0.2,1.6,0.8c0,0.6-0.7,0.9-1.4,1c-0.9,0-1.3-0.5-1.4-1.2C41.7,78.1,42.6,78.7,43,78.5z"
		/>
	<path class="st3" d="M160.1,105.7c0.4,4.1,0.8,8.2,1.3,12.3c0.3,2.5,0.5,5,0.8,7.5c0.4,4.1,0.9,8.2,1.3,12.3
		c0.4,3.8,0.7,7.6,1.1,11.3c0.2,1.8,0.4,3.7,0.7,5.5c-0.4,0-0.9,0-1.3,0c-0.8-1-0.6-2.3-0.7-3.4c-0.4-5-1-9.9-1.5-14.9
		c-0.5-4.8-1-9.6-1.5-14.4c-0.4-3.7-0.8-7.4-1.1-11c-0.1-0.7-0.1-1.4-0.2-2.2c-0.2-1-0.3-2.1,0.3-3.1
		C159.4,105.7,159.8,105.7,160.1,105.7z"/>
	<path class="st3" d="M157,106c0.3,0,0.7,0,1,0c1.2,1.5,0.8,3.3,1,5c0.7,6,1.3,11.9,1.9,17.9c0.8,8.1,1.6,16.2,2.5,24.3
		c0.1,0.5,0.1,1-0.3,1.4c-0.3,0.2-0.6,0.5-1,0.3c-1.2-1.5-0.8-3.3-1-5c-0.7-6-1.3-12.1-1.9-18.1c-0.8-8.1-1.6-16.2-2.5-24.3
		C156.7,107,156.6,106.5,157,106z"/>
	<path class="st7" d="M157,106c0.4,4,0.8,8,1.3,12c0.3,2.7,0.5,5.3,0.8,8c0.4,3.9,0.9,7.8,1.3,11.7c0.3,2.6,0.5,5.2,0.8,7.8
		c0.3,3.2,0.7,6.3,1,9.5c-0.3,0-0.7,0-1.1,0c-0.1-4.4-0.7-8.7-1.2-13c-0.3-2.7-0.5-5.3-0.8-8c-0.4-3.9-0.9-7.9-1.3-11.8
		c-0.4-3.8-0.7-7.6-1.1-11.3c-0.1-1.6-0.5-3.2-0.3-4.8C156.6,106,156.8,106,157,106z"/>
	<path class="st7" d="M163.1,154.6c-0.4-3.9-0.8-7.8-1.2-11.7c-0.3-2.6-0.5-5.2-0.8-7.8c-0.4-4.1-0.9-8.2-1.3-12.3
		c-0.4-3.6-0.7-7.1-1.1-10.7c-0.2-2.1-0.4-4.1-0.7-6.2c0.3-0.1,0.7-0.2,1-0.3c0.1,4.5,0.8,9,1.3,13.5c0.4,3.8,0.7,7.6,1.1,11.3
		c0.4,3.9,0.9,7.8,1.3,11.6c0.4,4.2,0.7,8.3,1.1,12.5C163.6,154.6,163.4,154.6,163.1,154.6z"/>
	<path class="st2" d="M110.6,60.3c-0.7,1-1.6,1-2.3,0C109.1,60.3,109.9,60.3,110.6,60.3z"/>
	<path class="st13" d="M166.6,58.2c0.4,0.3,1,0.2,1,0.9c0,0.7-0.3,1.1-1,1.1c-0.6,0-1-0.2-1-0.8C165.5,58.8,166,58.5,166.6,58.2z"/>
	<path class="st13" d="M36.8,63.6c0.5,0.2,1.1,0.5,1,1.1c0,0.4-0.2,1-0.9,0.9c-0.7,0-1-0.4-1-1C35.9,64,36.1,63.7,36.8,63.6z"/>
	<path class="st13" d="M44.7,54.5c-0.6,0-1-0.2-1-0.9c0-0.6,0.5-1.1,1-1.1c0.4,0,1,0.2,0.9,0.9C45.7,54.1,45.3,54.5,44.7,54.5z"/>
	<path class="st13" d="M168.4,67.7c0.6,0.1,1.1,0.5,1.1,1.2c0,0.5-0.3,0.8-0.9,0.8c-0.7,0-1.1-0.2-1.1-0.9
		C167.5,68.2,167.7,67.8,168.4,67.7z"/>
	<path class="st0" d="M73.5,156.4c0-2.3-0.1-4.6,0-6.9c0.1-1.3-0.3-2.3-1.4-2.9c1.2-3,2.9-5.6,4.5-8.4c1.3-2.3,2.7-4.6,2.7-7.5
		c0.1-0.2,0.3-0.4,0.5-0.4c2.6-0.2,5.3-0.6,7.9,0.3c0.7,0.2,0.7,0.9,1.1,1.4c0.2,0.4,0.1,0.8-0.1,1.2c-2.1,2.9-4,6-6.1,8.9
		c-0.6,0.8-0.6,1.7-0.9,2.5C79,148.6,76.4,152.6,73.5,156.4z"/>
	<path class="st0" d="M94.1,135.7c0.5-0.1,0.9,0.1,1.3,0.3c0,5.4,0,10.7,0.1,16.1c0,1-0.3,1.2-1.2,1.2c-2.9-0.1-5.9,0-8.8,0
		c-1.7,0-3.4,0.2-5.2,0.8c1.7-2.4,3.3-4.9,5-7.3c1.2-0.5,1.9-1.5,2.6-2.5c1.5-2.2,2.9-4.5,4.5-6.7C93,137,93.2,136,94.1,135.7z"/>
	<path class="st5" d="M92.8,137.8c-1.9,2.8-3.8,5.5-5.7,8.3c-0.5,0.8-1.1,0.9-1.8,0.8c-0.6-1.4-2.6-2.6-3.7-2.3
		c-0.5-1-0.1-1.9,0.4-2.6c2.1-3,4.2-6,6.3-8.9c0.4,0.1,0.7,0.3,0.9,0.7C90.1,135.3,91.5,136.5,92.8,137.8z"/>
	<path class="st14" d="M121.1,88.7c1.4-2.2,3.1-4.3,5.1-6.1c0.6,0.6,0.4,1.4,0.4,2.1c0,8,0,16,0,24c0-8.3,0-16.5,0-24.8
		c0-0.8-0.1-1.6,0.3-2.3c0.9-1.1,1.9-2.3,2.8-3.4c2.5-0.8,4.9-0.8,7.4,0c0,11.1,0,22.2,0,33.3c0,1.3-0.4,1.6-1.7,1.6
		c-6.2-0.1-12.4,0-18.6,0c-1.3-2.6-2.8-5-5.1-6.7c0.6-0.6,1.3-0.5,2-0.6c1.4,0,2.8,0,4.2,0c2.7,0,2.7,0,2.7-2.6c0-3.9,0-7.9,0-11.8
		C120.6,90.4,120.6,89.5,121.1,88.7z"/>
	<path class="st13" d="M60.2,127.9c-1.5,0-3,0-4.6,0c-1.8,0-2.8-1-2.8-2.9c0-5,0-10,0-15c1.5-0.7,2.9-1.3,4.4-2
		c0.8,0.9,0.5,1.9,0.5,2.9c0,1.1,0.5,1.6,1.6,1.6c1.5,0,3,0,4.5,0c1.1,0,1.6-0.5,1.6-1.6c0-1.7,0-3.4,0-5.1c0-0.8,0-1.6,0.5-2.2
		c1.2-0.6,2.5-1.1,3.7-1.7c0.6,0.6,0.5,1.5,0.5,2.2c0,2.2,0,4.4,0,6.6c0,1.3,0.5,1.8,1.8,1.8c3.6,0,7.2,0,10.8,0
		c0.8,0,1.7-0.1,2.4,0.5c-0.5,2.2-1.4,4.3-1.3,6.6c0.1,2.9,0.6,5.7,2,8.3c-0.6,0.6-1.4,0.6-2.2,0.6c-5,0-10.1,0-15.1,0
		c-0.8,0-1.6-0.1-2.3-0.5c-0.8-0.5-1.3-1.4-2.2-1.8C62.5,125.4,61.4,125.8,60.2,127.9z"/>
	<path class="st14" d="M85.2,113.1c-4.7,0-9.3,0-14,0c-1.2,0-1.6-0.3-1.5-1.5c0.1-3.2,0-6.4,0-9.6c1.5-0.8,2.9-1.6,4.4-2.4
		c1.4-1.3,3.3-1.9,5-2.7c0.3-0.2,0.8-0.2,0.9,0.4c0,4.1,0,8.2,0,12.3c0-4.1,0-8.3,0-12.4c0.1-0.7,0.6-0.9,1.1-1.2
		c0.6-0.2,1.3-0.2,1.9,0c0.5,0.2,0.7,0.7,0.9,1.2c0.9,1.9,2.3,3.2,4,4.3c0.5,0.3,1,0.5,1.2,1.1c-0.3,2-1.6,3.5-2.5,5.1
		c-0.7,1.1-0.4,1.7,0.6,2.1C86.6,110.8,85.9,111.9,85.2,113.1z"/>
	<path class="st3" d="M121.1,88.7c0,5.4,0,10.9,0.1,16.3c0,0.9-0.3,1.3-1.2,1.3c-2.8,0-5.5,0-8.3,0c-1.7-1.4-3.8-2.1-5.8-3
		c-1.8-1.8-3-3.8-3.6-6.3c1.2-3.7,1.2-7.2-1.1-10.6c-0.3-0.4-0.8-0.9,0-1.4c2.3-0.3,4.6-0.7,6.8,0.3c0,6.1,0,12.2,0,18.3
		c0.1,0.1,0.2,0.1,0.4,0.2c1.6-1.9,3.1-3.8,4.8-5.7C115.8,95,118.1,91.5,121.1,88.7z"/>
	<path class="st7" d="M102.5,97.2c1.1,2,2.3,4.1,3.4,6.1c-2.8-0.3-5.6-0.7-8.4-0.1c-4.3,0.8-7.6,3.1-10.3,6.5c-0.2,0-0.3,0-0.5,0
		c-1.8,0.2-1.5-0.6-0.8-1.6c1.1-1.8,2.1-3.7,3.1-5.5c0.1-1.5,1.2-2.6,1.9-3.9c1.5-2.8,3.2-5.5,4.8-8.3c1.3-2.2,1.9-2.3,3.1-0.1
		C100.1,92.5,101.7,94.6,102.5,97.2z"/>
	<path class="st2" d="M66.3,128c6.5,0,13.1-0.1,19.6-0.1c0.6,0.9,1.1,1.8,1.7,2.7c-2.8,0-5.6,0.1-8.4,0.1c-1.5-2-3.1-2-5.8,0
		c-1.9,0.7-3.8,0.8-5.7-0.1C67.3,129.8,66.8,128.9,66.3,128z"/>
	<path class="st16" d="M93.8,107.4c2.5-1.5,5.2-2.2,8.1-2c1.4,0.7,2,2.1,2.7,3.4c0.3,0.5,0.3,1-0.4,1.3c-2.8,0.4-5.5,0.2-8.3,0.1
		c-0.2,0-0.4-0.1-0.6-0.1C94.4,109.4,93.7,108.6,93.8,107.4z"/>
	<path class="st17" d="M104.6,109.6c-0.7-1.6-1.8-2.9-2.7-4.3c3.1,0.3,6,1.3,8.4,3.3c3.1,2.5,4.9,5.8,5.1,9.8c0.1,2,0.5,4.2-0.7,6.1
		c-0.2,0.1-0.3,0-0.4-0.2c0-1.5,0.4-2.8,0.4-4.3c0-2.4-0.5-4.5-1.6-6.6c-0.4-1-1.1-1.8-1.8-2.6c-0.7-0.8-1.2-1.8-2.7-0.9
		c-1,0.6-2.4,0.3-3.6,0C104.8,109.9,104.7,109.8,104.6,109.6z"/>
	<path class="st18" d="M90,129c-2.2-2-3-4.7-3.3-7.4c-0.2-2.1-0.4-4.2,0.7-6.2c0.2,0,0.4,0,0.4,0.2c0.2,0.6-0.1,1.2-0.2,1.8
		c-0.6,2.9,0,5.7,1.2,8.4c0.5,1.1,1.3,1.7,2.6,1.7c1.4,0,2.8-0.2,4.2,0.2c1,0.8,2.2,1.6,1.7,3.2c-0.6,0.4-1.3,0.3-1.9,0.3
		c-0.9,0-1.9,0.1-2.8-0.1C91.4,130.8,90.8,129.8,90,129z"/>
	<path class="st19" d="M87.6,115.4c-0.1,0-0.2-0.1-0.3-0.1c0.5-1.8,1.2-3.5,2.7-4.7c1.5-1.7,2.8-1.9,5-1c0.1,0,0.2,0,0.4,0
		c0.7,0.6,1.1,1.4,1.6,2.2c0.3,0.5,0.6,1-0.1,1.5c-1.6,0.4-3.1,0.3-4.7,0.1c-0.3-0.1-0.5-0.2-0.7-0.4c-1.4-1.4-1.4-1.4-2.5,0.3
		C88.5,114,88.6,115,87.6,115.4z"/>
	<path class="st3" d="M92.8,137.8c-1.8-0.4-2.5-2-3.5-3.3c-0.4-0.5-0.6-1-1-1.5c0.1-0.3,0.3-0.7,0.4-1c1.8,1.2,3.6,2.5,5.4,3.7
		C93.7,136.4,93.2,137.1,92.8,137.8z"/>
	<path class="st20" d="M109.3,131.3c-0.1,0.3-0.3,0.5-0.7,0.7c-1.2,0.6-2.3,1.3-3.7,1c-0.9-0.6-1.8-1.2-1.2-2.5
		c1.6-0.5,3.3-0.3,4.9-0.2c0.3,0.1,0.5,0.2,0.7,0.5C109.4,131,109.4,131.1,109.3,131.3z"/>
	<path class="st17" d="M95.1,109.6c-0.5,0-1.1,0.1-1.6,0c-1.3-0.2-2.4,0.2-3.4,1c0.8-1.6,2.3-2.4,3.7-3.3
		C94.2,108.1,94.6,108.9,95.1,109.6z"/>
	<path class="st21" d="M90,129c1,0.3,1.3,1.6,2.5,1.7c1.1,0.5,2,1.4,3.2,1.7c1.3,0.8,2.8,0.6,4.1,1.5c0.1,0.1,0.1,0.3,0.1,0.5
		c-3.5-0.2-6.4-1.7-9-4C90.5,129.9,90,129.6,90,129z"/>
	<path class="st22" d="M109.3,131.3c0-0.1,0-0.2,0-0.3c0.9-1.1,2.2-1.9,2.9-3.2c0.9-1,1-2.5,2.2-3.3c0.1,0,0.2,0,0.2,0
		c-0.7,2.7-2.3,4.7-4.2,6.5C110.1,131.4,109.7,131.3,109.3,131.3z"/>
	<path class="st23" d="M104.9,132.7c1.3,0.2,2.5-0.4,3.8-0.7c-0.9,1.1-2.1,1.4-3.4,1.6c-0.1-0.1-0.2-0.2-0.3-0.3
		C104.8,133.1,104.8,132.9,104.9,132.7z"/>
	<path class="st22" d="M105.2,133.4c0,0.1,0,0.2,0,0.3c-1.7,0.8-3.5,0.8-5.4,0.7c0-0.1,0-0.2,0-0.3c0.1-0.1,0.1-0.1,0.2-0.2
		C101.8,133.7,103.5,132.9,105.2,133.4z"/>
	<path class="st0" d="M67.7,130.6c1.9,0,3.8,0,5.7,0.1c-1.2,1.7-2,3.6-2.6,5.6c-0.6,1.9-1.1,3.9-1.7,5.9
		C69.2,138.2,69,134.4,67.7,130.6z"/>
	<path class="st7" d="M67.7,146.5c-0.3,0-0.7,0-1,0c0.1-5.2-1.1-10.1-3.3-14.8c-0.2-0.4-0.7-1-0.1-1.3c0.7-0.3,0.8,0.4,1,0.8
		c1.6,3.5,2.7,7.1,3.1,10.9C67.5,143.6,67.7,145.1,67.7,146.5z"/>
	<path class="st7" d="M71.1,146.5c-0.3,0-0.7,0-1,0c0.4-3,1.7-5.8,2.8-8.6c0.5-1.2,1.1-2.3,1.6-3.5c0.2-0.4,0.5-0.9,1-0.6
		c0.6,0.3,0.1,0.8-0.1,1.1C73.6,138.7,71.8,142.4,71.1,146.5z"/>
	<path class="st7" d="M65,146.5c-0.4,0-0.9,0-1.3,0c-0.6-2.6-2.2-4.6-3.5-6.8c-0.3-0.5-1.4-1.2-0.6-1.8c0.7-0.5,1.2,0.7,1.5,1.2
		C62.5,141.5,64,143.9,65,146.5z"/>
	<path class="st6" d="M43.3,155.3c0.3,0.1,0.6,0.1,0.7-0.2c0.7,0,1.3,0,2,0c0,0.2,0,0.4,0,0.6c-0.7,1.6-2,0.6-3.1,0.6
		c0-0.3,0-0.6,0-0.9C43.1,155.4,43.2,155.3,43.3,155.3z"/>
	<path class="st14" d="M108,85.3c-2.4,0-4.7,0.1-7.1,0.1c-0.4,0.1-0.7,0-0.9-0.3c-4.5-4.2-11.5-3.5-15.5,1.9c-0.1,0.2,0-0.1-0.1,0.1
		c-1,0.4-2,0.7-2.8,1.3c-0.4,0.3-0.9,0.7-1.4,0c0-2.5,0-5.1,0-7.6c0,2.6-0.1,5.2,0,7.8c0.3,1.2-0.6,1.8-1.3,2.5
		c-1.8,1.1-3.7,2-5.7,2.8c-0.5,0.2-1.1,0.6-1.7,0.4c-0.5,0.2-1.1,0.4-1.6,0.7c0-5.7,0-11.3,0-17c0.7-0.6,1.5-0.5,2.2-0.5
		c11.1,0,22.3,0,33.4,0c0.8,0,1.6-0.1,2.2,0.5C107.7,80.5,107.5,82.9,108,85.3z"/>
	<path class="st14" d="M66,77.1c0,6.7,0,13.3,0,20c-2.8,1.6-5.8,2.9-8.8,4.2c0-8,0-16.1,0-24.1c0.5-0.4,1.1-0.5,1.7-0.5
		C61.3,76.8,63.7,76.1,66,77.1z"/>
	<path class="st14" d="M66,103.6c0,2.6-0.1,5.3,0,7.9c0,1.2-0.4,1.6-1.6,1.5c-1.9-0.1-3.8-0.1-5.7,0c-1.1,0-1.7-0.3-1.6-1.5
		c0.1-1.2,0-2.4,0-3.5c0.9-0.5,1.8-0.9,2.7-1.4c1.9-0.1,2.9-1.7,4.5-2.4C64.9,104,65.5,103.8,66,103.6z"/>
	<path class="st5" d="M71.4,94.5c2.4-1.1,4.7-2.3,7.1-3.4c1.5,1.4,2.2,3.2,2.7,5.1c-0.3,0.2-0.7,0.5-1,0.7c-0.1,0.1-0.2,0.1-0.3,0
		c-2,0.8-3.7,2-5.7,2.7C72.7,98.1,72.2,96.2,71.4,94.5z"/>
	<path class="st6" d="M64.4,104.2c-0.7,1.2-2.1,1.7-3.2,2.5c-0.4,0.3-0.9,0.3-1.3-0.2c-0.1-0.5-0.9-0.8-0.6-1.3
		c0.5-0.9,1.1-1.8,1.6-2.6C61.2,102.1,63.9,103.4,64.4,104.2z"/>
	<path class="st2" d="M50.1,104.9c0-0.8,0-1.5,0.1-2.3c0.5,0.5,1.1,0.9,1.6,1.4C51.3,104.5,50.6,104.6,50.1,104.9z"/>
	<path class="st14" d="M148.9,96.8c0,4.9,0,9.8,0,14.7c0,1.3-0.4,1.7-1.6,1.6c-1.9-0.1-3.7-0.1-5.6,0c-1.3,0.1-1.7-0.3-1.6-1.6
		c0.1-4.9,0-9.8,0-14.7c0.5-0.4,1.1-0.5,1.7-0.5C144.2,96.5,146.6,95.7,148.9,96.8z"/>
	<path class="st14" d="M149.2,77.5c0,2.4,0,4.7,0,7.1c0,0.9-0.2,1.5-1.3,1.4c-2.1-0.1-4.2-0.1-6.2,0c-1.1,0-1.3-0.5-1.3-1.4
		c0-2.4,0-4.7,0-7.1c0.5-0.4,1.1-0.5,1.7-0.5C144.5,77.2,147,76.4,149.2,77.5z"/>
	<path class="st2" d="M148.9,96.8c-2.9,0-5.8,0-8.8,0c-0.1-3-0.1-3,2.9-3c1.4,0,2.8,0.1,4.2,0c1.4-0.1,2,0.2,1.7,1.7
		C148.9,95.9,148.9,96.3,148.9,96.8z"/>
	<path class="st2" d="M149.2,77.5c-2.9,0-5.8,0-8.8,0c-0.1-3-0.1-3,2.9-3c1.4,0,2.8,0.1,4.2,0c1.4-0.1,2,0.2,1.7,1.7
		C149.2,76.6,149.3,77,149.2,77.5z"/>
	<path class="st2" d="M137.1,78.1c-2.5,0-4.9,0-7.4,0c1.1-1.2,2-2.8,3.4-3.8c0.2,0,0.3,0,0.5,0C137.1,74.5,137.1,74.5,137.1,78.1z"
		/>
	<path class="st2" d="M107.6,78.2c-12.6,0-25.2,0-37.9,0c-0.1-3.7-0.1-3.7,3.6-3.7c11.4,0,22.9,0,34.3,0
		C107.6,75.7,107.6,76.9,107.6,78.2z"/>
	<path class="st13" d="M129.9,68c-1.8,2.2-3.6,4.3-5.4,6.5c-0.7,0.4-1.4,0.5-2.1,0.5c-2.3,0-4.5,0-6.8,0c-0.7,0-1.4,0-1.9-0.5
		c0-2.1,0-4.3,0-6.4c0.6-0.6,1.3-0.5,2-0.6c4,0,8,0,12.1,0C128.6,67.5,129.4,67.4,129.9,68z"/>
	<path class="st13" d="M107.6,66.3c-13.1,0-26.2,0-39.4,0c-0.4,0-0.8,0-1.2-0.1c-0.4-0.1-0.7-0.4-0.6-0.9c0-0.4,0.3-0.6,0.6-0.7
		c0.4-0.1,0.8-0.1,1.2-0.1c13.1,0,26.2,0,39.4,0C107.6,65.2,107.6,65.8,107.6,66.3z"/>
	<path class="st2" d="M113.8,74.5c3.6,0,7.2,0,10.8,0c-1,1.2-2,2.4-3.1,3.7c-2.6,0.8-5.2,0.9-7.7,0
		C113.8,76.9,113.8,75.7,113.8,74.5z"/>
	<path class="st14" d="M113.7,78.2c2.6,0,5.2,0,7.7,0c-2.1,2.4-3.8,5-6.1,7.2c-0.5,0.2-0.9,0.3-1.3-0.1
		C114.3,82.9,113.5,80.6,113.7,78.2z"/>
	<path class="st14" d="M129.9,68c-5.4,0-10.8,0-16.1,0c0-0.6,0-1.1,0-1.7c1.5-0.8,2.9-0.7,4.4,0c0.7,0,1.3,0,2,0c3.7,0,7.5,0,11.2,0
		C130.9,66.9,130.4,67.5,129.9,68z"/>
	<path class="st2" d="M126.9,81.6c0,8.5,0,17,0.1,25.5c0,1-0.3,2,0.2,3c0.2,0.5-0.1,0.8-0.5,0.9c-0.4,0.1-0.7-0.3-0.7-0.7
		c0.6-7.3,0.1-14.7,0.3-22.1c0-1.9,0-3.7,0-5.6C126.2,82.1,126.4,81.7,126.9,81.6z"/>
	<path class="st13" d="M118.1,66.3c-1.5,0-2.9,0-4.4,0c0-0.6,0-1.1,0-1.7c1.1-0.9,2.2-0.5,3.3,0C117.4,65.2,117.8,65.8,118.1,66.3z"
		/>
	<path class="st14" d="M117.1,64.6c-1.1,0-2.2,0-3.3,0c-0.1-0.6,0-1.1,0.8-1c0.6,0,1.2,0,1.8,0C116.3,64.2,116.9,64.2,117.1,64.6z"
		/>
	<path class="st2" d="M109.5,76.8c-0.4-0.1-1.2,0.3-1.1-0.6c0.1-0.8,0.8-0.4,1.2-0.4c0.4,0,1-0.2,1,0.4
		C110.6,77.1,109.9,76.7,109.5,76.8z"/>
	<path class="st2" d="M109.5,68c0.4,0.1,1.2-0.3,1.2,0.5c0,0.8-0.7,0.5-1.2,0.5c-0.4,0-1,0.3-1.1-0.4C108.3,67.8,109,68.1,109.5,68z
		"/>
	<path class="st2" d="M109.5,95.1c-0.5-0.2-1.2,0.2-1.2-0.6c0.1-0.7,0.7-0.4,1.1-0.4c0.4,0,1.2-0.3,1.2,0.5
		C110.6,95.4,109.8,94.9,109.5,95.1z"/>
	<path class="st2" d="M109.5,86.3c0.4,0.1,1.2-0.3,1.1,0.6c-0.1,0.8-0.8,0.4-1.2,0.4c-0.4,0-1,0.2-1-0.4
		C108.3,86,109.1,86.4,109.5,86.3z"/>
	<path class="st3" d="M141.1,64.7c0,1.6-0.1,1.8-1.3,1.7C139.8,65.5,140.5,65.1,141.1,64.7z"/>
	<path class="st2" d="M108.4,73.8c0.7-0.5,1.4-0.4,2.5-0.1C109.9,74.3,109.2,74.1,108.4,73.8z"/>
	<path class="st2" d="M110.6,89.3c-0.7,0.5-1.4,0.5-2.5,0.1C109.1,88.9,109.8,89,110.6,89.3z"/>
	<path class="st2" d="M108.4,92.1c0.7-0.5,1.4-0.4,2.6-0.2C109.9,92.6,109.2,92.4,108.4,92.1z"/>
	<path class="st2" d="M110.6,66c-0.7,0.5-1.4,0.4-2.6,0.2C109.1,65.5,109.8,65.7,110.6,66z"/>
	<path class="st2" d="M110.6,63.3c-0.7,0.5-1.4,0.5-2.5,0.1C109.1,62.8,109.8,62.9,110.6,63.3z"/>
	<path class="st2" d="M111,81.5c-1.1,0.5-1.9,0.4-2.9,0.1C109.1,81,109.8,81.2,111,81.5z"/>
	<path class="st2" d="M108,71c1.1-0.4,1.8-0.3,2.6,0C109.8,71.5,109.1,71.5,108,71z"/>
	<path class="st2" d="M111,78.8c-1.1,0.5-1.9,0.4-2.9,0.1C109.1,78.3,109.8,78.5,111,78.8z"/>
	<path class="st2" d="M110.6,84.3c-0.7,0.5-1.4,0.4-2.6,0.2C109.1,83.7,109.8,83.9,110.6,84.3z"/>
	<path class="st3" d="M114.1,85.3c0.4,0,0.9,0.1,1.3,0.1c-0.3,0.5-0.4,1.1-1.2,1.5C113.9,86.3,114.1,85.8,114.1,85.3z"/>
	<path class="st5" d="M148.6,65.5c-0.1,0.8-0.8,1.1-1.3,1.1c-0.6,0-1-0.6-1-1.3c0-0.8,0.6-1,1.2-1C148.3,64.3,148.4,64.9,148.6,65.5
		z"/>
	<path class="st7" d="M143.7,66.6c-0.5-0.3-1.2-0.3-1.2-1.2c0-0.8,0.4-1.1,1.2-1.1c0.7,0,1.2,0.2,1.2,1
		C144.9,66.2,144.2,66.3,143.7,66.6z"/>
	<path class="st2" d="M66,77.1c-2.9,0-5.8,0-8.8,0c-0.1-2.7-0.1-2.7,2.5-2.7c1.5,0,3,0.1,4.5,0c1.4-0.1,2,0.2,1.7,1.7
		C65.9,76.4,66,76.8,66,77.1z"/>
	<path class="st2" d="M61.6,64.7c0.3,0.1,0.6,0.3,0.6,0.9c0,0.6-0.6,0.7-0.9,0.7c-0.6,0.1-0.4-0.5-0.4-0.8
		C60.9,65,60.9,64.6,61.6,64.7z"/>
	<path class="st2" d="M58.5,64.6c0.7,0.2,0.3,0.7,0.4,1.1c0,0.3,0,0.7-0.4,0.5c-0.4-0.2-1-0.5-0.9-1C57.7,65,58.2,64.8,58.5,64.6z"
		/>
	<path class="st13" d="M120.2,44c-0.5-0.1-1.2,0-1.3-0.7c-0.1-0.8,1-0.5,1.3-1l0,0c0.5,0.3,1.2-0.7,1.6,0c0.4,0.7-0.3,1.1-0.6,1.6
		C120.8,44.3,120.5,44.3,120.2,44z"/>
	<path class="st8" d="M123.9,39.6c-0.3-0.2-0.3-0.4-0.3-0.7c0-0.4,0.1-0.7,0.5-0.8c0.1,0,0.4,0,0.4,0.1c0.2,0.3,0.2,0.6-0.1,0.9
		C124.2,39.3,124,39.4,123.9,39.6C123.9,39.6,123.9,39.6,123.9,39.6z"/>
	<path class="st8" d="M120.2,42.3c-1.7,0-0.7-1.3-0.9-2C119.2,41.1,119.9,41.6,120.2,42.3C120.2,42.3,120.2,42.3,120.2,42.3z"/>
	<path class="st2" d="M120.5,38.9c0.8-0.1,0.7,0.5,0.6,1c0,0.4-0.3,0.1-0.5,0.1C119.7,39.7,120.4,39.3,120.5,38.9
		C120.5,38.9,120.5,38.9,120.5,38.9z"/>
	<path class="st8" d="M120.2,44c0.3,0,0.6-0.1,1-0.1c0.4,0.4,0,0.6-0.3,0.6C120.4,44.7,120.2,44.5,120.2,44z"/>
	<path class="st13" d="M168.4,84.6c-1-0.1-1.5-0.6-1.5-1.7c0.1-1.1,0.9-1.6,1.8-1.6c0.9,0,1.5,0.8,1.5,1.7
		C170.2,84.2,169.3,84.6,168.4,84.6z"/>
	<path class="st13" d="M79,49.1c1.1,0.2,1.8,0.8,1.8,1.8c-0.1,0.9-0.8,1.6-1.8,1.5c-0.9,0-1.4-0.6-1.4-1.5
		C77.5,49.9,78.2,49.4,79,49.1z"/>
	<path class="st5" d="M84.3,87c1.4-2.7,3.7-4.1,6.5-4.7c3.9-0.9,7.2,0.3,10.1,3.1c3,3.6,3.6,7.5,1.7,11.8c-1.7-2.8-3.4-5.6-5.3-8.6
		c-2.8,4.8-5.5,9.4-8.2,14.1c-2.4-1.5-4.6-3-5.6-5.8c-0.1-0.2-0.1-0.4-0.1-0.6c1.5-0.8,3.3-0.6,4.7-1.6c2.8-1.7,5-4.3,6.3-7.6
		c-0.6,0.3-1,0.6-1.5,0.8c-1.5,0.8-3,1-4.5,0.2c-0.9-0.5-1.9-0.8-2.9-0.8C85.1,87.2,84.6,87.3,84.3,87z"/>
	<path class="st13" d="M88.3,94.8c-1.5,1.1-3.2,1.4-5,1.3c-0.7,0-1.4,0-2.1,0c-0.9-1.7-1.8-3.4-2.7-5.1c0.5-0.7,1.3-1.1,1.4-2.1
		c0.1-0.1,0.2-0.3,0.4-0.3c1.4-0.5,2.4-1.9,4-1.7c0.3-0.1,0.6-0.2,1-0.3c1.4,0.9,2,2.1,1.6,3.9C86.4,92.2,87.3,93.6,88.3,94.8z"/>
	<path class="st2" d="M79.9,96.8c0.1,0,0.2,0,0.3,0c0,3.9,0.1,7.8-0.1,11.6c0,0.8,1.1,2.3-0.2,2.4c-1,0,0-1.4,0-2.2
		C79.8,104.7,79.9,100.8,79.9,96.8z"/>
	<path class="st24" d="M97.1,113c-0.2-1.3-1.6-2-1.7-3.4c3.1,0,6.1,0,9.2,0c0.1,0,0.2,0,0.3,0.1c1,0.6,1.4,1.7,2,2.7
		c0.3,0.5,0.1,0.9-0.4,1c-2.7,0.3-5.4,0.1-8.1,0.1C97.9,113.5,97.5,113.4,97.1,113z"/>
	<path class="st13" d="M97.1,113c3.3,0,6.5,0,9.8,0c2.1-0.9,4.3-0.8,6.4,0c2.2,3.7,2.2,7.5,1.1,11.5c-0.7,1.1-1,2.5-2.1,3.4
		c-1.6,0.9-3.4,0.3-5.1,0.5c-1.8,0-3.6,0-5.4,0c-2-0.1-4.1,0.4-6.1-0.5c-1.6,0-3.2-0.1-4.7,0c-1.3,0.1-1.9-0.5-2.4-1.5
		c-1.8-3.6-2.2-7.2-0.9-11c0.4-0.8,0.7-1.6,1.1-2.4c1-0.6,2-0.7,3,0C93.5,113,95.3,113,97.1,113z"/>
	<path class="st19" d="M113.3,113.1c-2.1,0-4.2,0-6.4,0c-0.7-1.1-1.3-2.2-2-3.3c1.1,0,2.3,0,3.4-0.1c0.8,0,0.8-0.1,0.8-1.2
		C111.1,109.5,112.4,111.1,113.3,113.1z"/>
	<path class="st25" d="M95.8,128c2.1,0,4.1,0,6.2,0c0.7,0.9,2.1,1.4,1.1,2.9c-1.7,0.4-3.3,0.3-5,0.1c-0.2-0.1-0.4-0.2-0.5-0.4
		C96.9,129.7,96.3,128.9,95.8,128z"/>
	<path class="st26" d="M97.5,130.6c0.1,0,0.2,0,0.3,0c0.9,1,2,1.9,2.1,3.4c0,0,0,0,0,0c-1.5-0.3-3-0.5-4.4-1.3c-0.5-0.7-0.5-1.3,0-2
		C96.1,130.6,96.8,130.6,97.5,130.6z"/>
	<path class="st27" d="M95.4,130.7c0,0.7,0,1.3,0,2c-1.2-0.3-2.3-0.9-3-2C93.4,130.7,94.4,130.7,95.4,130.7z"/>
	<path class="st24" d="M91.7,113c-1,0-2,0-3,0c0.1-0.1,0.1-0.3,0.2-0.4c0.5-0.5,0.6-1.6,1.4-1.4C91.2,111.3,91.5,112.2,91.7,113z"/>
	<path class="st28" d="M99.9,134c-0.7-1.1-1.6-2.1-2.1-3.4c1.8,0,3.6,0,5.5,0c0.1-0.1,0.2-0.1,0.3,0c0.4,0.7,0.9,1.4,1.3,2.1
		c0.1,0.2,0.2,0.4,0.3,0.7C103.5,133.8,101.7,134.2,99.9,134z"/>
	<path class="st18" d="M103.6,130.6c-0.1,0-0.2,0-0.3,0c-0.1-1.1-1.3-1.6-1.3-2.7c1.8,0,3.6,0,5.4,0c0.9,0.7,1.7,1.4,1.7,2.7
		C107.2,130.7,105.4,130.7,103.6,130.6z"/>
	<path class="st25" d="M109,130.7c-0.6-0.9-1.1-1.8-1.7-2.7c1.7,0,3.4,0,5.1,0c-0.6,1.4-1.6,2.4-3,3
		C109.2,130.9,109.1,130.8,109,130.7z"/>
	<path class="st2" d="M80.3,88.7c-0.1,0.1-0.3,0.2-0.4,0.3c-0.2-2.8,0.4-5.7-0.3-8.5c-0.1-0.4,0.2-0.8,0.4-0.8
		c0.4,0,0.6,0.4,0.5,0.8C79.9,83.2,80.3,86,80.3,88.7z"/>
	<path class="st7" d="M88.3,94.8c-1.6-0.8-2.5-2.2-1.9-4.2c0.4-1.4,0.2-2.4-0.9-3.3c-0.1-0.1-0.1-0.4-0.2-0.6
		c0.9,0.2,1.8,0.2,2.6,0.7c2.1,1.3,4,0.8,5.9-0.5c0.3-0.2,0.6-0.6,1.2-0.4C93.6,90,91.6,92.9,88.3,94.8z"/>
</g>
<circle class="st29" cx="100" cy="100" r="98.5"/>
</svg>
