<?xml version="1.0" encoding="utf-8"?>
<!-- Generator: Adobe Illustrator 22.0.0, SVG Export Plug-In . SVG Version: 6.00 Build 0)  -->
<svg version="1.1" id="Calque_1" xmlns="http://www.w3.org/2000/svg" xmlns:xlink="http://www.w3.org/1999/xlink" x="0px" y="0px"
	 viewBox="0 0 200 200" style="enable-background:new 0 0 200 200;" xml:space="preserve">
<style type="text/css">
	.st0{fill:none;stroke:#A6EDEB;stroke-width:2;stroke-miterlimit:10;}
	.st1{fill:#0FBCBC;}
	.st2{fill:#E0E0E0;}
	.st3{fill:#FFFFFF;}
	.st4{fill:#FF5D31;}
	.st5{fill:#BF2B08;}
	.st6{fill:#211B77;}
	.st7{fill:#EF3B1D;}
	.st8{fill:#FFF200;}
	.st9{fill:#00323D;}
	.st10{fill:#0C0C75;}
	.st11{fill:#04044C;}
	.st12{fill:#00556D;}
	.st13{fill:#07748E;}
	.st14{fill:#003A47;}
	.st15{fill:#35EFEA;}
	.st16{fill:#BCBEC0;}
	.st17{fill:#808285;}
	.st18{fill:#EDB49F;}
	.st19{fill:#018B8F;}
	.st20{opacity:0.76;}
	.st21{opacity:0.36;}
	.st22{opacity:0.34;}
	.st23{fill:#FC4C4E;}
	.st24{opacity:0.32;}
	.st25{fill:#01686B;}
</style>
<circle class="st0" cx="100" cy="100" r="98.5"/>
<path id="XMLID_21_" class="st1" d="M133.6,76.1c0,0-1.8-32.2-40-35.8c-38.2-3.5-64.8,5.3-58.5,24.2c6.3,18.9,43.8,17.2,37.5,34.7
	c-6.3,17.5-42.8,19.3-29.4,38.6c13.3,19.3,112.5,13.7,124.1,4.6c11.6-9.1-12.3-19.3-5.6-28.4c6.7-9.1,25.9-30.1,10.5-33.6
	C156.7,76.8,139.6,88.8,133.6,76.1z"/>
<path id="XMLID_423_" class="st2" d="M153.1,155.2c0-3.1-24.3-5.6-54.2-5.6c-29.9,0-54.2,2.5-54.2,5.6c0,1.9,9.4,3.6,23.6,4.6
	c-1.4,0.4-2.1,0.9-2.1,1.3c0,2.3,17.7,4.1,39.5,4.1c21.8,0,39.5-1.8,39.5-4.1c0-0.8-2.3-1.6-6.2-2.2
	C147.8,158,153.1,156.7,153.1,155.2z"/>
<g id="XMLID_208_">
	<path id="XMLID_209_" class="st3" d="M51.6,75.6C29.8,64,37,58.3,41.9,53.8c4.9-4.4,4.2,2.6,10.5,8.9c6.3,6.3,36,5.6,54.4,3.3
		c18.5-2.3,1.2-11-11.7-10.5c-12.9,0.5-20.8-7.2-18.2-10c2.6-2.8,17.5,4.4,19.2,0.7c0.9-2-10.3-4.6-21-6.5
		c-27.8,0.5-45.2,9.2-39.9,24.9C39,76.1,54.5,80,64.5,85.2C60.6,81.4,56.2,78.1,51.6,75.6z"/>
	<path id="XMLID_210_" class="st3" d="M48.4,139.6c-2.1-4,3.3-3.5,7.9-7.9c4.7-4.4-4.9,0.5-11.7-0.5s13.1-9.8,29.5-10.7
		c10-0.5,7.5-12.8-0.9-24.9c0,1.1-0.2,2.3-0.7,3.7c-6.3,17.5-42.8,19.3-29.4,38.6c2.3,3.3,7.2,5.9,13.8,7.9
		C56.3,142.8,50.3,143,48.4,139.6z"/>
	<path id="XMLID_211_" class="st3" d="M161.5,84.4c-6.3,0.9,0.9,5.4,10,6.5c9.1,1.2-6.1,8.2-13.8,10.3c-7.7,2.1-14.5,10.5,0.5,13.3
		c1,0.2,1.9,0.5,2.6,0.8c0.2-0.5,0.4-0.9,0.8-1.4c5.8-7.9,21.2-25,14.8-31.5C173.1,83.7,165.9,83.8,161.5,84.4z"/>
	<path id="XMLID_212_" class="st3" d="M159,141.4c1.9,6.2-17.3,0.2-24.3,5.4c-1.4,1-2.3,1.9-3,2.8c17.5-1.4,31.6-4.1,35.6-7.3
		c7-5.5,1.1-11.4-3.3-17.2C162.3,131.2,157.9,138,159,141.4z"/>
</g>
<g id="XMLID_18_">
	<path id="XMLID_20_" class="st4" d="M62,85.7c0,0,0.5-12.6-10.9-17.2c-11.4-4.6-17.7-0.4-21.7-1.9c-4-1.6-5.1-5.4-5.6-5.4
		c-0.5,0-4.2,6.7,2.3,14.7c6.5,8.1,19.5,2.8,25.1,5.3c5.6,2.5,6.7,4.6,8.1,4.7c1.4,0.2,1.2,6.8,3,6.7c1.8-0.2,3.9-2.1,2.6-2.1
		C63.6,90.4,62,85.7,62,85.7z"/>
	<path id="XMLID_19_" class="st5" d="M59.7,82.3c0-0.1-0.1-0.1-0.2-0.3c-0.1-0.1-0.2-0.3-0.3-0.4c-0.1-0.2-0.3-0.3-0.5-0.5
		c-0.4-0.4-0.8-0.8-1.3-1.3l-0.2-0.3c-0.1-0.1-0.2-0.3-0.2-0.4l-0.1-0.2c0-0.1-0.1-0.1-0.1-0.2c0-0.1-0.1-0.1-0.1-0.2l-0.1-0.2
		c0-0.1,0-0.2-0.1-0.2c0-0.1,0-0.2,0-0.2c0-0.2,0-0.3-0.1-0.5c0-0.2,0-0.3,0-0.5c0-0.3,0.1-0.6,0.1-1c-0.2,0.3-0.2,0.6-0.3,0.9
		c0,0.2,0,0.3-0.1,0.5c0,0.2,0,0.3,0,0.5c0,0.1,0,0.2,0,0.3c0,0.1,0,0.2,0,0.2l0.1,0.2c0,0.1,0.1,0.2,0.1,0.2c0,0.1,0.1,0.2,0.1,0.2
		c-0.3-0.3-0.7-0.6-1.1-0.9c-0.2-0.2-0.5-0.3-0.7-0.5c-0.1-0.1-0.1-0.2-0.2-0.3L54.4,77c-0.1-0.1-0.1-0.2-0.1-0.3
		c0-0.1-0.1-0.2-0.1-0.3l-0.1-0.3c0-0.1-0.1-0.2-0.1-0.3c0-0.1,0-0.2-0.1-0.3c0-0.1,0-0.2,0-0.3l0-0.3c0-0.2,0-0.4,0-0.7
		c0-0.2,0-0.4,0.1-0.7c0-0.2,0.1-0.4,0.2-0.7c-0.2,0.4-0.3,0.8-0.4,1.3c0,0.2,0,0.5-0.1,0.7l0,0.3c0,0.1,0,0.2,0,0.3
		c0,0.1,0,0.2,0,0.3c0,0.1,0,0.2,0.1,0.3l0.1,0.3c0,0.1,0.1,0.2,0.1,0.3c0,0.1,0.1,0.2,0.1,0.3c-0.4-0.2-0.7-0.5-1.1-0.7
		c-0.4-0.3-0.9-0.5-1.4-0.8l0,0c-0.1-0.1-0.2-0.2-0.3-0.3L51.1,75c-0.1-0.1-0.2-0.2-0.2-0.3c-0.1-0.1-0.2-0.2-0.2-0.3L50.4,74
		c-0.1-0.1-0.1-0.2-0.2-0.4c-0.1-0.1-0.1-0.2-0.2-0.4c0-0.1-0.1-0.2-0.1-0.4l-0.1-0.4c-0.1-0.3-0.1-0.5-0.2-0.8
		c0-0.3-0.1-0.5-0.1-0.8c0-0.3,0-0.5,0-0.8c-0.1,0.5-0.1,1.1-0.1,1.6c0,0.3,0.1,0.5,0.1,0.8l0.1,0.4c0,0.1,0.1,0.3,0.1,0.4
		c0,0.1,0.1,0.3,0.1,0.4c0.1,0.1,0.1,0.3,0.2,0.4l0.2,0.4c0.1,0.1,0.1,0.2,0.2,0.4c0.1,0.1,0.1,0.2,0.2,0.3l0,0
		c-0.3-0.1-0.5-0.2-0.8-0.4c-0.5-0.2-1.1-0.4-1.6-0.7c-0.6-0.2-1.1-0.4-1.7-0.6c-0.1,0-0.2,0-0.2-0.1c-0.1-0.1-0.1-0.1-0.2-0.2
		l-0.3-0.3C46,73,46,72.8,45.9,72.7c-0.1-0.1-0.2-0.2-0.2-0.3L45.5,72c-0.1-0.1-0.1-0.2-0.2-0.4c-0.1-0.1-0.1-0.2-0.2-0.4
		c0-0.1-0.1-0.2-0.1-0.4l-0.1-0.4c-0.1-0.3-0.1-0.5-0.2-0.8c0-0.3-0.1-0.5-0.1-0.8c0-0.3,0-0.5,0-0.8c-0.1,0.5-0.1,1.1-0.1,1.6
		c0,0.3,0.1,0.5,0.1,0.8l0.1,0.4c0,0.1,0.1,0.3,0.1,0.4c0,0.1,0.1,0.3,0.1,0.4c0.1,0.1,0.1,0.3,0.2,0.4l0.2,0.4
		c0.1,0.1,0.1,0.2,0.2,0.4c0.1,0.1,0.1,0.2,0.2,0.3l0.1,0.1c-0.9-0.2-1.8-0.4-2.8-0.5c-0.3,0-0.6-0.1-0.9-0.1l-0.9,0c0,0,0,0,0,0
		c0,0,0,0-0.1-0.1L41,72.4c-0.1-0.1-0.2-0.2-0.2-0.3c-0.1-0.1-0.2-0.2-0.2-0.3l-0.2-0.3c-0.1-0.1-0.1-0.2-0.2-0.4
		c-0.1-0.1-0.1-0.2-0.2-0.4c0-0.1-0.1-0.2-0.1-0.4l-0.1-0.4c-0.1-0.3-0.1-0.5-0.2-0.8c0-0.3-0.1-0.5-0.1-0.8c0-0.3,0-0.5,0-0.8
		c-0.1,0.5-0.1,1.1-0.1,1.6c0,0.3,0.1,0.5,0.1,0.8l0.1,0.4c0,0.1,0.1,0.3,0.1,0.4c0,0.1,0.1,0.3,0.1,0.4c0.1,0.1,0.1,0.3,0.2,0.4
		l0.2,0.4c0.1,0.1,0.1,0.2,0.2,0.4c0.1,0.1,0.1,0.2,0.2,0.3l0.1,0.2c-0.2,0-0.3,0-0.5,0l-0.4,0l-0.4,0c-0.3,0-0.6,0-0.9,0
		c-0.3,0-0.6,0-0.9,0c-0.2,0-0.3,0-0.5,0l0,0c-0.1-0.1-0.2-0.2-0.3-0.3l-0.3-0.3c-0.1-0.1-0.2-0.2-0.2-0.3c-0.1-0.1-0.2-0.2-0.2-0.3
		l-0.2-0.3c-0.1-0.1-0.1-0.2-0.2-0.4c-0.1-0.1-0.1-0.2-0.2-0.4c0-0.1-0.1-0.2-0.1-0.4l-0.1-0.4c-0.1-0.3-0.1-0.5-0.2-0.8
		c0-0.3-0.1-0.5-0.1-0.8c0-0.3,0-0.5,0-0.8c-0.1,0.5-0.1,1.1-0.1,1.6c0,0.3,0.1,0.5,0.1,0.8l0.1,0.4c0,0.1,0.1,0.3,0.1,0.4
		c0,0.1,0.1,0.3,0.1,0.4c0.1,0.1,0.1,0.3,0.2,0.4l0.2,0.4c0.1,0.1,0.1,0.2,0.2,0.4c0.1,0.1,0.1,0.2,0.2,0.3l0.3,0.3
		c0,0,0,0.1,0.1,0.1c-0.2,0-0.5,0-0.7-0.1c-0.6-0.1-1.1-0.2-1.6-0.3c-0.5-0.1-1-0.2-1.5-0.4c0,0,0,0,0,0l0,0
		c-0.1-0.1-0.3-0.3-0.4-0.4l-0.2-0.2c-0.1-0.1-0.1-0.2-0.2-0.2c-0.1-0.1-0.1-0.2-0.2-0.2l-0.1-0.2c0-0.1-0.1-0.2-0.1-0.3
		c0-0.1-0.1-0.2-0.1-0.3c-0.1-0.2-0.1-0.4-0.2-0.5c0-0.2-0.1-0.4-0.1-0.6c-0.1-0.4-0.1-0.8-0.1-1.2c-0.1,0.4-0.1,0.8-0.1,1.2
		c0,0.2,0,0.4,0.1,0.6c0,0.2,0.1,0.4,0.1,0.6c0,0.1,0.1,0.2,0.1,0.3c0,0.1,0.1,0.2,0.1,0.3l0.1,0.3c0,0.1,0.1,0.2,0.2,0.3
		c0.1,0.1,0.1,0.2,0.2,0.3l0.2,0.2c0,0,0,0,0,0c-0.3-0.1-0.5-0.2-0.8-0.2c-0.2-0.1-0.4-0.2-0.7-0.3c-0.1,0-0.2-0.1-0.3-0.1
		c-0.1,0-0.2-0.1-0.3-0.1c-0.4-0.2-0.8-0.4-1.1-0.6c-0.2-0.1-0.4-0.2-0.5-0.3c-0.2-0.1-0.3-0.2-0.5-0.3c-0.6-0.4-1.1-0.8-1.5-1.2
		c-0.4-0.4-0.6-0.7-0.8-0.9c-0.2-0.2-0.2-0.4-0.2-0.4s0.1,0.1,0.2,0.4c0.1,0.2,0.4,0.6,0.7,1c0.4,0.4,0.8,0.9,1.4,1.3
		c0.1,0.1,0.3,0.2,0.5,0.4c0.2,0.1,0.3,0.2,0.5,0.3c0.3,0.2,0.7,0.4,1.1,0.7c0.1,0.1,0.2,0.1,0.3,0.2c0.1,0,0.2,0.1,0.3,0.1
		c0.2,0.1,0.4,0.2,0.7,0.3c0.1,0,0.2,0.1,0.3,0.1c-0.1,0-0.2,0-0.3,0.1c-0.2,0.1-0.5,0.1-0.7,0.2c-0.2,0.1-0.4,0.2-0.7,0.3
		c-0.1,0.1-0.2,0.1-0.3,0.2c-0.1,0.1-0.2,0.1-0.3,0.2l-0.3,0.2c-0.1,0.1-0.2,0.2-0.3,0.2c-0.1,0.1-0.2,0.2-0.2,0.3
		c-0.1,0.1-0.1,0.2-0.2,0.3c-0.1,0.1-0.1,0.2-0.2,0.3l-0.1,0.3l0.2-0.3c0-0.1,0.1-0.2,0.2-0.3c0.1-0.1,0.1-0.2,0.2-0.3
		c0.1-0.1,0.2-0.2,0.3-0.2c0.1-0.1,0.2-0.1,0.3-0.2l0.3-0.2c0.1-0.1,0.2-0.1,0.3-0.2c0.1-0.1,0.2-0.1,0.3-0.1
		c0.4-0.2,0.9-0.3,1.3-0.4c0.3-0.1,0.6-0.1,0.9-0.2c0.1,0,0.3,0.1,0.4,0.2c0.5,0.2,1,0.3,1.6,0.4c0.5,0.1,1,0.2,1.5,0.3
		c-0.1,0-0.2,0.1-0.3,0.1c-0.6,0.2-1.3,0.4-1.8,0.7c-0.6,0.3-1.2,0.6-1.6,1.1c-0.1,0.1-0.2,0.2-0.3,0.4c-0.1,0.1-0.2,0.3-0.3,0.4
		c-0.1,0.1-0.2,0.3-0.2,0.4c-0.1,0.1-0.1,0.3-0.2,0.5c0.1-0.1,0.1-0.3,0.2-0.4c0.1-0.1,0.2-0.3,0.3-0.4c0.1-0.1,0.2-0.2,0.3-0.4
		c0.1-0.1,0.2-0.2,0.4-0.3c0.5-0.4,1-0.7,1.6-1c0.6-0.2,1.2-0.4,1.8-0.6c0.5-0.1,0.9-0.2,1.4-0.3c0.3,0,0.6,0.1,0.8,0.1
		c0.6,0.1,1.2,0.1,1.8,0.1l0.4,0l0.5,0c0,0,0,0,0.1,0c-0.2,0.1-0.5,0.1-0.7,0.2c-0.6,0.2-1.3,0.4-1.8,0.7c-0.6,0.3-1.2,0.6-1.6,1.1
		c-0.1,0.1-0.2,0.2-0.3,0.4c-0.1,0.1-0.2,0.3-0.3,0.4c-0.1,0.1-0.2,0.3-0.2,0.4c-0.1,0.1-0.1,0.3-0.2,0.5c0.1-0.1,0.1-0.3,0.2-0.4
		c0.1-0.1,0.2-0.3,0.3-0.4c0.1-0.1,0.2-0.2,0.3-0.4c0.1-0.1,0.2-0.2,0.4-0.3c0.5-0.4,1-0.7,1.6-1c0.6-0.2,1.2-0.4,1.8-0.6
		c0.6-0.2,1.2-0.3,1.9-0.3l0.4,0l0,0l0.2,0c0.3,0,0.6,0.1,0.9,0.1c0.9,0.1,1.8,0.3,2.7,0.5c-0.3,0.1-0.6,0.1-0.9,0.2
		c-0.6,0.2-1.3,0.4-1.8,0.7c-0.6,0.3-1.2,0.6-1.6,1.1c-0.1,0.1-0.2,0.2-0.3,0.4c-0.1,0.1-0.2,0.3-0.3,0.4c-0.1,0.1-0.2,0.3-0.2,0.4
		c-0.1,0.1-0.1,0.3-0.2,0.5c0.1-0.1,0.1-0.3,0.2-0.4c0.1-0.1,0.2-0.3,0.3-0.4c0.1-0.1,0.2-0.2,0.3-0.4c0.1-0.1,0.2-0.2,0.4-0.3
		c0.5-0.4,1-0.7,1.6-1c0.6-0.2,1.2-0.4,1.8-0.6c0.6-0.1,1.1-0.2,1.7-0.3c0.5,0.2,1.1,0.3,1.6,0.5c0.5,0.2,1.1,0.4,1.6,0.6
		c0.4,0.2,0.8,0.4,1.1,0.5c-0.4,0.1-0.8,0.2-1.2,0.2c-0.6,0.2-1.3,0.4-1.8,0.7c-0.6,0.3-1.2,0.6-1.6,1.1c-0.1,0.1-0.2,0.2-0.3,0.4
		c-0.1,0.1-0.2,0.3-0.3,0.4c-0.1,0.1-0.2,0.3-0.2,0.4c-0.1,0.1-0.1,0.3-0.2,0.5c0.1-0.1,0.1-0.3,0.2-0.4c0.1-0.1,0.2-0.3,0.3-0.4
		c0.1-0.1,0.2-0.2,0.3-0.4c0.1-0.1,0.2-0.2,0.4-0.3c0.5-0.4,1-0.7,1.6-1c0.6-0.2,1.2-0.4,1.8-0.6c0.5-0.1,1.1-0.2,1.6-0.3
		c0.4,0.2,0.8,0.4,1.2,0.6c0.4,0.3,0.9,0.5,1.3,0.8c0.1,0,0.1,0.1,0.2,0.1c-0.3,0-0.7,0-1,0c-0.3,0-0.5,0-0.8,0.1
		c-0.3,0-0.5,0.1-0.8,0.1c-0.1,0-0.3,0.1-0.4,0.1c-0.1,0-0.3,0.1-0.4,0.1l-0.4,0.2c-0.1,0.1-0.2,0.1-0.4,0.2
		c-0.1,0.1-0.2,0.2-0.3,0.2l-0.2,0.1c0,0-0.1,0.1-0.1,0.1c-0.1,0.1-0.2,0.2-0.3,0.3L49,79.7l0.3-0.3c0.1-0.1,0.2-0.2,0.3-0.3
		c0,0,0.1-0.1,0.1-0.1l0.2-0.1c0.1-0.1,0.2-0.1,0.3-0.2c0.1-0.1,0.2-0.1,0.3-0.2l0.4-0.1c0.1,0,0.2-0.1,0.4-0.1
		c0.1,0,0.3-0.1,0.4-0.1c0.1,0,0.3-0.1,0.4-0.1l0.4,0c0.3,0,0.5,0,0.8,0c0.5,0,1,0,1.6,0.1l0,0c0.1,0.1,0.3,0.2,0.4,0.3
		c0.5,0.3,0.9,0.6,1.3,0.9c-0.2,0-0.4,0-0.6,0c-0.2,0-0.4,0-0.6,0.1c-0.2,0-0.4,0.1-0.6,0.1c-0.1,0-0.2,0-0.3,0.1
		c-0.1,0-0.2,0.1-0.3,0.1l-0.3,0.1c-0.1,0-0.2,0.1-0.3,0.1c-0.1,0-0.2,0.1-0.2,0.2c-0.1,0.1-0.2,0.1-0.2,0.2
		c-0.1,0.1-0.1,0.1-0.2,0.2l-0.1,0.3l0.2-0.2c0.1-0.1,0.1-0.1,0.2-0.2c0.1-0.1,0.1-0.1,0.2-0.2c0.1,0,0.2-0.1,0.2-0.1
		c0.1,0,0.2-0.1,0.3-0.1l0.3-0.1c0.1,0,0.2,0,0.3-0.1c0.1,0,0.2,0,0.3-0.1c0.4-0.1,0.7-0.1,1.1-0.1c0.3,0,0.7,0,1,0
		c0.1,0.1,0.1,0.1,0.2,0.2c0.6,0.5,1,0.9,1.4,1.3c0.4,0.4,0.7,0.7,0.9,0.9C59.5,82.2,59.6,82.2,59.7,82.3
		C59.7,82.4,59.7,82.4,59.7,82.3C59.7,82.4,59.7,82.4,59.7,82.3z"/>
</g>
<g id="XMLID_70_">
	<path id="XMLID_17_" class="st6" d="M111.2,76.2c0,0,1.9-3.2,0.7-3.9c-1.2-0.7-6-4.4-5.8-8.9c0.2-4.6-1.6-3-3.9-6.5
		c-2.3-3.5-0.1-9.6,4.6-7.8c4.7,1.8,3.9,9.5,4,12.4c0.2,3,3.9-3,3-6.5c-0.9-3.5,3.7-10.5,6.1-8.6c2.5,1.9-2.6,8.2,0.7,8.1
		c3.3-0.2,5.6-7.2,5.8-12.8c0.2-5.6,11.6-8.9,10.5-2.5c-1.1,6.5-10.2,15.6-8.8,16.8c1.4,1.2,8.8-7.5,10.3-2.8
		c1.6,4.7-9.3,6.8-10,9.1c-0.7,2.3,6-3,9.3-0.2c3.3,2.8-8.6,10.9-15.6,10.9c-7,0-7.5-1.2-8.2,0.7s0,3.5,0,3.5L111.2,76.2z"/>
	<path id="XMLID_58_" class="st3" d="M112.2,69.8c0,0,0.3-2.7-2.1-3.8c-2.4-1.1-2.4-1.1-2.4-1.1S109.7,68.8,112.2,69.8z"/>
	<path id="XMLID_60_" class="st3" d="M116.9,66.4c0,0,3-6.2,1-4.9C115.9,62.8,116.9,66.4,116.9,66.4z"/>
	<path id="XMLID_61_" class="st3" d="M115.5,57.2c0.3,0-1.9-3.8-0.1-5C117.3,50.9,115.5,57.2,115.5,57.2z"/>
	<path id="XMLID_62_" class="st3" d="M123.6,56.1c0,0,1.8-5.6,2.9-4.2C127.5,53.3,123.6,56.1,123.6,56.1z"/>
	<path id="XMLID_64_" class="st3" d="M129.8,45.2c0,0-1.4-6.4,0.5-5.6C132.3,40.4,129.8,45.2,129.8,45.2z"/>
	<path id="XMLID_66_" class="st3" d="M124.9,61.8c0.3,0,4.5-2.9,2.7-2.9C125.9,58.9,124.9,61.8,124.9,61.8z"/>
	<path id="XMLID_67_" class="st3" d="M129.5,67.3c0.3-0.1,5.9-1.3,3.8-2.2C131.1,64.2,129.5,67.3,129.5,67.3z"/>
	<path id="XMLID_68_" class="st3" d="M108.8,59.7c0-0.2,0.1-3.8-1.1-3.7C106.5,56.1,108.8,59.7,108.8,59.7z"/>
	<path id="XMLID_69_" class="st3" d="M108,53.8c0,0-1.6-3.3-2.8-2.4C104,52.2,108,53.8,108,53.8z"/>
</g>
<g id="XMLID_72_">
	<path id="XMLID_84_" class="st4" d="M149.4,85.2c0,0,0.9-3.6,2.2-3.2c1.4,0.4,7.3,1.2,10.4-2.2c3.1-3.3,3.3-1,7.4-1.8
		c4.1-0.8,6.9-6.6,2.3-8.8c-4.6-2.1-9.4,3.9-11.7,5.9c-2.2,2-0.6-4.8,2.5-6.7c3.1-1.8,4.9-10,1.8-10.4c-3.1-0.4-4,7.7-6.2,5.2
		c-2.2-2.5,1.2-9,5-13.1c3.9-4.1-1.8-14.5-5.6-9.2c-3.9,5.3-3.9,18.2-5.8,18.1c-1.9-0.1-0.8-11.5-5.3-9.3
		c-4.5,2.2,1.7,11.4,0.5,13.5c-1.1,2.1-2.1-6.3-6.4-6.7c-4.3-0.4-1.7,13.7,3.2,18.7c4.9,5,6.2,4.5,5.3,6.4c-0.9,1.9-2.5,2.5-2.5,2.5
		L149.4,85.2z"/>
	<path id="XMLID_81_" class="st3" d="M153.3,80c0,0,1.7-2.1,4.2-1.2c2.4,0.9,2.4,0.9,2.4,0.9S155.7,81.1,153.3,80z"/>
	<path id="XMLID_80_" class="st3" d="M152.3,74.3c0,0,2.3-6.5,2.8-4.1C155.6,72.5,152.3,74.3,152.3,74.3z"/>
	<path id="XMLID_79_" class="st3" d="M159.9,68.8c-0.2-0.2,4-1.3,3.6-3.4C163.1,63.1,159.9,68.8,159.9,68.8z"/>
	<path id="XMLID_78_" class="st3" d="M155,62.3c0,0,2.7-5.3,1-5C154.2,57.5,155,62.3,155,62.3z"/>
	<path id="XMLID_77_" class="st3" d="M158.4,50.2c0,0,5.5-3.5,3.6-4.3C160.1,45.1,158.4,50.2,158.4,50.2z"/>
	<path id="XMLID_76_" class="st3" d="M150,65.4c-0.2-0.2-1.1-5.2,0.1-4C151.4,62.6,150,65.4,150,65.4z"/>
	<path id="XMLID_75_" class="st3" d="M142.9,66c-0.1-0.2-3.2-5.1-1.1-4.2C143.9,62.7,142.9,66,142.9,66z"/>
	<path id="XMLID_74_" class="st3" d="M162.9,75.3c0.1-0.1,2.7-2.7,3.4-1.8C167,74.4,162.9,75.3,162.9,75.3z"/>
	<path id="XMLID_73_" class="st3" d="M167.6,71.7c0,0,3.5-1.1,3.7,0.3C171.5,73.5,167.6,71.7,167.6,71.7z"/>
</g>
<g id="XMLID_14_">
	<path id="XMLID_16_" class="st7" d="M65.8,92.3c0,0-8.5-6.4-17.2-0.7c-8.7,5.7-8.8,12.1-11.8,14.2c-3,2-6.2,0.9-6.5,1.3
		c-0.3,0.4,2.6,6.1,11.3,5.5c8.7-0.6,11.3-12.2,15.7-14.9c4.4-2.7,6.4-2.4,7.2-3.3c0.8-0.9,5.3,2.4,6.1,1.1c0.7-1.3,0.4-3.7-0.2-2.8
		C69.9,93.5,65.8,92.3,65.8,92.3z"/>
	<path id="XMLID_15_" class="st5" d="M62.3,92.3c-0.1,0-0.2,0-0.3,0c-0.1,0-0.3,0-0.4,0c-0.2,0-0.4,0-0.6,0.1
		c-0.4,0.1-1,0.1-1.6,0.3l-0.3,0c-0.1,0-0.3,0-0.4,0l-0.2,0c-0.1,0-0.1,0-0.2,0c-0.1,0-0.1,0-0.2,0L58,92.5c-0.1,0-0.1,0-0.2-0.1
		c-0.1,0-0.1,0-0.2-0.1c-0.1-0.1-0.2-0.1-0.4-0.2c-0.1-0.1-0.2-0.1-0.3-0.2c-0.2-0.2-0.4-0.4-0.6-0.6c0.1,0.2,0.3,0.5,0.5,0.7
		c0.1,0.1,0.2,0.2,0.3,0.3c0.1,0.1,0.2,0.2,0.4,0.2c0.1,0,0.1,0.1,0.2,0.1c0.1,0,0.1,0.1,0.2,0.1l0.2,0.1c0.1,0,0.1,0,0.2,0.1
		c0.1,0,0.1,0,0.2,0c-0.4,0.1-0.8,0.2-1.2,0.3c-0.2,0.1-0.5,0.2-0.7,0.2c-0.1,0-0.2,0-0.3,0l-0.3,0c-0.1,0-0.2,0-0.3-0.1
		c-0.1,0-0.2,0-0.3-0.1l-0.3-0.1c-0.1,0-0.2-0.1-0.3-0.1c-0.1,0-0.2-0.1-0.3-0.1c-0.1,0-0.2-0.1-0.2-0.1l-0.2-0.1
		c-0.2-0.1-0.3-0.2-0.5-0.3c-0.1-0.1-0.3-0.2-0.4-0.4c-0.1-0.1-0.3-0.3-0.4-0.4c0.2,0.3,0.4,0.6,0.7,0.9c0.1,0.1,0.3,0.3,0.4,0.4
		l0.2,0.2c0.1,0.1,0.2,0.1,0.2,0.1c0.1,0.1,0.2,0.1,0.3,0.1c0.1,0,0.2,0.1,0.3,0.1l0.3,0.1c0.1,0,0.2,0.1,0.3,0.1
		c0.1,0,0.2,0.1,0.3,0.1c-0.3,0.1-0.7,0.3-1.1,0.4c-0.4,0.2-0.8,0.4-1.2,0.6l0,0c-0.1,0-0.2,0-0.3,0l-0.3,0c-0.1,0-0.2,0-0.3,0
		c-0.1,0-0.2,0-0.3,0l-0.3,0c-0.1,0-0.2,0-0.3-0.1c-0.1,0-0.2,0-0.3-0.1c-0.1,0-0.2-0.1-0.3-0.1l-0.3-0.1c-0.2-0.1-0.4-0.2-0.6-0.3
		c-0.2-0.1-0.4-0.2-0.6-0.3c-0.2-0.1-0.4-0.3-0.6-0.4c0.3,0.3,0.7,0.6,1.1,0.9c0.2,0.1,0.4,0.2,0.6,0.3l0.3,0.1
		c0.1,0,0.2,0.1,0.3,0.1c0.1,0,0.2,0.1,0.3,0.1c0.1,0,0.2,0.1,0.3,0.1l0.4,0c0.1,0,0.2,0,0.4,0c0.1,0,0.2,0,0.4,0l0,0
		c-0.2,0.1-0.4,0.2-0.6,0.3c-0.4,0.3-0.8,0.5-1.2,0.8c-0.4,0.3-0.8,0.6-1.2,0.9c-0.1,0-0.1,0.1-0.2,0.1c-0.1,0-0.1,0-0.2,0l-0.3,0
		c-0.1,0-0.2,0-0.3,0c-0.1,0-0.2,0-0.3,0l-0.3,0c-0.1,0-0.2,0-0.3-0.1c-0.1,0-0.2,0-0.3-0.1c-0.1,0-0.2-0.1-0.3-0.1l-0.3-0.1
		c-0.2-0.1-0.4-0.2-0.6-0.3c-0.2-0.1-0.4-0.2-0.6-0.3c-0.2-0.1-0.4-0.3-0.6-0.4c0.3,0.3,0.7,0.6,1.1,0.9c0.2,0.1,0.4,0.2,0.6,0.3
		l0.3,0.1c0.1,0,0.2,0.1,0.3,0.1c0.1,0,0.2,0.1,0.3,0.1c0.1,0,0.2,0.1,0.3,0.1l0.4,0c0.1,0,0.2,0,0.4,0c0.1,0,0.2,0,0.4,0l0.2,0
		c-0.6,0.5-1.2,1.1-1.7,1.7c-0.2,0.2-0.4,0.4-0.5,0.6l-0.5,0.6c0,0,0,0,0,0c0,0-0.1,0-0.1,0l-0.3,0c-0.1,0-0.2,0-0.3,0
		c-0.1,0-0.2,0-0.3,0l-0.3,0c-0.1,0-0.2,0-0.3-0.1c-0.1,0-0.2,0-0.3-0.1c-0.1,0-0.2-0.1-0.3-0.1l-0.3-0.1c-0.2-0.1-0.4-0.2-0.6-0.3
		c-0.2-0.1-0.4-0.2-0.6-0.3c-0.2-0.1-0.4-0.3-0.6-0.4c0.3,0.3,0.7,0.6,1.1,0.9c0.2,0.1,0.4,0.2,0.6,0.3l0.3,0.1
		c0.1,0,0.2,0.1,0.3,0.1c0.1,0,0.2,0.1,0.3,0.1c0.1,0,0.2,0.1,0.3,0.1l0.4,0c0.1,0,0.2,0,0.4,0c0.1,0,0.2,0,0.4,0l0.2,0
		c-0.1,0.1-0.2,0.2-0.2,0.3l-0.2,0.3l-0.2,0.3c-0.1,0.2-0.3,0.4-0.4,0.6c-0.1,0.2-0.3,0.4-0.4,0.6c-0.1,0.1-0.2,0.2-0.3,0.3l-0.1,0
		c-0.1,0-0.2,0-0.3,0l-0.3,0c-0.1,0-0.2,0-0.3,0c-0.1,0-0.2,0-0.3,0l-0.3,0c-0.1,0-0.2,0-0.3-0.1c-0.1,0-0.2,0-0.3-0.1
		c-0.1,0-0.2-0.1-0.3-0.1l-0.3-0.1c-0.2-0.1-0.4-0.2-0.6-0.3c-0.2-0.1-0.4-0.2-0.6-0.3c-0.2-0.1-0.4-0.3-0.6-0.4
		c0.3,0.3,0.7,0.6,1.1,0.9c0.2,0.1,0.4,0.2,0.6,0.3l0.3,0.1c0.1,0,0.2,0.1,0.3,0.1c0.1,0,0.2,0.1,0.3,0.1c0.1,0,0.2,0.1,0.3,0.1
		l0.4,0c0.1,0,0.2,0,0.4,0c0.1,0,0.2,0,0.4,0l0.4,0c0,0,0.1,0,0.1,0c-0.1,0.1-0.2,0.3-0.4,0.4c-0.3,0.3-0.6,0.7-1,1
		c-0.3,0.3-0.7,0.6-1,0.9c0,0,0,0,0,0l0,0c-0.2,0-0.3,0.1-0.5,0.1l-0.2,0c-0.1,0-0.2,0-0.2,0c-0.1,0-0.2,0-0.2,0l-0.2,0
		c-0.1,0-0.2,0-0.2,0s-0.2,0-0.2,0c-0.2,0-0.3-0.1-0.5-0.1c-0.2-0.1-0.3-0.1-0.5-0.2c-0.3-0.1-0.6-0.3-0.8-0.5
		c0.2,0.3,0.5,0.5,0.8,0.6c0.1,0.1,0.3,0.2,0.4,0.2c0.2,0.1,0.3,0.1,0.5,0.2c0.1,0,0.2,0.1,0.2,0.1c0.1,0,0.2,0,0.3,0.1l0.3,0
		c0.1,0,0.2,0,0.3,0c0.1,0,0.2,0,0.3,0l0.3,0c0,0,0,0,0,0c-0.2,0.1-0.4,0.3-0.5,0.4c-0.2,0.1-0.3,0.2-0.5,0.3
		c-0.1,0.1-0.2,0.1-0.2,0.2c-0.1,0-0.2,0.1-0.2,0.1c-0.3,0.2-0.6,0.4-1,0.5c-0.2,0.1-0.3,0.2-0.5,0.2c-0.2,0.1-0.3,0.1-0.4,0.2
		c-0.6,0.2-1.1,0.3-1.5,0.4c-0.4,0.1-0.8,0.1-1,0.1c-0.2,0-0.4,0-0.4,0s0.1,0,0.4,0c0.2,0,0.6,0,1,0c0.4-0.1,1-0.1,1.6-0.3
		c0.2,0,0.3-0.1,0.5-0.1c0.2-0.1,0.3-0.1,0.5-0.2c0.3-0.1,0.7-0.3,1-0.5c0.1,0,0.2-0.1,0.3-0.1c0.1-0.1,0.2-0.1,0.3-0.2
		c0.2-0.1,0.3-0.2,0.5-0.3c0.1-0.1,0.2-0.1,0.3-0.2c0,0.1-0.1,0.2-0.1,0.2c-0.1,0.2-0.1,0.4-0.2,0.6c0,0.2-0.1,0.4-0.1,0.6
		c0,0.1,0,0.2,0,0.3c0,0.1,0,0.2,0,0.3l0,0.3c0,0.1,0,0.2,0,0.3c0,0.1,0,0.2,0.1,0.3c0,0.1,0.1,0.2,0.1,0.3c0,0.1,0.1,0.2,0.1,0.3
		l0.2,0.2l-0.1-0.3c-0.1-0.1-0.1-0.2-0.1-0.3c0-0.1-0.1-0.2-0.1-0.3c0-0.1,0-0.2,0-0.3c0-0.1,0-0.2,0-0.3l0-0.3c0-0.1,0-0.2,0-0.3
		c0-0.1,0-0.2,0.1-0.3c0.1-0.4,0.2-0.7,0.3-1.1c0.1-0.2,0.2-0.5,0.3-0.7c0.1-0.1,0.2-0.2,0.3-0.2c0.3-0.3,0.7-0.6,1-0.9
		c0.3-0.3,0.6-0.6,0.9-0.9c0,0.1-0.1,0.2-0.1,0.3c-0.2,0.5-0.3,1.1-0.4,1.6c-0.1,0.5-0.1,1.1,0,1.7c0,0.1,0.1,0.3,0.1,0.4
		c0,0.1,0.1,0.3,0.1,0.4c0.1,0.1,0.1,0.3,0.2,0.4c0.1,0.1,0.2,0.2,0.2,0.3c-0.1-0.1-0.1-0.2-0.2-0.4c-0.1-0.1-0.1-0.2-0.2-0.4
		c0-0.1-0.1-0.3-0.1-0.4c0-0.1,0-0.3-0.1-0.4c-0.1-0.5,0-1.1,0.1-1.6c0.1-0.5,0.3-1,0.5-1.5c0.1-0.4,0.3-0.7,0.5-1.1
		c0.2-0.2,0.3-0.4,0.5-0.5c0.3-0.4,0.6-0.8,0.9-1.2l0.2-0.3l0.2-0.3c0,0,0,0,0,0c-0.1,0.2-0.2,0.4-0.2,0.6c-0.2,0.5-0.3,1.1-0.4,1.6
		c-0.1,0.5-0.1,1.1,0,1.7c0,0.1,0.1,0.3,0.1,0.4c0,0.1,0.1,0.3,0.1,0.4c0.1,0.1,0.1,0.3,0.2,0.4c0.1,0.1,0.2,0.2,0.2,0.3
		c-0.1-0.1-0.1-0.2-0.2-0.4c-0.1-0.1-0.1-0.2-0.2-0.4c0-0.1-0.1-0.3-0.1-0.4c0-0.1,0-0.3-0.1-0.4c-0.1-0.5,0-1.1,0.1-1.6
		c0.1-0.5,0.3-1,0.5-1.5c0.2-0.5,0.4-1,0.7-1.5l0.1-0.3l-0.1,0l0.1-0.1c0.2-0.2,0.3-0.4,0.5-0.6c0.5-0.6,1-1.1,1.6-1.6
		c-0.1,0.2-0.2,0.5-0.3,0.7c-0.2,0.5-0.3,1.1-0.4,1.6c-0.1,0.5-0.1,1.1,0,1.7c0,0.1,0.1,0.3,0.1,0.4c0,0.1,0.1,0.3,0.1,0.4
		c0.1,0.1,0.1,0.3,0.2,0.4c0.1,0.1,0.2,0.2,0.2,0.3c-0.1-0.1-0.1-0.2-0.2-0.4c-0.1-0.1-0.1-0.2-0.2-0.4c0-0.1-0.1-0.3-0.1-0.4
		c0-0.1,0-0.3-0.1-0.4c-0.1-0.5,0-1.1,0.1-1.6c0.1-0.5,0.3-1,0.5-1.5c0.2-0.5,0.4-0.9,0.6-1.3c0.4-0.3,0.8-0.6,1.1-0.9
		c0.4-0.3,0.8-0.5,1.2-0.8c0.3-0.2,0.6-0.4,0.9-0.5c-0.1,0.3-0.3,0.6-0.4,0.9c-0.2,0.5-0.3,1.1-0.4,1.6c-0.1,0.5-0.1,1.1,0,1.7
		c0,0.1,0.1,0.3,0.1,0.4c0,0.1,0.1,0.3,0.1,0.4c0.1,0.1,0.1,0.3,0.2,0.4c0.1,0.1,0.2,0.2,0.2,0.3c-0.1-0.1-0.1-0.2-0.2-0.4
		c-0.1-0.1-0.1-0.2-0.2-0.4c0-0.1-0.1-0.3-0.1-0.4c0-0.1,0-0.3-0.1-0.4c-0.1-0.5,0-1.1,0.1-1.6c0.1-0.5,0.3-1,0.5-1.5
		c0.2-0.4,0.4-0.9,0.6-1.3c0.4-0.2,0.7-0.4,1-0.5c0.4-0.2,0.8-0.3,1.2-0.5c0.1,0,0.1,0,0.2-0.1c-0.2,0.2-0.3,0.5-0.5,0.7
		c-0.1,0.2-0.2,0.4-0.3,0.6c-0.1,0.2-0.2,0.4-0.3,0.6c0,0.1-0.1,0.2-0.1,0.3c0,0.1-0.1,0.2-0.1,0.3l-0.1,0.3c0,0.1,0,0.2,0,0.3
		c0,0.1,0,0.2,0,0.3l0,0.2c0,0.1,0,0.1,0,0.2c0,0.1,0,0.2,0.1,0.3l0.1,0.3l-0.1-0.3c0-0.1,0-0.2-0.1-0.3c0-0.1,0-0.1,0-0.2l0-0.2
		c0-0.1,0-0.2,0-0.3c0-0.1,0-0.2,0.1-0.3l0.1-0.3c0-0.1,0.1-0.2,0.1-0.3c0-0.1,0.1-0.2,0.1-0.3c0-0.1,0.1-0.2,0.1-0.3l0.2-0.3
		c0.1-0.2,0.2-0.4,0.3-0.6c0.2-0.4,0.5-0.7,0.8-1.1l0,0c0.1-0.1,0.3-0.1,0.4-0.2c0.4-0.2,0.9-0.3,1.3-0.4c-0.1,0.1-0.2,0.3-0.3,0.4
		c-0.1,0.1-0.2,0.3-0.2,0.4c-0.1,0.2-0.1,0.3-0.2,0.5c0,0.1-0.1,0.2-0.1,0.2c0,0.1-0.1,0.2-0.1,0.2l0,0.2c0,0.1,0,0.2,0,0.3
		c0,0.1,0,0.2,0,0.3c0,0.1,0,0.2,0,0.2c0,0.1,0,0.2,0.1,0.2l0.1,0.2L58,96.1c0-0.1,0-0.2,0-0.2c0-0.1,0-0.2,0-0.2c0-0.1,0-0.2,0-0.2
		c0-0.1,0-0.2,0-0.2l0.1-0.2c0-0.1,0.1-0.1,0.1-0.2c0-0.1,0.1-0.1,0.1-0.2c0.1-0.3,0.3-0.6,0.5-0.8c0.2-0.2,0.3-0.5,0.5-0.7
		c0.1,0,0.1,0,0.2-0.1c0.6-0.2,1.1-0.3,1.6-0.4c0.4-0.1,0.8-0.2,1-0.2C62.2,92.4,62.3,92.3,62.3,92.3C62.4,92.3,62.4,92.3,62.3,92.3
		C62.4,92.3,62.4,92.3,62.3,92.3z"/>
</g>
<g id="XMLID_11_">
	<path id="XMLID_13_" class="st4" d="M66.2,88.9c0,0-5.7-11.3-17.8-9.7c-12.2,1.5-15.6,8.3-19.9,8.9c-4.3,0.6-7.1-2.3-7.5-2
		c-0.5,0.3-0.4,7.9,9.1,11.8c9.6,3.9,18.4-7,24.5-7.6c6.1-0.6,8,0.8,9.3,0.2c1.3-0.5,4.4,5.4,5.8,4.4c1.4-1,2.4-3.7,1.3-3.1
		C69.9,92.3,66.2,88.9,66.2,88.9z"/>
	<path id="XMLID_12_" class="st5" d="M62.5,87.1c-0.1,0-0.2-0.1-0.3-0.1c-0.1-0.1-0.3-0.1-0.5-0.2c-0.2-0.1-0.4-0.2-0.7-0.2
		c-0.5-0.2-1.1-0.3-1.8-0.5L59,85.9c-0.1-0.1-0.3-0.1-0.4-0.2l-0.2-0.1c-0.1,0-0.1-0.1-0.2-0.1c-0.1-0.1-0.1-0.1-0.2-0.1l-0.2-0.2
		c-0.1-0.1-0.1-0.1-0.2-0.2c-0.1-0.1-0.1-0.1-0.2-0.2c-0.1-0.1-0.2-0.3-0.3-0.4c-0.1-0.1-0.2-0.3-0.2-0.4c-0.1-0.3-0.3-0.6-0.3-0.9
		c0,0.3,0.1,0.7,0.2,1c0.1,0.2,0.1,0.3,0.2,0.5c0.1,0.1,0.2,0.3,0.3,0.4c0,0.1,0.1,0.1,0.1,0.2c0.1,0.1,0.1,0.1,0.2,0.2l0.2,0.2
		c0.1,0.1,0.1,0.1,0.2,0.2c0.1,0.1,0.1,0.1,0.2,0.2c-0.4-0.1-0.9-0.2-1.4-0.3c-0.3,0-0.6-0.1-0.9-0.1c-0.1-0.1-0.2-0.1-0.3-0.2
		l-0.3-0.2c-0.1-0.1-0.2-0.1-0.3-0.2c-0.1-0.1-0.2-0.1-0.2-0.2l-0.2-0.2c-0.1-0.1-0.1-0.2-0.2-0.2c-0.1-0.1-0.1-0.2-0.2-0.3
		c-0.1-0.1-0.1-0.2-0.2-0.3l-0.2-0.3c-0.1-0.2-0.2-0.4-0.3-0.6c-0.1-0.2-0.2-0.4-0.3-0.6c-0.1-0.2-0.1-0.4-0.2-0.6
		c0,0.4,0.1,0.9,0.3,1.3c0.1,0.2,0.2,0.4,0.3,0.6l0.2,0.3c0.1,0.1,0.1,0.2,0.2,0.3c0.1,0.1,0.1,0.2,0.2,0.3c0.1,0.1,0.1,0.2,0.2,0.3
		l0.2,0.2c0.1,0.1,0.2,0.2,0.3,0.2c0.1,0.1,0.2,0.1,0.3,0.2c-0.4,0-0.9-0.1-1.3-0.1c-0.5,0-1.1,0-1.6,0l0,0c-0.1,0-0.3-0.1-0.4-0.1
		l-0.4-0.1c-0.1,0-0.2-0.1-0.4-0.2c-0.1-0.1-0.2-0.1-0.4-0.2l-0.3-0.2c-0.1-0.1-0.2-0.2-0.3-0.2c-0.1-0.1-0.2-0.2-0.3-0.2
		c-0.1-0.1-0.2-0.2-0.3-0.3l-0.3-0.3c-0.2-0.2-0.4-0.4-0.5-0.6c-0.2-0.2-0.3-0.4-0.5-0.7c-0.1-0.2-0.3-0.5-0.4-0.7
		c0.2,0.5,0.4,1,0.7,1.5c0.1,0.2,0.3,0.5,0.5,0.7l0.3,0.3c0.1,0.1,0.2,0.2,0.3,0.3c0.1,0.1,0.2,0.2,0.3,0.3c0.1,0.1,0.2,0.2,0.3,0.3
		l0.3,0.2c0.1,0.1,0.2,0.1,0.4,0.2c0.1,0.1,0.2,0.1,0.4,0.2l0,0c-0.3,0-0.6,0-0.8,0c-0.6,0.1-1.2,0.1-1.7,0.2
		c-0.6,0.1-1.2,0.2-1.8,0.3c-0.1,0-0.2,0-0.2,0.1c-0.1,0-0.2,0-0.2-0.1l-0.4-0.1c-0.1,0-0.2-0.1-0.4-0.2c-0.1-0.1-0.2-0.1-0.4-0.2
		l-0.3-0.2c-0.1-0.1-0.2-0.2-0.3-0.2c-0.1-0.1-0.2-0.2-0.3-0.2c-0.1-0.1-0.2-0.2-0.3-0.3L43.9,84c-0.2-0.2-0.4-0.4-0.5-0.6
		c-0.2-0.2-0.3-0.4-0.5-0.7c-0.1-0.2-0.3-0.5-0.4-0.7c0.2,0.5,0.4,1,0.7,1.5c0.1,0.2,0.3,0.5,0.5,0.7l0.3,0.3
		c0.1,0.1,0.2,0.2,0.3,0.3c0.1,0.1,0.2,0.2,0.3,0.3c0.1,0.1,0.2,0.2,0.3,0.3l0.3,0.2c0.1,0.1,0.2,0.1,0.4,0.2
		c0.1,0.1,0.2,0.1,0.4,0.2l0.2,0.1c-0.9,0.2-1.8,0.5-2.7,0.9c-0.3,0.1-0.6,0.2-0.9,0.3l-0.8,0.4c0,0,0,0,0,0c0,0-0.1,0-0.1,0
		l-0.4-0.1c-0.1,0-0.2-0.1-0.4-0.2c-0.1-0.1-0.2-0.1-0.4-0.2l-0.3-0.2c-0.1-0.1-0.2-0.2-0.3-0.2c-0.1-0.1-0.2-0.2-0.3-0.2
		c-0.1-0.1-0.2-0.2-0.3-0.3l-0.3-0.3c-0.2-0.2-0.4-0.4-0.5-0.6c-0.2-0.2-0.3-0.4-0.5-0.7c-0.1-0.2-0.3-0.5-0.4-0.7
		c0.2,0.5,0.4,1,0.7,1.5c0.1,0.2,0.3,0.5,0.5,0.7l0.3,0.3c0.1,0.1,0.2,0.2,0.3,0.3c0.1,0.1,0.2,0.2,0.3,0.3c0.1,0.1,0.2,0.2,0.3,0.3
		l0.3,0.2c0.1,0.1,0.2,0.1,0.4,0.2c0.1,0.1,0.2,0.1,0.4,0.2l0.2,0.1c-0.1,0.1-0.3,0.1-0.4,0.2l-0.4,0.2l-0.4,0.2
		c-0.3,0.1-0.5,0.3-0.8,0.4c-0.3,0.1-0.5,0.3-0.8,0.4c-0.2,0.1-0.3,0.1-0.5,0.2l-0.1,0c-0.1,0-0.3-0.1-0.4-0.1l-0.4-0.1
		c-0.1,0-0.2-0.1-0.4-0.2c-0.1-0.1-0.2-0.1-0.4-0.2l-0.3-0.2c-0.1-0.1-0.2-0.2-0.3-0.2c-0.1-0.1-0.2-0.2-0.3-0.2
		c-0.1-0.1-0.2-0.2-0.3-0.3l-0.3-0.3c-0.2-0.2-0.4-0.4-0.5-0.6c-0.2-0.2-0.3-0.4-0.5-0.7c-0.1-0.2-0.3-0.5-0.4-0.7
		c0.2,0.5,0.4,1,0.7,1.5c0.1,0.2,0.3,0.5,0.5,0.7l0.3,0.3c0.1,0.1,0.2,0.2,0.3,0.3c0.1,0.1,0.2,0.2,0.3,0.3c0.1,0.1,0.2,0.2,0.3,0.3
		l0.3,0.2c0.1,0.1,0.2,0.1,0.4,0.2c0.1,0.1,0.2,0.1,0.4,0.2l0.4,0.2c0,0,0.1,0,0.1,0c-0.2,0.1-0.4,0.2-0.6,0.3
		c-0.5,0.2-1,0.4-1.5,0.6c-0.5,0.1-1,0.3-1.5,0.4c0,0,0,0,0,0l0,0c-0.2-0.1-0.4-0.1-0.5-0.2l-0.3-0.1c-0.1,0-0.2-0.1-0.3-0.1
		c-0.1,0-0.2-0.1-0.3-0.1l-0.2-0.1c-0.1,0-0.2-0.1-0.2-0.2C32.1,90.1,32.1,90,32,90c-0.2-0.1-0.3-0.3-0.4-0.4
		c-0.1-0.1-0.3-0.3-0.4-0.4c-0.2-0.3-0.4-0.6-0.6-1c0.1,0.4,0.3,0.7,0.5,1.1c0.1,0.2,0.2,0.3,0.4,0.5c0.1,0.2,0.3,0.3,0.4,0.4
		c0.1,0.1,0.1,0.1,0.2,0.2c0.1,0.1,0.2,0.1,0.2,0.2l0.3,0.2c0.1,0.1,0.2,0.1,0.3,0.2c0.1,0,0.2,0.1,0.3,0.1l0.3,0.1c0,0,0,0,0,0
		c-0.3,0.1-0.5,0.1-0.8,0.1c-0.2,0-0.5,0.1-0.7,0.1c-0.1,0-0.2,0-0.3,0c-0.1,0-0.2,0-0.3,0c-0.4,0-0.9,0.1-1.3,0c-0.2,0-0.4,0-0.6,0
		c-0.2,0-0.4,0-0.6-0.1c-0.7-0.1-1.4-0.2-1.9-0.4c-0.5-0.2-0.9-0.3-1.1-0.4c-0.3-0.1-0.4-0.2-0.4-0.2s0.1,0.1,0.4,0.2
		c0.2,0.1,0.6,0.3,1.1,0.5c0.5,0.2,1.1,0.4,1.9,0.5c0.2,0,0.4,0.1,0.6,0.1c0.2,0,0.4,0,0.6,0.1c0.4,0,0.9,0,1.3,0c0.1,0,0.2,0,0.3,0
		c0.1,0,0.2,0,0.4,0c0.2,0,0.5,0,0.7-0.1c0.1,0,0.2,0,0.4,0c-0.1,0.1-0.2,0.1-0.2,0.2c-0.2,0.2-0.3,0.3-0.5,0.5
		c-0.1,0.2-0.3,0.4-0.4,0.6c-0.1,0.1-0.1,0.2-0.2,0.3c-0.1,0.1-0.1,0.2-0.2,0.3l-0.2,0.3c0,0.1-0.1,0.2-0.1,0.3
		c0,0.1-0.1,0.2-0.1,0.3c0,0.1,0,0.2,0,0.4c0,0.1,0,0.2,0,0.4l0.1,0.3l0-0.3c0-0.1,0-0.2,0-0.3c0-0.1,0-0.2,0.1-0.3
		c0-0.1,0.1-0.2,0.1-0.3c0-0.1,0.1-0.2,0.1-0.3l0.2-0.3c0.1-0.1,0.1-0.2,0.2-0.3c0.1-0.1,0.1-0.2,0.2-0.3c0.3-0.4,0.6-0.7,0.9-1
		c0.2-0.2,0.4-0.4,0.7-0.6c0.2,0,0.3-0.1,0.5-0.1c0.5-0.1,1-0.3,1.6-0.4c0.5-0.1,0.9-0.3,1.4-0.5c-0.1,0.1-0.2,0.2-0.3,0.2
		c-0.5,0.5-0.9,0.9-1.3,1.5c-0.4,0.5-0.7,1.1-0.9,1.7c-0.1,0.2-0.1,0.3-0.1,0.5c0,0.2-0.1,0.3-0.1,0.5c0,0.2,0,0.3,0,0.5
		c0,0.2,0.1,0.3,0.1,0.5c0-0.2,0-0.3,0-0.5c0-0.2,0-0.3,0-0.5c0-0.2,0.1-0.3,0.1-0.5c0-0.2,0.1-0.3,0.2-0.4c0.2-0.6,0.6-1.1,1-1.6
		c0.4-0.5,0.8-1,1.3-1.4c0.3-0.3,0.7-0.6,1.1-0.9c0.3-0.1,0.5-0.2,0.8-0.3c0.6-0.2,1.1-0.5,1.6-0.8l0.4-0.2l0.4-0.2c0,0,0,0,0,0
		c-0.2,0.2-0.4,0.3-0.5,0.5c-0.5,0.5-0.9,0.9-1.3,1.5c-0.4,0.5-0.7,1.1-0.9,1.7c-0.1,0.2-0.1,0.3-0.1,0.5c0,0.2-0.1,0.3-0.1,0.5
		c0,0.2,0,0.3,0,0.5c0,0.2,0.1,0.3,0.1,0.5c0-0.2,0-0.3,0-0.5c0-0.2,0-0.3,0-0.5c0-0.2,0.1-0.3,0.1-0.5c0-0.2,0.1-0.3,0.2-0.4
		c0.2-0.6,0.6-1.1,1-1.6c0.4-0.5,0.8-1,1.3-1.4c0.5-0.4,1-0.8,1.5-1.2l0.3-0.2l-0.1,0l0.2-0.1c0.3-0.1,0.6-0.2,0.8-0.3
		c0.8-0.4,1.7-0.6,2.6-0.9c-0.2,0.2-0.5,0.4-0.7,0.6c-0.5,0.5-0.9,0.9-1.3,1.5c-0.4,0.5-0.7,1.1-0.9,1.7c-0.1,0.2-0.1,0.3-0.1,0.5
		c0,0.2-0.1,0.3-0.1,0.5c0,0.2,0,0.3,0,0.5c0,0.2,0.1,0.3,0.1,0.5c0-0.2,0-0.3,0-0.5c0-0.2,0-0.3,0-0.5c0-0.2,0.1-0.3,0.1-0.5
		c0-0.2,0.1-0.3,0.2-0.4c0.2-0.6,0.6-1.1,1-1.6c0.4-0.5,0.8-1,1.3-1.4c0.4-0.4,0.9-0.8,1.3-1.1c0.6-0.1,1.1-0.3,1.7-0.3
		c0.6-0.1,1.1-0.2,1.7-0.2c0.4,0,0.8-0.1,1.2-0.1c-0.3,0.2-0.6,0.5-0.9,0.8C50.4,87,50,87.5,49.6,88c-0.4,0.5-0.7,1.1-0.9,1.7
		c-0.1,0.2-0.1,0.3-0.1,0.5c0,0.2-0.1,0.3-0.1,0.5c0,0.2,0,0.3,0,0.5c0,0.2,0.1,0.3,0.1,0.5c0-0.2,0-0.3,0-0.5c0-0.2,0-0.3,0-0.5
		c0-0.2,0.1-0.3,0.1-0.5c0-0.2,0.1-0.3,0.2-0.4c0.2-0.6,0.6-1.1,1-1.6c0.4-0.5,0.8-1,1.3-1.4c0.4-0.4,0.8-0.7,1.3-1.1
		c0.5,0,0.9,0,1.4,0c0.5,0,1,0,1.5,0.1c0.1,0,0.1,0,0.2,0c-0.3,0.1-0.6,0.3-0.9,0.5c-0.2,0.1-0.4,0.3-0.7,0.4
		c-0.2,0.2-0.4,0.3-0.6,0.5c-0.1,0.1-0.2,0.2-0.3,0.3c-0.1,0.1-0.2,0.2-0.3,0.3l-0.2,0.3c-0.1,0.1-0.1,0.2-0.2,0.3
		c-0.1,0.1-0.1,0.2-0.2,0.4l-0.1,0.2c0,0.1,0,0.1-0.1,0.2c0,0.1-0.1,0.3-0.1,0.4l0,0.4l0.1-0.4c0-0.1,0.1-0.2,0.1-0.4
		c0-0.1,0-0.1,0.1-0.2l0.1-0.2c0.1-0.1,0.1-0.2,0.2-0.3c0.1-0.1,0.1-0.2,0.2-0.3l0.3-0.3c0.1-0.1,0.2-0.2,0.3-0.3
		c0.1-0.1,0.2-0.2,0.3-0.3c0.1-0.1,0.2-0.2,0.3-0.2l0.3-0.2c0.2-0.1,0.4-0.3,0.7-0.4c0.4-0.3,0.9-0.5,1.4-0.7l0,0c0.2,0,0.3,0,0.5,0
		c0.6,0.1,1.1,0.1,1.6,0.2c-0.2,0.1-0.3,0.2-0.5,0.3c-0.2,0.1-0.3,0.2-0.5,0.3c-0.2,0.1-0.3,0.2-0.5,0.4c-0.1,0.1-0.1,0.1-0.2,0.2
		c-0.1,0.1-0.1,0.1-0.2,0.2l-0.2,0.2c-0.1,0.1-0.1,0.2-0.2,0.3C56,88.1,56,88.2,56,88.3c0,0.1-0.1,0.2-0.1,0.3
		c0,0.1-0.1,0.2-0.1,0.3l0,0.3l0.1-0.3c0-0.1,0.1-0.2,0.1-0.3c0-0.1,0.1-0.2,0.1-0.3c0-0.1,0.1-0.2,0.1-0.2c0.1-0.1,0.1-0.2,0.2-0.2
		l0.2-0.2c0.1-0.1,0.1-0.1,0.2-0.2c0.1-0.1,0.1-0.1,0.2-0.2c0.3-0.2,0.6-0.4,0.9-0.6c0.3-0.2,0.6-0.3,0.9-0.5c0.1,0,0.2,0,0.3,0
		c0.7,0.1,1.3,0.3,1.9,0.4c0.5,0.1,0.9,0.3,1.2,0.3C62.3,87.1,62.4,87.1,62.5,87.1C62.5,87.2,62.6,87.2,62.5,87.1
		C62.6,87.2,62.5,87.2,62.5,87.1z"/>
</g>
<g id="XMLID_196_">
	<path id="XMLID_198_" class="st4" d="M144.2,121.5c0,0-0.4-9.8,8.5-13.4c8.9-3.5,13.8-0.3,16.9-1.5c3.1-1.2,4-4.2,4.4-4.2
		c0.4,0,3.3,5.2-1.8,11.5c-5,6.3-15.1,2.2-19.5,4.1c-4.4,1.9-5.2,3.5-6.3,3.7c-1.1,0.1-1,5.3-2.3,5.2c-1.4-0.1-3-1.6-2-1.6
		C143,125.2,144.2,121.5,144.2,121.5z"/>
	<path id="XMLID_197_" class="st5" d="M146.1,118.9c0-0.1,0.1-0.1,0.1-0.2c0.1-0.1,0.2-0.2,0.3-0.3c0.1-0.1,0.2-0.3,0.4-0.4
		c0.3-0.3,0.6-0.7,1-1l0.1-0.2c0.1-0.1,0.1-0.2,0.2-0.3l0.1-0.2c0-0.1,0-0.1,0.1-0.2c0-0.1,0.1-0.1,0.1-0.2l0.1-0.2
		c0-0.1,0-0.1,0-0.2c0-0.1,0-0.1,0-0.2c0-0.1,0-0.2,0-0.4c0-0.1,0-0.2,0-0.4c0-0.2,0-0.5-0.1-0.7c0.1,0.2,0.2,0.5,0.2,0.7
		c0,0.1,0,0.3,0,0.4c0,0.1,0,0.3,0,0.4c0,0.1,0,0.1,0,0.2c0,0.1,0,0.1,0,0.2l-0.1,0.2c0,0.1,0,0.1-0.1,0.2c0,0.1,0,0.1-0.1,0.2
		c0.3-0.2,0.6-0.5,0.9-0.7c0.2-0.1,0.4-0.3,0.5-0.4c0-0.1,0.1-0.1,0.1-0.2l0.1-0.2c0-0.1,0.1-0.2,0.1-0.2c0-0.1,0.1-0.2,0.1-0.2
		l0.1-0.2c0-0.1,0-0.2,0.1-0.2c0-0.1,0-0.2,0-0.3c0-0.1,0-0.2,0-0.3l0-0.3c0-0.2,0-0.3,0-0.5c0-0.2,0-0.3-0.1-0.5
		c0-0.2-0.1-0.3-0.1-0.5c0.2,0.3,0.2,0.7,0.3,1c0,0.2,0,0.4,0,0.5l0,0.3c0,0.1,0,0.2,0,0.3c0,0.1,0,0.2,0,0.3c0,0.1,0,0.2,0,0.3
		l-0.1,0.3c0,0.1-0.1,0.2-0.1,0.3c0,0.1-0.1,0.2-0.1,0.2c0.3-0.2,0.6-0.4,0.9-0.6c0.3-0.2,0.7-0.4,1.1-0.6l0,0
		c0.1-0.1,0.1-0.1,0.2-0.2l0.2-0.2c0.1-0.1,0.1-0.2,0.2-0.3c0.1-0.1,0.1-0.2,0.2-0.3l0.2-0.3c0.1-0.1,0.1-0.2,0.1-0.3
		c0-0.1,0.1-0.2,0.1-0.3c0-0.1,0.1-0.2,0.1-0.3l0.1-0.3c0-0.2,0.1-0.4,0.1-0.6c0-0.2,0.1-0.4,0.1-0.6c0-0.2,0-0.4,0-0.6
		c0.1,0.4,0.1,0.8,0.1,1.3c0,0.2,0,0.4-0.1,0.6l-0.1,0.3c0,0.1-0.1,0.2-0.1,0.3c0,0.1-0.1,0.2-0.1,0.3c0,0.1-0.1,0.2-0.1,0.3
		l-0.2,0.3c0,0.1-0.1,0.2-0.2,0.3c-0.1,0.1-0.1,0.2-0.2,0.3l0,0c0.2-0.1,0.4-0.2,0.6-0.3c0.4-0.2,0.8-0.3,1.3-0.5
		c0.4-0.2,0.9-0.3,1.3-0.4c0.1,0,0.1,0,0.2,0c0,0,0.1-0.1,0.1-0.1l0.2-0.2c0.1-0.1,0.1-0.2,0.2-0.3c0.1-0.1,0.1-0.2,0.2-0.3l0.2-0.3
		c0.1-0.1,0.1-0.2,0.1-0.3c0-0.1,0.1-0.2,0.1-0.3c0-0.1,0.1-0.2,0.1-0.3l0.1-0.3c0-0.2,0.1-0.4,0.1-0.6c0-0.2,0.1-0.4,0.1-0.6
		c0-0.2,0-0.4,0-0.6c0.1,0.4,0.1,0.8,0.1,1.3c0,0.2,0,0.4-0.1,0.6l-0.1,0.3c0,0.1-0.1,0.2-0.1,0.3c0,0.1-0.1,0.2-0.1,0.3
		c0,0.1-0.1,0.2-0.1,0.3l-0.2,0.3c0,0.1-0.1,0.2-0.2,0.3c-0.1,0.1-0.1,0.2-0.2,0.3l-0.1,0.1c0.7-0.2,1.4-0.3,2.2-0.4
		c0.2,0,0.5-0.1,0.7-0.1l0.7,0c0,0,0,0,0,0c0,0,0,0,0-0.1l0.2-0.2c0.1-0.1,0.1-0.2,0.2-0.3c0.1-0.1,0.1-0.2,0.2-0.3l0.2-0.3
		c0.1-0.1,0.1-0.2,0.1-0.3c0-0.1,0.1-0.2,0.1-0.3c0-0.1,0.1-0.2,0.1-0.3l0.1-0.3c0-0.2,0.1-0.4,0.1-0.6c0-0.2,0.1-0.4,0.1-0.6
		c0-0.2,0-0.4,0-0.6c0.1,0.4,0.1,0.8,0.1,1.3c0,0.2,0,0.4-0.1,0.6l-0.1,0.3c0,0.1-0.1,0.2-0.1,0.3c0,0.1-0.1,0.2-0.1,0.3
		c0,0.1-0.1,0.2-0.1,0.3l-0.2,0.3c0,0.1-0.1,0.2-0.2,0.3c-0.1,0.1-0.1,0.2-0.2,0.3l-0.1,0.1c0.1,0,0.2,0,0.4,0l0.3,0l0.3,0
		c0.2,0,0.5,0,0.7,0c0.2,0,0.5,0,0.7,0c0.1,0,0.3,0,0.4,0l0,0c0.1-0.1,0.1-0.1,0.2-0.2l0.2-0.2c0.1-0.1,0.1-0.2,0.2-0.3
		c0.1-0.1,0.1-0.2,0.2-0.3l0.2-0.3c0.1-0.1,0.1-0.2,0.1-0.3c0-0.1,0.1-0.2,0.1-0.3c0-0.1,0.1-0.2,0.1-0.3l0.1-0.3
		c0-0.2,0.1-0.4,0.1-0.6c0-0.2,0.1-0.4,0.1-0.6c0-0.2,0-0.4,0-0.6c0.1,0.4,0.1,0.8,0.1,1.3c0,0.2,0,0.4-0.1,0.6l-0.1,0.3
		c0,0.1-0.1,0.2-0.1,0.3c0,0.1-0.1,0.2-0.1,0.3c0,0.1-0.1,0.2-0.1,0.3l-0.2,0.3c0,0.1-0.1,0.2-0.2,0.3c-0.1,0.1-0.1,0.2-0.2,0.3
		l-0.2,0.3c0,0,0,0-0.1,0.1c0.2,0,0.4,0,0.5-0.1c0.4-0.1,0.9-0.1,1.3-0.2c0.4-0.1,0.8-0.2,1.2-0.3c0,0,0,0,0,0l0,0
		c0.1-0.1,0.2-0.2,0.3-0.3l0.1-0.2c0.1-0.1,0.1-0.1,0.1-0.2c0-0.1,0.1-0.1,0.1-0.2l0.1-0.2c0-0.1,0.1-0.1,0.1-0.2
		c0-0.1,0.1-0.1,0.1-0.2c0.1-0.1,0.1-0.3,0.1-0.4c0-0.1,0.1-0.3,0.1-0.4c0.1-0.3,0.1-0.6,0-0.9c0.1,0.3,0.1,0.6,0.1,0.9
		c0,0.2,0,0.3-0.1,0.5c0,0.2-0.1,0.3-0.1,0.5c0,0.1,0,0.1-0.1,0.2c0,0.1-0.1,0.1-0.1,0.2l-0.1,0.2c0,0.1-0.1,0.1-0.1,0.2
		c0,0.1-0.1,0.1-0.1,0.2l-0.1,0.2c0,0,0,0,0,0c0.2-0.1,0.4-0.1,0.6-0.2c0.2-0.1,0.3-0.1,0.5-0.2c0.1,0,0.2-0.1,0.3-0.1
		c0.1,0,0.2-0.1,0.2-0.1c0.3-0.1,0.6-0.3,0.9-0.5c0.1-0.1,0.3-0.2,0.4-0.2c0.1-0.1,0.2-0.2,0.4-0.2c0.5-0.3,0.8-0.7,1.1-0.9
		c0.3-0.3,0.5-0.5,0.6-0.7c0.1-0.2,0.2-0.3,0.2-0.3s0,0.1-0.2,0.3c-0.1,0.2-0.3,0.5-0.6,0.8c-0.3,0.3-0.6,0.7-1.1,1
		c-0.1,0.1-0.2,0.2-0.4,0.3c-0.1,0.1-0.3,0.2-0.4,0.3c-0.3,0.2-0.6,0.3-0.9,0.5c-0.1,0-0.2,0.1-0.2,0.1c-0.1,0-0.2,0.1-0.3,0.1
		c-0.2,0.1-0.3,0.2-0.5,0.2c-0.1,0-0.2,0.1-0.3,0.1c0.1,0,0.2,0,0.2,0.1c0.2,0,0.4,0.1,0.5,0.2c0.2,0.1,0.3,0.1,0.5,0.2
		c0.1,0,0.2,0.1,0.2,0.1c0.1,0,0.2,0.1,0.2,0.1l0.2,0.2c0.1,0.1,0.1,0.1,0.2,0.2c0.1,0.1,0.1,0.1,0.2,0.2c0.1,0.1,0.1,0.1,0.2,0.2
		c0,0.1,0.1,0.2,0.1,0.2l0.1,0.3l-0.1-0.2c0-0.1-0.1-0.1-0.2-0.2c0-0.1-0.1-0.1-0.2-0.2c-0.1-0.1-0.1-0.1-0.2-0.2
		c-0.1-0.1-0.1-0.1-0.2-0.2l-0.2-0.1c-0.1,0-0.2-0.1-0.2-0.1c-0.1,0-0.2-0.1-0.2-0.1c-0.3-0.1-0.7-0.2-1-0.3
		c-0.2-0.1-0.5-0.1-0.7-0.1c-0.1,0-0.2,0.1-0.4,0.1c-0.4,0.1-0.8,0.2-1.2,0.3c-0.4,0.1-0.7,0.1-1.1,0.2c0.1,0,0.2,0,0.3,0.1
		c0.5,0.1,1,0.3,1.4,0.5c0.5,0.2,0.9,0.5,1.3,0.8c0.1,0.1,0.2,0.2,0.3,0.3c0.1,0.1,0.2,0.2,0.2,0.3c0.1,0.1,0.1,0.2,0.2,0.3
		c0.1,0.1,0.1,0.2,0.1,0.4c-0.1-0.1-0.1-0.2-0.2-0.3c-0.1-0.1-0.1-0.2-0.2-0.3c-0.1-0.1-0.2-0.2-0.2-0.3c-0.1-0.1-0.2-0.2-0.3-0.2
		c-0.4-0.3-0.8-0.6-1.3-0.7c-0.5-0.2-0.9-0.3-1.4-0.5c-0.4-0.1-0.7-0.2-1.1-0.2c-0.2,0-0.4,0-0.6,0.1c-0.5,0.1-0.9,0-1.4,0.1l-0.3,0
		l-0.4,0c0,0,0,0,0,0c0.2,0,0.4,0.1,0.6,0.1c0.5,0.1,1,0.3,1.4,0.5c0.5,0.2,0.9,0.5,1.3,0.8c0.1,0.1,0.2,0.2,0.3,0.3
		c0.1,0.1,0.2,0.2,0.2,0.3c0.1,0.1,0.1,0.2,0.2,0.3c0.1,0.1,0.1,0.2,0.1,0.4c-0.1-0.1-0.1-0.2-0.2-0.3c-0.1-0.1-0.1-0.2-0.2-0.3
		c-0.1-0.1-0.2-0.2-0.2-0.3c-0.1-0.1-0.2-0.2-0.3-0.2c-0.4-0.3-0.8-0.6-1.3-0.7c-0.5-0.2-0.9-0.3-1.4-0.5c-0.5-0.1-1-0.2-1.5-0.3
		l-0.3,0l0,0l-0.1,0c-0.2,0-0.5,0.1-0.7,0.1c-0.7,0.1-1.4,0.2-2.1,0.4c0.2,0,0.5,0.1,0.7,0.2c0.5,0.1,1,0.3,1.4,0.5
		c0.5,0.2,0.9,0.5,1.3,0.8c0.1,0.1,0.2,0.2,0.3,0.3c0.1,0.1,0.2,0.2,0.2,0.3c0.1,0.1,0.1,0.2,0.2,0.3c0.1,0.1,0.1,0.2,0.1,0.4
		c-0.1-0.1-0.1-0.2-0.2-0.3c-0.1-0.1-0.1-0.2-0.2-0.3c-0.1-0.1-0.2-0.2-0.2-0.3c-0.1-0.1-0.2-0.2-0.3-0.2c-0.4-0.3-0.8-0.6-1.3-0.7
		c-0.5-0.2-0.9-0.3-1.4-0.5c-0.4-0.1-0.9-0.2-1.3-0.2c-0.4,0.1-0.9,0.3-1.3,0.4c-0.4,0.2-0.8,0.3-1.2,0.5c-0.3,0.1-0.6,0.3-0.9,0.4
		c0.3,0.1,0.6,0.1,0.9,0.2c0.5,0.1,1,0.3,1.4,0.5c0.5,0.2,0.9,0.5,1.3,0.8c0.1,0.1,0.2,0.2,0.3,0.3c0.1,0.1,0.2,0.2,0.2,0.3
		c0.1,0.1,0.1,0.2,0.2,0.3c0.1,0.1,0.1,0.2,0.1,0.4c-0.1-0.1-0.1-0.2-0.2-0.3c-0.1-0.1-0.1-0.2-0.2-0.3c-0.1-0.1-0.2-0.2-0.2-0.3
		c-0.1-0.1-0.2-0.2-0.3-0.2c-0.4-0.3-0.8-0.6-1.3-0.7c-0.5-0.2-0.9-0.3-1.4-0.5c-0.4-0.1-0.8-0.2-1.3-0.2c-0.3,0.2-0.6,0.3-0.9,0.5
		c-0.3,0.2-0.7,0.4-1,0.6c0,0-0.1,0.1-0.1,0.1c0.3,0,0.5,0,0.8,0c0.2,0,0.4,0,0.6,0.1c0.2,0,0.4,0.1,0.6,0.1c0.1,0,0.2,0,0.3,0.1
		c0.1,0,0.2,0.1,0.3,0.1l0.3,0.1c0.1,0,0.2,0.1,0.3,0.2c0.1,0,0.2,0.1,0.3,0.2l0.1,0.1c0,0,0.1,0.1,0.1,0.1c0.1,0.1,0.2,0.1,0.2,0.2
		l0.2,0.3l-0.2-0.2c-0.1-0.1-0.1-0.1-0.2-0.2c0,0-0.1-0.1-0.1-0.1l-0.1-0.1c-0.1-0.1-0.2-0.1-0.3-0.2c-0.1,0-0.2-0.1-0.3-0.1
		l-0.3-0.1c-0.1,0-0.2-0.1-0.3-0.1c-0.1,0-0.2,0-0.3-0.1c-0.1,0-0.2,0-0.3,0l-0.3,0c-0.2,0-0.4,0-0.6,0c-0.4,0-0.8,0-1.2,0l0,0
		c-0.1,0.1-0.2,0.1-0.3,0.2c-0.4,0.3-0.7,0.5-1,0.7c0.1,0,0.3,0,0.4,0c0.2,0,0.3,0,0.5,0c0.2,0,0.3,0,0.5,0.1c0.1,0,0.1,0,0.2,0.1
		c0.1,0,0.1,0,0.2,0.1l0.2,0.1c0.1,0,0.1,0.1,0.2,0.1c0.1,0,0.1,0.1,0.2,0.1c0.1,0,0.1,0.1,0.2,0.2c0,0.1,0.1,0.1,0.1,0.2l0.1,0.2
		l-0.1-0.2c0-0.1-0.1-0.1-0.2-0.1c-0.1-0.1-0.1-0.1-0.2-0.1c-0.1,0-0.1-0.1-0.2-0.1c-0.1,0-0.1-0.1-0.2-0.1l-0.2-0.1
		c-0.1,0-0.1,0-0.2-0.1c-0.1,0-0.1,0-0.2,0c-0.3-0.1-0.6-0.1-0.9-0.1c-0.3,0-0.5,0-0.8,0c-0.1,0-0.1,0.1-0.2,0.1
		c-0.4,0.4-0.8,0.7-1.1,1c-0.3,0.3-0.5,0.5-0.7,0.7C146.2,118.8,146.1,118.9,146.1,118.9C146.1,119,146,119,146.1,118.9
		C146,119,146.1,119,146.1,118.9z"/>
</g>
<g id="XMLID_125_">
	<path id="XMLID_195_" class="st7" d="M141.3,126.7c0,0,6.6-5,13.4-0.6c6.7,4.5,6.8,9.5,9.2,11c2.4,1.6,4.8,0.7,5,1
		c0.2,0.3-2,4.8-8.8,4.3c-6.8-0.5-8.8-9.5-12.3-11.6c-3.4-2.1-5-1.9-5.6-2.6c-0.6-0.7-4.2,1.9-4.7,0.9c-0.6-1-0.3-2.9,0.2-2.2
		C138.1,127.6,141.3,126.7,141.3,126.7z"/>
	<path id="XMLID_126_" class="st5" d="M144,126.7c0,0,0.1,0,0.2,0c0.1,0,0.2,0,0.3,0c0.1,0,0.3,0,0.5,0.1c0.3,0,0.8,0.1,1.2,0.2
		l0.2,0c0.1,0,0.2,0,0.3,0l0.2,0c0.1,0,0.1,0,0.2,0c0,0,0.1,0,0.1,0l0.1,0c0,0,0.1,0,0.1-0.1c0,0,0.1,0,0.1-0.1
		c0.1,0,0.2-0.1,0.3-0.1c0.1-0.1,0.2-0.1,0.3-0.2c0.2-0.1,0.3-0.3,0.5-0.4c-0.1,0.2-0.2,0.4-0.4,0.5c-0.1,0.1-0.2,0.1-0.2,0.2
		c-0.1,0.1-0.2,0.1-0.3,0.2c0,0-0.1,0.1-0.1,0.1c-0.1,0-0.1,0.1-0.2,0.1l-0.2,0.1c-0.1,0-0.1,0-0.2,0c-0.1,0-0.1,0-0.2,0
		c0.3,0.1,0.6,0.2,0.9,0.3c0.2,0.1,0.4,0.1,0.5,0.2c0.1,0,0.1,0,0.2,0l0.2,0c0.1,0,0.1,0,0.2,0c0.1,0,0.1,0,0.2-0.1l0.2-0.1
		c0.1,0,0.1-0.1,0.2-0.1c0.1,0,0.1-0.1,0.2-0.1c0.1,0,0.1-0.1,0.2-0.1l0.2-0.1c0.1-0.1,0.2-0.2,0.4-0.3c0.1-0.1,0.2-0.2,0.3-0.3
		c0.1-0.1,0.2-0.2,0.3-0.3c-0.1,0.3-0.3,0.5-0.6,0.7c-0.1,0.1-0.2,0.2-0.3,0.3l-0.2,0.1c-0.1,0-0.1,0.1-0.2,0.1
		c-0.1,0-0.1,0.1-0.2,0.1c-0.1,0-0.1,0.1-0.2,0.1l-0.2,0.1c-0.1,0-0.1,0-0.2,0.1c-0.1,0-0.1,0-0.2,0c0.3,0.1,0.5,0.2,0.8,0.3
		c0.3,0.1,0.6,0.3,1,0.4l0,0c0.1,0,0.2,0,0.3,0l0.3,0c0.1,0,0.2,0,0.3,0c0.1,0,0.2,0,0.3,0l0.3,0c0.1,0,0.2,0,0.3,0
		c0.1,0,0.2,0,0.3-0.1c0.1,0,0.2,0,0.3-0.1l0.3-0.1c0.2-0.1,0.3-0.1,0.5-0.2c0.2-0.1,0.3-0.2,0.5-0.3c0.1-0.1,0.3-0.2,0.4-0.3
		c-0.2,0.3-0.5,0.5-0.9,0.7c-0.2,0.1-0.3,0.2-0.5,0.3l-0.3,0.1c-0.1,0-0.2,0.1-0.3,0.1c-0.1,0-0.2,0.1-0.3,0.1c-0.1,0-0.2,0-0.3,0.1
		l-0.3,0c-0.1,0-0.2,0-0.3,0c-0.1,0-0.2,0-0.3,0l0,0c0.2,0.1,0.3,0.2,0.5,0.3c0.3,0.2,0.6,0.4,1,0.6c0.3,0.2,0.6,0.5,0.9,0.7
		c0,0,0.1,0.1,0.1,0.1c0.1,0,0.1,0,0.2,0l0.3,0c0.1,0,0.2,0,0.3,0c0.1,0,0.2,0,0.3,0l0.3,0c0.1,0,0.2,0,0.3,0c0.1,0,0.2,0,0.3-0.1
		c0.1,0,0.2,0,0.3-0.1l0.3-0.1c0.2-0.1,0.3-0.1,0.5-0.2c0.2-0.1,0.3-0.2,0.5-0.3c0.1-0.1,0.3-0.2,0.4-0.3c-0.2,0.3-0.5,0.5-0.8,0.7
		c-0.2,0.1-0.3,0.2-0.5,0.3l-0.3,0.1c-0.1,0-0.2,0.1-0.3,0.1c-0.1,0-0.2,0.1-0.3,0.1c-0.1,0-0.2,0-0.3,0.1l-0.3,0
		c-0.1,0-0.2,0-0.3,0c-0.1,0-0.2,0-0.3,0l-0.1,0c0.5,0.4,0.9,0.8,1.3,1.3c0.1,0.2,0.3,0.3,0.4,0.5l0.4,0.5c0,0,0,0,0,0
		c0,0,0,0,0.1,0l0.3,0c0.1,0,0.2,0,0.3,0c0.1,0,0.2,0,0.3,0l0.3,0c0.1,0,0.2,0,0.3,0c0.1,0,0.2,0,0.3-0.1c0.1,0,0.2,0,0.3-0.1
		l0.3-0.1c0.2-0.1,0.3-0.1,0.5-0.2c0.2-0.1,0.3-0.2,0.5-0.3c0.1-0.1,0.3-0.2,0.4-0.3c-0.2,0.3-0.5,0.5-0.8,0.7
		c-0.2,0.1-0.3,0.2-0.5,0.3L158,133c-0.1,0-0.2,0.1-0.3,0.1c-0.1,0-0.2,0.1-0.3,0.1c-0.1,0-0.2,0-0.3,0.1l-0.3,0c-0.1,0-0.2,0-0.3,0
		c-0.1,0-0.2,0-0.3,0l-0.1,0c0.1,0.1,0.1,0.2,0.2,0.2l0.2,0.2l0.2,0.2c0.1,0.2,0.2,0.3,0.3,0.5c0.1,0.2,0.2,0.3,0.3,0.5
		c0.1,0.1,0.1,0.2,0.2,0.3l0,0c0.1,0,0.2,0,0.3,0l0.3,0c0.1,0,0.2,0,0.3,0c0.1,0,0.2,0,0.3,0l0.3,0c0.1,0,0.2,0,0.3,0
		c0.1,0,0.2,0,0.3-0.1c0.1,0,0.2,0,0.3-0.1l0.3-0.1c0.2-0.1,0.3-0.1,0.5-0.2c0.2-0.1,0.3-0.2,0.5-0.3c0.1-0.1,0.3-0.2,0.4-0.3
		c-0.2,0.3-0.5,0.5-0.9,0.7c-0.2,0.1-0.3,0.2-0.5,0.3l-0.3,0.1c-0.1,0-0.2,0.1-0.3,0.1c-0.1,0-0.2,0.1-0.3,0.1c-0.1,0-0.2,0-0.3,0.1
		l-0.3,0c-0.1,0-0.2,0-0.3,0c-0.1,0-0.2,0-0.3,0l-0.3,0c0,0,0,0-0.1,0c0.1,0.1,0.2,0.2,0.3,0.3c0.3,0.3,0.5,0.5,0.7,0.8
		c0.3,0.2,0.5,0.5,0.8,0.7c0,0,0,0,0,0l0,0c0.1,0,0.2,0,0.4,0.1l0.2,0c0.1,0,0.1,0,0.2,0c0.1,0,0.1,0,0.2,0l0.2,0c0.1,0,0.1,0,0.2,0
		c0.1,0,0.1,0,0.2,0c0.1,0,0.2-0.1,0.4-0.1c0.1,0,0.2-0.1,0.4-0.1c0.2-0.1,0.4-0.2,0.7-0.4c-0.2,0.2-0.4,0.4-0.6,0.5
		c-0.1,0.1-0.2,0.1-0.3,0.2c-0.1,0.1-0.2,0.1-0.4,0.1c-0.1,0-0.1,0-0.2,0.1c-0.1,0-0.1,0-0.2,0l-0.2,0c-0.1,0-0.1,0-0.2,0
		c-0.1,0-0.1,0-0.2,0l-0.2,0c0,0,0,0,0,0c0.1,0.1,0.3,0.2,0.4,0.3c0.1,0.1,0.3,0.2,0.4,0.3c0.1,0,0.1,0.1,0.2,0.1
		c0.1,0,0.1,0.1,0.2,0.1c0.3,0.1,0.5,0.3,0.7,0.4c0.1,0.1,0.2,0.1,0.4,0.2c0.1,0,0.2,0.1,0.3,0.1c0.4,0.2,0.9,0.3,1.2,0.3
		c0.3,0.1,0.6,0.1,0.8,0.1c0.2,0,0.3,0,0.3,0s-0.1,0-0.3,0c-0.2,0-0.5,0-0.8,0c-0.3,0-0.8-0.1-1.2-0.3c-0.1,0-0.2-0.1-0.4-0.1
		c-0.1,0-0.2-0.1-0.4-0.1c-0.3-0.1-0.5-0.2-0.8-0.4c-0.1,0-0.1-0.1-0.2-0.1c-0.1,0-0.1-0.1-0.2-0.1c-0.1-0.1-0.3-0.2-0.4-0.3
		c-0.1,0-0.1-0.1-0.2-0.1c0,0.1,0.1,0.1,0.1,0.2c0.1,0.1,0.1,0.3,0.1,0.4c0,0.2,0.1,0.3,0.1,0.5c0,0.1,0,0.2,0,0.2
		c0,0.1,0,0.2,0,0.2l0,0.2c0,0.1,0,0.2,0,0.2c0,0.1,0,0.2-0.1,0.2c0,0.1,0,0.1-0.1,0.2c0,0.1-0.1,0.1-0.1,0.2l-0.1,0.2l0.1-0.2
		c0-0.1,0.1-0.1,0.1-0.2c0-0.1,0-0.1,0.1-0.2c0-0.1,0-0.1,0-0.2c0-0.1,0-0.1,0-0.2l0-0.2c0-0.1,0-0.1,0-0.2c0-0.1,0-0.1,0-0.2
		c-0.1-0.3-0.2-0.6-0.3-0.9c-0.1-0.2-0.1-0.4-0.2-0.5c-0.1-0.1-0.2-0.1-0.3-0.2c-0.3-0.2-0.5-0.5-0.8-0.7c-0.2-0.2-0.5-0.5-0.7-0.7
		c0,0.1,0.1,0.1,0.1,0.2c0.1,0.4,0.3,0.8,0.3,1.2c0.1,0.4,0.1,0.9,0,1.3c0,0.1,0,0.2-0.1,0.3c0,0.1-0.1,0.2-0.1,0.3
		c0,0.1-0.1,0.2-0.1,0.3c-0.1,0.1-0.1,0.2-0.2,0.3c0.1-0.1,0.1-0.2,0.2-0.3c0-0.1,0.1-0.2,0.1-0.3c0-0.1,0.1-0.2,0.1-0.3
		c0-0.1,0-0.2,0-0.3c0-0.4,0-0.8-0.1-1.2c-0.1-0.4-0.2-0.8-0.4-1.2c-0.1-0.3-0.2-0.6-0.4-0.9c-0.1-0.1-0.2-0.3-0.4-0.4
		c-0.3-0.3-0.5-0.6-0.7-0.9l-0.2-0.2l-0.2-0.2c0,0,0,0,0,0c0.1,0.1,0.1,0.3,0.2,0.4c0.1,0.4,0.3,0.8,0.3,1.2c0.1,0.4,0.1,0.9,0,1.3
		c0,0.1,0,0.2-0.1,0.3c0,0.1-0.1,0.2-0.1,0.3c0,0.1-0.1,0.2-0.1,0.3c-0.1,0.1-0.1,0.2-0.2,0.3c0.1-0.1,0.1-0.2,0.2-0.3
		c0-0.1,0.1-0.2,0.1-0.3c0-0.1,0.1-0.2,0.1-0.3c0-0.1,0-0.2,0-0.3c0-0.4,0-0.8-0.1-1.2c-0.1-0.4-0.2-0.8-0.4-1.2
		c-0.1-0.4-0.3-0.8-0.5-1.1l-0.1-0.2l0,0l-0.1-0.1c-0.1-0.2-0.3-0.3-0.4-0.4c-0.4-0.5-0.8-0.9-1.3-1.3c0.1,0.2,0.2,0.4,0.2,0.6
		c0.1,0.4,0.3,0.8,0.3,1.2c0.1,0.4,0.1,0.9,0,1.3c0,0.1,0,0.2-0.1,0.3c0,0.1-0.1,0.2-0.1,0.3c0,0.1-0.1,0.2-0.1,0.3
		c-0.1,0.1-0.1,0.2-0.2,0.3c0.1-0.1,0.1-0.2,0.2-0.3c0-0.1,0.1-0.2,0.1-0.3c0-0.1,0.1-0.2,0.1-0.3c0-0.1,0-0.2,0-0.3
		c0-0.4,0-0.8-0.1-1.2c-0.1-0.4-0.2-0.8-0.4-1.2c-0.1-0.4-0.3-0.7-0.5-1c-0.3-0.2-0.6-0.5-0.9-0.7c-0.3-0.2-0.6-0.4-0.9-0.6
		c-0.2-0.1-0.5-0.3-0.7-0.4c0.1,0.2,0.2,0.5,0.3,0.7c0.1,0.4,0.3,0.8,0.3,1.2c0.1,0.4,0.1,0.9,0,1.3c0,0.1,0,0.2-0.1,0.3
		c0,0.1-0.1,0.2-0.1,0.3c0,0.1-0.1,0.2-0.1,0.3c-0.1,0.1-0.1,0.2-0.2,0.3c0.1-0.1,0.1-0.2,0.2-0.3c0-0.1,0.1-0.2,0.1-0.3
		c0-0.1,0.1-0.2,0.1-0.3c0-0.1,0-0.2,0-0.3c0-0.4,0-0.8-0.1-1.2c-0.1-0.4-0.2-0.8-0.4-1.2c-0.1-0.3-0.3-0.7-0.4-1
		c-0.3-0.1-0.5-0.3-0.8-0.4c-0.3-0.1-0.6-0.3-0.9-0.4c0,0-0.1,0-0.1-0.1c0.1,0.2,0.3,0.4,0.4,0.5c0.1,0.1,0.2,0.3,0.3,0.5
		c0.1,0.2,0.2,0.3,0.2,0.5c0,0.1,0.1,0.2,0.1,0.3c0,0.1,0.1,0.2,0.1,0.3l0.1,0.3c0,0.1,0,0.2,0,0.3c0,0.1,0,0.2,0,0.3l0,0.1
		c0,0,0,0.1,0,0.1c0,0.1,0,0.2-0.1,0.3l-0.1,0.2l0.1-0.3c0-0.1,0-0.2,0-0.3c0,0,0-0.1,0-0.1l0-0.1c0-0.1,0-0.2,0-0.3
		c0-0.1,0-0.2,0-0.3l-0.1-0.2c0-0.1-0.1-0.2-0.1-0.2c0-0.1-0.1-0.2-0.1-0.2c0-0.1-0.1-0.2-0.1-0.2l-0.1-0.2
		c-0.1-0.1-0.2-0.3-0.3-0.4c-0.2-0.3-0.4-0.6-0.6-0.8l0,0c-0.1,0-0.2-0.1-0.3-0.1c-0.3-0.1-0.7-0.2-1-0.3c0.1,0.1,0.1,0.2,0.2,0.3
		c0.1,0.1,0.1,0.2,0.2,0.3c0.1,0.1,0.1,0.2,0.2,0.4c0,0.1,0,0.1,0.1,0.2c0,0.1,0,0.1,0.1,0.2l0,0.2c0,0.1,0,0.1,0,0.2
		c0,0.1,0,0.1,0,0.2c0,0.1,0,0.1,0,0.2c0,0.1,0,0.1-0.1,0.2l-0.1,0.2l0-0.2c0-0.1,0-0.1,0-0.2c0-0.1,0-0.1,0-0.2c0-0.1,0-0.1,0-0.2
		c0-0.1,0-0.1,0-0.2l-0.1-0.2c0-0.1,0-0.1-0.1-0.2c0-0.1,0-0.1-0.1-0.2c-0.1-0.2-0.2-0.4-0.4-0.6c-0.1-0.2-0.3-0.4-0.4-0.6
		c-0.1,0-0.1,0-0.2,0c-0.5-0.1-0.9-0.2-1.2-0.3c-0.3-0.1-0.6-0.1-0.8-0.1C144.1,126.8,144.1,126.7,144,126.7
		C144,126.7,143.9,126.7,144,126.7C143.9,126.7,144,126.7,144,126.7z"/>
</g>
<g id="XMLID_85_">
	<path id="XMLID_124_" class="st4" d="M141,124.1c0,0,4.4-8.8,13.9-7.6c9.5,1.2,12.2,6.4,15.5,6.9c3.3,0.4,5.5-1.8,5.9-1.6
		c0.4,0.2,0.3,6.1-7.1,9.2c-7.5,3-14.3-5.4-19.1-5.9c-4.7-0.4-6.3,0.6-7.3,0.2c-1-0.4-3.4,4.2-4.5,3.4c-1.1-0.8-1.8-2.9-1-2.4
		C138.1,126.7,141,124.1,141,124.1z"/>
	<path id="XMLID_123_" class="st5" d="M143.9,122.7c0,0,0.1-0.1,0.2-0.1c0.1,0,0.2-0.1,0.4-0.2c0.1-0.1,0.3-0.1,0.5-0.2
		c0.4-0.1,0.9-0.3,1.4-0.4l0.2-0.1c0.1-0.1,0.2-0.1,0.3-0.2l0.2-0.1c0.1,0,0.1-0.1,0.1-0.1c0,0,0.1-0.1,0.1-0.1l0.1-0.1
		c0,0,0.1-0.1,0.1-0.1c0,0,0.1-0.1,0.1-0.1c0.1-0.1,0.1-0.2,0.2-0.3c0.1-0.1,0.1-0.2,0.2-0.3c0.1-0.2,0.2-0.5,0.3-0.7
		c0,0.3-0.1,0.5-0.1,0.8c0,0.1-0.1,0.2-0.2,0.4c-0.1,0.1-0.1,0.2-0.2,0.3c0,0.1-0.1,0.1-0.1,0.2c0,0.1-0.1,0.1-0.1,0.2l-0.1,0.1
		c0,0-0.1,0.1-0.1,0.1c0,0-0.1,0.1-0.1,0.1c0.3-0.1,0.7-0.1,1.1-0.2c0.2,0,0.4-0.1,0.7-0.1c0.1,0,0.1-0.1,0.2-0.1l0.2-0.1
		c0.1,0,0.1-0.1,0.2-0.2c0.1-0.1,0.1-0.1,0.2-0.2l0.2-0.2c0.1-0.1,0.1-0.1,0.2-0.2c0.1-0.1,0.1-0.1,0.2-0.2c0.1-0.1,0.1-0.1,0.2-0.2
		l0.1-0.2c0.1-0.1,0.2-0.3,0.2-0.5c0.1-0.2,0.1-0.3,0.2-0.5c0.1-0.2,0.1-0.3,0.1-0.5c0,0.3-0.1,0.7-0.2,1c-0.1,0.2-0.1,0.3-0.2,0.5
		l-0.1,0.2c0,0.1-0.1,0.1-0.1,0.2c0,0.1-0.1,0.1-0.2,0.2c-0.1,0.1-0.1,0.1-0.2,0.2l-0.2,0.2c-0.1,0.1-0.1,0.1-0.2,0.2
		c-0.1,0.1-0.1,0.1-0.2,0.2c0.3,0,0.7-0.1,1-0.1c0.4,0,0.8,0,1.2,0l0,0c0.1,0,0.2-0.1,0.3-0.1l0.3-0.1c0.1,0,0.2-0.1,0.3-0.1
		c0.1,0,0.2-0.1,0.3-0.1l0.3-0.2c0.1-0.1,0.2-0.1,0.3-0.2c0.1-0.1,0.2-0.1,0.2-0.2c0.1-0.1,0.2-0.1,0.2-0.2l0.2-0.2
		c0.1-0.2,0.3-0.3,0.4-0.5c0.1-0.2,0.2-0.3,0.4-0.5c0.1-0.2,0.2-0.4,0.3-0.6c-0.1,0.4-0.3,0.8-0.5,1.2c-0.1,0.2-0.2,0.4-0.4,0.5
		l-0.2,0.2c-0.1,0.1-0.2,0.2-0.2,0.2c-0.1,0.1-0.2,0.1-0.2,0.2c-0.1,0.1-0.2,0.1-0.3,0.2l-0.3,0.2c-0.1,0.1-0.2,0.1-0.3,0.2
		c-0.1,0-0.2,0.1-0.3,0.1l0,0c0.2,0,0.4,0,0.7,0c0.4,0,0.9,0.1,1.4,0.2c0.5,0.1,0.9,0.2,1.4,0.3c0.1,0,0.1,0,0.2,0
		c0.1,0,0.1,0,0.2-0.1l0.3-0.1c0.1,0,0.2-0.1,0.3-0.1c0.1,0,0.2-0.1,0.3-0.1l0.3-0.2c0.1-0.1,0.2-0.1,0.3-0.2
		c0.1-0.1,0.2-0.1,0.2-0.2c0.1-0.1,0.2-0.1,0.2-0.2l0.2-0.2c0.1-0.2,0.3-0.3,0.4-0.5c0.1-0.2,0.2-0.3,0.4-0.5
		c0.1-0.2,0.2-0.4,0.3-0.6c-0.1,0.4-0.3,0.8-0.5,1.2c-0.1,0.2-0.2,0.4-0.4,0.5l-0.2,0.2c-0.1,0.1-0.2,0.2-0.2,0.2
		c-0.1,0.1-0.2,0.1-0.2,0.2c-0.1,0.1-0.2,0.1-0.3,0.2l-0.3,0.2c-0.1,0.1-0.2,0.1-0.3,0.2c-0.1,0-0.2,0.1-0.3,0.1l-0.1,0.1
		c0.7,0.2,1.4,0.4,2.1,0.7c0.2,0.1,0.4,0.2,0.7,0.3l0.6,0.3c0,0,0,0,0,0c0,0,0,0,0.1,0l0.3-0.1c0.1,0,0.2-0.1,0.3-0.1
		c0.1,0,0.2-0.1,0.3-0.1l0.3-0.2c0.1-0.1,0.2-0.1,0.3-0.2c0.1-0.1,0.2-0.1,0.2-0.2c0.1-0.1,0.2-0.1,0.2-0.2l0.2-0.2
		c0.1-0.2,0.3-0.3,0.4-0.5c0.1-0.2,0.2-0.3,0.4-0.5c0.1-0.2,0.2-0.4,0.3-0.6c-0.1,0.4-0.3,0.8-0.5,1.2c-0.1,0.2-0.2,0.4-0.4,0.5
		l-0.2,0.2c-0.1,0.1-0.2,0.2-0.2,0.2c-0.1,0.1-0.2,0.1-0.2,0.2c-0.1,0.1-0.2,0.1-0.3,0.2l-0.3,0.2c-0.1,0.1-0.2,0.1-0.3,0.2
		c-0.1,0-0.2,0.1-0.3,0.1l-0.2,0.1c0.1,0.1,0.2,0.1,0.3,0.2l0.3,0.2l0.3,0.2c0.2,0.1,0.4,0.2,0.6,0.3c0.2,0.1,0.4,0.2,0.6,0.3
		c0.1,0.1,0.2,0.1,0.4,0.2l0,0c0.1,0,0.2-0.1,0.3-0.1l0.3-0.1c0.1,0,0.2-0.1,0.3-0.1c0.1,0,0.2-0.1,0.3-0.1l0.3-0.2
		c0.1-0.1,0.2-0.1,0.3-0.2c0.1-0.1,0.2-0.1,0.2-0.2c0.1-0.1,0.2-0.1,0.2-0.2l0.2-0.2c0.1-0.2,0.3-0.3,0.4-0.5
		c0.1-0.2,0.2-0.3,0.4-0.5c0.1-0.2,0.2-0.4,0.3-0.6c-0.1,0.4-0.3,0.8-0.5,1.2c-0.1,0.2-0.2,0.4-0.4,0.5l-0.2,0.2
		c-0.1,0.1-0.2,0.2-0.2,0.2c-0.1,0.1-0.2,0.1-0.2,0.2c-0.1,0.1-0.2,0.1-0.3,0.2l-0.3,0.2c-0.1,0.1-0.2,0.1-0.3,0.2
		c-0.1,0-0.2,0.1-0.3,0.1l-0.3,0.1c0,0,0,0-0.1,0c0.2,0.1,0.3,0.1,0.5,0.2c0.4,0.1,0.8,0.3,1.2,0.4c0.4,0.1,0.8,0.2,1.2,0.3
		c0,0,0,0,0,0l0,0c0.1,0,0.3-0.1,0.4-0.1l0.2-0.1c0.1,0,0.1-0.1,0.2-0.1c0.1,0,0.1-0.1,0.2-0.1l0.2-0.1c0.1,0,0.1-0.1,0.2-0.1
		c0.1,0,0.1-0.1,0.2-0.1c0.1-0.1,0.2-0.2,0.3-0.3c0.1-0.1,0.2-0.2,0.3-0.3c0.2-0.2,0.3-0.5,0.5-0.8c-0.1,0.3-0.2,0.6-0.4,0.8
		c-0.1,0.1-0.2,0.3-0.3,0.4c-0.1,0.1-0.2,0.2-0.3,0.3c-0.1,0.1-0.1,0.1-0.2,0.2c-0.1,0-0.1,0.1-0.2,0.1l-0.2,0.1
		c-0.1,0-0.1,0.1-0.2,0.1c-0.1,0-0.1,0.1-0.2,0.1l-0.2,0.1c0,0,0,0,0,0c0.2,0,0.4,0.1,0.6,0.1c0.2,0,0.4,0.1,0.5,0.1
		c0.1,0,0.2,0,0.3,0c0.1,0,0.2,0,0.3,0c0.3,0,0.7,0,1,0c0.2,0,0.3,0,0.5,0c0.2,0,0.3,0,0.4,0c0.6-0.1,1.1-0.2,1.4-0.3
		c0.4-0.1,0.7-0.2,0.9-0.3c0.2-0.1,0.3-0.2,0.3-0.2s-0.1,0.1-0.3,0.2c-0.2,0.1-0.5,0.3-0.9,0.4c-0.4,0.1-0.9,0.3-1.5,0.4
		c-0.1,0-0.3,0-0.4,0.1c-0.2,0-0.3,0-0.5,0c-0.3,0-0.7,0-1,0c-0.1,0-0.2,0-0.3,0c-0.1,0-0.2,0-0.3,0c-0.2,0-0.4,0-0.6-0.1
		c-0.1,0-0.2,0-0.3,0c0.1,0.1,0.1,0.1,0.2,0.2c0.1,0.1,0.3,0.3,0.4,0.4c0.1,0.1,0.2,0.3,0.3,0.4c0.1,0.1,0.1,0.2,0.1,0.2
		c0,0.1,0.1,0.2,0.1,0.2l0.1,0.3c0,0.1,0.1,0.2,0.1,0.3c0,0.1,0,0.2,0.1,0.3c0,0.1,0,0.2,0,0.3c0,0.1,0,0.2,0,0.3l-0.1,0.3l0-0.3
		c0-0.1,0-0.2,0-0.3c0-0.1,0-0.2-0.1-0.3c0-0.1,0-0.2-0.1-0.2c0-0.1-0.1-0.2-0.1-0.2l-0.1-0.2c0-0.1-0.1-0.1-0.1-0.2
		c0-0.1-0.1-0.1-0.2-0.2c-0.2-0.3-0.5-0.5-0.7-0.8c-0.2-0.2-0.3-0.3-0.5-0.4c-0.1,0-0.2,0-0.4-0.1c-0.4-0.1-0.8-0.2-1.2-0.3
		c-0.4-0.1-0.7-0.2-1.1-0.4c0.1,0.1,0.1,0.1,0.2,0.2c0.4,0.4,0.7,0.7,1,1.1c0.3,0.4,0.5,0.9,0.7,1.4c0,0.1,0.1,0.2,0.1,0.4
		c0,0.1,0,0.3,0,0.4c0,0.1,0,0.3,0,0.4c0,0.1,0,0.3-0.1,0.4c0-0.1,0-0.2,0-0.4c0-0.1,0-0.2,0-0.4c0-0.1,0-0.2-0.1-0.4
		c0-0.1-0.1-0.2-0.1-0.3c-0.2-0.5-0.4-0.9-0.7-1.3c-0.3-0.4-0.6-0.8-1-1.1c-0.3-0.3-0.6-0.5-0.8-0.7c-0.2-0.1-0.4-0.2-0.6-0.3
		c-0.4-0.2-0.8-0.4-1.2-0.6l-0.3-0.2l-0.3-0.2c0,0,0,0,0,0c0.1,0.1,0.3,0.3,0.4,0.4c0.4,0.4,0.7,0.7,1,1.1c0.3,0.4,0.5,0.9,0.7,1.4
		c0,0.1,0.1,0.2,0.1,0.4c0,0.1,0,0.3,0,0.4c0,0.1,0,0.3,0,0.4c0,0.1,0,0.3-0.1,0.4c0-0.1,0-0.2,0-0.4c0-0.1,0-0.2,0-0.4
		c0-0.1,0-0.2-0.1-0.4c0-0.1-0.1-0.2-0.1-0.3c-0.2-0.5-0.4-0.9-0.7-1.3c-0.3-0.4-0.6-0.8-1-1.1c-0.4-0.3-0.7-0.7-1.1-0.9l-0.2-0.2
		l0,0l-0.1-0.1c-0.2-0.1-0.4-0.2-0.6-0.3c-0.6-0.3-1.3-0.5-2-0.7c0.2,0.2,0.4,0.3,0.5,0.5c0.4,0.4,0.7,0.7,1,1.1
		c0.3,0.4,0.5,0.9,0.7,1.4c0,0.1,0.1,0.2,0.1,0.4c0,0.1,0,0.3,0,0.4c0,0.1,0,0.3,0,0.4c0,0.1,0,0.3-0.1,0.4c0-0.1,0-0.2,0-0.4
		c0-0.1,0-0.2,0-0.4c0-0.1,0-0.2-0.1-0.4c0-0.1-0.1-0.2-0.1-0.3c-0.2-0.5-0.4-0.9-0.7-1.3c-0.3-0.4-0.6-0.8-1-1.1
		c-0.3-0.3-0.7-0.6-1-0.8c-0.4-0.1-0.9-0.2-1.3-0.3c-0.4-0.1-0.9-0.1-1.3-0.2c-0.3,0-0.7,0-1-0.1c0.2,0.2,0.5,0.4,0.7,0.6
		c0.4,0.4,0.7,0.7,1,1.1c0.3,0.4,0.5,0.9,0.7,1.4c0,0.1,0.1,0.2,0.1,0.4c0,0.1,0,0.3,0,0.4c0,0.1,0,0.3,0,0.4c0,0.1,0,0.2-0.1,0.4
		c0-0.1,0-0.2,0-0.4c0-0.1,0-0.2,0-0.4c0-0.1,0-0.2-0.1-0.4c0-0.1-0.1-0.2-0.1-0.3c-0.2-0.5-0.4-0.9-0.7-1.3c-0.3-0.4-0.6-0.8-1-1.1
		c-0.3-0.3-0.6-0.6-1-0.8c-0.4,0-0.7,0-1.1,0c-0.4,0-0.8,0-1.2,0c-0.1,0-0.1,0-0.2,0c0.2,0.1,0.5,0.2,0.7,0.4
		c0.2,0.1,0.3,0.2,0.5,0.3c0.2,0.1,0.3,0.3,0.5,0.4c0.1,0.1,0.2,0.1,0.2,0.2c0.1,0.1,0.1,0.1,0.2,0.2l0.2,0.2
		c0.1,0.1,0.1,0.2,0.2,0.3c0.1,0.1,0.1,0.2,0.1,0.3l0.1,0.1c0,0,0,0.1,0,0.2c0,0.1,0.1,0.2,0.1,0.3l0,0.3l-0.1-0.3
		c0-0.1-0.1-0.2-0.1-0.3c0,0,0-0.1-0.1-0.1l-0.1-0.1c-0.1-0.1-0.1-0.2-0.2-0.3c-0.1-0.1-0.1-0.2-0.2-0.2l-0.2-0.2
		c-0.1-0.1-0.1-0.1-0.2-0.2c-0.1-0.1-0.1-0.1-0.2-0.2c-0.1-0.1-0.2-0.1-0.2-0.2l-0.2-0.2c-0.2-0.1-0.3-0.2-0.5-0.3
		c-0.3-0.2-0.7-0.4-1.1-0.5l0,0c-0.1,0-0.3,0-0.4,0c-0.4,0.1-0.8,0.1-1.2,0.2c0.1,0.1,0.3,0.1,0.4,0.2c0.1,0.1,0.3,0.2,0.4,0.3
		c0.1,0.1,0.2,0.2,0.4,0.3c0.1,0.1,0.1,0.1,0.2,0.2c0.1,0.1,0.1,0.1,0.2,0.2l0.1,0.2c0,0.1,0.1,0.1,0.1,0.2c0,0.1,0.1,0.1,0.1,0.2
		c0,0.1,0.1,0.1,0.1,0.2c0,0.1,0,0.1,0,0.2l0,0.2l0-0.2c0-0.1,0-0.1-0.1-0.2c0-0.1-0.1-0.1-0.1-0.2c0-0.1-0.1-0.1-0.1-0.2
		c0-0.1-0.1-0.1-0.1-0.2l-0.1-0.2c0-0.1-0.1-0.1-0.2-0.2c-0.1-0.1-0.1-0.1-0.2-0.1c-0.2-0.2-0.5-0.3-0.7-0.5
		c-0.2-0.1-0.5-0.3-0.7-0.4c-0.1,0-0.1,0-0.2,0c-0.6,0.1-1,0.2-1.4,0.3c-0.4,0.1-0.7,0.2-0.9,0.3C144,122.6,143.9,122.7,143.9,122.7
		C143.8,122.7,143.8,122.7,143.9,122.7C143.8,122.7,143.8,122.7,143.9,122.7z"/>
</g>
<g id="XMLID_204_">
	
		<rect id="XMLID_96_" x="42.6" y="60.1" transform="matrix(0.6115 0.7913 -0.7913 0.6115 76.1218 -22.5184)" class="st3" width="36.8" height="12.3"/>
	
		<rect id="XMLID_95_" x="50.1" y="53.8" transform="matrix(0.6115 0.7913 -0.7913 0.6115 67.5476 -20.6179)" class="st8" width="9.3" height="9.3"/>
	
		<rect id="XMLID_203_" x="62.3" y="69.6" transform="matrix(0.6115 0.7913 -0.7913 0.6115 84.8377 -24.1498)" class="st9" width="9.3" height="9.3"/>
	
		<rect id="XMLID_97_" x="56.2" y="61.7" transform="matrix(0.6115 0.7913 -0.7913 0.6115 76.1722 -22.3797)" class="st4" width="9.3" height="9.3"/>
</g>
<g id="XMLID_223_">
	
		<rect id="XMLID_10_" x="51.1" y="58.2" transform="matrix(9.789672e-02 0.9952 -0.9952 9.789672e-02 126.7457 -11.0904)" class="st3" width="36.8" height="12.3"/>
	
		<rect id="XMLID_9_" x="63.7" y="49.8" transform="matrix(9.791253e-02 0.9952 -0.9952 9.791253e-02 115.8654 -18.8862)" class="st1" width="9.3" height="9.3"/>
	
		<rect id="XMLID_8_" x="65.6" y="69.7" transform="matrix(9.789342e-02 0.9952 -0.9952 9.789342e-02 137.4624 -2.8629)" class="st9" width="9.3" height="9.3"/>
	
		<rect id="XMLID_7_" x="64.7" y="59.7" transform="matrix(9.788992e-02 0.9952 -0.9952 9.788992e-02 126.6395 -10.8928)" class="st9" width="9.3" height="9.3"/>
</g>
<g id="XMLID_4_">
	
		<rect id="XMLID_254_" x="60.7" y="62.4" transform="matrix(-0.3579 0.9338 -0.9338 -0.3579 171.4245 19.167)" class="st3" width="36.8" height="12.3"/>
	
		<rect id="XMLID_253_" x="77.9" y="54.5" transform="matrix(-0.3579 0.9338 -0.9338 -0.3579 167.315 3.2686)" class="st10" width="9.3" height="9.3"/>
	
		<rect id="XMLID_6_" x="70.7" y="73.2" transform="matrix(-0.3579 0.9338 -0.9338 -0.3579 175.0401 35.3428)" class="st9" width="9.3" height="9.3"/>
	
		<rect id="XMLID_5_" x="74.3" y="63.8" transform="matrix(-0.3579 0.9338 -0.9338 -0.3579 171.1693 19.2694)" class="st11" width="9.3" height="9.3"/>
</g>
<g id="XMLID_87_">
	<path id="XMLID_63_" class="st12" d="M168.7,58.7l-2.8,6.2L131.4,90c0,0-3.8-1.6-4.2-6.5L161.3,59L168.7,58.7z"/>
	<g id="XMLID_91_">
		<path id="XMLID_93_" class="st13" d="M162.2,60.4l6.1-1.7l-7,0.3l-34.1,24.5c0.1,0.6,0.2,1.2,0.3,1.7L162.2,60.4z"/>
		<path id="XMLID_94_" class="st13" d="M164,63.7l-34.8,24.6c1.1,1.2,2.3,1.7,2.3,1.7l34.4-25.1l2.5-5.5L164,63.7z"/>
	</g>
	<path id="XMLID_92_" class="st9" d="M167.3,58.7l0.9,1.2c0,0,1.5-1.8,1.3-1.8C169.3,58,167.3,58.7,167.3,58.7z"/>
</g>
<g>
	<rect id="XMLID_503_" x="85.1" y="140" class="st14" width="43.1" height="12.3"/>
	<path id="XMLID_504_" class="st12" d="M147.9,154.8H60.4c-1.5,0-2.7-1.2-2.7-2.7v0c0-1.5,1.2-2.7,2.7-2.7h87.4
		c1.5,0,2.7,1.2,2.7,2.7v0C150.6,153.5,149.4,154.8,147.9,154.8z"/>
	<g>
		<path id="XMLID_488_" class="st13" d="M130.7,143.8H77.9c-14.5,0-26.3-11.8-26.3-26.3V95.3c0-14.5,11.8-26.3,26.3-26.3h52.8
			c14.5,0,26.3,11.8,26.3,26.3v22.2C157,132,145.2,143.8,130.7,143.8z"/>
		<path id="XMLID_502_" class="st3" d="M126.3,138H85.1c-14,0-25.3-11.3-25.3-25.3V98.1c0-14,11.3-25.3,25.3-25.3h41.2
			c14,0,25.3,11.3,25.3,25.3v14.5C151.6,126.6,140.3,138,126.3,138z"/>
		<path id="XMLID_82_" class="st14" d="M57.9,81.1c0,1.2-1,2.2-2.2,2.2c-1.2,0-2.2-1-2.2-2.2c0-1.2,1-2.2,2.2-2.2
			C56.9,78.9,57.9,79.9,57.9,81.1z"/>
		<path id="XMLID_86_" class="st14" d="M57.9,89.8c0,1.2-1,2.2-2.2,2.2c-1.2,0-2.2-1-2.2-2.2c0-1.2,1-2.2,2.2-2.2
			C57,87.6,57.9,88.6,57.9,89.8z"/>
		<path id="XMLID_90_" class="st14" d="M58.2,132.5c0,1.2-1,2.2-2.2,2.2c-1.2,0-2.2-1-2.2-2.2c0-1.2,1-2.2,2.2-2.2
			C57.2,130.3,58.2,131.2,58.2,132.5z"/>
		<path id="XMLID_88_" class="st14" d="M57.9,123.2c0,1.2-1,2.2-2.2,2.2c-1.2,0-2.2-1-2.2-2.2s1-2.2,2.2-2.2
			C57,121,57.9,122,57.9,123.2z"/>
		<path id="XMLID_83_" class="st14" d="M55.8,117.4L55.8,117.4c-1.1,0-2.1-0.9-2.1-2.1V97c0-1.1,0.9-2.1,2.1-2.1h0
			c1.1,0,2.1,0.9,2.1,2.1v18.4C57.9,116.5,57,117.4,55.8,117.4z"/>
		<g id="XMLID_213_">
			<path id="XMLID_214_" class="st15" d="M143.1,85.2v29.4h-14.2V138h13.9c4.9,0,8.9-4,8.9-8.9V85.2H143.1z"/>
			<path id="XMLID_215_" class="st15" d="M66,82.4c0,0,71.4,0,85.7,0v-0.8c0-4.9-4-8.9-8.9-8.9H68.7c-4.9,0-8.9,4-8.9,8.9v47.4
				c0,4,2.6,7.3,6.2,8.5V82.4z"/>
		</g>
		<rect id="XMLID_418_" x="144.4" y="87.6" class="st1" width="5.7" height="5.7"/>
		<rect id="XMLID_206_" x="66.1" y="78.3" class="st1" width="79.9" height="3.3"/>
		<rect id="XMLID_207_" x="60.3" y="83.1" class="st12" width="4.9" height="1.9"/>
		<rect id="XMLID_218_" x="60.4" y="86.7" class="st1" width="4.9" height="1.9"/>
		<rect id="XMLID_220_" x="60.4" y="95.1" class="st1" width="4.9" height="1.9"/>
		<rect id="XMLID_222_" x="60.4" y="98.9" class="st1" width="4.9" height="1.9"/>
		<rect id="XMLID_224_" x="60.5" y="103.3" class="st1" width="4.9" height="1.9"/>
		<rect id="XMLID_3_" x="60.3" y="107.9" class="st1" width="4.9" height="1.9"/>
		<rect id="XMLID_219_" x="60.4" y="90.7" class="st1" width="4.9" height="1.9"/>
		<rect id="XMLID_216_" x="66.1" y="74.1" class="st1" width="79.9" height="3.3"/>
		<rect id="XMLID_217_" x="60.7" y="112.5" class="st3" width="4.5" height="4.5"/>
		<g id="XMLID_2_">
			
				<rect id="XMLID_259_" x="130.6" y="119.9" transform="matrix(1 9.158853e-03 -9.158853e-03 1 1.1262 -1.2579)" class="st3" width="14.6" height="4.9"/>
			
				<rect id="XMLID_258_" x="132.1" y="120.5" transform="matrix(1 9.143015e-03 -9.143015e-03 1 1.1244 -1.2195)" class="st8" width="3.7" height="3.7"/>
			
				<rect id="XMLID_257_" x="140" y="120.6" transform="matrix(1 9.143917e-03 -9.143917e-03 1 1.1255 -1.2924)" class="st9" width="3.7" height="3.7"/>
			
				<rect id="XMLID_256_" x="136.1" y="120.5" transform="matrix(1 9.143015e-03 -9.143015e-03 1 1.1249 -1.2558)" class="st4" width="3.7" height="3.7"/>
		</g>
		<g id="XMLID_261_">
			
				<rect id="XMLID_306_" x="130.5" y="125.6" transform="matrix(1 9.133867e-03 -9.133867e-03 1 1.1749 -1.2532)" class="st3" width="14.6" height="4.9"/>
			
				<rect id="XMLID_305_" x="132" y="126.2" transform="matrix(1 9.142937e-03 -9.142937e-03 1 1.1761 -1.2182)" class="st8" width="3.7" height="3.7"/>
			
				<rect id="XMLID_263_" x="139.9" y="126.2" transform="matrix(1 9.142926e-03 -9.142926e-03 1 1.1771 -1.291)" class="st9" width="3.7" height="3.7"/>
			
				<rect id="XMLID_262_" x="135.9" y="126.2" transform="matrix(1 9.143015e-03 -9.143015e-03 1 1.1767 -1.2545)" class="st4" width="3.7" height="3.7"/>
		</g>
		<g id="XMLID_307_">
			
				<rect id="XMLID_402_" x="130.2" y="131.1" transform="matrix(1 9.133638e-03 -9.133638e-03 1 1.2255 -1.2508)" class="st3" width="14.6" height="4.9"/>
			
				<rect id="XMLID_401_" x="131.7" y="131.7" transform="matrix(1 9.143827e-03 -9.143827e-03 1 1.227 -1.2159)" class="st8" width="3.7" height="3.7"/>
			
				<rect id="XMLID_310_" x="139.7" y="131.8" transform="matrix(1 9.142926e-03 -9.142926e-03 1 1.2279 -1.2886)" class="st9" width="3.7" height="3.7"/>
			
				<rect id="XMLID_308_" x="135.7" y="131.8" transform="matrix(1 9.133164e-03 -9.133164e-03 1 1.2261 -1.2508)" class="st4" width="3.7" height="3.7"/>
		</g>
		<path id="XMLID_221_" class="st1" d="M147.5,118.8h-15.7c-0.7,0-1.3-0.6-1.3-1.3l0,0c0-0.7,0.6-1.3,1.3-1.3h15.7
			c0.7,0,1.3,0.6,1.3,1.3l0,0C148.8,118.2,148.2,118.8,147.5,118.8z"/>
		<rect id="XMLID_403_" x="143.8" y="102.3" class="st14" width="7.5" height="1.6"/>
		<rect id="XMLID_404_" x="144.6" y="105.6" class="st3" width="5.6" height="9.2"/>
		<rect id="XMLID_405_" x="144.5" y="98.3" class="st3" width="6" height="2.8"/>
	</g>
</g>
<g id="XMLID_202_">
	<path id="XMLID_71_" class="st8" d="M164.4,90.9c0,4.6-3.7,8.3-8.3,8.3c-4.6,0-8.3-3.7-8.3-8.3c0-4.6,3.7-8.3,8.3-8.3
		C160.7,82.6,164.4,86.3,164.4,90.9z"/>
	<g id="XMLID_200_">
		<path id="XMLID_201_" class="st10" d="M156.3,94.9c-0.2,0-0.5,0-0.7,0c-1.4-0.2-2.9-1-2.7-2.3c0-0.2,0.2-0.3,0.4-0.3
			c0.2,0,0.3,0.2,0.3,0.4c-0.1,0.8,1,1.4,2.1,1.5c1.1,0.2,2.4-0.1,2.5-0.9c0-0.2,0.2-0.3,0.4-0.3c0.2,0,0.3,0.2,0.3,0.4
			C158.7,94.4,157.5,94.9,156.3,94.9z"/>
	</g>
	<path id="XMLID_199_" class="st10" d="M160.5,89.3c0,0.6-0.5,1.1-1.1,1.1c-0.6,0-1.1-0.5-1.1-1.1c0-0.6,0.5-1.1,1.1-1.1
		C160,88.1,160.5,88.6,160.5,89.3z"/>
	<path id="XMLID_205_" class="st10" d="M154.4,88.4c0,0.6-0.5,1.1-1.1,1.1c-0.6,0-1.1-0.5-1.1-1.1c0-0.6,0.5-1.1,1.1-1.1
		C153.9,87.3,154.4,87.8,154.4,88.4z"/>
</g>
<path id="XMLID_420_" class="st4" d="M88.1,86.4c0,0-0.1,1.2-0.3,3.2c-0.1,1-0.1,2.3-0.1,3.7c0,1.4,0.1,3,0.4,4.7
	c0,0.2,0.1,0.4,0.2,0.6l0.1,0.3l0,0.2l0,0.1l0,0c0,0,0,0,0,0l0,0l0.1,0.3l0.1,0.3c0,0.1,0.1,0.2,0.2,0.3c0.1,0.1,0.1,0.2,0.2,0.3
	c0.6,0.7,1.3,1.2,2.1,1.8c1.6,1.1,3.6,1.9,5.5,3c1,0.5,2,1.1,2.9,1.9c0.5,0.4,0.9,0.9,1.2,1.5l0.1,0.2l0,0.1l0,0.1c0,0,0,0.1,0,0.1
	l0,0l0.1,0.2c0,0,0,0.1,0,0.1l0,0.2c0,0.1,0,0.2,0,0.3l0,0.3c0,0.2-0.1,0.4-0.1,0.6c-0.3,0.7-0.8,1.2-1.2,1.6
	c-0.5,0.4-1,0.8-1.5,1.1c-1,0.7-2,1.3-2.9,1.9c-0.9,0.6-1.8,1.4-2.4,2.2c-0.6,0.8-1,1.8-1,2.8c0,0.1,0,0.2,0,0.3l0,0.1l0,0.1
	c0.1,0.2,0.2,0.3,0.3,0.5c0.3,0.3,0.7,0.5,1.2,0.6c1,0.3,2.1,0.3,3.1,0.3c2.1,0,4.3-0.1,6.3-0.2c1,0,2-0.1,3-0.1
	c1,0,1.9,0.1,2.8,0.3c0.5,0.1,0.9,0.3,1.3,0.6l0.1,0.1c0,0,0,0,0,0l0,0l0,0l0.1,0.1c0.1,0.1,0.1,0.1,0.2,0.2
	c0.1,0.1,0.2,0.2,0.2,0.3c0.1,0.1,0.1,0.2,0.2,0.3c0.2,0.4,0.2,0.9,0.1,1.3c-0.1,0.4-0.3,0.8-0.5,1.1c-0.4,0.6-0.9,1.1-1.3,1.6
	c-0.5,0.4-0.9,0.8-1.3,1.1c-0.8,0.6-1.5,1.1-2,1.4c-0.5,0.3-0.7,0.4-0.7,0.4s0.2-0.2,0.7-0.5c0.4-0.3,1.1-0.8,1.8-1.5
	c0.4-0.3,0.8-0.7,1.2-1.2c0.4-0.5,0.8-1,1.1-1.6c0.3-0.6,0.5-1.3,0.2-1.9c0-0.1-0.1-0.1-0.1-0.2c0-0.1-0.1-0.1-0.1-0.2
	c0-0.1-0.1-0.1-0.2-0.2l-0.1-0.1l0,0l0,0c0,0,0,0,0,0l-0.1-0.1c-0.3-0.2-0.7-0.3-1.1-0.4c-0.8-0.2-1.7-0.2-2.6-0.2
	c-0.9,0-1.9,0.1-2.9,0.2c-2,0.2-4.1,0.4-6.3,0.4c-1.1,0-2.3,0-3.5-0.3c-0.6-0.2-1.2-0.4-1.8-0.9c-0.3-0.2-0.5-0.6-0.7-0.9
	c0-0.1-0.1-0.2-0.1-0.3l-0.1-0.3c0-0.2-0.1-0.4-0.1-0.6c0-1.3,0.5-2.6,1.3-3.6c0.8-1,1.7-1.8,2.7-2.5c1-0.7,2-1.3,3-1.9
	c0.5-0.3,0.9-0.6,1.3-1c0.4-0.3,0.7-0.7,0.9-1.1c0-0.1,0.1-0.2,0.1-0.3l0-0.1c0,0,0-0.1,0-0.1l0-0.1c0,0,0-0.1,0-0.1l0-0.2l-0.1-0.3
	c-0.2-0.4-0.5-0.8-0.9-1.1c-0.8-0.7-1.7-1.3-2.6-1.8c-1.9-1.1-3.8-2-5.5-3.2c-0.4-0.3-0.8-0.6-1.2-0.9c-0.4-0.3-0.8-0.7-1.1-1.1
	c-0.1-0.1-0.2-0.2-0.2-0.3c-0.1-0.1-0.1-0.2-0.2-0.3c-0.1-0.1-0.1-0.2-0.2-0.4l-0.1-0.3l0,0c0,0,0,0,0,0l0,0l0-0.1l0-0.2l-0.1-0.3
	c-0.1-0.2-0.1-0.5-0.1-0.7c-0.3-1.8-0.2-3.4-0.2-4.8c0.1-1.4,0.2-2.7,0.4-3.7c0.1-1,0.3-1.8,0.4-2.3C88.1,86.7,88.1,86.4,88.1,86.4z
	"/>
<g id="XMLID_280_">
	<g id="XMLID_299_">
		<path id="XMLID_304_" class="st8" d="M82.3,108.6c0-1.8-1.5-3.3-3.3-3.3c-1.8,0-3.3,1.5-3.3,3.3c0,1.1,0.5,2.1,1.4,2.7v0.8
			c0,0.8,0.6,1.4,1.4,1.4h1.1c0.8,0,1.4-0.6,1.4-1.4v-0.9C81.9,110.6,82.3,109.6,82.3,108.6z"/>
		<path id="XMLID_303_" class="st16" d="M80.8,114.7c0,1.3-3.4,1.3-3.4,0V113h3.4V114.7z"/>
		<g id="XMLID_300_">
			<rect id="XMLID_302_" x="77.4" y="113.2" class="st17" width="3.4" height="0.4"/>
			<path id="XMLID_301_" class="st17" d="M80.8,114.7v-0.4h-3.4v0.4c0,0.1,0,0.1,0,0.2h3.3C80.8,114.9,80.8,114.8,80.8,114.7z"/>
		</g>
	</g>
	<g id="XMLID_297_">
		
			<rect id="XMLID_298_" x="72" y="102.1" transform="matrix(0.3855 -0.9227 0.9227 0.3855 -52.5003 131.2417)" class="st8" width="0.6" height="5.9"/>
	</g>
	<g id="XMLID_295_">
		
			<rect id="XMLID_296_" x="77.2" y="98.6" transform="matrix(0.9841 -0.1778 0.1778 0.9841 -16.8153 15.4088)" class="st8" width="0.6" height="5.8"/>
	</g>
	<g id="XMLID_293_">
		
			<rect id="XMLID_294_" x="79.7" y="102" transform="matrix(0.4469 -0.8946 0.8946 0.4469 -45.8076 130.5083)" class="st8" width="5.9" height="0.6"/>
	</g>
	<g id="XMLID_287_">
		<path id="XMLID_288_" class="st8" d="M83.2,107.2l-0.2-0.6c0.2-0.1,3-1.2,4.9-1.9l0.2,0.6C87.7,105.4,83.4,107.1,83.2,107.2z"/>
	</g>
	<g id="XMLID_285_">
		<path id="XMLID_286_" class="st8" d="M69.7,109.5l0-0.6c2.2-0.1,4.7-0.2,4.9-0.3c0,0,0,0-0.1,0l0.3,0.5
			C74.8,109.2,74.6,109.3,69.7,109.5z"/>
	</g>
	<g id="XMLID_283_">
		
			<rect id="XMLID_284_" x="73.1" y="111.7" transform="matrix(0.7663 -0.6425 0.6425 0.7663 -54.5459 74.0306)" class="st8" width="2.8" height="0.6"/>
	</g>
	<g id="XMLID_281_">
		
			<rect id="XMLID_282_" x="84.6" y="108.9" transform="matrix(0.4826 -0.8759 0.8759 0.4826 -53.1333 131.7714)" class="st8" width="0.6" height="3.9"/>
	</g>
</g>
<g>
	<path id="XMLID_400_" class="st11" d="M117.6,148.7c0,0-0.1,1.4-0.5,1.8c-0.3,0.4-4.8,0.3-4.7,1.1c0.1,0.8,7.3,0.2,7.3,0.2
		l-0.3-3.1l-1.6,0L117.6,148.7z"/>
	<g id="XMLID_397_">
		<path id="XMLID_399_" class="st18" d="M117.8,151.3c0.6,0,1.3-0.3,1.7-0.6l-0.2-1.9l-1.6,0l-0.1,0c0,0-0.1,1.4-0.5,1.8
			c0,0.1-0.1,0.1-0.3,0.1C117,150.9,117.4,151.2,117.8,151.3z"/>
		<path id="XMLID_398_" class="st18" d="M114.5,152.1c0.2,0,0.5,0,0.8,0C115,152.1,114.7,152.1,114.5,152.1z"/>
	</g>
	<path id="XMLID_396_" class="st11" d="M125,150.8c0,0-0.1,1.4-0.5,1.8c-0.3,0.4-4.8,0.3-4.7,1.1c0.1,0.8,7.3,0.2,7.3,0.2l-0.3-3.1
		l-1.6,0L125,150.8z"/>
	<g id="XMLID_393_">
		<path id="XMLID_395_" class="st18" d="M125.2,153.4c0.6,0,1.3-0.3,1.7-0.6l-0.2-1.9l-1.6,0l-0.1,0c0,0-0.1,1.4-0.5,1.8
			c0,0.1-0.1,0.1-0.3,0.1C124.5,153.1,124.8,153.4,125.2,153.4z"/>
		<path id="XMLID_394_" class="st18" d="M121.9,154.2c0.2,0,0.5,0,0.8,0C122.4,154.2,122.1,154.2,121.9,154.2z"/>
	</g>
	<path id="XMLID_356_" class="st19" d="M121.4,96.2l-9.1,7.8c-1.2,1-3.3-1.5-2.1-2.5l8-8.7C119.9,91.1,123.1,94.6,121.4,96.2z"/>
	<g id="XMLID_352_">
		<path id="XMLID_355_" class="st18" d="M105.9,98.3l-2.2-1.1c0,0-0.2-0.5-0.6-1.8c-0.2-0.7-0.9,1.3-0.9,1.3s-1.2-0.8-2-0.1
			c-0.8,0.7-0.9,1.9-0.1,2.2c0.8,0.3,2.1,0.9,2.6,0.8c0.5-0.1,0.5-0.1,0.5-0.1l2.1,0.6L105.9,98.3z"/>
		<path id="XMLID_354_" class="st20" d="M100.3,96.6c0.1-0.1,0.2-0.2,0.4-0.2c-0.3,0.4-0.6,0.9-0.6,1.3c0,0.7,0.7,1,1.7,1.2
			c1,0.2,1.6-0.2,1.6-0.2l2.2,0.7l-0.2,0.7l-2.1-0.6c0,0,0,0-0.5,0.1c-0.5,0.1-1.8-0.4-2.6-0.8C99.4,98.5,99.5,97.3,100.3,96.6z"/>
		<path id="XMLID_353_" class="st19" d="M112.3,101.5l-7.2-4l-1.3,2.6l7.3,4C112.7,104.8,113.8,102.2,112.3,101.5z"/>
	</g>
	<path id="XMLID_345_" class="st11" d="M118.8,109.5c0,0.3-0.3,23.8-0.3,23.8c-0.2,2.1,3.7,2.6,3.9,0.4c0,0,6-21,5.2-23.1
		C128,108.1,119.2,106.9,118.8,109.5z"/>
	<path id="XMLID_344_" class="st11" d="M117,149.5c-0.1,0.8,2.8,1,2.8,0.3c0,0,3.2-16.8,3.2-17c0.2-1.7-4-2.3-4.2-0.6L117,149.5z"/>
	<path id="XMLID_341_" class="st10" d="M120.8,112c0.1,0.3,3,23.7,3,23.7c0.1,2.2,4,2,4-0.1c0,0,3-21.7,1.9-23.6
		C129.7,109.2,120.8,109.3,120.8,112z"/>
	<path id="XMLID_340_" class="st10" d="M124.3,151.8c0,0.8,2.9,0.6,2.8-0.1c0,0,0.8-17.1,0.8-17.3c0-1.7-4.2-1.7-4.2,0L124.3,151.8z
		"/>
	<path id="XMLID_339_" class="st1" d="M117.9,92.2c0,0-0.7,0.5-1.2,2.5c-0.5,2.1,3,12.7,2.1,14.7c-0.9,2.1-1.1,2.7-1.1,2.7
		s5.2,2,8.8,1.6c3.5-0.4,4.2-1.8,4.2-1.8s-2.7-16.3-4.2-18.4c-1.5-2.1-5-2.5-5-2.5L117.9,92.2z"/>
	<path id="XMLID_279_" class="st4" d="M121.1,89.7c0.1,0,0.9,0,0.9-0.8c0-0.7,0.8-2.8,0.6-3.9c-0.1-1.1-1.3-1.4-1.3-1.4
		s0-0.9-1.4-1.3c-1.5-0.4-4.1,0.6-4.9,1c-0.8,0.5-1.5,0.5-1.5,0.5l1,0.8l-0.5,0.2c0,0,0.4,0.5,1.2,0.5c0.9,0,0.7,2,1.5,2.3
		c0.8,0.2,1.5,2.3,2.5,2.5C120.2,90.2,121.1,89.7,121.1,89.7z"/>
	<path id="XMLID_278_" class="st21" d="M122.6,85.1c-0.1-1.1-1.3-1.4-1.3-1.4s0-0.9-1.4-1.3c-1.5-0.4-4.1,0.6-4.9,1
		c-0.8,0.5-1.5,0.5-1.5,0.5l1,0.8l-0.5,0.2c0,0,0.4,0.5,1.2,0.5c0.1,0,0.2,0,0.2,0.1c0.1-0.3,0.2-0.6,0.1-0.8
		c-0.3-0.5-1.2-0.5-1.2-0.5s0,0,0.4,0c0.4,0,3.9-1.5,5.5-1c1.6,0.5,0.5,1.3,0.5,1.3s0.6-0.2,1.2,0.4c0.6,0.6-0.1,2.6-0.6,3.7
		c-0.3,0.7-1,1.3-1.6,1.7c0.7,0,1.3-0.4,1.3-0.4c0.1,0,0.9,0,0.9-0.8C122,88.3,122.8,86.2,122.6,85.1z"/>
	<path id="XMLID_277_" class="st18" d="M115.3,84.6c0,0-1,4.7,0.1,5.4c1.2,0.7,2,0.1,2,0.1l0.9,2.8c0.2,0.8,3.7-0.2,3.5-0.9
		l-0.5-2.6c0,0-1.5,0.7-2.3,0.1c-0.8-0.6-0.9-1.3-0.9-1.3s0.9-0.6,1-1.1c0.1-0.5-0.8-1.1-1.2-0.7c-0.5,0.4-0.6,0.7-0.6,0.7
		s-0.9-0.4-0.5-1.2C117.4,85,116.7,83.9,115.3,84.6z"/>
	<g id="XMLID_269_">
		<path id="XMLID_276_" class="st12" d="M91.1,93.1l3.2-3c0.7-0.6,1.8-0.6,2.4,0.2l30.6,36.6c0.6,0.7,0.5,1.7-0.2,2.3l0,0
			c-0.7,0.6-1.7,0.6-2.3,0L91.1,95.5C90.4,94.8,90.4,93.7,91.1,93.1z"/>
		<path id="XMLID_275_" class="st13" d="M91.1,95.1l5.2-4.8c0.1-0.1,0.1-0.4-0.1-0.4l-7.8-3.5c-0.2-0.1-0.4,0.1-0.4,0.3l2.6,8.3
			C90.8,95.1,91,95.2,91.1,95.1z"/>
		<path id="XMLID_273_" class="st14" d="M89.6,86.8l-1.2-0.5c-0.2-0.1-0.4,0.1-0.4,0.3l0.4,1.3C88.8,87.6,89.3,87.2,89.6,86.8z"/>
		
			<rect id="XMLID_272_" x="96.8" y="92.2" transform="matrix(-0.7365 0.6764 -0.6764 -0.7365 237.1184 103.4451)" class="st14" width="3.2" height="11.4"/>
		<path id="XMLID_271_" class="st13" d="M95.3,94.6L95.3,94.6c0.2-0.2,0.6-0.2,0.8,0l5,5.4c0.2,0.2,0.2,0.6,0,0.8l0,0
			c-0.2,0.2-0.6,0.2-0.8,0l-5-5.4C95.1,95.1,95.1,94.8,95.3,94.6z"/>
		<path id="XMLID_270_" class="st13" d="M109.9,114.2l15,14.9c0.6,0.6,1.7,0.7,2.3,0c0.7-0.6,0.7-1.6,0.2-2.3l-13.6-16.3
			C112.5,111.8,111.1,113.2,109.9,114.2z"/>
	</g>
	<path id="XMLID_268_" class="st21" d="M117.7,112.2c0,0,1.8,0.7,4,1.2l1.9-1.3c0,0-3.6,0.1-4.4-0.5c-0.8-0.6,0.3-2.1,0.9-3.6
		c0.6-1.5,6-12.4,6-12.4l-7.3,7.9c0,0-0.2,0.1-0.6,0.1c0.6,2.7,1,5.1,0.6,6C117.9,111.6,117.7,112.2,117.7,112.2z"/>
	<path id="XMLID_267_" class="st19" d="M125.9,96.3l-6.9,10.3c-0.9,1.4-3.7-0.6-2.8-1.9l5.6-11C123,91.6,127.2,94.2,125.9,96.3z"/>
	<g id="XMLID_255_">
		<path id="XMLID_266_" class="st18" d="M110.2,106.3l-2.4,0.7c0,0-0.5-0.2-1.7-1c-0.7-0.4,0.3,1.6,0.3,1.6s-1.5,0.2-1.6,1.3
			c-0.1,1.1,0.6,2.1,1.5,1.8c0.9-0.3,2.2-0.8,2.5-1.2c0.3-0.4,0.3-0.4,0.3-0.4l2-1L110.2,106.3z"/>
		<path id="XMLID_265_" class="st20" d="M104.7,109c0-0.2,0.1-0.3,0.1-0.4c0.1,0.5,0.2,1.1,0.5,1.4c0.5,0.6,1.3,0.3,2.2-0.3
			c0.9-0.6,1.1-1.2,1.1-1.2l2.2-1l0.3,0.6l-2,1c0,0,0,0-0.3,0.4c-0.3,0.4-1.7,0.9-2.5,1.2C105.4,111.1,104.6,110.1,104.7,109z"/>
		<path id="XMLID_264_" class="st19" d="M117.3,104.3l-8.3,2l0.8,2.9l8.4-2.1C119.9,106.5,119.1,103.7,117.3,104.3z"/>
	</g>
	<path id="XMLID_1_" class="st21" d="M117.8,89.4c0,0-1.3,0.5-1.9,0.1c-0.5-0.4-0.2-4.2-0.1-5.1c-0.1,0-0.3,0.1-0.4,0.2
		c0,0-1,4.7,0.1,5.4c1.2,0.7,2,0.1,2,0.1l0.9,2.8c0.1,0.2,0.4,0.3,0.9,0.3L117.8,89.4z"/>
</g>
<g>
	<path id="XMLID_351_" class="st10" d="M83.9,143.7c0,0,10-1.9,12.3-0.4c2.3,1.6,3.3,6.1-3.5,8.2c-6.8,2.1-13.4,1.1-13.4,1.1l-3,2.8
		c0,0-0.8,0-0.8-1.5c0.1-1.5,1.8-2.4,1.8-2.4l0.8-0.9l6.2-0.7l-4.9,0.1c0,0-0.2-5.6,0-5.7C79.6,144.2,83.9,143.7,83.9,143.7z"/>
	<path id="XMLID_349_" class="st22" d="M77.2,151.5l0.8-0.9l6.2-0.7l-4.9,0.1c0,0,0-0.4,0-1c0.2,0,0.4,0,0.6,0
		c1.9,0.1,6.4-0.7,8.3-1.8c1.9-1.1,3.9-0.5,3.9-0.5c-2.2,0.2-4.1,2.2-6.3,3.1c-2.2,0.9-7,1.6-7.6,1.7c-0.6,0-1.9,1.6-1.9,2.5
		c0,0.4,0.1,0.8,0.2,1.1l-0.4,0.4c0,0-0.8,0-0.8-1.5C75.5,152.4,77.2,151.5,77.2,151.5z"/>
	<path id="XMLID_348_" class="st18" d="M98.1,128.2l1.5-2c0,0,0-0.5-0.3-2c-0.2-0.8,1.4,0.9,1.4,0.9s0.8-1.3,1.8-1.1
		c1,0.3,1.7,1.4,1.1,2.1c-0.6,0.7-1.6,1.8-2.1,1.9c-0.5,0.1-0.5,0.1-0.5,0.1l-1.7,1.5L98.1,128.2z"/>
	<path id="XMLID_347_" class="st20" d="M102.6,124c-0.2,0-0.3,0-0.5,0c0.5,0.3,1,0.6,1.2,1c0.4,0.7-0.2,1.3-1,1.9
		c-0.8,0.7-1.6,0.6-1.6,0.6l-1.7,1.7l0.5,0.5l1.7-1.5c0,0,0,0,0.5-0.1c0.5-0.1,1.5-1.2,2.1-1.9C104.3,125.4,103.6,124.3,102.6,124z"
		/>
	<path id="XMLID_346_" class="st10" d="M75.3,143.7c0,0-10-1.9-12.3-0.4c-2.3,1.6-3.3,6.1,3.5,8.2c6.8,2.1,13.4,1.1,13.4,1.1l3,2.8
		c0,0,0.8,0,0.8-1.5c-0.1-1.5-1.8-2.4-1.8-2.4l-0.8-0.9l-6.2-0.7l4.9,0.1c0,0,0.2-5.6,0-5.7C79.6,144.2,75.3,143.7,75.3,143.7z"/>
	<path id="XMLID_343_" class="st23" d="M81.1,131.9l11.7,4.1c1.5,0.5,2.7-2.7,1.1-3.2l-11-5.5C80.7,126.4,78.9,131,81.1,131.9z"/>
	<path id="XMLID_342_" class="st23" d="M92.4,133.3l5.9-6.2l2.1,2.1l-6,6.3C93,136.7,91,134.5,92.4,133.3z"/>
	<path id="XMLID_338_" class="st23" d="M85.4,142.8l-2.3-14.6c-0.1-0.6-0.6-1-1.2-1h-5.1c-0.3,0-2.8,0-3.4,0.9l-5.6,11
		c-0.9,1.4,1.9,3.3,2.8,1.9l4.1-6.1l-1,7.9c-0.1,0.5,0.2,1,0.7,1.2c3.4,1.7,6.9,1.8,10.3,0C85.2,143.8,85.5,143.3,85.4,142.8z"/>
	<path id="XMLID_337_" class="st10" d="M82,120.8c0.1,0,1.9-2.6,0.1-3.9c0,0-0.2,1-0.7,1.2c0,0-0.3-0.7-0.8-0.9c0,0-0.7,0.9-1.7,0.9
		c-1.1,0.1-1.9-0.6-2.8-0.1c-0.8,0.5-0.7,1.1-0.7,1.1s-1.2,0.3-1.1,1.3c0,1,1.4,2.8,1.4,2.8s1,0.5,1.7,0.1c0.8-0.4,0.2-1.8,0.5-2.2
		C78.2,120.9,82,120.8,82,120.8z"/>
	<path id="XMLID_336_" class="st18" d="M77.5,124.1l-0.5,3.4c-0.1,1.8,3.9,1.9,4,0.2l-0.5-2.9l-2.9-0.6"/>
	<path id="XMLID_335_" class="st24" d="M82.2,117c0.2,0.5,0.3,1.5-0.4,2.1l-0.4-0.4c0,0-0.4,0.9-1.9,1.3c-1.5,0.3-2.9,0-3.1,0.6
		c-0.2,0.6,0.3,0.9,0.3,0.9s-0.9-0.2-1.2,0.2c-0.3,0.5-0.1,0.9-0.1,0.9s-0.9-1-0.9-1.9c0-0.8,0.9-1.5,0.9-1.5s-1.2,0.3-1.1,1.3
		c0,1,1.4,2.8,1.4,2.8s1,0.5,1.7,0.1c0.8-0.4,0.2-1.8,0.5-2.2c0.4-0.4,4.1-0.4,4.1-0.4C82.1,120.8,83.8,118.3,82.2,117z"/>
	<path id="XMLID_334_" class="st20" d="M80.9,126.6l-0.3-1.8l-2.9-0.6l-0.1,0l-0.2,1.3C78.6,126.4,80,126.6,80.9,126.6z"/>
	<path id="XMLID_333_" class="st18" d="M81.7,119.9c0,0,1.4,4,0.7,5.1c-0.7,1-1,1.3-2.4,1.2c-1.3-0.1-2.7-1.5-2.7-1.5
		s-1.1-0.3-1.5-1c-0.4-0.6-0.2-1.6,0.3-1.4c0.5,0.2,0.8,0.6,0.8,0.6s0.7,0.2,0.6-0.6c-0.1-0.7-0.6-0.9-0.3-1.5
		C77.7,120.2,81.3,121.3,81.7,119.9z"/>
	<path id="XMLID_332_" class="st20" d="M76.9,123.2c0,0-0.6-0.8-0.9-0.6c-0.2,0.2,0,0.7,0,0.7s0-0.4,0.3-0.2
		c0.3,0.2,0.4,0.5,0.2,0.5c-0.1,0-0.3-0.1-0.3-0.1s0.1,0.4,0.5,0.4C77.3,123.9,77.2,123.4,76.9,123.2z"/>
	<path id="XMLID_331_" class="st20" d="M81.7,119.9c-0.1,0.3-0.3,0.5-0.6,0.6c0.5,1.2,1.2,3.5,1,4.2c-0.3,0.7-0.9,1.3-1.1,1.5
		c0.6-0.1,0.9-0.5,1.4-1.2C83.1,123.9,81.7,119.9,81.7,119.9z"/>
	<path id="XMLID_318_" class="st22" d="M78.5,143.8c1.2-0.3,0.7-2.7,0.6-3.3c0-0.6-2.9-0.9-3.5-1.5c-0.6-0.6-0.2-5.7-0.2-5.7
		c-1,1.1-1.9,3-2.4,4.3l1.8-2.7l-1,7.9c-0.1,0.5,0.2,1,0.7,1.2c1.8,0.9,3.6,1.3,5.5,1.3C79.1,144.9,77.7,144,78.5,143.8z"/>
	<path id="XMLID_317_" class="st18" d="M76.1,140.3l2.6,0.5c0,0-0.2-0.6,0.6-0.7c0.8-0.1,0.9,1,0.9,1s1.5,0,1.8,1.1
		c0.3,1-0.3,2.2-1.2,2c-0.9-0.2-2.3-0.5-2.7-0.9c-0.4-0.4-0.4-0.4-0.4-0.4l-2.2-0.7L76.1,140.3z"/>
	<path id="XMLID_316_" class="st23" d="M69.1,141.3l8.3,2l0.6-2.9l-8.5-1.9C67.8,138.1,67.3,141,69.1,141.3z"/>
	<path id="XMLID_315_" class="st18" d="M79.9,152.6c0.1-0.2,0.1-0.4,0.2-0.6c0.1-0.5-0.1-1.1-0.2-1.5l-2.3-0.3c0,0.4,0.1,1.7,0,2.6
		C78.9,152.8,79.8,152.6,79.9,152.6z"/>
	<path id="XMLID_314_" class="st22" d="M82,151.5l-0.8-0.9l-6.2-0.7l4.9,0.1c0,0,0-0.4,0-1c-0.2,0-0.4,0-0.6,0
		c-1.9,0.1-6.4-0.7-8.3-1.8c-1.9-1.1-3.9-0.5-3.9-0.5c2.2,0.2,4.1,2.2,6.3,3.1c2.2,0.9,7,1.6,7.6,1.7c0.6,0,1.9,1.6,1.9,2.5
		c0,0.4-0.1,0.8-0.2,1.1l0.4,0.4c0,0,0.8,0,0.8-1.5C83.7,152.4,82,151.5,82,151.5z"/>
	<g id="XMLID_309_">
		<path id="XMLID_313_" class="st19" d="M87.2,141.9l-1.4,7.2c-0.1,0.5-0.5,0.8-1,0.8c-2.2,0-8.1,0.1-10.3,0c-0.5,0-0.9-0.4-1-0.9
			l-1.3-7.2c-0.1-0.6,0.4-1.2,1-1.2l12.9-0.1C86.8,140.6,87.3,141.2,87.2,141.9z"/>
		<path id="XMLID_312_" class="st25" d="M85.5,150.8H73.8c-0.3,0-0.5-0.2-0.5-0.5l0,0c0-0.3,0.2-0.5,0.5-0.5h11.7
			c0.3,0,0.5,0.2,0.5,0.5l0,0C86,150.6,85.8,150.8,85.5,150.8z"/>
		<path id="XMLID_311_" class="st3" d="M79.5,144.5c-0.3,0-0.7,0.1-0.9,0.2c0.3,0.1,0.5,0.4,0.5,0.6c0,0.4-0.4,0.7-0.8,0.7
			c0.2,0.3,0.7,0.5,1.2,0.5c0.8,0,1.4-0.5,1.4-1.1S80.3,144.5,79.5,144.5z"/>
	</g>
</g>
</svg>
