<?xml version="1.0" encoding="utf-8"?>
<!-- Generator: Adobe Illustrator 22.0.0, SVG Export Plug-In . SVG Version: 6.00 Build 0)  -->
<svg version="1.1" id="Calque_1" xmlns="http://www.w3.org/2000/svg" xmlns:xlink="http://www.w3.org/1999/xlink" x="0px" y="0px"
	 viewBox="0 0 200 200" style="enable-background:new 0 0 200 200;" xml:space="preserve">
<style type="text/css">
	.st0{fill:none;stroke:#E9A6ED;stroke-width:2;stroke-miterlimit:10;}
	.st1{fill:#D4ECFF;}
	.st2{fill:#FF2C9C;}
	.st3{fill:#5793CE;}
	.st4{fill:#396CAA;}
	.st5{fill:url(#SVGID_1_);}
	.st6{fill:#EAEAEA;}
	.st7{fill:#173D7A;}
	.st8{fill:#FDD762;}
	.st9{fill:#FFC2B0;}
	.st10{fill:#FFFFFF;}
	.st11{fill:#EA9C92;}
	.st12{fill:#D3008D;}
	.st13{fill:#274F89;}
	.st14{fill:#E8A200;}
	.st15{fill:#F9BF30;}
	.st16{fill:#EDEDED;}
	.st17{fill:#E9F6FF;}
	.st18{fill:#AEDEED;}
	.st19{opacity:0.4;fill:#FFFFFF;}
	.st20{fill:#B2D3EA;}
	.st21{fill:#983BE9;}
	.st22{fill:#D8892B;}
	.st23{fill:#721BD5;}
	.st24{fill:#6614CF;}
	.st25{fill:#8A2AE3;}
	.st26{fill:#B45EF4;}
	.st27{fill:#D29FFF;}
</style>
<circle class="st0" cx="100" cy="100" r="98.5"/>
<path class="st1" d="M134.2,148.6l-0.2-0.4l6.6-3.9c0.8-0.5,1.8-0.5,2.7,0l5.5,3.3l-0.2,0.4l-5.5-3.3c-0.7-0.4-1.5-0.4-2.2,0
	L134.2,148.6z"/>
<path class="st1" d="M153.9,147.5l-0.2-0.4l17.2-10.2c0.2-0.1,0.3-0.3,0.3-0.5c0-0.2-0.1-0.4-0.3-0.5l-5.7-3.5l0.2-0.4l5.7,3.5
	c0.3,0.2,0.5,0.5,0.5,0.8c0,0.3-0.2,0.7-0.5,0.8L153.9,147.5z"/>
<path class="st1" d="M135.2,133.5l-0.2-0.4l16.8-9.7c0.2-0.1,0.3-0.3,0.3-0.5c0-0.2-0.1-0.4-0.3-0.5l-8.9-5.1c-1.2-0.7-2-2-2-3.4
	V84.8c0-1.2,0.6-2.3,1.6-3l1.3-0.9l0.3,0.4l-1.3,0.9c-0.9,0.6-1.4,1.6-1.4,2.7V114c0,1.2,0.7,2.4,1.7,3l8.9,5.1
	c0.3,0.2,0.5,0.5,0.5,0.9c0,0.4-0.2,0.7-0.5,0.9L135.2,133.5z"/>
<path class="st2" d="M134,142.8c-0.2,0-0.3-0.1-0.4-0.2c-0.1-0.2-0.1-0.5,0.2-0.6l6.6-3.9c0.9-0.5,2-0.5,2.9,0l5.5,3.3
	c0.2,0.1,0.3,0.4,0.2,0.6c-0.1,0.2-0.4,0.3-0.6,0.2l-5.5-3.3c-0.6-0.4-1.4-0.4-2,0l-6.6,3.9C134.2,142.7,134.1,142.8,134,142.8z"/>
<path class="st1" d="M124.6,163.6l-36.9-21.3c-1.3-0.7-1.1-2,0.4-2.9l0,0c1.5-0.9,3.7-0.9,5-0.2l36.9,21.3c1.3,0.7,1.1,2-0.4,2.9
	l0,0C128.2,164.2,125.9,164.3,124.6,163.6z"/>
<g>
	<g>
		<g>
			<path class="st1" d="M160,107.1c-0.3-0.2-0.6-0.3-0.9-0.4l0,0l-1.7-0.8l0.1,0.3c-1.3-0.3-2.7-0.3-4,0l0.1-0.3l-2,0.9l0,0
				c-0.3,0.1-0.5,0.2-0.7,0.4c-2.5,1.4-2.5,3.8,0,5.2c2.5,1.4,6.6,1.4,9.1,0S162.5,108.6,160,107.1z"/>
			<path class="st3" d="M157.5,108.5c-1.2,0.7-3.1,0.7-4.2,0c-1.2-0.7-1.2-1.8,0-2.5c1.2-0.7,3.1-0.7,4.2,0
				C158.7,106.7,158.7,107.8,157.5,108.5z"/>
		</g>
		<g>
			<path class="st3" d="M155.4,107.7L155.4,107.7c-0.6,0-1-0.5-1-1V93.8h2v12.9C156.4,107.3,156,107.7,155.4,107.7z"/>
			<path class="st3" d="M156.1,94.3c-0.4,0.2-1.1,0.2-1.5,0c-0.4-0.2-0.4-0.6,0-0.9c0.4-0.2,1.1-0.2,1.5,0
				C156.5,93.7,156.5,94,156.1,94.3z"/>
		</g>
		<path class="st1" d="M155.4,94.3L155.4,94.3c-0.5,0-0.8-0.4-0.8-0.8V81.3h1.7v12.1C156.3,93.9,155.9,94.3,155.4,94.3z"/>
		<g>
			<path class="st4" d="M167.3,87.6l0-0.5l0.7-0.1l0.8-0.6c0.1-0.1,0.4-0.1,0.5,0l0.6,0.3l0.5-0.1v0.5l0,0c0,0.1,0,0.1-0.1,0.1
				l-1.8,0.8c-0.1,0.1-0.3,0.1-0.5,0l-0.6-0.3C167.4,87.8,167.3,87.7,167.3,87.6L167.3,87.6z"/>
			<path class="st3" d="M167.4,87l1.4-1c0.1-0.1,0.4-0.1,0.5,0l1,0.6c0.1,0.1,0.1,0.2,0,0.3l-1.8,0.8c-0.1,0.1-0.3,0.1-0.5,0
				l-0.6-0.3C167.3,87.2,167.3,87.1,167.4,87z"/>
			<g>
				<path class="st1" d="M165.1,89.3c0.2,0,0.4,0,0.5-0.1l2.1-1.2c0.1-0.1,0.2-0.2,0.1-0.3c-0.1-0.1-0.2-0.2-0.3-0.1l-2.1,1.2
					c-0.2,0.1-0.4,0.1-0.6,0l-3.5-2c-0.1-0.1-0.3,0-0.3,0.1c-0.1,0.1,0,0.3,0.1,0.3l3.5,2C164.7,89.3,164.9,89.3,165.1,89.3z"/>
			</g>
		</g>
		<g>
			<radialGradient id="SVGID_1_" cx="122.647" cy="82.387" r="20.808" gradientUnits="userSpaceOnUse">
				<stop  offset="0" style="stop-color:#01C8EF"/>
				<stop  offset="8.940536e-02" style="stop-color:#03BEE9"/>
				<stop  offset="0.2388" style="stop-color:#08A5D7"/>
				<stop  offset="0.4288" style="stop-color:#107BBB"/>
				<stop  offset="0.4457" style="stop-color:#1177B8"/>
				<stop  offset="1" style="stop-color:#112564"/>
			</radialGradient>
			<polygon class="st5" points="144.9,84.9 148.3,82.9 146.4,82.1 144.8,83.2 			"/>
			<path class="st3" d="M166.6,82c-0.2-0.1-0.4-0.2-0.6-0.4l-7.2-5.3c-1.3-1-2.6-1.2-3.7-0.7c0,0,0,0-0.1,0l0,0l-9.9,5.8l0.9,0.3
				l3.5,1.6l4.7,3.4l3.7,2l0.2,0c0.9-0.7,1.8-1.4,2.4-2.4c0.9-1.6,3.5-2.1,5-3.4c0.2,0.1,0.3,0.2,0.5,0.3
				C166.3,82.9,166.4,82.4,166.6,82z"/>
			<path class="st4" d="M169.7,79.6c-0.2,0-0.3,0.1-0.4,0.1l0,0l-9.7,5.6l0.4,1.5l0.4-0.2c-0.6,0.9-1.4,1.4-2.2,2.1l1.1,0.2l9.5-5.5
				c0,0,0.1,0,0.1-0.1c0.1-0.1,0.3-0.1,0.4-0.2l0,0l0,0c0.7-0.6,1.1-1.5,1.1-2.7v-0.1C170.4,79.9,170.1,79.6,169.7,79.6z"/>
			<g>
				<path class="st6" d="M156.4,75.4c0.6,0,1.3,0.2,1.9,0.6C157.7,75.7,157,75.5,156.4,75.4z"/>
				<path class="st3" d="M160.9,85.8v-0.1c0-0.4-0.3-0.7-0.7-0.7c-0.4,0-0.7,0.3-0.7,0.7v0.1c0,0.9-0.3,1.5-0.8,1.8
					c-0.6,0.3-1.4,0.1-2.3-0.6l-7.2-5.3c-1.1-0.8-2.2-1.1-3.2-0.8l5.9-3.4l-6.9,4l0.9,0.3l3.5,1.6l4.7,3.4l3.7,2l0.2,0
					c0.9-0.7,1.8-1.4,2.4-2.4C160.6,86.2,160.7,86,160.9,85.8C160.9,85.9,160.9,85.8,160.9,85.8z"/>
			</g>
			<g>
				<path class="st1" d="M158,89.3c-0.8,0-1.7-0.3-2.5-0.9l-7.2-5.3c-0.9-0.6-1.7-0.8-2.3-0.6c-0.5,0.3-0.8,0.9-0.8,1.8
					c0,0.4-0.3,0.7-0.7,0.7c-0.4,0-0.7-0.3-0.7-0.7c0-1.4,0.6-2.5,1.5-3c1-0.5,2.4-0.3,3.7,0.7l7.2,5.3c0.9,0.6,1.7,0.8,2.3,0.6
					c0.5-0.3,0.8-0.9,0.8-1.8v-0.1c0-0.4,0.3-0.7,0.7-0.7c0.4,0,0.7,0.3,0.7,0.7V86c0,1.4-0.6,2.5-1.5,3
					C158.8,89.2,158.4,89.3,158,89.3z"/>
			</g>
		</g>
	</g>
	<g>
		<g>
			<path class="st7" d="M152.3,101.1c0,0-1.4-0.7-2.2,0.3c-0.8,1-2,3.4-2.1,5c0,1.6,1.3,1.5,2.1,1.1c0.8-0.4,3.1-3.7,3.2-4.4
				c0.1-0.7-0.2-1.5-0.4-1.7C152.8,101.3,152.3,101.1,152.3,101.1z"/>
			<path class="st3" d="M152.6,100.7l0.1,1.4c0,0.3-0.1,0.6-0.4,0.7c-0.2,0.1-0.6,0.2-1,0.2c-1-0.2-1.1-0.5-1.2-1.9
				C150,99.8,152.6,100.7,152.6,100.7z"/>
			<g>
				<path class="st7" d="M147.4,98.4c0,0-1.4-0.7-2.2,0.3c-0.8,1-2,3.4-2.1,5s1.3,1.5,2.1,1.1c0.8-0.4,3.1-3.7,3.2-4.4
					c0.1-0.7-0.2-1.5-0.4-1.7C147.8,98.6,147.4,98.4,147.4,98.4z"/>
				<path class="st3" d="M147.7,98l0.1,1.4c0,0.3-0.1,0.6-0.4,0.7c-0.2,0.1-0.6,0.2-1,0.2c-1-0.2-1.1-0.5-1.2-1.9
					C145.1,97.1,147.7,98,147.7,98z"/>
				<path class="st8" d="M159.8,72.3c-0.4-6.5-7.1,1-7.1,1l-4.6,4.5l-4.1,4.5c-0.8,0.9-1.2,2.1-1,3.2l1.7,12.6
					c0.1,0.6,0.6,1.1,1.2,1.1c0.2,0,0.4,0,0.6-0.1c1.5-0.2,1.4-1.6,1.4-1.6l-0.3-11.8l8.6-5.2C156.2,80.5,160.2,78.8,159.8,72.3z"/>
			</g>
			<path class="st8" d="M164.7,74.8c-0.4-6.5-7.1,1-7.1,1l-4.6,4.5l-4.1,4.5c-0.8,0.9-1.2,2.1-1,3.2l1.7,12.6
				c0.1,0.6,0.6,1.1,1.2,1.1c0.2,0,0.4,0,0.6-0.1c1.5-0.2,1.4-1.6,1.4-1.6l-0.3-11.8l8.6-5.2C161.2,83,165.1,81.3,164.7,74.8z"/>
			<path class="st2" d="M160.8,53.9c5,2.1,4.9,5.1,4.9,5.1s-1,10.9-0.7,18.2c0.1,3.1-16.2,3.3-13.8-4.9c2.9-9.6,1.8-17.4,3.1-18.5
				C155.8,52.6,159.5,53.3,160.8,53.9z"/>
			<ellipse transform="matrix(0.2494 -0.9684 0.9684 0.2494 65.881 196.76)" class="st9" cx="159.9" cy="55.9" rx="1.9" ry="2.6"/>
			<path class="st10" d="M160.3,58.1c-0.3,0-0.6,0-0.9-0.1c-0.7-0.2-1.4-0.6-1.8-1.1c-0.4-0.5-0.6-1.1-0.4-1.7
				c0.3-1.2,1.8-1.8,3.3-1.4c0.7,0.2,1.4,0.6,1.8,1.1c0.4,0.5,0.6,1.1,0.4,1.7c-0.1,0.6-0.6,1-1.2,1.3
				C161.1,58,160.7,58.1,160.3,58.1z M159.5,54.2c-0.9,0-1.7,0.4-1.9,1.1c-0.1,0.4,0,0.9,0.4,1.3c0.4,0.4,0.9,0.8,1.5,0.9
				c0.6,0.2,1.3,0.1,1.8-0.1c0.5-0.2,0.8-0.5,0.9-1v0c0.1-0.4,0-0.9-0.4-1.3c-0.4-0.4-0.9-0.8-1.5-0.9
				C160,54.2,159.7,54.2,159.5,54.2z"/>
			<path class="st9" d="M158.7,53.7c0,0,0,0.2,0,1.8c0,0.5,1.7,1,2.2,0.5c0.5-0.5,0.3-0.9,0.4-2.6C161.4,51.6,158.7,53.7,158.7,53.7
				z"/>
			<path class="st11" d="M161.3,53.3c0,0-0.4,1.6-2.6,2.2l0-1.4L161.3,53.3z"/>
			<path class="st9" d="M162.6,49.3c0.5,2.1-0.7,4.2-2.8,4.7c-2.1,0.5-4.2-0.7-4.7-2.8c-0.5-2.1,0.7-4.2,2.8-4.7
				C160,46,162.1,47.2,162.6,49.3z"/>
			<path class="st11" d="M159.8,50.4c0,0-2.1,0.9-3.6,0.9c-1.5,0-1.2-1.2-1.2-1.2l4.4-0.6L159.8,50.4z"/>
			<path class="st8" d="M155.7,50.7c0,0,1.9-0.8,3.5-0.5c0.4,0.1,0.7,0.3,1,0.6c0.1,0.1,0.2,0.2,0.3,0.2c0.3,0.1,0.8-1.1,1.3-1.2
				c0.6,0,0.9,0.4,0.5,1.1c-0.5,0.7-0.3,1.6-0.1,1.7c0.2,0.1,2.5-1.6,0.5-5.5c-2-3.9-7-1.8-7.8-1c0,0-0.8,0.7-1.5,0.1
				C153.3,46.2,152.6,51.8,155.7,50.7z"/>
			<path class="st9" d="M162.9,66.9v3c0,0.3-0.1,0.7-0.4,0.9l-6.1,5.5l0.7,1.1l8-5.8c0.4-0.3,0.6-0.7,0.7-1.1l0.5-5.2L162.9,66.9z"
				/>
			<path class="st2" d="M165.3,57.5c0,0,1.8,2.8,2.5,10.1c0,0-3.1,1-4.9,0.4C161.1,67.4,165.3,57.5,165.3,57.5z"/>
			<path class="st12" d="M162.5,61c0,0-0.7,3.9-0.8,5.7c0,0.5,0.3,0.9,0.8,1.1l0,0V61z"/>
		</g>
		<g>
			<path class="st7" d="M161,80.2l-1.3-0.2l-8.7-5c-0.3-0.2-0.8-0.1-1.1,0l-6.1,3.5l-0.8-0.1v0.8l0,0c0,0.1,0.1,0.2,0.2,0.3l9.8,5.7
				c0.3,0.2,0.8,0.1,1.1,0l6.7-3.9c0.2-0.1,0.3-0.2,0.3-0.4l0,0V80.2z"/>
			<path class="st4" d="M154.5,77l-0.6-0.4h-6.8l-3.3,1.9l-0.8-0.1v0.8l0,0c0,0.1,0.1,0.2,0.2,0.3l9.8,5.7c0.1,0.1,0.4,0.1,0.6,0.1
				L154.5,77z"/>
			<path class="st3" d="M143.3,78.5l-0.4,0v0.8l0,0c0,0.1,0.1,0.2,0.2,0.3l0.2,0.1V78.5z"/>
			<path class="st13" d="M153,85.3c0.3,0.1,0.6,0.1,0.9-0.1v-1.4H153V85.3z"/>
			<path class="st10" d="M152.9,84.4l-9.8-5.7c-0.3-0.2-0.2-0.4,0.1-0.6l6.7-3.9c0.3-0.2,0.8-0.2,1.1,0l9.8,5.7
				c0.3,0.2,0.2,0.4-0.1,0.6l-6.7,3.9C153.7,84.6,153.2,84.6,152.9,84.4z"/>
			<path class="st1" d="M152.8,83.6l-8.2-4.7c-0.2-0.1-0.2-0.4,0.1-0.5l3.6-2c0.3-0.2,0.7-0.2,0.9,0l8.2,4.7
				c0.2,0.1,0.2,0.4-0.1,0.5l-3.6,2C153.4,83.7,153,83.7,152.8,83.6z"/>
		</g>
		<path class="st9" d="M150.3,74.1l-0.1,0.7c-0.1,0.6-0.1,1.2,0,1.7l0.1,0.6c0.1,0.3,0.3,0.6,0.7,0.7l0,0c0.3,0,0.5-0.1,0.5-0.4
			l0.2-1.4c0,0,0.4,0.5,0.5,0.5c0.2,0-0.2-1.4-0.6-2.3C151.2,73.3,150.3,74.1,150.3,74.1z"/>
		<path class="st9" d="M153.6,63.3l-1.1,2.1c-0.2,0.5-0.4,1-0.4,1.6l-0.5,7.1l-1.4,0l-0.6-8c0-0.2,0-0.5,0-0.7l0.7-4.1L153.6,63.3z"
			/>
		<g>
			<path class="st7" d="M152.6,85l-0.8-1.1l-8.7-5c-0.3-0.2-0.5-0.6-0.5-1l0-7.1l-0.5-0.6l0.5-0.3l0,0c0.1-0.1,0.2-0.1,0.3,0
				l9.8,5.7c0.3,0.2,0.5,0.6,0.5,1l0,7.7c0,0.2-0.1,0.4-0.2,0.4l0,0L152.6,85z"/>
			<path class="st4" d="M146.6,80.9l-0.6-0.4l-3.4-5.9l0-3.8l-0.5-0.6l0.5-0.3l0,0c0.1-0.1,0.2-0.1,0.3,0l9.8,5.7
				c0.1,0.1,0.3,0.2,0.4,0.4L146.6,80.9z"/>
			<path class="st3" d="M142.4,70.5l-0.2-0.3l0.5-0.3l0,0c0.1-0.1,0.2-0.1,0.3,0l0.2,0.1L142.4,70.5z"/>
			<path class="st13" d="M152.8,75.7c0.2,0.2,0.4,0.5,0.4,0.8l-1,0.6l-0.5-0.8L152.8,75.7z"/>
			<path class="st3" d="M152.3,75.9l-9.8-5.7c-0.3-0.2-0.5,0-0.5,0.4l0,7.7c0,0.4,0.2,0.8,0.5,1l9.8,5.7c0.3,0.2,0.5,0,0.5-0.4
				l0-7.7C152.8,76.5,152.6,76,152.3,75.9z"/>
		</g>
		<path class="st9" d="M157.1,77.4l-0.2,0.3c-0.2,0.4-0.5,0.7-0.8,0.9l-1,0.6c-0.3,0.2-0.7,0.2-1,0c0,0,0,0,0,0
			c-0.3-0.2-0.3-0.6-0.1-0.9l1-1c0,0-0.6,0.4-0.7,0.3c-0.1-0.1,0.6-0.8,1.1-0.8c0.5,0,1-0.4,1-0.4L157.1,77.4z"/>
		<path class="st2" d="M154.5,53.8c0,0-3.7,4.1-5.2,7.8c0,0,1.3,2.3,4.4,3.2C156.8,65.7,154.5,53.8,154.5,53.8z"/>
		<path class="st12" d="M153,64.5l0.6-5.8l-1.4,5.5C152.4,64.3,152.7,64.4,153,64.5z"/>
		<path class="st10" d="M157.3,53l-1-0.3c0,0,0.5,0.8,1.2,0.9c0.7,0.2,0.8-0.4,0.8-0.4L157.3,53z"/>
	</g>
</g>
<path class="st2" d="M131.3,50.6l-39.8-23c-1.3-0.8-2.5-0.8-3.4-0.2l0,0l-5,2.9l3.3,0.6c0,0.2,0,0.3,0,0.5v93.9
	c0,3.7,2.3,8.1,5.1,9.7l39.2,22.7c-0.4,1.1-1.1,3.5-1.1,3.5l4.9-2.8l0,0c1.1-0.6,1.9-2,1.9-4.1V60.3
	C136.4,56.5,134.1,52.2,131.3,50.6z"/>
<g>
	<polygon class="st1" points="168.7,131.2 162.8,127.7 156.8,131.2 162.8,134.6 	"/>
	<polygon class="st14" points="162.8,131.4 162.8,127.5 169.9,123.4 169.9,127.3 	"/>
	<polygon class="st15" points="162.8,127.5 155.6,123.4 155.6,127.3 162.8,131.4 	"/>
	<polygon class="st8" points="169.9,123.4 162.8,119.3 155.6,123.4 162.8,127.5 	"/>
</g>
<path class="st10" d="M145.1,78.5c0,0.6-0.4,0.9-1,0.6c-0.5-0.3-1-1-1-1.7c0-0.6,0.4-0.9,1-0.6C144.7,77.2,145.1,77.9,145.1,78.5z"
	/>
<path class="st2" d="M135,130.8c-0.2,0-0.3-0.1-0.4-0.2c-0.1-0.2,0-0.5,0.2-0.6l16.8-9.7c0.2-0.1,0.2-0.2,0.2-0.3
	c0-0.1,0-0.2-0.2-0.3l-8.9-5.1c-1.3-0.7-2.1-2.1-2.1-3.6V81.8c0-1.3,0.6-2.5,1.7-3.2l1.3-0.9c0.2-0.1,0.5-0.1,0.6,0.1
	c0.1,0.2,0.1,0.5-0.1,0.6l-1.3,0.9c-0.8,0.6-1.3,1.5-1.3,2.5V111c0,1.2,0.6,2.2,1.6,2.8l8.9,5.1c0.4,0.2,0.6,0.6,0.6,1.1
	c0,0.4-0.2,0.8-0.6,1.1l-16.8,9.7C135.2,130.8,135.1,130.8,135,130.8z"/>
<path class="st12" d="M86.5,125.3c0,3.7,2.3,8.1,5.1,9.7l39.2,22.7c-0.4,1.1-1.1,3.5-1.1,3.5l4.9-2.8l0,0c1.1-0.6,1.9-2,1.9-4.1
	V60.3c0-1.9-0.6-4-1.6-5.9L86.5,82.3V125.3z"/>
<path class="st2" d="M126.3,160.9l-39.8-23c-2.8-1.6-5.1-5.9-5.1-9.7V34.3c0-3.7,2.3-5.4,5.1-3.8l39.8,23c2.8,1.6,5.1,5.9,5.1,9.7
	V157C131.4,160.8,129.1,162.5,126.3,160.9z"/>
<polygon class="st12" points="88,59.9 84.9,57.8 83.7,53.8 82.5,56.4 81.4,55.9 81.4,58.1 81.8,58.6 81.4,60.2 81.4,61.7 83.7,61.4 
	86.4,64.8 85.7,60.9 "/>
<path class="st10" d="M125.6,157.8l-38.2-22.1c-2.1-1.2-3.8-4.4-3.8-7.2V35.9c0-2.8,1.7-4,3.8-2.8l38.2,22.1
	c2.1,1.2,3.8,4.4,3.8,7.2v92.5C129.3,157.7,127.6,159,125.6,157.8z"/>
<path class="st16" d="M109.9,129.3l-18.8-10.8V72.9L100,78c6.1,3.5,9.9,10.1,9.9,17.2V129.3z"/>
<g>
	<path class="st1" d="M84.4,68.4L84.4,68.4c-1.9-1.1-4.5-1-7.4,0.7c-5.8,3.3-10.4,11.4-10.4,18.1V92v0l0,0l0,0l0.2,0.1l18.8,11.1
		l0.3-5.7l0.2-2.2l1-3.5l0.1-0.5l2.1-4.3l1.7-2.1l1.4-1.6l3.3-2.6l0.3-0.2l1.6-0.7l2.2-0.6h1.7l1.9,0.3L84.4,68.4z"/>
	<path class="st1" d="M86.8,112.8l0.6-0.4V90.6c-0.3,0.4-0.5,1-0.6,1.5V112.8z"/>
	<polygon class="st1" points="105.8,123.8 86.8,112.8 87,92.1 87.7,90 89.9,86.2 92.5,83.2 94.9,81.3 97.4,79.7 102,79.2 
		104.5,80.6 105.8,82.7 106.3,85.9 106.1,120.5 	"/>
	<path class="st3" d="M84.4,68.5c-1.6-0.9-3.7-1-6,0l19.4,11.2l2.1-0.5h1.7l1.9,0.3L84.4,68.5L84.4,68.5z"/>
	<g>
		<path class="st17" d="M78.8,68.3c-0.6,0.2-1.2,0.5-1.9,0.9c-0.4,0.2-0.8,0.5-1.3,0.8L95,81.1l0.7-0.5l0.3-0.2l1.6-0.7l0.7-0.2
			L78.8,68.3z"/>
		<path class="st10" d="M92.5,83.1l2.6-2.1L75.9,69.9c-0.9,0.6-1.7,1.3-2.5,2.1L92.5,83.1z"/>
		<path class="st3" d="M106.4,123.4l-0.6,0.4V86.5c0-6.3-4.4-8.8-9.8-5.7c-5.4,3.1-9.8,10.8-9.8,17v5l-0.6,0.4v-5
			c0-6.6,4.7-14.8,10.4-18.1c5.8-3.3,10.4-0.6,10.4,6V123.4z"/>
	</g>
</g>
<polygon class="st18" points="72.3,83.7 71.2,88 71.8,95.1 70.4,94.3 68.7,90.5 70.2,85.6 "/>
<g>
	<path class="st19" d="M103.4,111.6c-0.1,0-0.2,0-0.4-0.1l-13.8-8c-0.4-0.2-0.7-0.8-0.7-1.4V91.3c0-0.3,0.1-0.6,0.3-0.7
		c0.2-0.1,0.4-0.1,0.6,0l13.8,8c0.4,0.2,0.7,0.8,0.7,1.4v10.9c0,0.3-0.1,0.6-0.3,0.7C103.6,111.6,103.5,111.6,103.4,111.6z M89.1,91
		C89.1,91,89.1,91,89.1,91C89,91,89,91.1,89,91.3v10.9c0,0.4,0.2,0.8,0.5,1l13.8,8c0,0,0.1,0.1,0.2,0c0,0,0.1-0.1,0.1-0.3V100
		c0-0.4-0.2-0.8-0.5-1l-13.8-8C89.2,91,89.2,91,89.1,91z"/>
	<g>
		<path class="st20" d="M93.5,104L93.5,104c-0.5-0.3-0.7-0.8-0.7-1.3v-5.2c0-0.5,0.3-0.7,0.7-0.5l0.1,0.1c0.4,0.2,0.7,0.8,0.7,1.2
			v5.2C94.2,104,93.9,104.2,93.5,104z"/>
		<path class="st20" d="M96.3,105.6L96.3,105.6c-0.5-0.3-0.7-0.8-0.7-1.3v-3c0-0.5,0.3-0.7,0.7-0.5l0.1,0.1c0.4,0.2,0.7,0.8,0.7,1.2
			v3C97,105.6,96.7,105.8,96.3,105.6z"/>
		<path class="st4" d="M99.1,107.2L99.1,107.2c-0.5-0.3-0.7-0.8-0.7-1.3v-7.2c0-0.5,0.3-0.7,0.7-0.5l0.1,0.1
			c0.4,0.2,0.7,0.8,0.7,1.2v7.2C99.7,107.2,99.4,107.4,99.1,107.2z"/>
	</g>
</g>
<g>
	<ellipse class="st1" cx="76.8" cy="156" rx="11.9" ry="6.9"/>
	<g>
		<path class="st7" d="M69.5,152.4c-0.8,0.4-1.3,1.3-1.3,2.3c0,0.5,0.1,0.9,0.2,1.1c0.3,0.6,1.1,1.3,2.5,0.8
			c1.4-0.5,4.4-3.4,4.6-5.3C75.7,147.7,71.7,151.5,69.5,152.4z"/>
		<path class="st7" d="M77.6,158.2c0,0-0.3,2-0.2,2.4c0.2,0.4,1.1,1.2,2.5,1c1.4-0.2,5.5-1.6,6.4-4.3c1.4-4.2-7.9,0.3-7.9,0.3
			L77.6,158.2z"/>
		<path class="st8" d="M81.6,125.9l0.3,31.5c0,1.1-0.8,2-1.7,2.2c-0.1,0-0.2,0-0.4,0c-1,0.1-1.5-0.3-1.9-0.8
			c-0.3-0.4-0.4-0.8-0.4-1.3l-0.4-13.4l-2-12l-2.8,21.3c0,0.6-0.3,1.1-0.8,1.4c-0.3,0.2-0.7,0.4-1.3,0.3c-0.8,0-1.3-0.4-1.7-0.8
			c-0.3-0.3-0.4-0.7-0.4-1.1l1.1-12.8l0.4-16.3L81.6,125.9z"/>
		<path class="st9" d="M77.6,97.8l-0.5,2.9c0,0,0,1,1.1,1.3c1.1,0.3,1.4-0.4,1.4-0.4l0.5-3.2L77.6,97.8z"/>
		<path class="st9" d="M83.6,96.2c-0.8,2.5-3.2,3.9-5.4,3.2c-2.2-0.7-3.3-3.3-2.6-5.7c0.8-2.5,3.2-3.9,5.4-3.2
			C83.2,91.2,84.4,93.7,83.6,96.2z"/>
		<path class="st21" d="M77.7,100.7c-0.1,0-4.6-3-6.3,0.1c-2.7,5-0.7,10.8-1.7,23.2c-0.2,2.1,2.8,3.4,4.2,4.2
			c1.3,0.7,2.7,1.2,4.1,1.2c1.4,0,4.2-1.3,4.1-3.1c-0.5-8.6,0.3-15.8,1-22.8C83,103.4,82.1,102.5,77.7,100.7z"/>
		<path class="st22" d="M75.1,132.2l-2.8,21.3c0,0.6-0.3,1.1-0.8,1.4c-0.1,0-0.2,0.1-0.2,0.1c0.6-0.4,2.3-18.3,2.6-20.3
			C74.3,132.7,75.1,132.2,75.1,132.2z"/>
	</g>
	<polygon class="st9" points="92.5,103.3 96.3,95.7 95.1,94.9 91.1,100.7 	"/>
	<polygon class="st9" points="67.3,95.2 69.1,86.8 70.6,86.8 70.1,93.8 	"/>
	<path class="st21" d="M83,103.4c0,0,4.3,1.7,7.9-2.9c0.3-0.4,1-0.4,1.2,0.1c0.3,0.8,0.7,1.9,0.2,3c-2.2,4.8-9.8,4.6-11.6,7.3
		C78.9,113.5,83,103.4,83,103.4z"/>
	<path class="st21" d="M74.8,99.6c0,0-3.5,0.3-4-2.8c-0.3-1.6-0.3-2.5-0.4-3.1c0-0.4-0.3-0.6-0.7-0.6c-0.8,0.1-2.2,0.4-2.3,0.9
		c-0.3,0.8-0.8,5,2.7,11.4C72.4,109.6,74.8,99.6,74.8,99.6z"/>
	<path class="st9" d="M69.1,86.8l0-1c0-0.3,0.1-0.7,0.3-1l1-1.6l0.3-0.3c0.2-0.3,0.7-0.4,1-0.2l0.2,0.1c0.3,0.2,0.5,0.5,0.4,0.8
		l-0.5,1.4l0.6-0.1c0.1,0,0.2,0.1,0.3,0.2l0,0c0,0.1,0,0.2-0.1,0.3l-1,0.4l-0.9,1.3L69.1,86.8z"/>
	<path class="st9" d="M96.3,95.7l0.4-0.9c0.2-0.3,0.2-0.6,0.2-1L96.9,92l-0.1-0.4c-0.1-0.4-0.4-0.6-0.8-0.6l-0.3,0
		c-0.3,0-0.6,0.2-0.8,0.5L94.8,93l-0.5-0.4c-0.1-0.1-0.2-0.1-0.3,0l0,0c-0.1,0.1-0.1,0.2,0,0.3l0.7,0.9l0.2,1.8L96.3,95.7z"/>
	<path class="st23" d="M80.2,109.8c-0.4,1.7,1.9,14.5-0.6,19.1c1.2-0.5,2.5-1.5,2.4-2.8c-0.3-6.1,0-11.6,0.4-16.7
		c2.1-1.1,5.4-1.7,7.8-3.4C87.7,107,80.6,108.3,80.2,109.8z"/>
	<path class="st10" d="M76,99.9l0.6-0.7c0,0,1,1.1,1.9,1.2c0,0,1,0.3,1.5,0.3l0.4,1.1C80.5,101.9,77.1,101.7,76,99.9z"/>
	<path class="st7" d="M80.6,96.3c0.2,0,0.3-0.1,0.4-0.2c0.2-0.3,0.1-1.4,0.6-1.6c0.8-0.3,2.8,0.7,3-2.3c0.1-1.6-0.7-2-0.6-2.8
		c0,0,0.1,0.4-4,0.2c-4-0.3-5.3,3.3-5.4,5c-0.1,1.7,0.7,4.5,3.5,4.9c0.5,0.1,2.4-1.5,2.3-1.7c0-0.2-0.8-0.2-0.7-0.8
		C79.8,96.4,80.1,96.3,80.6,96.3z"/>
</g>
<g>
	<g>
		<path class="st16" d="M101.2,59.9l-12.2-7c-0.5-0.3-1-1.1-1-1.9v-9c0-0.7,0.4-1.1,1-0.7l12.2,7c0.5,0.3,1,1.1,1,1.9v9
			C102.2,59.9,101.8,60.2,101.2,59.9z"/>
		<path class="st23" d="M100,45.6l-12.2-7c-0.2-0.1-0.5-0.1-0.6-0.1c0,0,0,0,0,0l-1.2,0.7c0,0,0.5,0.2,0.8,0.3v8.9
			c0,0.7,0.4,1.6,1,1.9l11.6,6.7v1l1.2-0.7l0,0c0.2-0.1,0.3-0.4,0.3-0.8v-9C101,46.7,100.6,45.9,100,45.6z"/>
		<path class="st21" d="M98.8,57.9l-12.2-7c-0.5-0.3-1-1.1-1-1.9v-9c0-0.7,0.4-1.1,1-0.7l12.2,7c0.5,0.3,1,1.1,1,1.9v9
			C99.8,57.9,99.4,58.2,98.8,57.9z"/>
		<path class="st10" d="M98.8,46.3l-12.2-7c-0.3-0.2-0.6-0.1-0.8,0.1c0.1,0,0.3,0,0.4,0.1l12.2,7c0.5,0.3,1,1.1,1,1.9v9
			c0,0.3-0.1,0.5-0.2,0.7c0.3,0,0.5-0.3,0.5-0.8v-9C99.8,47.4,99.4,46.6,98.8,46.3z"/>
	</g>
	<g>
		<path class="st10" d="M90.8,47.8c0,0.5-0.4,0.7-0.8,0.5c-0.5-0.3-0.8-0.9-0.8-1.4c0-0.5,0.4-0.7,0.8-0.5
			C90.4,46.6,90.8,47.3,90.8,47.8z"/>
		<path class="st10" d="M93.3,49.2c0,0.5-0.4,0.7-0.8,0.5c-0.5-0.3-0.8-0.9-0.8-1.4c0-0.5,0.4-0.7,0.8-0.5
			C92.9,48.1,93.3,48.7,93.3,49.2z"/>
		<path class="st10" d="M95.7,50.6c0,0.5-0.4,0.7-0.8,0.5c-0.5-0.3-0.8-0.9-0.8-1.4c0-0.5,0.4-0.7,0.8-0.5
			C95.4,49.5,95.7,50.1,95.7,50.6z"/>
	</g>
</g>
<g>
	<g>
		<path class="st16" d="M125.4,107.6l-12.2-7c-0.5-0.3-1-1.1-1-1.9V78.4c0-0.7,0.4-1.1,1-0.7l12.2,7c0.5,0.3,1,1.1,1,1.9v20.3
			C126.4,107.6,126,108,125.4,107.6z"/>
		<path class="st3" d="M124.2,82l-12.2-7c-0.2-0.1-0.5-0.1-0.6-0.1c0,0,0,0,0,0l-1.2,0.7c0,0,0.5,0.2,0.8,0.3v20.2
			c0,0.7,0.4,1.6,1,1.9l11.6,6.7v1l1.2-0.7l0,0c0.2-0.1,0.3-0.4,0.3-0.8V83.9C125.2,83.1,124.8,82.3,124.2,82z"/>
		<path class="st1" d="M123,105.6l-12.2-7c-0.5-0.3-1-1.1-1-1.9V76.4c0-0.7,0.4-1.1,1-0.7l12.2,7c0.5,0.3,1,1.1,1,1.9v20.3
			C124,105.6,123.6,106,123,105.6z"/>
		<path class="st10" d="M123,82.7l-12.2-7c-0.3-0.2-0.6-0.1-0.8,0.1c0.1,0,0.3,0,0.4,0.1l12.2,7c0.5,0.3,1,1.1,1,1.9v20.3
			c0,0.3-0.1,0.5-0.2,0.7c0.3,0,0.5-0.3,0.5-0.8V84.6C124,83.8,123.6,83,123,82.7z"/>
	</g>
</g>
<g>
	<g>
		<path class="st16" d="M125.4,135.1l-12.2-7c-0.5-0.3-1-1.1-1-1.9v-20.3c0-0.7,0.4-1.1,1-0.7l12.2,7c0.5,0.3,1,1.1,1,1.9v20.3
			C126.4,135.1,126,135.4,125.4,135.1z"/>
		<path class="st12" d="M124.2,109.5l-12.2-7c-0.2-0.1-0.5-0.1-0.6-0.1c0,0,0,0,0,0l-1.2,0.7c0,0,0.5,0.2,0.8,0.3v20.2
			c0,0.7,0.4,1.6,1,1.9l11.6,6.7v1l1.2-0.7l0,0c0.2-0.1,0.3-0.4,0.3-0.8v-20.3C125.2,110.6,124.8,109.8,124.2,109.5z"/>
		<path class="st2" d="M123,133.1l-12.2-7c-0.5-0.3-1-1.1-1-1.9v-20.3c0-0.7,0.4-1.1,1-0.7l12.2,7c0.5,0.3,1,1.1,1,1.9v20.3
			C124,133.1,123.6,133.4,123,133.1z"/>
		<path class="st10" d="M123,110.2l-12.2-7c-0.3-0.2-0.6-0.1-0.8,0.1c0.1,0,0.3,0,0.4,0.1l12.2,7c0.5,0.3,1,1.1,1,1.9v20.3
			c0,0.3-0.1,0.5-0.2,0.7c0.3,0,0.5-0.3,0.5-0.8V112C124,111.3,123.6,110.5,123,110.2z"/>
	</g>
</g>
<g>
	<g>
		<path class="st1" d="M43.8,144l10.7-6c0.5-0.3,1.3-0.2,1.8,0.1l6.8,4c0.5,0.3,0.6,0.8,0.1,1.1l-10.7,6c-0.5,0.3-1.3,0.2-1.8-0.1
			l-6.8-4C43.4,144.7,43.4,144.2,43.8,144z"/>
		<path class="st15" d="M52.4,146.1l12.2-6.9c0.2-0.1,0.4-0.3,0.4-0.5c0,0,0,0,0,0l0-1.4c0,0-0.4,0.4-0.7,0.6l-7.6-4.5
			c-0.6-0.4-1.6-0.4-2.1-0.1L43,139.9l-0.9-0.5l0,1.4l0,0c0,0.2,0.2,0.5,0.5,0.7l7.8,4.6C51,146.4,51.9,146.4,52.4,146.1z"/>
		<path class="st8" d="M42.4,138.8l12.2-6.9c0.5-0.3,1.5-0.3,2.1,0.1l7.8,4.6c0.6,0.4,0.7,0.9,0.1,1.2l-12.2,6.9
			c-0.5,0.3-1.5,0.3-2.1-0.1l-7.8-4.6C42,139.7,41.9,139.1,42.4,138.8z"/>
		<path class="st10" d="M52.5,144.7l12.2-6.9c0.3-0.2,0.4-0.4,0.3-0.7c-0.1,0.1-0.2,0.2-0.3,0.3l-12.2,6.9c-0.5,0.3-1.5,0.3-2.1-0.1
			l-7.8-4.6c-0.3-0.2-0.4-0.3-0.5-0.5c-0.1,0.3,0,0.6,0.5,0.9l7.8,4.6C51,145,51.9,145.1,52.5,144.7z"/>
	</g>
	<g>
		<path class="st10" d="M55.3,137c-0.5-0.3-0.4-0.7,0-0.9c0.5-0.3,1.2-0.2,1.6,0c0.5,0.3,0.4,0.7,0,0.9
			C56.5,137.3,55.7,137.3,55.3,137z"/>
		<path class="st10" d="M52.8,138.4c-0.5-0.3-0.4-0.7,0-0.9c0.5-0.3,1.2-0.2,1.6,0c0.5,0.3,0.4,0.7,0,0.9
			C54,138.7,53.2,138.7,52.8,138.4z"/>
		<path class="st10" d="M50.3,139.8c-0.5-0.3-0.4-0.7,0-0.9c0.5-0.3,1.2-0.2,1.6,0c0.5,0.3,0.4,0.7,0,0.9
			C51.5,140.1,50.7,140.1,50.3,139.8z"/>
	</g>
</g>
<g>
	<ellipse class="st1" cx="33.6" cy="129.5" rx="8.6" ry="4.9"/>
	<g>
		<path class="st24" d="M28.8,69.8c0,0,0.2,4.5,0.6,7.6c0.3,3,7.7-2.3,7.7-2.3v-3.5L28.8,69.8z"/>
		<g>
			<path class="st7" d="M32.7,126.2c0.1,0.3,2,2.6,3.9,3.2c0.8,0.3,1.4,0.3,1.7,0.2c0.4,0,0.6-0.4,0.5-0.8c-0.3-0.9-1.3-2.8-3.6-4
				C32,123.2,32.7,126.2,32.7,126.2z"/>
			<path class="st7" d="M32.1,127.1c0,0,0.7,1.7,0.9,3.1c0.1,0.9-0.3,2-0.7,2.7c-0.2,0.5-0.8,0.6-1.2,0.2c-0.6-0.6-1.4-1.5-1.5-2.9
				c-0.2-2.4,0-2.8,0-2.8L32.1,127.1z"/>
			<path class="st8" d="M27.5,98.4c0,0-0.2,3,0,6.3s1.1,18.8,1.3,22.5c0,0-0.1,1.1,2.1,0.9c2.2-0.2,2-1.5,2-1.5s3.1,0,3.2-1.8
				c0.1-1.8,3.1-21.5,3.1-28.6L27.5,98.4z"/>
			<g>
				<path class="st9" d="M40.3,83l1.5,2.3l5.2,6.2c0,0-0.2,0.6-0.8,0.7c-0.5,0.1-4.8-4-6.7-5.8c-0.5-0.5-0.6-1.2-0.2-1.8L40.3,83z"
					/>
				<path class="st25" d="M37.4,73.4c0,0,2.4-0.1,3.2,3.4c0.8,3.4,1.5,7.8,0.8,8.1c-2.2,1.1-3.5-0.2-3.5-0.2L37.4,73.4z"/>
				<path class="st21" d="M38.1,73.6c-0.4-0.2-0.9-0.2-1.3-0.1c-2,0.6-9.7,2.8-10.9,3.9c-1.5,1.2,2.2,8.2,2.1,10.5
					c-0.1,2.3-0.3,5-0.5,7.5c-0.2,2.5-0.5,3.9,1.6,4.9c2,1.1,5.5,1.1,8.1-0.9c2.6-2,2.1-3.3,2-4.8c-0.1-1.4-1-7.7-0.9-9.4
					c0,0,0.9-0.7,1.6-1.8c0.7-1.2-0.5-3.3-1-4.7c-0.5-1.4,0.3-3,0.1-4.1C38.9,74,38.5,73.8,38.1,73.6z"/>
				<path class="st10" d="M35.7,76c0.2,1.3-1,2.4-2.6,2.6c-1.6,0.2-3-0.7-3.2-1.9c-0.2-1.3,1-2.4,2.6-2.6
					C34.1,73.8,35.5,74.7,35.7,76z"/>
				<path class="st9" d="M34.9,76.1C35,77,34.1,77.8,33,78c-1.1,0.1-2.1-0.5-2.3-1.4c-0.1-0.9,0.7-1.7,1.8-1.9
					C33.7,74.6,34.7,75.2,34.9,76.1z"/>
				<path class="st9" d="M33.7,73.1c0,0-1.4-1.1-1.6-0.6c-0.3,0.6-0.5,3-0.5,3l2.7,0.7l-0.4-2.5C33.9,73.8,34.5,73.4,33.7,73.1z"/>
				
					<ellipse transform="matrix(5.241155e-02 -0.9986 0.9986 5.241155e-02 -37.9303 100.3706)" class="st9" cx="33.9" cy="70.2" rx="4.1" ry="4.1"/>
				<path class="st11" d="M31.9,73.3c0,0.1,0,0.3-0.1,0.4c0.3,1.4,2.4,2,2.4,2l-0.3-1.9c0,0,0.3-0.2,0.2-0.4
					C33.2,73.1,32.2,72.9,31.9,73.3z"/>
				
					<ellipse transform="matrix(5.241155e-02 -0.9986 0.9986 5.241155e-02 -37.9303 100.3706)" class="st9" cx="33.9" cy="70.2" rx="4.1" ry="4.1"/>
				<polygon class="st9" points="23.9,87.5 24.3,98.4 25.9,98.6 27,88.7 				"/>
				<path class="st25" d="M29.1,86.6c-0.1-0.4-0.8-0.7-0.9-1.2c-0.5-2.5-0.7-6.3-0.7-6.3l-0.4,5.1c0.5,1.5,1,2.9,0.9,3.7
					c0,1.3-0.1,2.8-0.3,4.3l0,0C27.8,92.2,29.6,88.9,29.1,86.6z"/>
				<path class="st26" d="M26.2,77.2c0,0-1.3,0.5-2,4.4c-0.7,3.9-1.3,7.9,0,8.4c1.3,0.5,2.4,0.9,2.7-0.2c0.4-1.1,0.6-6.1,0.7-7.9
					C27.7,80,27.8,77.5,26.2,77.2z"/>
				<path class="st9" d="M46.6,91.1c0,0,0.7,0.3,1.2,0.8c0.4,0.4,0.6,0.8,0.8,1.1c0.4,0.6,0.7,1.9,0.5,2c-0.2,0.2-1.6-2.1-1.9-1.6
					c-0.2,0.5,0,1-0.3,1c-0.3,0-1.3-2.3-2.1-3C44.1,90.7,46.6,91.1,46.6,91.1z"/>
			</g>
			<path class="st22" d="M32.9,126.6c0,0,0.4,0,0.9-0.1l0,0l0.6-24L32.9,126.6z"/>
		</g>
		<g>
			<path class="st21" d="M30.6,113.6l-0.9-1.1l-8.9-5.2c-0.3-0.2-0.5-0.6-0.5-1l0-7.3l-0.5-0.7l0.5-0.3l0,0c0.1-0.1,0.2-0.1,0.4,0
				l10.1,5.9c0.3,0.2,0.5,0.6,0.5,1l0,8c0,0.2-0.1,0.4-0.2,0.4h0L30.6,113.6z"/>
			<path class="st27" d="M24.4,109.4l-0.6-0.4l-3.5-6.1l0-4l-0.5-0.7l0.5-0.3l0,0c0.1-0.1,0.2-0.1,0.4,0l10.1,5.9
				c0.2,0.1,0.3,0.3,0.4,0.4L24.4,109.4z"/>
			<path class="st27" d="M20,98.6l-0.2-0.3l0.5-0.3l0,0c0.1-0.1,0.2-0.1,0.4,0l0.2,0.1L20,98.6z"/>
			<path class="st21" d="M30.8,104c0.2,0.2,0.4,0.5,0.4,0.9l-1,0.6l-0.5-0.8L30.8,104z"/>
			<path class="st26" d="M30.3,104.2l-10.1-5.9c-0.3-0.2-0.5,0-0.5,0.4l0,8c0,0.4,0.2,0.8,0.5,1l10.1,5.9c0.3,0.2,0.5,0,0.5-0.4l0-8
				C30.8,104.8,30.5,104.4,30.3,104.2z"/>
		</g>
		<polygon class="st10" points="28.2,109.9 27.7,109.7 27.7,105.5 28.2,105.8 		"/>
		<polygon class="st10" points="27,109.3 26.6,109 26.6,104.9 27,105.1 		"/>
		<polygon class="st10" points="25.9,108.6 25.4,108.4 25.4,104.2 25.9,104.5 		"/>
		<path class="st9" d="M24.3,98.3c0,0-0.4,2.6-0.4,3.4c0.1,0.8,0.5,2.2,0.8,2.1c0.3,0,0-3.3,0.6-3c0.6,0.3,0.6,0.9,0.9,0.7
			s-0.5-3-0.3-4.2C26.2,96.1,24.3,98.3,24.3,98.3z"/>
		<path class="st11" d="M35.5,70.5c2,0.7,2.4,0.3,2.5,0.3c0-0.1,0-0.2,0-0.4c0-0.5,0-0.9-0.1-1.3l-5.3-0.7
			C32.5,68.4,33.4,69.8,35.5,70.5z"/>
		<path class="st24" d="M38.1,66.3c-0.5-0.4-2.2-2.5-5.3-2c-2,0.3-3.6,1.6-4,4.7c-0.2,2,0.5,4.1,1.9,5.6c0.1,0,0.2-0.1,0.2-0.1
			c0.8-0.5,0.9-0.8,0.9-0.8l0.2-1.5c0-0.2-0.2-0.4-0.4-0.4c-0.2,0-0.4-0.1-0.6-0.3c-0.4-0.6-0.2-1.5,0.7-1.5c0.5,0,0.7-0.3,0.7-0.5
			c0.1-0.2,0.3-0.3,0.5-0.2c1,0.4,3.5,1.2,5.2,0.7C40.1,69.2,38.6,66.8,38.1,66.3z"/>
		<path class="st10" d="M35.8,72.4l1.2-0.3c0,0-0.6,0.9-1.5,1.2c-0.9,0.2-1-0.5-1-0.5L35.8,72.4z"/>
		<polygon class="st27" points="26.5,101.5 25.4,100.8 25.8,101.5 26.3,101.7 		"/>
	</g>
</g>
<g>
	<g>
		<path class="st12" d="M50,103.2l12.2-6.9c0.2-0.1,0.4-0.3,0.4-0.5c0,0,0,0,0,0l0-1.4c0,0-0.4,0.4-0.7,0.6l-7.6-4.5
			c-0.6-0.4-1.6-0.4-2.1-0.1L40.4,97l-0.9-0.5l0,1.4l0,0c0,0.2,0.2,0.5,0.5,0.7l7.8,4.6C48.5,103.5,49.4,103.5,50,103.2z"/>
		<path class="st2" d="M39.9,95.9L52.1,89c0.5-0.3,1.5-0.3,2.1,0.1l7.8,4.6c0.6,0.4,0.7,0.9,0.1,1.2L50,101.8
			c-0.5,0.3-1.5,0.3-2.1-0.1l-7.8-4.6C39.4,96.8,39.4,96.2,39.9,95.9z"/>
		<path class="st10" d="M50,101.8l12.2-6.9c0.3-0.2,0.4-0.4,0.3-0.7c-0.1,0.1-0.2,0.2-0.3,0.3L50,101.4c-0.5,0.3-1.5,0.3-2.1-0.1
			l-7.8-4.6c-0.3-0.2-0.4-0.3-0.5-0.5c-0.1,0.3,0,0.6,0.5,0.9l7.8,4.6C48.5,102.1,49.4,102.1,50,101.8z"/>
	</g>
	<g>
		<path class="st10" d="M52.7,94.1c-0.5-0.3-0.4-0.7,0-0.9c0.5-0.3,1.2-0.3,1.6,0c0.5,0.3,0.4,0.7,0,0.9
			C53.9,94.4,53.2,94.3,52.7,94.1z"/>
		<path class="st10" d="M50.2,95.5c-0.5-0.3-0.4-0.7,0-0.9c0.5-0.3,1.2-0.3,1.6,0c0.5,0.3,0.4,0.7,0,0.9
			C51.4,95.8,50.7,95.8,50.2,95.5z"/>
		<path class="st10" d="M47.7,96.9c-0.5-0.3-0.4-0.7,0-0.9c0.5-0.3,1.2-0.3,1.6,0c0.5,0.3,0.4,0.7,0,0.9
			C48.9,97.2,48.2,97.2,47.7,96.9z"/>
	</g>
</g>
<g>
	<path class="st12" d="M118.7,112.9c0,1.1-0.8,1.6-1.8,1c-1-0.6-1.8-1.9-1.8-3.1c0-1.1,0.8-1.6,1.8-1
		C117.9,110.4,118.7,111.8,118.7,112.9z"/>
	<path class="st12" d="M119.5,116.1C119.5,116.1,119.5,116.1,119.5,116.1c-0.1-0.5-0.5-0.9-0.8-0.8c-0.5,0.2-1,0.1-1.7-0.3
		c-0.6-0.4-1.2-1-1.7-1.7c-0.3-0.4-0.7-0.6-0.8-0.2c0,0,0,0,0,0l-0.8,5.3l6.7,3.9L119.5,116.1z"/>
</g>
<g>
	<path class="st10" d="M118.7,112.9c0,1.1-0.8,1.6-1.8,1c-1-0.6-1.8-1.9-1.8-3.1c0-1.1,0.8-1.6,1.8-1
		C117.9,110.4,118.7,111.8,118.7,112.9z"/>
	<path class="st10" d="M119.5,116.1C119.5,116.1,119.5,116.1,119.5,116.1c-0.1-0.5-0.5-0.9-0.8-0.8c-0.5,0.2-1,0.1-1.7-0.3
		c-0.6-0.4-1.2-1-1.7-1.7c-0.3-0.4-0.7-0.6-0.8-0.2c0,0,0,0,0,0l-0.8,5.3l6.7,3.9L119.5,116.1z"/>
</g>
<g>
	<polygon class="st10" points="120.8,126.5 112.6,121.8 112.6,121.2 120.8,125.9 	"/>
	<polygon class="st10" points="118.3,127.7 112.6,124.4 112.6,123.8 118.3,127.1 	"/>
	<polygon class="st10" points="117.6,125.9 112.6,123.1 112.6,122.5 117.6,125.3 	"/>
	<polygon class="st10" points="120.8,127.8 118.3,126.4 118.3,125.8 120.8,127.2 	"/>
</g>
<g>
	<polygon class="st3" points="120.8,87.3 112.7,82.6 112.7,82 120.8,86.7 	"/>
	<polygon class="st3" points="118.4,88.4 112.7,85.1 112.7,84.6 118.4,87.8 	"/>
	<polygon class="st3" points="117.6,86.7 112.7,83.9 112.7,83.3 117.6,86.1 	"/>
	<polygon class="st3" points="120.8,88.6 118.4,87.1 118.4,86.6 120.8,88 	"/>
</g>
<g>
	<polygon class="st3" points="120.8,92.2 112.7,87.5 112.7,86.9 120.8,91.6 	"/>
	<polygon class="st3" points="118.4,93.4 112.7,90.1 112.7,89.5 118.4,92.8 	"/>
	<polygon class="st3" points="117.6,91.7 112.7,88.8 112.7,88.2 117.6,91.1 	"/>
	<polygon class="st3" points="120.8,93.5 118.4,92.1 118.4,91.5 120.8,92.9 	"/>
</g>
<g>
	<polygon class="st3" points="120.8,97.2 112.7,92.5 112.7,91.9 120.8,96.6 	"/>
	<polygon class="st3" points="118.4,98.3 112.7,95 112.7,94.5 118.4,97.7 	"/>
	<polygon class="st3" points="117.6,96.6 112.7,93.8 112.7,93.2 117.6,96 	"/>
	<polygon class="st3" points="120.8,98.5 118.4,97.1 118.4,96.5 120.8,97.9 	"/>
</g>
<g>
	<polygon class="st10" points="95.1,111.1 89.3,107.7 89.3,107.2 95.1,110.5 	"/>
	<polygon class="st10" points="98.7,113.2 96.3,111.7 96.3,111.2 98.7,112.6 	"/>
	<polygon class="st10" points="95.3,112.4 92.9,110.9 92.9,110.4 95.3,111.8 	"/>
	<polygon class="st10" points="100.7,115.5 96.3,112.9 96.3,112.4 100.7,114.9 	"/>
	<polygon class="st10" points="103.8,118.4 97.2,114.6 97.2,114.1 103.8,117.9 	"/>
	<polygon class="st10" points="102.3,115.2 99.8,113.8 99.8,113.2 102.3,114.7 	"/>
	<polygon class="st10" points="91.8,110.3 89.3,108.9 89.3,108.4 91.8,109.8 	"/>
	<polygon class="st10" points="96.1,114 89.3,110.1 89.3,109.5 96.1,113.5 	"/>
	<polygon class="st10" points="93.5,113.7 89.4,111.3 89.4,110.8 93.5,113.1 	"/>
</g>
<path class="st8" d="M153.8,142.3c-0.2,0-0.3-0.1-0.4-0.2c-0.1-0.2-0.1-0.5,0.2-0.6l17.2-10.2c0.1-0.1,0.2-0.2,0.2-0.3
	c0-0.1,0-0.2-0.2-0.3l-4.7-2.8c-0.2-0.1-0.3-0.4-0.2-0.6c0.1-0.2,0.4-0.3,0.6-0.2l4.7,2.8c0.4,0.2,0.6,0.6,0.6,1
	c0,0.4-0.2,0.8-0.6,1L154,142.2C154,142.3,153.9,142.3,153.8,142.3z"/>
<g>
	<polygon class="st1" points="157.2,150.1 151.2,146.6 145.2,150.1 151.2,153.5 	"/>
	<polygon class="st12" points="151.2,150.3 151.2,146.4 158.3,142.3 158.3,146.2 	"/>
	<polygon class="st12" points="151.2,146.4 144,142.3 144,146.2 151.2,150.3 	"/>
	<polygon class="st2" points="158.3,142.3 151.2,138.2 144,142.3 151.2,146.4 	"/>
</g>
<polygon class="st16" points="93.5,59.5 94.8,63.4 97.8,65.5 95.5,66.5 96.2,70.4 93.5,67 90.9,67.3 91.6,64.2 89.3,60.6 92.3,62 
	"/>
<polygon class="st16" points="103.4,65.1 104.6,69 107.7,71.2 105.3,72.1 106,76 103.4,72.6 100.7,73 101.4,69.9 99.1,66.2 
	102.2,67.6 "/>
<polygon class="st16" points="88,59.9 84.9,57.8 83.7,53.8 83.5,54.2 83.5,61.4 83.7,61.4 86.4,64.8 85.7,60.9 "/>
<g>
	<g>
		<g>
			<polygon class="st14" points="62,40 63.2,44 66.3,46.1 64,47 64.7,50.9 62,47.5 59.4,47.9 60.1,44.8 57.7,41.1 60.8,42.6 			"/>
			<path class="st15" d="M56.3,42l1.4-0.8l2.2,1c0,0,0,1.5,0,1.5c0,0-0.9,0.1-1,0.1C58.9,43.8,56.3,42,56.3,42z"/>
			<polygon class="st14" points="64.7,50.9 63.2,51.8 62.5,47.9 63.2,47.1 64,47.3 			"/>
			<polygon class="st8" points="60.6,40.8 61.8,44.8 64.9,46.9 62.5,47.9 63.2,51.8 60.6,48.4 57.9,48.7 58.6,45.6 56.3,42 
				59.4,43.4 			"/>
			<path class="st10" d="M63.2,51.8l-0.7-3.9l2.3-1l-3.1-2.1l-1.2-3.9l-1.2,2.6L56.3,42l0.2,0.3l3,1.4l1.1-2.2l1.1,3.5l2.8,1.9
				l-2.1,0.9l0.7,3.7L63.2,51.8z"/>
			<polygon class="st14" points="60.6,40.8 62,40 63.2,44 61.8,44.8 			"/>
			<polygon class="st15" points="66.3,46.1 64.9,46.9 61.8,44.8 63.2,44 			"/>
		</g>
		<polygon class="st10" points="61.9,44.9 61.6,44.8 63.2,43.9 63.2,44 63.3,44 		"/>
	</g>
	<g>
		<g>
			<polygon class="st14" points="71.8,45.6 73,49.6 76.1,51.7 73.8,52.7 74.5,56.6 71.8,53.2 69.2,53.5 69.9,50.4 67.6,46.8 
				70.6,48.2 			"/>
			<path class="st15" d="M66.1,47.6l1.4-0.8l2.2,1c0,0,0,1.5,0,1.5c0,0-0.9,0.1-1,0.1C68.7,49.4,66.1,47.6,66.1,47.6z"/>
			<polygon class="st14" points="74.5,56.6 73.1,57.4 72.4,53.5 73,52.7 73.8,52.9 			"/>
			<polygon class="st8" points="70.4,46.5 71.6,50.4 74.7,52.5 72.4,53.5 73.1,57.4 70.4,54 67.8,54.3 68.5,51.2 66.1,47.6 69.2,49 
							"/>
			<path class="st10" d="M73.1,57.4l-0.7-3.9l2.3-1l-3.1-2.1l-1.2-3.9L69.2,49l-3.1-1.4l0.2,0.3l3,1.4l1.1-2.2l1.1,3.5l2.8,1.9
				l-2.1,0.9l0.7,3.7L73.1,57.4z"/>
			<polygon class="st14" points="70.4,46.5 71.8,45.6 73,49.6 71.6,50.4 			"/>
			<polygon class="st15" points="76.1,51.7 74.7,52.5 71.6,50.4 73,49.6 			"/>
		</g>
		<polygon class="st10" points="71.7,50.5 71.5,50.4 73,49.5 73,49.6 73.1,49.6 		"/>
	</g>
	<g>
		<g>
			<polygon class="st14" points="81.7,51.3 82.9,55.2 85.9,57.3 83.6,58.3 84.3,62.2 81.7,58.8 79,59.1 79.7,56 77.4,52.4 
				80.5,53.8 			"/>
			<path class="st15" d="M75.9,53.2l1.4-0.8l2.2,1c0,0,0,1.5,0,1.5s-0.9,0.1-1,0.1C78.6,55,75.9,53.2,75.9,53.2z"/>
			<polygon class="st14" points="84.3,62.2 82.9,63 82.2,59.1 82.9,58.4 83.7,58.5 			"/>
			<polygon class="st8" points="80.2,52.1 81.4,56 84.5,58.1 82.2,59.1 82.9,63 80.2,59.6 77.6,60 78.3,56.8 75.9,53.2 79,54.6 			
				"/>
			<path class="st10" d="M82.9,63l-0.7-3.9l2.3-1L81.4,56l-1.2-3.9L79,54.6l-3.1-1.4l0.2,0.3l3,1.4l1.1-2.3l1.1,3.5l2.8,1.9L81.9,59
				l0.7,3.7L82.9,63z"/>
			<polygon class="st14" points="80.2,52.1 81.7,51.3 82.9,55.2 81.4,56 			"/>
			<polygon class="st15" points="85.9,57.3 84.5,58.1 81.4,56 82.9,55.2 			"/>
		</g>
		<polygon class="st10" points="81.5,56.1 81.3,56 82.8,55.1 82.9,55.2 83,55.3 		"/>
	</g>
	<g>
		<g>
			<polygon class="st14" points="91.5,56.9 92.7,60.8 95.8,62.9 93.4,63.9 94.1,67.8 91.5,64.4 88.8,64.8 89.5,61.6 87.2,58 
				90.3,59.4 			"/>
			<path class="st15" d="M85.8,58.8l1.4-0.8l2.2,1c0,0,0,1.5,0,1.5c0,0-0.9,0.1-1,0.1C88.4,60.6,85.8,58.8,85.8,58.8z"/>
			<polygon class="st14" points="94.1,67.8 92.7,68.6 92,64.7 92.7,64 93.5,64.1 			"/>
			<polygon class="st8" points="90,57.7 91.2,61.6 94.3,63.8 92,64.7 92.7,68.6 90,65.2 87.4,65.6 88.1,62.5 85.8,58.8 88.8,60.3 
							"/>
			<path class="st10" d="M92.7,68.6L92,64.7l2.3-1l-3.1-2.1L90,57.7l-1.2,2.6l-3.1-1.4l0.2,0.3l3,1.4l1.1-2.3l1.1,3.5l2.8,1.9
				l-2.1,0.9l0.7,3.7L92.7,68.6z"/>
			<polygon class="st14" points="90,57.7 91.5,56.9 92.7,60.8 91.2,61.6 			"/>
			<polygon class="st15" points="95.8,62.9 94.3,63.8 91.2,61.6 92.7,60.8 			"/>
		</g>
		<polygon class="st10" points="91.3,61.7 91.1,61.6 92.7,60.7 92.7,60.8 92.8,60.9 		"/>
	</g>
	<g>
		<g>
			<polygon class="st14" points="101.3,62.5 102.5,66.4 105.6,68.6 103.2,69.5 104,73.4 101.3,70 98.7,70.4 99.4,67.3 97,63.6 
				100.1,65.1 			"/>
			<path class="st15" d="M95.6,64.4l1.4-0.8l2.2,1c0,0,0,1.5,0,1.5c0,0-0.9,0.1-1,0.1S95.6,64.4,95.6,64.4z"/>
			<polygon class="st14" points="104,73.4 102.5,74.3 101.8,70.3 102.5,69.6 103.3,69.7 			"/>
			<polygon class="st8" points="99.9,63.3 101.1,67.3 104.1,69.4 101.8,70.3 102.5,74.3 99.9,70.8 97.2,71.2 97.9,68.1 95.6,64.4 
				98.7,65.9 			"/>
			<path class="st10" d="M102.5,74.3l-0.7-3.9l2.3-1l-3.1-2.1l-1.2-3.9l-1.2,2.6l-3.1-1.4l0.2,0.3l3,1.4l1.1-2.3l1.1,3.5l2.8,1.9
				l-2.1,0.9l0.7,3.7L102.5,74.3z"/>
			<polygon class="st14" points="99.9,63.3 101.3,62.5 102.5,66.4 101.1,67.3 			"/>
			<polygon class="st15" points="105.6,68.6 104.1,69.4 101.1,67.3 102.5,66.4 			"/>
		</g>
		<polygon class="st10" points="101.1,67.4 100.9,67.2 102.5,66.3 102.5,66.4 102.6,66.5 		"/>
	</g>
</g>
</svg>
