<?xml version="1.0" encoding="utf-8"?>
<!-- Generator: Adobe Illustrator 16.0.0, SVG Export Plug-In . SVG Version: 6.00 Build 0)  -->
<!DOCTYPE svg PUBLIC "-//W3C//DTD SVG 1.1//EN" "http://www.w3.org/Graphics/SVG/1.1/DTD/svg11.dtd">
<svg version="1.1" id="Layer_1" xmlns="http://www.w3.org/2000/svg" xmlns:xlink="http://www.w3.org/1999/xlink" x="0px" y="0px"
	 width="14px" height="10px" viewBox="0 0 14 10" enable-background="new 0 0 14 10" xml:space="preserve">
<g>
	<g>
		<path fill="#7B7B7B" d="M9.014,9.793c-0.104,0-0.207-0.039-0.285-0.118c-0.158-0.157-0.158-0.413,0-0.571l4.121-4.123L8.729,0.859
			c-0.158-0.158-0.158-0.415,0-0.572c0.157-0.158,0.414-0.158,0.572,0l4.692,4.694L9.3,9.675C9.221,9.754,9.117,9.793,9.014,9.793z"
			/>
	</g>
	<g>
		<path fill="#7B7B7B" d="M13.208,5.385H0.493c-0.224,0-0.405-0.18-0.405-0.404s0.181-0.405,0.405-0.405h12.715
			c0.224,0,0.403,0.181,0.403,0.405S13.432,5.385,13.208,5.385z"/>
	</g>
</g>
</svg>
