<?xml version="1.0" encoding="utf-8"?>
<!-- Generator: Adobe Illustrator 16.0.0, SVG Export Plug-In . SVG Version: 6.00 Build 0)  -->
<!DOCTYPE svg PUBLIC "-//W3C//DTD SVG 1.1//EN" "http://www.w3.org/Graphics/SVG/1.1/DTD/svg11.dtd">
<svg version="1.1" id="Layer_1" xmlns="http://www.w3.org/2000/svg" xmlns:xlink="http://www.w3.org/1999/xlink" x="0px" y="0px"
	 width="15px" height="16px" viewBox="0 0 15 16" enable-background="new 0 0 15 16" xml:space="preserve">
<g>
	<path fill="#C1002C" d="M9.018,14.406c0,0.007,0.002,0.014,0.002,0.021c0,0.795-0.645,1.44-1.438,1.44
		c-0.795,0-1.438-0.646-1.438-1.44c0-0.008,0.002-0.015,0.002-0.021c-4.6-0.127-5.778-0.877-5.778-1.783
		c0-0.284,0.124-0.553,0.426-0.792c2.175-2.422,2.82-1.751,2.82-5.339c0-2.392,0.099-4.585,2.979-4.98
		c-0.058-0.132-0.09-0.277-0.09-0.43C6.502,0.484,6.985,0,7.581,0c0.596,0,1.078,0.484,1.078,1.082c0,0.153-0.032,0.297-0.089,0.43
		c2.881,0.395,2.979,2.588,2.979,4.98c0,3.599,0.649,2.912,2.84,5.361c0.286,0.232,0.406,0.494,0.406,0.771
		C14.795,13.529,13.586,14.279,9.018,14.406 M7.581,15.148c0.397,0,0.719-0.323,0.719-0.723c0-0.002,0-0.004,0-0.006
		c-0.235,0.003-0.468,0.008-0.719,0.008s-0.483-0.005-0.719-0.008c0,0.002-0.001,0.004-0.001,0.006
		C6.861,14.825,7.184,15.148,7.581,15.148 M7.581,0.72c-0.199,0-0.359,0.162-0.359,0.36c0,0.199,0.16,0.361,0.359,0.361
		c0.198,0,0.359-0.162,0.359-0.361C7.94,0.882,7.779,0.72,7.581,0.72 M13.932,12.41c0,0-0.55-0.618-1.449-1.438
		c-1.229-1.119-1.654-1.65-1.654-4.481c0-2.765-0.15-4.329-3.246-4.329c-3.096,0-3.248,1.565-3.248,4.33
		c0,2.83-0.426,3.363-1.655,4.482c-0.883,0.805-1.438,1.422-1.438,1.422c-0.152,0.121-0.152,0.192-0.152,0.228
		c0,0.044,0.074,1.083,6.493,1.083s6.493-1.039,6.493-1.083C14.074,12.594,14.074,12.525,13.932,12.41"/>
</g>
</svg>
