<?xml version="1.0" encoding="utf-8"?>
<!-- Generator: Adobe Illustrator 16.0.0, SVG Export Plug-In . SVG Version: 6.00 Build 0)  -->
<!DOCTYPE svg PUBLIC "-//W3C//DTD SVG 1.1//EN" "http://www.w3.org/Graphics/SVG/1.1/DTD/svg11.dtd">
<svg version="1.1" id="Calque_1" xmlns="http://www.w3.org/2000/svg" xmlns:xlink="http://www.w3.org/1999/xlink" x="0px" y="0px"
	 width="200px" height="120px" viewBox="0 0 200 120" enable-background="new 0 0 200 120" xml:space="preserve">
<g>
	<path fill="#FFFFFF" d="M83.368,4.901l0.425,15.351l-0.814,0.068c-1.623-5.222-3.704-9.109-6.244-11.663
		c-2.54-2.549-5.609-3.827-9.209-3.827c-2.799,0-5.204,0.571-7.216,1.71c-2.012,1.143-3.887,2.996-5.629,5.56
		c-3.527,5.246-5.291,11.243-5.291,17.995c0,3.222,0.422,6.264,1.27,9.119c0.845,2.859,2.081,5.383,3.704,7.57
		c3.152,4.236,6.997,6.35,11.537,6.35c1.788,0,3.469-0.377,5.047-1.13c1.576-0.755,2.871-1.787,3.88-3.104
		c1.389-1.834,2.082-4.012,2.082-6.524c0-2.333-0.629-4.013-1.887-5.049c-1.259-1.035-3.335-1.554-6.228-1.554v-0.812h22.511v0.812
		c-2.07,0.191-3.521,0.478-4.357,0.866c-0.834,0.387-1.454,1.053-1.853,1.993c-0.449,1.033-0.671,3.091-0.671,6.175
		c0,0.846,0.047,2.163,0.142,3.95l0.07,0.812c-0.894-0.329-1.552-0.494-1.978-0.494c-0.518,0-1.177,0.271-1.975,0.812
		c-2.046,1.412-4.422,2.495-7.127,3.246c-2.707,0.751-5.565,1.13-8.573,1.13c-4.141,0-7.875-0.705-11.203-2.119
		c-3.331-1.41-6.029-3.431-8.097-6.066c-1.553-1.973-2.747-4.328-3.581-7.059c-0.834-2.727-1.254-5.621-1.254-8.68
		c0-4.21,0.753-8.126,2.258-11.75c1.506-3.623,3.622-6.608,6.351-8.961c2.234-1.906,4.811-3.376,7.728-4.41
		c2.916-1.034,5.998-1.553,9.245-1.553c1.882,0,3.628,0.177,5.239,0.528c1.612,0.354,3.322,0.932,5.134,1.73l2.083,0.952
		c0.519,0.211,0.987,0.317,1.411,0.317c0.942,0,1.658-0.764,2.153-2.294h0.92V4.901z"/>
	<path fill="#FFFFFF" d="M83.696,53.064v-0.847c2.374,0,4.21-0.671,5.503-2.012c0.73-0.752,1.232-1.708,1.501-2.876
		c0.27-1.161,0.406-2.944,0.406-5.343V15.981c0-2.493-0.147-4.335-0.443-5.522c-0.294-1.188-0.84-2.157-1.639-2.91
		c-0.66-0.612-1.394-1.06-2.205-1.342c-0.811-0.282-1.852-0.446-3.122-0.493V4.901h22.545v0.812
		c-1.293,0.069-2.352,0.245-3.171,0.527c-0.825,0.282-1.556,0.73-2.188,1.341c-0.801,0.775-1.341,1.752-1.624,2.929
		c-0.281,1.176-0.424,2.999-0.424,5.47V36.34c0,3.128,0.084,5.457,0.247,6.985c0.166,1.528,0.484,2.775,0.952,3.741
		c0.826,1.694,2.048,2.932,3.67,3.722c1.623,0.788,3.773,1.185,6.455,1.185c2.803,0,5.158-0.371,7.075-1.115
		c1.919-0.741,3.488-1.887,4.714-3.44c0.823-1.06,1.499-2.257,2.027-3.598s1.017-3.107,1.462-5.293l0.849,0.07l-0.462,14.467H83.696
		z"/>
	<path fill="#FFFFFF" d="M118.475,52.924l0.105-14.574l0.81,0.038c0.988,3.706,2.164,6.63,3.528,8.763
		c2.562,3.945,5.788,5.914,9.666,5.914c2.705,0,4.942-0.906,6.705-2.718c1.767-1.81,2.646-4.104,2.646-6.879
		c0-1.2-0.19-2.423-0.581-3.671c-0.388-1.246-0.914-2.318-1.568-3.212c-0.687-0.919-1.641-1.798-2.878-2.646
		c-1.235-0.849-3.124-1.917-5.662-3.212c-2.235-1.128-3.948-2.08-5.134-2.857c-1.187-0.774-2.147-1.565-2.875-2.361
		c-2.023-2.212-3.035-4.906-3.035-8.081c0-1.953,0.397-3.835,1.185-5.646c0.786-1.81,1.886-3.363,3.298-4.657
		c2.491-2.303,5.444-3.457,8.857-3.457c1.105,0,2.125,0.112,3.068,0.336c0.94,0.225,2.198,0.664,3.773,1.323
		c1.18,0.472,1.979,0.772,2.4,0.9c0.421,0.13,0.799,0.193,1.129,0.193c0.826,0,1.378-0.599,1.659-1.799h0.813l0.248,14.007h-0.812
		c-0.637-2.234-1.183-3.946-1.639-5.133c-0.457-1.188-1.006-2.288-1.637-3.3c-1.15-1.836-2.421-3.191-3.807-4.075
		c-1.383-0.882-2.979-1.324-4.787-1.324c-2.63,0-4.71,0.896-6.236,2.685c-0.636,0.731-1.135,1.589-1.497,2.578
		c-0.363,0.99-0.545,1.979-0.545,2.967c0,3.934,2.523,7.099,7.574,9.503l4.967,2.401c3.825,1.813,6.588,3.816,8.282,6.004
		c1.924,2.448,2.888,5.298,2.888,8.547c0,2.158-0.437,4.224-1.307,6.196c-1.225,2.744-3.056,4.862-5.504,6.351
		c-2.449,1.493-5.329,2.236-8.646,2.236c-3.033,0-5.952-0.6-8.749-1.799c-1.458-0.636-2.33-1.004-2.609-1.096
		c-0.285-0.092-0.601-0.142-0.954-0.142c-1.131,0-1.905,0.565-2.33,1.694h-0.81V52.924z"/>
</g>
<g enable-background="new    ">
	<path fill="#FFFFFF" d="M9.364,62.104l0.087,3.158l-0.164,0.012c-0.336-1.077-0.765-1.872-1.285-2.399
		c-0.524-0.526-1.154-0.781-1.894-0.781c-0.575,0-1.072,0.116-1.482,0.352c-0.414,0.231-0.8,0.611-1.159,1.138
		c-0.725,1.079-1.087,2.314-1.087,3.696c0,0.668,0.088,1.288,0.261,1.879c0.174,0.589,0.429,1.108,0.763,1.553
		c0.647,0.873,1.438,1.309,2.371,1.309c0.369,0,0.712-0.083,1.037-0.233c0.325-0.153,0.59-0.367,0.797-0.635
		c0.285-0.383,0.428-0.828,0.428-1.343c0-0.483-0.13-0.826-0.387-1.039C7.391,68.554,6.964,68.45,6.37,68.45v-0.167h4.627v0.167
		c-0.424,0.039-0.725,0.098-0.895,0.178c-0.171,0.077-0.3,0.212-0.381,0.41c-0.091,0.21-0.137,0.634-0.137,1.267
		c0,0.173,0.009,0.445,0.027,0.812l0.018,0.17c-0.186-0.069-0.32-0.104-0.409-0.104c-0.106,0-0.241,0.057-0.406,0.167
		c-0.42,0.291-0.908,0.513-1.463,0.669c-0.557,0.154-1.144,0.23-1.763,0.23c-0.853,0-1.619-0.148-2.305-0.434
		c-0.685-0.291-1.238-0.71-1.665-1.249c-0.319-0.405-0.563-0.889-0.735-1.446c-0.171-0.566-0.256-1.16-0.256-1.788
		c0-0.862,0.153-1.671,0.463-2.415c0.31-0.746,0.745-1.361,1.306-1.842c0.46-0.391,0.989-0.694,1.586-0.906
		c0.602-0.212,1.236-0.319,1.902-0.319c0.387,0,0.746,0.037,1.078,0.107c0.331,0.073,0.683,0.193,1.054,0.358l0.428,0.195
		c0.107,0.041,0.201,0.062,0.29,0.062c0.194,0,0.342-0.154,0.441-0.469H9.364z"/>
	<path fill="#FFFFFF" d="M11.447,72.004v-0.175c0.487,0,0.865-0.136,1.132-0.411c0.15-0.155,0.251-0.354,0.307-0.589
		c0.056-0.243,0.083-0.607,0.083-1.105v-5.34c0-0.517-0.029-0.895-0.09-1.138c-0.062-0.244-0.173-0.445-0.337-0.601
		c-0.138-0.124-0.287-0.216-0.455-0.274c-0.167-0.056-0.378-0.09-0.64-0.101v-0.167h4.634v0.167
		c-0.267,0.012-0.483,0.049-0.651,0.107c-0.17,0.062-0.319,0.153-0.451,0.275c-0.164,0.161-0.275,0.361-0.333,0.602
		c-0.059,0.243-0.087,0.617-0.087,1.129v4.182c0,0.644,0.016,1.122,0.05,1.434c0.033,0.317,0.1,0.576,0.197,0.769
		c0.167,0.349,0.419,0.605,0.753,0.767c0.334,0.163,0.778,0.243,1.328,0.243c0.575,0,1.062-0.076,1.455-0.227
		c0.394-0.151,0.714-0.39,0.969-0.709c0.168-0.212,0.306-0.461,0.417-0.742c0.108-0.271,0.209-0.635,0.301-1.085l0.175,0.017
		l-0.095,2.973H11.447z"/>
	<path fill="#FFFFFF" d="M20.848,67.12c0-0.813,0.173-1.565,0.522-2.263c0.347-0.694,0.854-1.302,1.521-1.817
		c0.498-0.387,1.035-0.678,1.61-0.882c0.575-0.21,1.155-0.309,1.74-0.309c0.746,0,1.466,0.165,2.162,0.49
		c0.697,0.326,1.306,0.785,1.829,1.383c0.85,0.97,1.275,2.066,1.275,3.3c0,0.622-0.112,1.218-0.333,1.795
		c-0.221,0.573-0.545,1.101-0.971,1.575c-0.522,0.589-1.14,1.049-1.852,1.37c-0.714,0.325-1.46,0.486-2.239,0.486
		c-0.768,0-1.505-0.159-2.206-0.472c-0.7-0.313-1.303-0.76-1.813-1.335c-0.4-0.451-0.708-0.963-0.924-1.534
		C20.955,68.336,20.848,67.738,20.848,67.12z M22.604,67.225c0,1.406,0.381,2.591,1.145,3.553c0.343,0.433,0.707,0.747,1.09,0.939
		c0.385,0.198,0.831,0.295,1.333,0.295c0.507,0,0.952-0.097,1.337-0.291c0.385-0.192,0.75-0.509,1.099-0.943
		c0.764-0.968,1.147-2.164,1.147-3.58c0-0.777-0.106-1.518-0.315-2.211c-0.212-0.69-0.508-1.279-0.889-1.764
		c-0.31-0.396-0.654-0.686-1.034-0.87c-0.379-0.179-0.828-0.268-1.345-0.268c-0.514,0-0.957,0.089-1.333,0.263
		c-0.374,0.184-0.722,0.475-1.039,0.875c-0.382,0.477-0.678,1.061-0.885,1.76C22.705,65.677,22.604,66.433,22.604,67.225z"/>
	<path fill="#FFFFFF" d="M32.552,72.004v-0.167c0.281-0.016,0.507-0.056,0.68-0.12c0.17-0.068,0.32-0.166,0.451-0.299
		c0.155-0.155,0.259-0.352,0.312-0.589c0.056-0.237,0.083-0.604,0.083-1.105v-5.34c0-0.503-0.027-0.87-0.083-1.105
		c-0.053-0.236-0.156-0.432-0.312-0.585c-0.13-0.142-0.281-0.245-0.457-0.306c-0.173-0.063-0.397-0.105-0.674-0.117v-0.167h4.766
		c0.483,0,0.801,0.008,0.951,0.018c0.55,0.038,1.007,0.173,1.371,0.39c0.313,0.194,0.556,0.445,0.728,0.758
		c0.172,0.317,0.257,0.669,0.257,1.061c0,0.631-0.195,1.154-0.587,1.557c-0.138,0.153-0.3,0.278-0.479,0.375
		c-0.177,0.1-0.435,0.211-0.774,0.333c0.463,0.076,0.824,0.161,1.079,0.251c0.255,0.095,0.488,0.22,0.697,0.386
		c0.31,0.253,0.549,0.565,0.723,0.938c0.17,0.375,0.255,0.781,0.255,1.214c0,0.446-0.087,0.848-0.265,1.209
		c-0.176,0.37-0.42,0.659-0.735,0.882c-0.285,0.2-0.626,0.335-1.02,0.414c-0.393,0.073-0.949,0.116-1.664,0.116H32.552z
		 M35.662,62.329v4.307h0.59c0.276,0,0.561-0.017,0.855-0.055c0.255-0.042,0.463-0.086,0.621-0.141
		c0.158-0.053,0.299-0.122,0.431-0.22c0.246-0.182,0.436-0.417,0.569-0.707c0.131-0.286,0.199-0.604,0.199-0.949
		c0-0.371-0.068-0.719-0.208-1.056c-0.138-0.329-0.319-0.581-0.547-0.766c-0.199-0.162-0.424-0.271-0.676-0.326
		c-0.257-0.061-0.642-0.088-1.158-0.088H35.662z M35.662,66.861v2.986c0,0.367,0.027,0.654,0.078,0.881
		c0.051,0.223,0.133,0.409,0.25,0.565c0.246,0.322,0.669,0.483,1.268,0.483c0.779,0,1.395-0.212,1.846-0.64
		c0.452-0.424,0.678-1.008,0.678-1.738c0-0.422-0.069-0.811-0.21-1.17c-0.14-0.358-0.328-0.64-0.563-0.834
		c-0.436-0.354-1.118-0.534-2.047-0.534H35.662z"/>
	<path fill="#FFFFFF" d="M52.644,72.004h-4.766v-0.167c0.43-0.04,0.729-0.114,0.899-0.217c0.3-0.188,0.448-0.449,0.448-0.782
		c0-0.202-0.066-0.467-0.202-0.801l-0.124-0.303l-0.696-1.713h-3.191l-0.377,1.003l-0.182,0.447
		c-0.217,0.531-0.326,0.948-0.326,1.257c0,0.176,0.04,0.343,0.118,0.5c0.081,0.156,0.188,0.283,0.325,0.375
		c0.188,0.129,0.429,0.206,0.724,0.233v0.167h-3.249v-0.167c0.255-0.016,0.481-0.077,0.675-0.189c0.193-0.112,0.38-0.29,0.564-0.537
		c0.155-0.194,0.307-0.451,0.454-0.765c0.148-0.311,0.343-0.779,0.585-1.4l2.653-6.842h0.415l3.154,7.62
		c0.238,0.577,0.426,0.986,0.567,1.238c0.14,0.244,0.292,0.43,0.457,0.558c0.116,0.084,0.248,0.153,0.398,0.197
		c0.15,0.046,0.375,0.085,0.676,0.12V72.004z M48.088,67.727l-1.524-3.762l-1.435,3.762H48.088z"/>
	<path fill="#FFFFFF" d="M52.847,72.004v-0.175c0.486,0,0.864-0.136,1.129-0.411c0.152-0.155,0.254-0.354,0.31-0.589
		c0.055-0.243,0.083-0.607,0.083-1.105v-5.34c0-0.517-0.031-0.895-0.091-1.138c-0.061-0.244-0.174-0.445-0.338-0.601
		c-0.135-0.124-0.287-0.216-0.454-0.274c-0.166-0.056-0.38-0.09-0.64-0.101v-0.167h4.633v0.167
		c-0.268,0.012-0.485,0.049-0.655,0.107c-0.167,0.062-0.316,0.153-0.447,0.275c-0.164,0.161-0.276,0.361-0.335,0.602
		c-0.058,0.243-0.086,0.617-0.086,1.129v4.182c0,0.644,0.017,1.122,0.05,1.434c0.033,0.317,0.1,0.576,0.196,0.769
		c0.17,0.349,0.42,0.605,0.753,0.767c0.334,0.163,0.777,0.243,1.329,0.243c0.576,0,1.058-0.076,1.455-0.227
		c0.394-0.151,0.716-0.39,0.968-0.709c0.168-0.212,0.307-0.461,0.416-0.742c0.109-0.271,0.209-0.635,0.302-1.085l0.174,0.017
		l-0.095,2.973H52.847z"/>
	<path fill="#FFFFFF" d="M65.618,72.004v-0.175c0.489,0,0.867-0.136,1.132-0.411c0.15-0.155,0.253-0.354,0.308-0.589
		c0.055-0.243,0.084-0.607,0.084-1.105v-5.34c0-0.517-0.03-0.895-0.091-1.138c-0.061-0.244-0.173-0.445-0.338-0.601
		c-0.134-0.124-0.285-0.216-0.453-0.274c-0.166-0.056-0.38-0.09-0.642-0.101v-0.167h4.635v0.167
		c-0.268,0.012-0.484,0.049-0.654,0.107c-0.168,0.062-0.317,0.153-0.448,0.275c-0.165,0.161-0.275,0.361-0.333,0.602
		c-0.06,0.243-0.089,0.617-0.089,1.129v4.182c0,0.644,0.018,1.122,0.052,1.434c0.034,0.317,0.099,0.576,0.196,0.769
		c0.17,0.349,0.419,0.605,0.756,0.767c0.333,0.163,0.775,0.243,1.328,0.243c0.574,0,1.057-0.076,1.452-0.227
		c0.394-0.151,0.718-0.39,0.969-0.709c0.168-0.212,0.308-0.461,0.417-0.742c0.106-0.271,0.208-0.635,0.301-1.085l0.173,0.017
		l-0.095,2.973H65.618z"/>
	<path fill="#FFFFFF" d="M79.209,62.104v0.167c-0.275,0.012-0.5,0.054-0.674,0.117c-0.173,0.061-0.326,0.164-0.458,0.306
		c-0.159,0.161-0.263,0.365-0.315,0.606c-0.05,0.24-0.075,0.656-0.075,1.246v4.108c0,0.664,0.025,1.15,0.075,1.441
		c0.052,0.299,0.153,0.575,0.309,0.828c0.232,0.378,0.517,0.659,0.858,0.83c0.341,0.168,0.772,0.258,1.287,0.258
		c0.506,0,0.984-0.079,1.441-0.23c0.458-0.152,0.84-0.363,1.144-0.631c0.187-0.17,0.327-0.358,0.417-0.557
		c0.088-0.196,0.148-0.448,0.179-0.751c0.018-0.197,0.027-0.664,0.027-1.406v-4.053c0-0.503-0.027-0.87-0.085-1.105
		c-0.054-0.236-0.156-0.432-0.305-0.585c-0.138-0.142-0.292-0.245-0.461-0.306c-0.172-0.063-0.397-0.105-0.672-0.117v-0.167h3.344
		v0.167c-0.276,0.012-0.499,0.054-0.671,0.117c-0.17,0.061-0.325,0.164-0.461,0.306c-0.15,0.153-0.251,0.349-0.307,0.587
		c-0.055,0.241-0.083,0.603-0.083,1.104v4.573c0,0.677-0.054,1.173-0.157,1.499c-0.103,0.321-0.313,0.613-0.621,0.88
		c-0.705,0.609-1.712,0.913-3.022,0.913c-1.368,0-2.376-0.29-3.026-0.862c-0.42-0.369-0.672-0.854-0.754-1.453
		c-0.029-0.21-0.043-0.597-0.043-1.15v-4.399c0-0.503-0.025-0.87-0.079-1.105c-0.054-0.236-0.156-0.432-0.313-0.585
		c-0.131-0.142-0.28-0.245-0.454-0.306c-0.172-0.063-0.396-0.105-0.678-0.117v-0.167H79.209z"/>
	<path fill="#FFFFFF" d="M85.701,62.104h4.781v0.167c-0.336,0-0.59,0.027-0.769,0.086c-0.292,0.092-0.437,0.263-0.437,0.521
		c0,0.267,0.2,0.688,0.596,1.267L91.142,66l1.109-1.373c0.435-0.537,0.717-0.912,0.849-1.127c0.13-0.214,0.194-0.42,0.194-0.599
		c0-0.259-0.136-0.43-0.404-0.53c-0.126-0.047-0.345-0.082-0.66-0.101v-0.167h3.329v0.167c-0.37,0-0.653,0.046-0.856,0.146
		c-0.315,0.144-0.732,0.547-1.255,1.201l-0.55,0.696l-1.576,1.95l2.497,3.706c0.439,0.659,0.837,1.135,1.197,1.433
		c0.183,0.147,0.363,0.256,0.54,0.317c0.175,0.064,0.411,0.101,0.707,0.116v0.167H91.22v-0.167c0.392-0.044,0.676-0.114,0.856-0.205
		c0.289-0.145,0.437-0.346,0.437-0.606c0-0.094-0.031-0.196-0.089-0.322c-0.059-0.117-0.166-0.302-0.325-0.542l-1.769-2.686
		l-1.729,2.104c-0.268,0.326-0.457,0.596-0.567,0.808c-0.116,0.219-0.173,0.419-0.173,0.603c0,0.258,0.099,0.462,0.295,0.604
		c0.193,0.143,0.486,0.222,0.873,0.243v0.167h-3.524v-0.167c0.264-0.051,0.486-0.12,0.662-0.208
		c0.178-0.087,0.385-0.242,0.622-0.468c0.349-0.319,0.839-0.864,1.474-1.631l1.884-2.308l-2.247-3.373l-0.385-0.558
		c-0.281-0.411-0.517-0.677-0.71-0.798c-0.173-0.106-0.47-0.178-0.884-0.212c-0.049,0-0.123-0.001-0.219-0.012V62.104z"/>
	<path fill="#FFFFFF" d="M101.149,62.104v0.167c-0.276,0.012-0.501,0.054-0.675,0.117c-0.173,0.061-0.327,0.164-0.457,0.306
		c-0.158,0.161-0.265,0.365-0.315,0.606c-0.049,0.24-0.074,0.656-0.074,1.246v4.108c0,0.664,0.025,1.15,0.074,1.441
		c0.05,0.299,0.151,0.575,0.311,0.828c0.229,0.378,0.514,0.659,0.856,0.83c0.341,0.168,0.771,0.258,1.286,0.258
		c0.503,0,0.984-0.079,1.444-0.23c0.454-0.152,0.834-0.363,1.139-0.631c0.19-0.17,0.329-0.358,0.42-0.557
		c0.087-0.196,0.151-0.448,0.179-0.751c0.017-0.197,0.029-0.664,0.029-1.406v-4.053c0-0.503-0.029-0.87-0.088-1.105
		c-0.055-0.236-0.158-0.432-0.307-0.585c-0.135-0.142-0.285-0.245-0.462-0.306c-0.17-0.063-0.393-0.105-0.669-0.117v-0.167h3.347
		v0.167c-0.28,0.012-0.503,0.054-0.674,0.117c-0.174,0.061-0.325,0.164-0.46,0.306c-0.152,0.153-0.254,0.349-0.31,0.587
		c-0.059,0.241-0.086,0.603-0.086,1.104v4.573c0,0.677-0.05,1.173-0.153,1.499c-0.103,0.321-0.313,0.613-0.622,0.88
		c-0.702,0.609-1.712,0.913-3.022,0.913c-1.369,0-2.377-0.29-3.026-0.862c-0.421-0.369-0.669-0.854-0.751-1.453
		c-0.029-0.21-0.043-0.597-0.043-1.15v-4.399c0-0.503-0.028-0.87-0.081-1.105c-0.055-0.236-0.156-0.432-0.313-0.585
		c-0.131-0.142-0.282-0.245-0.453-0.306c-0.173-0.063-0.396-0.105-0.678-0.117v-0.167H101.149z"/>
	<path fill="#FFFFFF" d="M110.91,67.157v2.566c0,0.498,0.029,0.862,0.086,1.105c0.054,0.234,0.16,0.434,0.307,0.589
		c0.13,0.133,0.283,0.23,0.454,0.299c0.171,0.064,0.398,0.104,0.678,0.12v0.167h-4.634v-0.167c0.278-0.016,0.507-0.056,0.678-0.12
		c0.173-0.068,0.322-0.166,0.452-0.299c0.154-0.155,0.261-0.352,0.315-0.589c0.053-0.237,0.076-0.604,0.076-1.105v-5.34
		c0-0.503-0.023-0.87-0.076-1.105c-0.055-0.236-0.161-0.432-0.315-0.585c-0.13-0.142-0.279-0.245-0.454-0.306
		c-0.175-0.063-0.399-0.105-0.676-0.117v-0.167h3.496c0.587,0,0.969,0.004,1.153,0.008c0.748,0.035,1.333,0.134,1.764,0.306
		c0.479,0.191,0.848,0.483,1.112,0.863c0.261,0.385,0.394,0.832,0.394,1.34c0,0.751-0.282,1.357-0.854,1.813
		c-0.172,0.136-0.37,0.245-0.578,0.334c-0.21,0.087-0.495,0.168-0.841,0.248c0.286,0.12,0.503,0.248,0.646,0.376
		c0.105,0.103,0.211,0.227,0.303,0.378c0.087,0.153,0.231,0.424,0.413,0.813c0.431,0.884,0.754,1.528,0.976,1.938
		c0.22,0.412,0.405,0.707,0.553,0.89c0.119,0.15,0.243,0.254,0.354,0.313c0.115,0.057,0.269,0.095,0.469,0.116v0.167h-2.408
		c-0.121-0.268-0.2-0.435-0.237-0.507l-0.501-1.153c-0.307-0.69-0.616-1.302-0.925-1.838c-0.306-0.525-0.592-0.889-0.846-1.083
		c-0.135-0.091-0.276-0.16-0.423-0.202c-0.149-0.04-0.336-0.063-0.551-0.063H110.91z M110.91,66.998h0.277
		c0.599,0,1.031-0.034,1.287-0.103c0.257-0.069,0.5-0.207,0.728-0.416c0.508-0.487,0.764-1.088,0.764-1.802
		c0-0.382-0.074-0.74-0.225-1.076c-0.144-0.337-0.35-0.61-0.612-0.835c-0.198-0.162-0.444-0.275-0.722-0.342
		c-0.279-0.063-0.682-0.096-1.195-0.096h-0.302V66.998z"/>
	<path fill="#FFFFFF" d="M119.783,72.004v-0.167c0.275-0.016,0.498-0.052,0.673-0.116c0.172-0.062,0.33-0.163,0.465-0.303
		c0.147-0.155,0.254-0.352,0.304-0.589c0.054-0.237,0.079-0.604,0.079-1.105l0.01-1.413c0-0.201-0.044-0.426-0.124-0.673
		c-0.094-0.286-0.281-0.647-0.568-1.075l-1.875-2.822l-0.334-0.505c-0.248-0.366-0.49-0.62-0.73-0.755
		c-0.116-0.074-0.237-0.124-0.357-0.151c-0.124-0.031-0.29-0.048-0.509-0.059v-0.167h4.729v0.167
		c-0.401,0.026-0.654,0.059-0.771,0.107c-0.268,0.116-0.401,0.327-0.401,0.635c0,0.105,0.029,0.234,0.089,0.376
		c0.063,0.137,0.155,0.314,0.292,0.525l1.97,3.076l1.681-2.622l0.185-0.295c0.185-0.284,0.271-0.564,0.271-0.832
		c0-0.309-0.101-0.545-0.299-0.716c-0.197-0.169-0.472-0.255-0.834-0.255v-0.167h3.338v0.167c-0.253,0.027-0.445,0.069-0.578,0.124
		c-0.14,0.061-0.274,0.147-0.419,0.274c-0.328,0.313-0.691,0.773-1.094,1.387l-1.651,2.525c-0.201,0.296-0.319,0.518-0.365,0.659
		c-0.039,0.138-0.063,0.373-0.063,0.709v1.774c0,0.523,0.027,0.892,0.076,1.115c0.049,0.225,0.15,0.417,0.305,0.579
		c0.268,0.277,0.65,0.419,1.141,0.419v0.167H119.783z"/>
	<path fill="#FFFFFF" d="M131.241,71.973l0.021-2.995l0.167,0.007c0.204,0.763,0.445,1.365,0.726,1.804
		c0.529,0.812,1.189,1.216,1.987,1.216c0.556,0,1.019-0.188,1.378-0.558c0.364-0.375,0.542-0.843,0.542-1.413
		c0-0.247-0.037-0.499-0.115-0.758c-0.084-0.257-0.188-0.478-0.325-0.662c-0.142-0.183-0.337-0.367-0.593-0.542
		c-0.251-0.173-0.64-0.393-1.164-0.661c-0.459-0.229-0.808-0.428-1.055-0.585c-0.245-0.158-0.438-0.322-0.589-0.488
		c-0.419-0.452-0.624-1.005-0.624-1.659c0-0.403,0.083-0.791,0.24-1.164c0.165-0.369,0.391-0.683,0.681-0.953
		c0.512-0.472,1.119-0.711,1.818-0.711c0.232,0,0.439,0.024,0.631,0.069c0.198,0.042,0.453,0.136,0.777,0.273
		c0.242,0.094,0.404,0.155,0.492,0.183c0.09,0.027,0.166,0.042,0.234,0.042c0.171,0,0.283-0.123,0.339-0.37h0.168l0.052,2.879h-0.17
		c-0.129-0.458-0.24-0.813-0.336-1.058c-0.093-0.244-0.205-0.467-0.337-0.681c-0.235-0.373-0.501-0.65-0.782-0.835
		c-0.282-0.179-0.61-0.268-0.982-0.268c-0.542,0-0.968,0.181-1.284,0.547c-0.13,0.149-0.229,0.328-0.306,0.53
		c-0.073,0.208-0.111,0.405-0.111,0.61c0,0.809,0.521,1.465,1.554,1.953l1.022,0.492c0.789,0.376,1.356,0.788,1.701,1.231
		c0.396,0.51,0.597,1.093,0.597,1.76c0,0.445-0.092,0.868-0.268,1.274c-0.251,0.563-0.627,1.001-1.134,1.306
		c-0.508,0.307-1.091,0.46-1.777,0.46c-0.624,0-1.225-0.122-1.795-0.37c-0.304-0.129-0.481-0.205-0.538-0.223
		c-0.057-0.021-0.126-0.032-0.196-0.032c-0.23,0-0.396,0.12-0.479,0.349H131.241z"/>
	<path fill="#FFFFFF" d="M146.364,62.104l0.122,2.393l-0.16,0.008c-0.069-0.404-0.174-0.74-0.314-1.01
		c-0.149-0.267-0.358-0.5-0.637-0.703c-0.223-0.172-0.492-0.287-0.803-0.361c-0.31-0.067-0.719-0.101-1.232-0.101h-1.662v4.349
		h0.435c0.441,0,0.77-0.026,0.993-0.084c0.226-0.06,0.403-0.161,0.544-0.313c0.135-0.14,0.237-0.308,0.304-0.496
		c0.065-0.189,0.121-0.475,0.159-0.845l0.168,0.008l-0.027,3.886h-0.167c-0.043-0.371-0.108-0.673-0.19-0.9
		c-0.084-0.222-0.204-0.42-0.355-0.581c-0.144-0.154-0.332-0.26-0.565-0.337c-0.232-0.073-0.526-0.112-0.882-0.112h-0.415v1.663
		c0,0.661,0.02,1.144,0.052,1.445c0.033,0.304,0.096,0.556,0.196,0.757c0.163,0.349,0.413,0.605,0.751,0.767
		c0.336,0.163,0.78,0.243,1.332,0.243c0.579,0,1.064-0.072,1.457-0.22c0.393-0.146,0.709-0.379,0.957-0.686
		c0.171-0.208,0.313-0.443,0.421-0.711c0.113-0.263,0.21-0.614,0.306-1.05l0.164,0.009l-0.094,2.884h-8.655v-0.167
		c0.28-0.016,0.503-0.052,0.676-0.116c0.17-0.062,0.322-0.163,0.459-0.303c0.149-0.155,0.252-0.354,0.303-0.589
		c0.056-0.243,0.087-0.607,0.087-1.105v-5.34c0-0.501-0.031-0.862-0.087-1.104c-0.051-0.238-0.153-0.434-0.303-0.587
		c-0.13-0.142-0.281-0.245-0.456-0.306c-0.169-0.063-0.395-0.105-0.679-0.117v-0.167H146.364z"/>
	<path fill="#FFFFFF" d="M150.932,67.157v2.566c0,0.498,0.026,0.862,0.085,1.105c0.057,0.234,0.155,0.434,0.31,0.589
		c0.132,0.133,0.281,0.23,0.452,0.299c0.169,0.064,0.398,0.104,0.679,0.12v0.167h-4.637v-0.167c0.281-0.016,0.506-0.056,0.681-0.12
		c0.17-0.068,0.322-0.166,0.453-0.299c0.154-0.155,0.258-0.352,0.312-0.589c0.048-0.237,0.079-0.604,0.079-1.105v-5.34
		c0-0.503-0.031-0.87-0.079-1.105c-0.054-0.236-0.157-0.432-0.312-0.585c-0.131-0.142-0.284-0.245-0.457-0.306
		c-0.175-0.063-0.4-0.105-0.677-0.117v-0.167h3.496c0.585,0,0.972,0.004,1.151,0.008c0.751,0.035,1.342,0.134,1.765,0.306
		c0.479,0.191,0.852,0.483,1.114,0.863c0.264,0.385,0.396,0.832,0.396,1.34c0,0.751-0.289,1.357-0.856,1.813
		c-0.175,0.136-0.367,0.245-0.576,0.334c-0.21,0.087-0.492,0.168-0.846,0.248c0.289,0.12,0.507,0.248,0.645,0.376
		c0.115,0.103,0.212,0.227,0.304,0.378c0.095,0.153,0.23,0.424,0.413,0.813c0.434,0.884,0.757,1.528,0.978,1.938
		c0.221,0.412,0.404,0.707,0.554,0.89c0.124,0.15,0.239,0.254,0.351,0.313c0.117,0.057,0.271,0.095,0.473,0.116v0.167h-2.41
		c-0.119-0.268-0.197-0.435-0.229-0.507l-0.512-1.153c-0.305-0.69-0.613-1.302-0.918-1.838c-0.312-0.525-0.59-0.889-0.853-1.083
		c-0.127-0.091-0.269-0.16-0.422-0.202c-0.15-0.04-0.333-0.063-0.548-0.063H150.932z M150.932,66.998h0.277
		c0.6,0,1.026-0.034,1.286-0.103c0.26-0.069,0.503-0.207,0.731-0.416c0.506-0.487,0.761-1.088,0.761-1.802
		c0-0.382-0.072-0.74-0.222-1.076c-0.147-0.337-0.351-0.61-0.612-0.835c-0.206-0.162-0.445-0.275-0.728-0.342
		c-0.276-0.063-0.676-0.096-1.197-0.096h-0.297V66.998z"/>
	<path fill="#FFFFFF" d="M156.838,62.104h4.785v0.167c-0.364,0.035-0.627,0.088-0.785,0.169c-0.145,0.071-0.271,0.18-0.363,0.332
		c-0.093,0.156-0.136,0.32-0.136,0.497c0,0.129,0.015,0.236,0.035,0.337c0.025,0.094,0.097,0.305,0.22,0.628l2.146,5.836
		l2.079-5.117c0.295-0.719,0.438-1.242,0.438-1.568c0-0.188-0.034-0.359-0.088-0.517c-0.055-0.162-0.136-0.286-0.227-0.373
		c-0.101-0.084-0.211-0.138-0.323-0.175c-0.118-0.033-0.265-0.049-0.45-0.049v-0.167h3.228v0.167
		c-0.268,0.026-0.495,0.088-0.693,0.196c-0.195,0.103-0.385,0.265-0.563,0.485c-0.12,0.151-0.246,0.366-0.378,0.634
		c-0.134,0.268-0.316,0.683-0.551,1.242l-2.969,7.176h-0.309l-2.884-7.412c-0.383-0.974-0.681-1.59-0.906-1.849
		c-0.148-0.166-0.323-0.284-0.534-0.362c-0.211-0.075-0.471-0.11-0.771-0.11V62.104z"/>
	<path fill="#FFFFFF" d="M172.138,62.104v0.167c-0.271,0.012-0.5,0.054-0.671,0.117c-0.169,0.061-0.324,0.164-0.46,0.306
		c-0.186,0.191-0.302,0.459-0.346,0.801c-0.03,0.259-0.044,0.553-0.044,0.89v5.34c0,0.402,0.017,0.719,0.058,0.952
		c0.037,0.231,0.104,0.417,0.189,0.558c0.123,0.195,0.289,0.34,0.483,0.434c0.201,0.093,0.461,0.148,0.79,0.17v0.167h-4.633v-0.167
		c0.278-0.016,0.503-0.056,0.681-0.12c0.171-0.068,0.32-0.166,0.452-0.299c0.152-0.155,0.258-0.352,0.313-0.589
		c0.051-0.237,0.078-0.604,0.078-1.105v-5.34c0-0.503-0.027-0.87-0.078-1.105c-0.055-0.236-0.16-0.432-0.313-0.585
		c-0.132-0.142-0.284-0.245-0.456-0.306c-0.175-0.063-0.402-0.105-0.677-0.117v-0.167H172.138z"/>
	<path fill="#FFFFFF" d="M181.771,62.051l0.086,3.243h-0.167c-0.053-0.137-0.092-0.248-0.122-0.321
		c-0.171-0.465-0.308-0.81-0.412-1.035c-0.191-0.405-0.464-0.779-0.823-1.115c-0.268-0.258-0.552-0.444-0.837-0.557
		c-0.294-0.119-0.621-0.173-0.981-0.173c-0.543,0-1.019,0.116-1.421,0.353c-0.353,0.208-0.682,0.507-0.987,0.894
		c-0.305,0.391-0.551,0.832-0.746,1.33c-0.274,0.702-0.415,1.502-0.415,2.396c0,0.756,0.095,1.441,0.284,2.056
		c0.188,0.604,0.465,1.118,0.826,1.523c0.668,0.768,1.553,1.149,2.656,1.149c0.55,0,1.044-0.096,1.486-0.286
		c0.437-0.192,0.777-0.46,1.024-0.812c0.275-0.398,0.479-0.941,0.607-1.619l0.167,0.028c-0.092,0.763-0.301,1.365-0.626,1.819
		c-0.308,0.43-0.737,0.762-1.279,0.982c-0.548,0.229-1.172,0.343-1.891,0.343c-0.667,0-1.302-0.098-1.915-0.3
		c-0.973-0.317-1.73-0.891-2.275-1.726c-0.547-0.837-0.821-1.831-0.821-2.983c0-0.888,0.159-1.7,0.479-2.446
		c0.321-0.748,0.764-1.351,1.336-1.803c0.438-0.35,0.963-0.629,1.575-0.833c0.611-0.21,1.227-0.309,1.841-0.309
		c0.583,0,1.203,0.107,1.854,0.333l0.596,0.195c0.115,0.043,0.218,0.067,0.307,0.067c0.12,0,0.221-0.051,0.294-0.151
		c0.038-0.051,0.078-0.131,0.128-0.243H181.771z"/>
	<path fill="#FFFFFF" d="M190.593,62.104l0.119,2.393l-0.164,0.008c-0.062-0.404-0.169-0.74-0.314-1.01
		c-0.144-0.267-0.351-0.5-0.632-0.703c-0.225-0.172-0.491-0.287-0.801-0.361c-0.312-0.067-0.722-0.101-1.234-0.101h-1.661v4.349
		h0.437c0.438,0,0.769-0.026,0.994-0.084c0.223-0.06,0.403-0.161,0.544-0.313c0.134-0.14,0.236-0.308,0.299-0.496
		c0.064-0.189,0.121-0.475,0.163-0.845l0.171,0.008l-0.034,3.886h-0.166c-0.042-0.371-0.109-0.673-0.189-0.9
		c-0.086-0.222-0.205-0.42-0.353-0.581c-0.147-0.154-0.336-0.26-0.568-0.337c-0.229-0.073-0.523-0.112-0.883-0.112h-0.414v1.663
		c0,0.661,0.016,1.144,0.05,1.445c0.035,0.304,0.101,0.556,0.196,0.757c0.167,0.349,0.415,0.605,0.752,0.767
		c0.331,0.163,0.778,0.243,1.327,0.243c0.582,0,1.069-0.072,1.459-0.22c0.395-0.146,0.71-0.379,0.961-0.686
		c0.174-0.208,0.313-0.443,0.424-0.711c0.109-0.263,0.21-0.614,0.299-1.05l0.167,0.009l-0.096,2.884h-8.65v-0.167
		c0.276-0.016,0.498-0.052,0.669-0.116c0.174-0.062,0.329-0.163,0.462-0.303c0.151-0.155,0.255-0.354,0.308-0.589
		c0.056-0.243,0.086-0.607,0.086-1.105v-5.34c0-0.501-0.03-0.862-0.086-1.104c-0.053-0.238-0.156-0.434-0.308-0.587
		c-0.13-0.142-0.28-0.245-0.454-0.306c-0.17-0.063-0.395-0.105-0.677-0.117v-0.167H190.593z"/>
	<path fill="#FFFFFF" d="M192.404,71.973l0.021-2.995l0.166,0.007c0.205,0.763,0.445,1.365,0.725,1.804
		c0.529,0.812,1.188,1.216,1.988,1.216c0.559,0,1.019-0.188,1.378-0.558c0.365-0.375,0.542-0.843,0.542-1.413
		c0-0.247-0.039-0.499-0.115-0.758c-0.081-0.257-0.19-0.478-0.323-0.662c-0.139-0.183-0.341-0.367-0.595-0.542
		c-0.253-0.173-0.638-0.393-1.164-0.661c-0.458-0.229-0.809-0.428-1.057-0.585c-0.24-0.158-0.434-0.322-0.589-0.488
		c-0.415-0.452-0.619-1.005-0.619-1.659c0-0.403,0.077-0.791,0.24-1.164c0.162-0.369,0.387-0.683,0.681-0.953
		c0.51-0.472,1.117-0.711,1.818-0.711c0.225,0,0.437,0.024,0.629,0.069c0.196,0.042,0.452,0.136,0.777,0.273
		c0.239,0.094,0.403,0.155,0.489,0.183c0.093,0.027,0.167,0.042,0.233,0.042c0.174,0,0.287-0.123,0.345-0.37h0.163l0.053,2.879
		h-0.167c-0.13-0.458-0.246-0.813-0.338-1.058c-0.094-0.244-0.203-0.467-0.334-0.681c-0.239-0.373-0.5-0.65-0.785-0.835
		c-0.283-0.179-0.611-0.268-0.983-0.268c-0.541,0-0.968,0.181-1.282,0.547c-0.128,0.149-0.23,0.328-0.308,0.53
		c-0.074,0.208-0.112,0.405-0.112,0.61c0,0.809,0.521,1.465,1.559,1.953l1.019,0.492c0.788,0.376,1.357,0.788,1.703,1.231
		c0.396,0.51,0.595,1.093,0.595,1.76c0,0.445-0.089,0.868-0.267,1.274c-0.254,0.563-0.628,1.001-1.131,1.306
		c-0.507,0.307-1.095,0.46-1.778,0.46c-0.624,0-1.224-0.122-1.8-0.37c-0.299-0.129-0.478-0.205-0.535-0.223
		c-0.059-0.021-0.124-0.032-0.197-0.032c-0.231,0-0.395,0.12-0.479,0.349H192.404z"/>
</g>
<g>
	<path fill="#FFFFFF" d="M20.686,79.696c0.447,0,0.884,0.102,1.301,0.299c0.198,0.092,0.334,0.139,0.411,0.139
		c0.055,0,0.144-0.013,0.269-0.04c0.039-0.011,0.083-0.016,0.133-0.016c0.159,0,0.301,0.073,0.421,0.221
		c0.295,0.36,0.441,0.8,0.441,1.331c0,0.372-0.126,0.644-0.383,0.817c-0.138,0.093-0.293,0.137-0.465,0.137
		c-0.159,0-0.286-0.032-0.385-0.097c-0.099-0.074-0.191-0.192-0.286-0.363c-0.132-0.242-0.24-0.417-0.323-0.523
		c-0.082-0.107-0.184-0.203-0.304-0.291c-0.3-0.209-0.612-0.313-0.938-0.313c-0.316,0-0.567,0.116-0.754,0.345
		c-0.188,0.228-0.279,0.536-0.279,0.921c0,0.529,0.134,1.014,0.401,1.455c0.362,0.587,0.884,0.882,1.561,0.882
		c0.25,0,0.497-0.043,0.743-0.124c0.244-0.084,0.433-0.193,0.569-0.323c0.116-0.11,0.212-0.169,0.286-0.169
		c0.108,0,0.2,0.051,0.277,0.151c0.078,0.102,0.116,0.221,0.116,0.361c0,0.181-0.054,0.379-0.162,0.604
		c-0.109,0.219-0.238,0.394-0.388,0.521c-0.064,0.051-0.201,0.097-0.401,0.139c-0.117,0.021-0.273,0.073-0.467,0.17
		c-0.455,0.217-0.93,0.327-1.421,0.327c-0.515,0-1.028-0.116-1.539-0.347c-0.592-0.267-1.064-0.68-1.409-1.234
		c-0.34-0.538-0.507-1.102-0.507-1.69c0-0.682,0.212-1.306,0.637-1.869c0.37-0.489,0.852-0.862,1.447-1.121
		C19.739,79.798,20.204,79.696,20.686,79.696z"/>
	<path fill="#FFFFFF" d="M33.076,82.939l0.872,1.871c0.083,0.172,0.154,0.289,0.208,0.339c0.057,0.054,0.14,0.091,0.254,0.111
		c0.223,0.033,0.333,0.144,0.333,0.337c0,0.225-0.135,0.386-0.406,0.484c-0.27,0.097-0.713,0.147-1.331,0.147
		c-0.695,0-1.21-0.028-1.545-0.089c-0.156-0.029-0.277-0.086-0.369-0.171c-0.091-0.082-0.136-0.187-0.136-0.303
		c0-0.093,0.023-0.167,0.072-0.218c0.048-0.05,0.136-0.097,0.265-0.14c0.145-0.049,0.218-0.131,0.218-0.247
		c0-0.208-0.125-0.33-0.375-0.367c-0.269-0.038-0.645-0.057-1.132-0.057c-0.408,0-0.654,0.025-0.734,0.074
		c-0.049,0.03-0.093,0.086-0.127,0.165c-0.039,0.084-0.057,0.159-0.057,0.232c0,0.069,0.013,0.113,0.04,0.132
		c0.024,0.021,0.11,0.053,0.255,0.099c0.188,0.056,0.282,0.168,0.282,0.334c0,0.366-0.439,0.549-1.316,0.549
		c-0.498,0-0.864-0.031-1.099-0.104c-0.216-0.064-0.323-0.204-0.323-0.421c0-0.096,0.023-0.17,0.072-0.225
		c0.048-0.051,0.133-0.098,0.256-0.141c0.2-0.072,0.352-0.172,0.455-0.296c0.103-0.132,0.25-0.403,0.441-0.821l0.651-1.429
		c0.241-0.523,0.401-0.912,0.482-1.173c0.082-0.259,0.124-0.518,0.128-0.766c0.002-0.267,0.017-0.448,0.046-0.553
		c0.029-0.101,0.096-0.202,0.197-0.301c0.211-0.217,0.482-0.322,0.813-0.322c0.311,0,0.607,0.12,0.892,0.361
		C31.751,80.37,32.324,81.337,33.076,82.939z M29.861,83.521h0.905c0.166,0,0.25-0.037,0.25-0.109c0-0.101-0.115-0.352-0.346-0.748
		c-0.105-0.18-0.186-0.302-0.24-0.366c-0.056-0.063-0.114-0.09-0.176-0.09c-0.111,0-0.203,0.104-0.275,0.31
		c-0.013,0.027-0.058,0.139-0.135,0.328c-0.129,0.312-0.194,0.5-0.194,0.562C29.649,83.483,29.72,83.521,29.861,83.521z"/>
	<path fill="#FFFFFF" d="M40.673,86.127l-0.619,0.004c-0.433,0.006-0.749,0.016-0.949,0.024c-0.18,0.02-0.307,0.026-0.385,0.026
		c-0.188,0-0.336-0.05-0.447-0.145c-0.108-0.093-0.163-0.208-0.163-0.339c0-0.086,0.021-0.155,0.062-0.205
		c0.04-0.047,0.137-0.125,0.29-0.23c0.09-0.061,0.152-0.156,0.186-0.287c0.034-0.134,0.071-0.41,0.11-0.844
		c0.06-0.671,0.088-1.497,0.088-2.481c0-0.359-0.024-0.596-0.071-0.717c-0.048-0.118-0.16-0.213-0.334-0.291
		c-0.205-0.088-0.304-0.212-0.304-0.381c0-0.133,0.059-0.247,0.182-0.334c0.121-0.084,0.277-0.128,0.468-0.128
		c0.105,0,0.239,0.004,0.402,0.013c0.271,0.012,0.565,0.022,0.877,0.022c0.231,0,0.686-0.013,1.363-0.031
		c0.213-0.006,0.404-0.006,0.578-0.006c0.409,0,0.739,0.029,0.989,0.097c0.252,0.065,0.469,0.177,0.654,0.336
		c0.302,0.255,0.453,0.596,0.453,1.024c0,0.213-0.044,0.419-0.135,0.62c-0.089,0.204-0.208,0.364-0.358,0.483
		c-0.108,0.085-0.163,0.163-0.163,0.237c0,0.076,0.065,0.141,0.193,0.191c0.252,0.102,0.483,0.272,0.688,0.514
		c0.212,0.249,0.318,0.563,0.318,0.938c0,0.441-0.161,0.847-0.484,1.215c-0.429,0.48-1.061,0.725-1.899,0.725
		c-0.114,0-0.394-0.008-0.84-0.023C41.016,86.139,40.768,86.131,40.673,86.127z M40.992,81.116v0.949
		c0,0.154,0.02,0.258,0.059,0.321c0.039,0.061,0.105,0.093,0.202,0.093c0.228,0,0.395-0.07,0.504-0.211
		c0.107-0.14,0.16-0.358,0.16-0.656c0-0.29-0.055-0.516-0.165-0.673c-0.11-0.156-0.268-0.237-0.472-0.237
		c-0.107,0-0.181,0.027-0.223,0.09C41.013,80.85,40.992,80.959,40.992,81.116z M40.992,83.777v0.438
		c0,0.402,0.031,0.669,0.089,0.804c0.059,0.13,0.176,0.196,0.356,0.196c0.467,0,0.701-0.272,0.701-0.821
		c0-0.682-0.261-1.026-0.785-1.026c-0.137,0-0.23,0.032-0.282,0.09C41.02,83.52,40.992,83.621,40.992,83.777z"/>
	<path fill="#FFFFFF" d="M50.175,79.733c0.351,0,0.681,0.027,0.992,0.089c0.419,0.083,0.629,0.263,0.629,0.532
		c0,0.088-0.021,0.153-0.063,0.202c-0.041,0.044-0.147,0.109-0.315,0.196c-0.141,0.069-0.235,0.225-0.281,0.464
		c-0.043,0.243-0.065,0.709-0.065,1.404c0,1.176,0.028,1.904,0.088,2.187c0.021,0.089,0.053,0.155,0.1,0.205
		c0.043,0.047,0.122,0.098,0.231,0.154c0.204,0.094,0.306,0.226,0.306,0.399c0,0.25-0.189,0.417-0.563,0.507
		c-0.407,0.102-0.904,0.15-1.492,0.15c-1.004,0-1.506-0.192-1.506-0.571c0-0.141,0.099-0.268,0.296-0.39
		c0.15-0.092,0.24-0.218,0.268-0.379c0.058-0.35,0.088-1.095,0.088-2.233c0-0.788-0.041-1.291-0.121-1.515
		c-0.043-0.127-0.146-0.243-0.309-0.344c-0.128-0.082-0.213-0.149-0.255-0.207c-0.043-0.054-0.064-0.127-0.064-0.212
		c0-0.133,0.064-0.237,0.19-0.315c0.129-0.079,0.354-0.152,0.676-0.212C49.393,79.77,49.78,79.733,50.175,79.733z"/>
	<path fill="#FFFFFF" d="M57.895,80.051l2.301,2.011c0.215,0.188,0.37,0.284,0.465,0.284c0.159,0,0.239-0.174,0.239-0.513
		c0-0.389-0.023-0.654-0.069-0.797c-0.045-0.142-0.143-0.246-0.291-0.315c-0.122-0.058-0.205-0.123-0.253-0.189
		c-0.048-0.065-0.074-0.149-0.074-0.254c0-0.261,0.174-0.43,0.529-0.499c0.146-0.032,0.4-0.045,0.76-0.045
		c0.464,0,0.786,0.024,0.964,0.079c0.284,0.088,0.425,0.254,0.425,0.491c0,0.198-0.115,0.355-0.348,0.452
		c-0.091,0.039-0.154,0.074-0.188,0.107c-0.033,0.029-0.063,0.076-0.089,0.137c-0.082,0.202-0.125,0.589-0.127,1.157v1.502
		c0,0.231,0.001,0.547,0.003,0.948c0.003,0.54-0.029,0.931-0.096,1.176c-0.084,0.295-0.233,0.446-0.452,0.446
		c-0.096,0-0.179-0.02-0.247-0.06c-0.069-0.042-0.184-0.135-0.345-0.28l-2.739-2.451c-0.189-0.171-0.348-0.256-0.476-0.256
		c-0.187,0-0.281,0.259-0.281,0.776c0,0.432,0.024,0.722,0.072,0.879c0.048,0.158,0.146,0.272,0.294,0.35
		c0.206,0.099,0.309,0.23,0.309,0.396c0,0.425-0.46,0.641-1.381,0.641c-0.416,0-0.737-0.053-0.968-0.165
		c-0.229-0.109-0.344-0.262-0.344-0.461c0-0.105,0.021-0.188,0.065-0.238c0.042-0.052,0.141-0.125,0.291-0.212
		c0.144-0.085,0.231-0.236,0.263-0.456c0.053-0.397,0.079-0.968,0.079-1.718c0-0.789-0.047-1.37-0.139-1.73
		c-0.034-0.135-0.078-0.234-0.129-0.298c-0.053-0.065-0.139-0.124-0.259-0.183c-0.137-0.069-0.235-0.136-0.288-0.201
		c-0.053-0.064-0.08-0.143-0.08-0.234c0-0.295,0.254-0.481,0.761-0.561c0.173-0.023,0.476-0.033,0.906-0.033
		c0.247,0,0.424,0.018,0.538,0.055C57.606,79.824,57.74,79.912,57.895,80.051z"/>
	<path fill="#FFFFFF" d="M67.405,79.827h2.374c0.48,0,0.831-0.008,1.05-0.029c0.221-0.02,0.435-0.06,0.645-0.123
		c0.064-0.018,0.115-0.029,0.153-0.029c0.158,0,0.301,0.089,0.424,0.26c0.204,0.281,0.304,0.619,0.304,1.018
		c0,0.199-0.042,0.355-0.126,0.471c-0.085,0.117-0.201,0.175-0.35,0.175c-0.102,0-0.18-0.02-0.237-0.062
		c-0.058-0.041-0.135-0.137-0.229-0.278c-0.136-0.209-0.308-0.345-0.516-0.415c-0.206-0.07-0.55-0.104-1.022-0.104
		c-0.353,0-0.57,0.062-0.647,0.189c-0.041,0.067-0.063,0.156-0.07,0.273c-0.008,0.114-0.012,0.403-0.012,0.872
		c0,0.185,0.03,0.301,0.092,0.344c0.06,0.044,0.222,0.066,0.484,0.066c0.129,0,0.223-0.027,0.281-0.082
		c0.06-0.051,0.097-0.15,0.112-0.285c0.021-0.182,0.044-0.303,0.065-0.372c0.025-0.063,0.066-0.122,0.128-0.171
		c0.065-0.057,0.141-0.08,0.227-0.08c0.125,0,0.233,0.058,0.324,0.178c0.063,0.09,0.119,0.248,0.164,0.473
		c0.044,0.228,0.067,0.464,0.067,0.708c0,0.487-0.076,0.888-0.228,1.195c-0.083,0.17-0.209,0.256-0.377,0.256
		c-0.105,0-0.178-0.027-0.217-0.082c-0.041-0.054-0.071-0.163-0.092-0.334c-0.046-0.347-0.25-0.521-0.611-0.521
		c-0.138,0-0.232,0.044-0.283,0.132c-0.051,0.086-0.077,0.251-0.077,0.486c0,0.146,0.011,0.333,0.031,0.562
		c0.019,0.232,0.04,0.383,0.062,0.454c0.025,0.094,0.1,0.158,0.228,0.193c0.127,0.036,0.341,0.052,0.64,0.052
		c0.461,0,0.809-0.056,1.042-0.175c0.235-0.12,0.426-0.337,0.573-0.646c0.085-0.179,0.164-0.298,0.234-0.359
		c0.069-0.063,0.158-0.094,0.271-0.094c0.129,0,0.234,0.058,0.321,0.169c0.083,0.113,0.125,0.255,0.125,0.424
		c0,0.183-0.047,0.416-0.142,0.691c-0.096,0.277-0.212,0.522-0.352,0.74c-0.072,0.103-0.128,0.173-0.175,0.212
		c-0.045,0.034-0.104,0.052-0.177,0.052c-0.057,0-0.142-0.01-0.252-0.027c-0.198-0.041-0.461-0.062-0.79-0.071h-3.917
		c-0.156,0-0.278-0.035-0.364-0.104c-0.085-0.071-0.128-0.167-0.128-0.294c0-0.089,0.018-0.152,0.055-0.195
		c0.038-0.038,0.121-0.089,0.253-0.15c0.092-0.039,0.16-0.09,0.206-0.147c0.045-0.057,0.079-0.143,0.104-0.258
		c0.101-0.466,0.152-1.092,0.152-1.88c0-1.188-0.074-1.94-0.223-2.249c-0.032-0.062-0.064-0.104-0.101-0.129
		c-0.037-0.023-0.114-0.055-0.23-0.086c-0.176-0.057-0.265-0.173-0.265-0.355c0-0.097,0.029-0.185,0.089-0.261
		c0.058-0.077,0.135-0.128,0.231-0.153C66.828,79.843,67.059,79.827,67.405,79.827z"/>
	<path fill="#FFFFFF" d="M78.199,79.827h2.435c0.262-0.008,0.5-0.043,0.714-0.105c0.094-0.025,0.175-0.037,0.246-0.037
		c0.25,0,0.491,0.185,0.727,0.553c0.236,0.371,0.354,0.751,0.354,1.143c0,0.27-0.082,0.464-0.245,0.584
		c-0.123,0.097-0.271,0.141-0.443,0.141c-0.162,0-0.306-0.044-0.425-0.136s-0.239-0.241-0.355-0.449
		c-0.102-0.191-0.183-0.317-0.241-0.376c-0.057-0.056-0.129-0.089-0.211-0.089c-0.114,0-0.197,0.048-0.246,0.144
		c-0.048,0.099-0.073,0.254-0.073,0.475v2.584c0,0.265,0.026,0.456,0.083,0.577c0.056,0.121,0.16,0.213,0.313,0.276
		c0.166,0.073,0.278,0.139,0.339,0.201c0.062,0.064,0.091,0.147,0.091,0.263c0,0.223-0.151,0.382-0.452,0.492
		c-0.299,0.108-0.76,0.163-1.381,0.163c-0.764,0-1.331-0.063-1.701-0.192c-0.311-0.104-0.465-0.272-0.465-0.507
		c0-0.126,0.057-0.223,0.165-0.296c0.028-0.013,0.137-0.05,0.327-0.109c0.118-0.035,0.198-0.098,0.242-0.194
		c0.046-0.096,0.081-0.28,0.11-0.549c0.024-0.243,0.048-0.628,0.069-1.165c0.021-0.538,0.033-1.005,0.033-1.4
		c0-0.275-0.022-0.471-0.065-0.588c-0.042-0.117-0.114-0.177-0.212-0.177c-0.12,0-0.237,0.087-0.351,0.258
		c-0.206,0.317-0.375,0.523-0.508,0.626c-0.157,0.12-0.311,0.176-0.457,0.176c-0.167,0-0.303-0.062-0.412-0.186
		c-0.107-0.125-0.162-0.283-0.162-0.476c0-0.191,0.044-0.402,0.129-0.633c0.087-0.229,0.202-0.439,0.346-0.633
		c0.234-0.315,0.465-0.473,0.694-0.473c0.061,0,0.132,0.01,0.212,0.03c0.167,0.032,0.302,0.056,0.41,0.066
		C77.938,79.82,78.061,79.827,78.199,79.827z"/>
	<path fill="#FFFFFF" d="M93.641,86.131h-0.332c-0.194,0-0.412,0.01-0.652,0.024c-0.151,0.016-0.256,0.023-0.315,0.023
		c-0.206,0-0.373-0.048-0.503-0.145c-0.128-0.094-0.194-0.218-0.194-0.374c0-0.106,0.029-0.19,0.087-0.25
		c0.055-0.062,0.148-0.112,0.28-0.147c0.12-0.029,0.204-0.079,0.249-0.152c0.04-0.065,0.077-0.199,0.101-0.401
		c0.024-0.229,0.047-0.68,0.066-1.35c0.021-0.664,0.031-1.33,0.031-1.991c0-0.256-0.02-0.429-0.06-0.515
		c-0.04-0.085-0.135-0.155-0.282-0.207c-0.213-0.081-0.318-0.216-0.318-0.414c0-0.147,0.074-0.269,0.219-0.352
		c0.146-0.083,0.352-0.126,0.612-0.126c0.085,0,0.186,0,0.307,0.003c0.256,0.009,0.442,0.015,0.562,0.015
		c0.44,0,0.938-0.015,1.492-0.039c0.118-0.01,0.262-0.012,0.436-0.012c0.708,0,1.263,0.08,1.675,0.238
		c0.608,0.242,1.068,0.648,1.374,1.213c0.273,0.5,0.412,1.091,0.412,1.781c0,0.349-0.051,0.696-0.152,1.046
		c-0.104,0.352-0.239,0.65-0.41,0.907c-0.358,0.516-0.851,0.88-1.48,1.088c-0.37,0.124-0.761,0.187-1.181,0.187l-0.559-0.021
		l-0.479-0.011C94.253,86.137,93.922,86.131,93.641,86.131z M94.611,81.124v3.575c0,0.194,0.042,0.332,0.124,0.411
		c0.083,0.084,0.221,0.124,0.416,0.124c0.899,0,1.347-0.683,1.347-2.049c0-0.754-0.104-1.339-0.312-1.757
		c-0.231-0.456-0.621-0.686-1.175-0.686c-0.146,0-0.249,0.027-0.311,0.087C94.642,80.889,94.611,80.985,94.611,81.124z"/>
	<path fill="#FFFFFF" d="M103.711,79.702c0.328,0,0.594,0.129,0.803,0.385c0.186,0.225,0.276,0.494,0.276,0.804
		c0,0.369-0.093,0.746-0.282,1.131c-0.189,0.383-0.454,0.734-0.793,1.053c-0.187,0.178-0.362,0.263-0.528,0.263
		c-0.108,0-0.208-0.027-0.294-0.088c-0.091-0.06-0.134-0.129-0.134-0.206c0-0.049,0.031-0.1,0.094-0.159
		c0.196-0.2,0.332-0.369,0.411-0.506c0.08-0.132,0.121-0.268,0.121-0.405c0-0.099-0.055-0.188-0.161-0.266
		c-0.192-0.153-0.33-0.301-0.412-0.44c-0.082-0.145-0.12-0.313-0.12-0.504c0-0.307,0.095-0.558,0.287-0.756
		C103.169,79.808,103.416,79.707,103.711,79.702z"/>
	<path fill="#FFFFFF" d="M113.897,82.939l0.869,1.871c0.083,0.172,0.152,0.289,0.206,0.339c0.059,0.054,0.142,0.091,0.257,0.111
		c0.221,0.033,0.332,0.144,0.332,0.337c0,0.225-0.136,0.386-0.406,0.484c-0.27,0.097-0.715,0.147-1.33,0.147
		c-0.697,0-1.21-0.028-1.546-0.089c-0.155-0.029-0.277-0.086-0.369-0.171c-0.09-0.082-0.136-0.187-0.136-0.303
		c0-0.093,0.021-0.167,0.069-0.218c0.049-0.05,0.139-0.097,0.269-0.14c0.144-0.049,0.215-0.131,0.215-0.247
		c0-0.208-0.124-0.33-0.372-0.367c-0.269-0.038-0.645-0.057-1.13-0.057c-0.412,0-0.654,0.025-0.737,0.074
		c-0.05,0.03-0.093,0.086-0.129,0.165c-0.037,0.084-0.055,0.159-0.055,0.232c0,0.069,0.011,0.113,0.038,0.132
		c0.027,0.021,0.113,0.053,0.259,0.099c0.187,0.056,0.282,0.168,0.282,0.334c0,0.366-0.441,0.549-1.315,0.549
		c-0.5,0-0.866-0.031-1.103-0.104c-0.214-0.064-0.32-0.204-0.32-0.421c0-0.096,0.022-0.17,0.069-0.225
		c0.048-0.051,0.132-0.098,0.256-0.141c0.202-0.072,0.352-0.172,0.455-0.296c0.103-0.132,0.252-0.403,0.443-0.821l0.647-1.429
		c0.242-0.523,0.402-0.912,0.486-1.173c0.081-0.259,0.122-0.518,0.126-0.766c0.002-0.267,0.02-0.448,0.047-0.553
		c0.031-0.101,0.095-0.202,0.195-0.301c0.212-0.217,0.485-0.322,0.814-0.322c0.313,0,0.607,0.12,0.891,0.361
		C112.571,80.37,113.144,81.337,113.897,82.939z M110.679,83.521h0.907c0.165,0,0.247-0.037,0.247-0.109
		c0-0.101-0.113-0.352-0.343-0.748c-0.105-0.18-0.186-0.302-0.242-0.366c-0.057-0.063-0.115-0.09-0.177-0.09
		c-0.108,0-0.201,0.104-0.275,0.31c-0.012,0.027-0.057,0.139-0.134,0.328c-0.131,0.312-0.194,0.5-0.194,0.562
		C110.468,83.483,110.537,83.521,110.679,83.521z"/>
	<path fill="#FFFFFF" d="M122.374,80.78c-0.212,0-0.345,0.053-0.393,0.159c-0.036,0.08-0.072,0.239-0.101,0.475
		c-0.035,0.232-0.048,0.444-0.048,0.634c0,0.115,0.034,0.193,0.107,0.237c0.072,0.043,0.212,0.062,0.414,0.062
		c0.138,0,0.238-0.023,0.304-0.073c0.064-0.048,0.108-0.13,0.132-0.249c0.071-0.336,0.215-0.502,0.435-0.502
		c0.375,0,0.565,0.452,0.565,1.348c0,0.571-0.084,0.988-0.247,1.257c-0.099,0.161-0.235,0.246-0.405,0.246
		c-0.186,0-0.288-0.124-0.316-0.369c-0.014-0.152-0.033-0.262-0.057-0.33c-0.023-0.064-0.066-0.126-0.13-0.185
		c-0.102-0.095-0.249-0.144-0.444-0.144c-0.139,0-0.232,0.026-0.283,0.073c-0.048,0.05-0.067,0.146-0.063,0.286
		c0,0.023,0,0.165-0.004,0.427c0,0.532,0.057,0.857,0.167,0.975c0.037,0.045,0.073,0.077,0.112,0.09
		c0.035,0.014,0.139,0.033,0.299,0.057c0.082,0.013,0.15,0.055,0.204,0.124c0.057,0.072,0.086,0.153,0.086,0.244
		c0,0.239-0.14,0.391-0.417,0.461c-0.396,0.096-0.962,0.142-1.684,0.142c-0.636,0-1.072-0.035-1.313-0.112
		c-0.107-0.033-0.195-0.096-0.263-0.182c-0.069-0.09-0.104-0.189-0.104-0.294c0-0.14,0.051-0.248,0.149-0.329
		c0.023-0.021,0.109-0.058,0.251-0.118c0.175-0.066,0.277-0.223,0.311-0.472c0.057-0.377,0.084-1.241,0.084-2.591
		c0-0.581-0.021-0.956-0.061-1.13c-0.038-0.171-0.135-0.29-0.29-0.357c-0.156-0.072-0.253-0.131-0.302-0.181
		c-0.05-0.053-0.072-0.122-0.072-0.221c0-0.132,0.066-0.247,0.197-0.339c0.133-0.09,0.297-0.137,0.49-0.137
		c0.122,0,0.305,0.011,0.542,0.027c0.501,0.042,1.101,0.059,1.8,0.059c1.116,0,1.87-0.027,2.257-0.09
		c0.057-0.005,0.093-0.011,0.122-0.011c0.107,0,0.209,0.062,0.308,0.185c0.273,0.348,0.409,0.731,0.409,1.146
		c0,0.191-0.044,0.345-0.136,0.457c-0.089,0.115-0.208,0.172-0.35,0.172c-0.109,0-0.19-0.021-0.246-0.064
		c-0.055-0.042-0.197-0.192-0.427-0.453c-0.135-0.158-0.305-0.262-0.5-0.313C123.273,80.826,122.908,80.794,122.374,80.78z"/>
	<path fill="#FFFFFF" d="M131.872,80.78c-0.213,0-0.343,0.053-0.392,0.159c-0.037,0.08-0.074,0.239-0.104,0.475
		c-0.032,0.232-0.049,0.444-0.049,0.634c0,0.115,0.036,0.193,0.109,0.237c0.072,0.043,0.212,0.062,0.419,0.062
		c0.135,0,0.233-0.023,0.299-0.073c0.062-0.048,0.107-0.13,0.131-0.249c0.073-0.336,0.217-0.502,0.436-0.502
		c0.378,0,0.564,0.452,0.564,1.348c0,0.571-0.083,0.988-0.246,1.257c-0.097,0.161-0.235,0.246-0.405,0.246
		c-0.182,0-0.286-0.124-0.316-0.369c-0.015-0.152-0.034-0.262-0.058-0.33c-0.023-0.064-0.066-0.126-0.129-0.185
		c-0.102-0.095-0.252-0.144-0.445-0.144c-0.139,0-0.231,0.026-0.282,0.073c-0.048,0.05-0.069,0.146-0.063,0.286
		c0,0.023-0.001,0.165-0.005,0.427c0,0.532,0.056,0.857,0.167,0.975c0.036,0.045,0.073,0.077,0.112,0.09
		c0.037,0.014,0.14,0.033,0.304,0.057c0.076,0.013,0.146,0.055,0.2,0.124c0.058,0.072,0.085,0.153,0.085,0.244
		c0,0.239-0.14,0.391-0.417,0.461c-0.396,0.096-0.962,0.142-1.685,0.142c-0.635,0-1.071-0.035-1.311-0.112
		c-0.109-0.033-0.197-0.096-0.264-0.182c-0.069-0.09-0.101-0.189-0.101-0.294c0-0.14,0.047-0.248,0.146-0.329
		c0.023-0.021,0.108-0.058,0.255-0.118c0.171-0.066,0.272-0.223,0.306-0.472c0.057-0.377,0.083-1.241,0.083-2.591
		c0-0.581-0.02-0.956-0.059-1.13c-0.039-0.171-0.136-0.29-0.29-0.357c-0.151-0.072-0.255-0.131-0.303-0.181
		c-0.047-0.053-0.072-0.122-0.072-0.221c0-0.132,0.066-0.247,0.2-0.339c0.132-0.09,0.295-0.137,0.488-0.137
		c0.124,0,0.305,0.011,0.542,0.027c0.5,0.042,1.101,0.059,1.799,0.059c1.117,0,1.872-0.027,2.259-0.09
		c0.051-0.005,0.091-0.011,0.12-0.011c0.108,0,0.21,0.062,0.312,0.185c0.269,0.348,0.404,0.731,0.404,1.146
		c0,0.191-0.045,0.345-0.135,0.457c-0.088,0.115-0.204,0.172-0.352,0.172c-0.106,0-0.186-0.021-0.244-0.064
		c-0.055-0.042-0.194-0.192-0.425-0.453c-0.137-0.158-0.304-0.262-0.5-0.313C132.77,80.826,132.405,80.794,131.872,80.78z"/>
	<path fill="#FFFFFF" d="M143.253,82.939l0.875,1.871c0.081,0.172,0.148,0.289,0.205,0.339c0.056,0.054,0.14,0.091,0.255,0.111
		c0.221,0.033,0.333,0.144,0.333,0.337c0,0.225-0.138,0.386-0.407,0.484c-0.27,0.097-0.715,0.147-1.333,0.147
		c-0.694,0-1.209-0.028-1.544-0.089c-0.152-0.029-0.279-0.086-0.368-0.171c-0.089-0.082-0.137-0.187-0.137-0.303
		c0-0.093,0.025-0.167,0.072-0.218c0.049-0.05,0.137-0.097,0.267-0.14c0.143-0.049,0.217-0.131,0.217-0.247
		c0-0.208-0.125-0.33-0.374-0.367c-0.27-0.038-0.645-0.057-1.133-0.057c-0.41,0-0.654,0.025-0.731,0.074
		c-0.051,0.03-0.094,0.086-0.131,0.165c-0.036,0.084-0.055,0.159-0.055,0.232c0,0.069,0.012,0.113,0.038,0.132
		c0.027,0.021,0.111,0.053,0.256,0.099c0.19,0.056,0.283,0.168,0.283,0.334c0,0.366-0.441,0.549-1.314,0.549
		c-0.501,0-0.865-0.031-1.101-0.104c-0.217-0.064-0.325-0.204-0.325-0.421c0-0.096,0.026-0.17,0.072-0.225
		c0.047-0.051,0.134-0.098,0.258-0.141c0.198-0.072,0.347-0.172,0.451-0.296c0.108-0.132,0.255-0.403,0.444-0.821l0.647-1.429
		c0.244-0.523,0.402-0.912,0.487-1.173c0.079-0.259,0.121-0.518,0.123-0.766c0.004-0.267,0.021-0.448,0.051-0.553
		c0.027-0.101,0.094-0.202,0.196-0.301c0.214-0.217,0.482-0.322,0.812-0.322c0.312,0,0.61,0.12,0.893,0.361
		C141.927,80.37,142.502,81.337,143.253,82.939z M140.038,83.521h0.904c0.168,0,0.249-0.037,0.249-0.109
		c0-0.101-0.112-0.352-0.345-0.748c-0.107-0.18-0.186-0.302-0.241-0.366c-0.054-0.063-0.111-0.09-0.174-0.09
		c-0.112,0-0.201,0.104-0.278,0.31c-0.012,0.027-0.059,0.139-0.134,0.328c-0.129,0.312-0.194,0.5-0.194,0.562
		C139.825,83.483,139.896,83.521,140.038,83.521z"/>
	<path fill="#FFFFFF" d="M150.326,79.733c0.347,0,0.682,0.027,0.992,0.089c0.417,0.083,0.625,0.263,0.625,0.532
		c0,0.088-0.019,0.153-0.062,0.202c-0.041,0.044-0.146,0.109-0.315,0.196c-0.144,0.069-0.232,0.225-0.281,0.464
		c-0.044,0.243-0.065,0.709-0.065,1.404c0,1.176,0.031,1.904,0.087,2.187c0.022,0.089,0.055,0.155,0.1,0.205
		c0.043,0.047,0.126,0.098,0.236,0.154c0.202,0.094,0.301,0.226,0.301,0.399c0,0.25-0.188,0.417-0.563,0.507
		c-0.405,0.102-0.902,0.15-1.491,0.15c-1.001,0-1.507-0.192-1.507-0.571c0-0.141,0.101-0.268,0.3-0.39
		c0.148-0.092,0.237-0.218,0.266-0.379c0.057-0.35,0.089-1.095,0.089-2.233c0-0.788-0.041-1.291-0.12-1.515
		c-0.045-0.127-0.147-0.243-0.309-0.344c-0.126-0.082-0.211-0.149-0.257-0.207c-0.043-0.054-0.062-0.127-0.062-0.212
		c0-0.133,0.062-0.237,0.192-0.315c0.126-0.079,0.352-0.152,0.676-0.212C149.539,79.77,149.929,79.733,150.326,79.733z"/>
	<path fill="#FFFFFF" d="M158.523,83.479c-0.117,0-0.192,0.04-0.225,0.106c-0.034,0.069-0.05,0.238-0.05,0.493
		c0,0.393,0.023,0.696,0.077,0.917c0.012,0.063,0.038,0.109,0.066,0.142c0.031,0.035,0.088,0.077,0.178,0.125
		c0.182,0.103,0.274,0.234,0.274,0.404c0,0.202-0.129,0.345-0.387,0.429c-0.255,0.086-0.688,0.128-1.302,0.128
		c-1.142,0-1.709-0.217-1.709-0.646c0-0.074,0.019-0.132,0.051-0.178c0.033-0.046,0.11-0.105,0.227-0.188
		c0.14-0.086,0.233-0.193,0.28-0.314c0.045-0.121,0.081-0.331,0.097-0.631c0.016-0.217,0.023-1.003,0.023-2.349
		c0-0.43-0.021-0.721-0.063-0.877c-0.044-0.151-0.137-0.265-0.282-0.334c-0.131-0.063-0.222-0.125-0.269-0.181
		c-0.046-0.052-0.068-0.122-0.068-0.207c0-0.113,0.042-0.213,0.13-0.296c0.087-0.091,0.207-0.153,0.368-0.188
		c0.133-0.037,0.313-0.054,0.545-0.054c0.099,0,0.354,0.017,0.759,0.046c0.079,0.008,0.199,0.009,0.365,0.009
		c0.279,0,0.645-0.017,1.11-0.055c0.292-0.023,0.499-0.034,0.615-0.034c0.658,0,1.201,0.158,1.633,0.479
		c0.389,0.281,0.582,0.682,0.582,1.19c0,0.282-0.063,0.542-0.203,0.773c-0.135,0.233-0.32,0.408-0.556,0.524
		c-0.102,0.049-0.151,0.106-0.151,0.174c0,0.093,0.076,0.162,0.227,0.221c0.322,0.115,0.562,0.293,0.711,0.527
		c0.152,0.239,0.259,0.603,0.324,1.09c0.026,0.204,0.068,0.336,0.123,0.396c0.051,0.062,0.171,0.118,0.36,0.173
		c0.061,0.019,0.111,0.059,0.147,0.117c0.038,0.061,0.062,0.126,0.062,0.204c0,0.093-0.035,0.193-0.112,0.287
		c-0.074,0.097-0.167,0.17-0.284,0.228c-0.261,0.121-0.613,0.182-1.061,0.182c-0.604,0-1.032-0.158-1.29-0.479
		c-0.116-0.138-0.217-0.317-0.299-0.535c-0.084-0.212-0.177-0.548-0.29-1.004c-0.069-0.291-0.16-0.5-0.27-0.62
		C158.88,83.555,158.724,83.489,158.523,83.479z M158.253,81.124l-0.05,1.078c0,0.01,0,0.021,0,0.041
		c0,0.11,0.018,0.185,0.049,0.223c0.032,0.035,0.099,0.055,0.198,0.055c0.27,0,0.468-0.072,0.588-0.21
		c0.127-0.14,0.185-0.362,0.185-0.674c0-0.595-0.21-0.89-0.631-0.89c-0.118,0-0.204,0.027-0.254,0.083
		C158.291,80.885,158.26,80.985,158.253,81.124z"/>
	<path fill="#FFFFFF" d="M167.048,79.827h2.369c0.483,0,0.832-0.008,1.054-0.029c0.22-0.02,0.435-0.06,0.644-0.123
		c0.063-0.018,0.116-0.029,0.153-0.029c0.161,0,0.301,0.089,0.425,0.26c0.202,0.281,0.305,0.619,0.305,1.018
		c0,0.199-0.042,0.355-0.127,0.471c-0.089,0.117-0.201,0.175-0.349,0.175c-0.101,0-0.181-0.02-0.239-0.062
		c-0.059-0.041-0.132-0.137-0.228-0.278c-0.137-0.209-0.307-0.345-0.516-0.415c-0.208-0.07-0.553-0.104-1.022-0.104
		c-0.353,0-0.57,0.062-0.646,0.189c-0.039,0.067-0.064,0.156-0.072,0.273c-0.006,0.114-0.01,0.403-0.01,0.872
		c0,0.185,0.028,0.301,0.091,0.344c0.062,0.044,0.224,0.066,0.484,0.066c0.129,0,0.226-0.027,0.281-0.082
		c0.058-0.051,0.096-0.15,0.111-0.285c0.02-0.182,0.043-0.303,0.067-0.372c0.021-0.063,0.064-0.122,0.126-0.171
		c0.062-0.057,0.14-0.08,0.226-0.08c0.124,0,0.235,0.058,0.322,0.178c0.066,0.09,0.121,0.248,0.165,0.473
		c0.047,0.228,0.069,0.464,0.069,0.708c0,0.487-0.074,0.888-0.229,1.195c-0.084,0.17-0.208,0.256-0.377,0.256
		c-0.103,0-0.18-0.027-0.219-0.082c-0.042-0.054-0.069-0.163-0.093-0.334c-0.048-0.347-0.248-0.521-0.608-0.521
		c-0.14,0-0.231,0.044-0.284,0.132c-0.051,0.086-0.075,0.251-0.075,0.486c0,0.146,0.01,0.333,0.028,0.562
		c0.02,0.232,0.043,0.383,0.064,0.454c0.023,0.094,0.1,0.158,0.226,0.193c0.127,0.036,0.343,0.052,0.641,0.052
		c0.462,0,0.811-0.056,1.042-0.175c0.234-0.12,0.429-0.337,0.576-0.646c0.086-0.179,0.162-0.298,0.231-0.359
		c0.071-0.063,0.159-0.094,0.271-0.094c0.128,0,0.235,0.058,0.32,0.169c0.083,0.113,0.126,0.255,0.126,0.424
		c0,0.183-0.047,0.416-0.144,0.691c-0.093,0.277-0.21,0.522-0.35,0.74c-0.072,0.103-0.128,0.173-0.175,0.212
		c-0.048,0.034-0.104,0.052-0.176,0.052c-0.06,0-0.144-0.01-0.253-0.027c-0.198-0.041-0.464-0.062-0.793-0.071h-3.912
		c-0.159,0-0.283-0.035-0.368-0.104c-0.085-0.071-0.128-0.167-0.128-0.294c0-0.089,0.018-0.152,0.056-0.195
		c0.035-0.038,0.123-0.089,0.255-0.15c0.092-0.039,0.162-0.09,0.204-0.147c0.044-0.057,0.079-0.143,0.103-0.258
		c0.101-0.466,0.153-1.092,0.153-1.88c0-1.188-0.073-1.94-0.219-2.249c-0.032-0.062-0.067-0.104-0.102-0.129
		c-0.039-0.023-0.114-0.055-0.235-0.086c-0.175-0.057-0.26-0.173-0.26-0.355c0-0.097,0.027-0.185,0.085-0.261
		c0.062-0.077,0.139-0.128,0.234-0.153C166.468,79.843,166.701,79.827,167.048,79.827z"/>
	<path fill="#FFFFFF" d="M178.657,79.696c0.316,0,0.731,0.082,1.248,0.235c0.064,0.02,0.11,0.028,0.148,0.028
		c0.028,0,0.121-0.028,0.275-0.082c0.051-0.019,0.101-0.03,0.157-0.03c0.206,0,0.423,0.166,0.652,0.491
		c0.231,0.329,0.344,0.639,0.344,0.937c0,0.171-0.051,0.314-0.153,0.436c-0.102,0.116-0.227,0.176-0.379,0.176
		c-0.122,0-0.222-0.023-0.297-0.074c-0.078-0.047-0.25-0.194-0.509-0.437c-0.372-0.345-0.735-0.519-1.092-0.519
		c-0.17,0-0.307,0.042-0.411,0.123c-0.104,0.086-0.154,0.194-0.154,0.329c0,0.267,0.236,0.469,0.705,0.607
		c0.638,0.186,1.047,0.324,1.224,0.41c0.787,0.382,1.177,0.943,1.177,1.685c0,0.656-0.266,1.19-0.803,1.609
		c-0.547,0.424-1.263,0.636-2.148,0.636c-0.394,0-0.809-0.047-1.247-0.142c-0.437-0.093-0.75-0.204-0.946-0.332
		c-0.145-0.098-0.282-0.311-0.398-0.642c-0.118-0.331-0.179-0.654-0.179-0.968c0-0.152,0.031-0.265,0.094-0.342
		c0.076-0.1,0.173-0.15,0.291-0.15c0.117,0,0.228,0.062,0.336,0.185c0.066,0.065,0.217,0.281,0.461,0.648
		c0.112,0.173,0.292,0.317,0.54,0.432c0.248,0.113,0.504,0.171,0.769,0.171c0.226,0,0.412-0.041,0.554-0.128
		c0.142-0.088,0.214-0.192,0.214-0.325c0-0.122-0.057-0.229-0.167-0.32c-0.111-0.09-0.288-0.174-0.54-0.248
		c-0.442-0.141-0.774-0.267-1.008-0.381c-0.231-0.117-0.443-0.261-0.646-0.438c-0.484-0.431-0.731-0.923-0.731-1.468
		c0-0.271,0.063-0.532,0.191-0.795c0.126-0.254,0.305-0.479,0.534-0.665C177.281,79.917,177.914,79.696,178.657,79.696z"/>
</g>
</svg>
