<?xml version="1.0" encoding="utf-8"?>
<!-- Generator: Adobe Illustrator 16.0.0, SVG Export Plug-In . SVG Version: 6.00 Build 0)  -->
<!DOCTYPE svg PUBLIC "-//W3C//DTD SVG 1.1//EN" "http://www.w3.org/Graphics/SVG/1.1/DTD/svg11.dtd">
<svg version="1.1" id="Calque_1" xmlns="http://www.w3.org/2000/svg" xmlns:xlink="http://www.w3.org/1999/xlink" x="0px" y="0px"
	 width="450px" height="180px" viewBox="0 0 450 180" enable-background="new 0 0 450 180" xml:space="preserve">
<g>
	<path fill="#FFFFFF" d="M209.389,41.135l0.492,17.824l-0.942,0.083c-1.885-6.065-4.303-10.578-7.253-13.543
		c-2.95-2.963-6.515-4.445-10.694-4.445c-3.251,0-6.044,0.662-8.38,1.986c-2.334,1.326-4.514,3.478-6.536,6.454
		c-4.098,6.092-6.146,13.059-6.146,20.898c0,3.742,0.491,7.272,1.475,10.591c0.982,3.319,2.417,6.25,4.302,8.79
		c3.66,4.917,8.126,7.376,13.399,7.376c2.076,0,4.029-0.437,5.859-1.312c1.83-0.874,3.333-2.075,4.507-3.606
		c1.611-2.13,2.418-4.657,2.418-7.579c0-2.706-0.731-4.657-2.192-5.859c-1.461-1.203-3.872-1.805-7.231-1.805v-0.942h26.142v0.942
		c-2.404,0.219-4.091,0.554-5.061,1.005c-0.969,0.45-1.687,1.223-2.15,2.313c-0.521,1.203-0.779,3.593-0.779,7.173
		c0,0.982,0.055,2.514,0.164,4.589l0.083,0.943c-1.039-0.384-1.804-0.575-2.296-0.575c-0.602,0-1.366,0.315-2.295,0.943
		c-2.376,1.639-5.135,2.895-8.276,3.77c-3.142,0.873-6.461,1.311-9.957,1.311c-4.809,0-9.144-0.819-13.01-2.459
		c-3.866-1.639-7-3.987-9.404-7.047c-1.803-2.294-3.19-5.026-4.159-8.196c-0.97-3.168-1.454-6.527-1.454-10.079
		c0-4.89,0.874-9.438,2.622-13.645c1.748-4.207,4.207-7.676,7.376-10.409c2.594-2.212,5.586-3.919,8.973-5.121
		s6.966-1.803,10.736-1.803c2.186,0,4.214,0.205,6.085,0.615s3.858,1.079,5.963,2.008l2.417,1.106
		c0.601,0.246,1.147,0.369,1.639,0.369c1.093,0,1.926-0.888,2.499-2.664H209.389z"/>
	<path fill="#FFFFFF" d="M209.771,97.067v-0.984c2.759,0,4.89-0.777,6.393-2.335c0.847-0.875,1.427-1.987,1.741-3.34
		c0.313-1.352,0.472-3.422,0.472-6.207v-30.2c0-2.895-0.171-5.033-0.513-6.412s-0.977-2.506-1.905-3.381
		c-0.766-0.709-1.618-1.229-2.562-1.557c-0.941-0.328-2.151-0.519-3.626-0.574v-0.942h26.182v0.942
		c-1.502,0.083-2.729,0.288-3.685,0.615c-0.959,0.328-1.804,0.848-2.542,1.558c-0.929,0.901-1.556,2.036-1.886,3.4
		c-0.326,1.367-0.489,3.483-0.489,6.352v23.644c0,3.633,0.094,6.338,0.286,8.111c0.19,1.777,0.56,3.226,1.104,4.345
		c0.956,1.967,2.377,3.408,4.263,4.322c1.886,0.915,4.383,1.374,7.496,1.374c3.253,0,5.99-0.431,8.217-1.292
		c2.228-0.859,4.052-2.192,5.472-3.995c0.955-1.229,1.741-2.621,2.355-4.179c0.613-1.558,1.182-3.606,1.699-6.146l0.984,0.081
		l-0.533,16.801H209.771z"/>
	<path fill="#FFFFFF" d="M250.156,96.902l0.123-16.924l0.941,0.044c1.147,4.304,2.514,7.698,4.098,10.177
		c2.977,4.58,6.722,6.868,11.228,6.868c3.141,0,5.736-1.053,7.785-3.156c2.049-2.103,3.073-4.766,3.073-7.989
		c0-1.394-0.225-2.813-0.675-4.263c-0.451-1.445-1.061-2.689-1.824-3.728c-0.792-1.066-1.905-2.09-3.339-3.073
		c-1.435-0.983-3.627-2.227-6.577-3.73c-2.597-1.311-4.582-2.417-5.961-3.318c-1.381-0.901-2.494-1.816-3.34-2.745
		c-2.351-2.568-3.525-5.696-3.525-9.384c0-2.267,0.458-4.453,1.373-6.556c0.914-2.103,2.192-3.906,3.831-5.41
		c2.896-2.676,6.325-4.015,10.286-4.015c1.284,0,2.47,0.13,3.564,0.389c1.091,0.26,2.554,0.772,4.383,1.537
		c1.367,0.547,2.295,0.895,2.786,1.045c0.492,0.15,0.93,0.225,1.312,0.225c0.958,0,1.599-0.696,1.927-2.09h0.943l0.286,16.268
		h-0.941c-0.737-2.594-1.372-4.583-1.903-5.961c-0.531-1.379-1.166-2.656-1.9-3.832c-1.338-2.131-2.811-3.708-4.42-4.733
		c-1.608-1.023-3.463-1.537-5.562-1.537c-3.055,0-5.469,1.04-7.241,3.118c-0.736,0.847-1.314,1.845-1.739,2.993
		c-0.421,1.149-0.633,2.297-0.633,3.446c0,4.567,2.932,8.245,8.797,11.034l5.769,2.79c4.446,2.105,7.652,4.431,9.616,6.973
		c2.235,2.844,3.354,6.153,3.354,9.926c0,2.509-0.506,4.906-1.516,7.194c-1.421,3.19-3.551,5.648-6.393,7.38
		c-2.842,1.73-6.187,2.595-10.04,2.595c-3.522,0-6.911-0.696-10.161-2.091c-1.695-0.735-2.705-1.159-3.033-1.269
		c-0.328-0.108-0.694-0.163-1.105-0.163c-1.312,0-2.212,0.654-2.704,1.965H250.156z"/>
</g>
<rect x="109.334" y="110.606" fill="none" width="230.42" height="12.269"/>
<text transform="matrix(1 0 0 1 119.5034 121.3076)" fill="#FFFFFF" font-family="'BaskOldFace'" font-size="15.6457">GLOBAL LUXURY SERVICES </text>
<rect x="151.541" y="132.119" fill="none" width="170.682" height="8.179"/>
<text transform="matrix(1 0 0 1 152.2344 138.7549)" fill="#FFFFFF" font-family="'CooperBlack'" font-size="9.9422" letter-spacing="3">CABINET D’AFFAIRE</text>
</svg>
