<?xml version="1.0" encoding="utf-8"?>
<!-- Generator: Adobe Illustrator 22.0.0, SVG Export Plug-In . SVG Version: 6.00 Build 0)  -->
<svg version="1.1" id="Calque_1" xmlns="http://www.w3.org/2000/svg" xmlns:xlink="http://www.w3.org/1999/xlink" x="0px" y="0px"
	 viewBox="0 0 150 150" style="enable-background:new 0 0 150 150;" xml:space="preserve">
<style type="text/css">
	.st0{fill:#FFFFFF;}
</style>
<g>
	<path class="st0" d="M148,2v146H2V2H148 M150,0H0v150h150V0L150,0z"/>
</g>
<g>
	<path class="st0" d="M9.1,58c0.8-1.9,2.3-2.6,4.4-2.6c3.5,0.1,7.1,0,10.6,0.1c0.9,0,1.2-0.3,1.6-1.1c1.5-3.3,3-6.7,4.6-10
		c3-6.2,8-10,14.5-12.1c7.2-2.4,14.5-3.5,22-4c7.9-0.5,15.9-0.3,23.7,0.8c6.2,0.9,12.3,2.3,18.1,4.9c4.8,2.1,8,5.8,10.3,10.3
		c1.7,3.3,3.2,6.8,4.7,10.2c0.3,0.8,0.7,1.1,1.6,1.1c3.7-0.1,7.3,0,11,0c3,0,4.4,1.7,3.8,4.6c-0.5,2.7-1.1,5.3-1.6,8
		c-0.5,2.2-1.7,3.2-3.9,3.2c-1.1,0-2.1,0-3.4,0c0.3,0.4,0.5,0.8,0.7,1c7,8.9,6.3,21.9-1.5,30.1c-0.4,0.5-0.7,1.2-0.7,1.9
		c-0.1,3.7,0,7.3,0,11c0,3.4-2,5.4-5.4,5.4c-3.7,0-7.3,0-11,0c-3.3,0-5.3-2-5.4-5.3c0-1.5,0-3.1,0-4.7c-22,0-43.9,0-65.9,0
		c0,1.6,0,3.2,0,4.8c-0.1,3.2-2,5.3-5.3,5.3c-3.7,0-7.3,0-11,0c-3.5,0-5.5-2-5.5-5.5c0-3.8,0-7.6,0-11.4c0-0.5-0.2-1.2-0.6-1.5
		c-7.9-7.7-8.7-21.4-1.7-30.2c0.2-0.2,0.3-0.4,0.6-0.8c-1.1,0-2,0-2.9,0c-2.6,0-3.7-0.9-4.2-3.5c-0.6-2.7-1.2-5.4-1.8-8.1
		C9.1,59.2,9.1,58.6,9.1,58z M115,60.7c-0.7-2.8-4.1-10.4-5.9-13.3c-1-1.7-2.3-3-4.1-3.9c-3.9-2-8.2-3.2-12.5-3.9
		c-9.6-1.7-19.2-1.9-28.9-1c-6,0.6-12,1.7-17.6,4c-2.8,1.2-5.1,2.8-6.4,5.5c-1.9,4-3.6,8.1-5.4,12.1c-0.1,0.1,0,0.3,0,0.5
		C61.1,60.7,88,60.7,115,60.7z M121.7,87.4c0-5.5-4.4-10-9.9-10c-5.4,0-9.8,4.5-9.9,9.8c0,5.4,4.5,9.9,9.9,9.9
		C117.2,97.2,121.6,92.8,121.7,87.4z M38,97.2c5.5-0.2,9.5-5,9.3-10.2c-0.3-5.9-5.2-9.8-10.3-9.5c-6.1,0.3-9.7,5.3-9.4,10.2
		C28,93.5,32.6,97.6,38,97.2z"/>
</g>
</svg>
