<?xml version="1.0" encoding="utf-8"?>
<!-- Generator: Adobe Illustrator 22.0.0, SVG Export Plug-In . SVG Version: 6.00 Build 0)  -->
<svg version="1.1" id="Calque_1" xmlns="http://www.w3.org/2000/svg" xmlns:xlink="http://www.w3.org/1999/xlink" x="0px" y="0px"
	 viewBox="0 0 88 82" style="enable-background:new 0 0 88 82;" xml:space="preserve">
<style type="text/css">
	.st0{fill:#FFFFFF;}
	.st1{fill:#263357;}
	.st2{filter:url(#Adobe_OpacityMaskFilter);}
	.st3{mask:url(#mask-2_1_);fill:#364150;stroke:#364150;stroke-width:1.5;}
</style>
<title>icon/customer-service</title>
<desc>Created with Sketch.</desc>
<g id="icon_x2F_customer-service">
	<g id="graphic-design">
		<circle id="Oval" class="st0" cx="41" cy="41" r="41"/>
	</g>
	<g id="Group-12" transform="translate(15.000000, 20.000000)">
		<path id="Fill-5" class="st1" d="M53.5,17.4c1,0.7,2.3,0.5,3-0.5c0.7-1,0.5-2.3-0.5-3c-1-0.7-2.3-0.5-3,0.5
			C52.3,15.3,52.6,16.7,53.5,17.4"/>
		<g id="Group-9">
			<g id="Clip-8">
			</g>
			<defs>
				<filter id="Adobe_OpacityMaskFilter" filterUnits="userSpaceOnUse" x="-6.5" y="-1.2" width="65.1" height="48.5">
					<feColorMatrix  type="matrix" values="1 0 0 0 0  0 1 0 0 0  0 0 1 0 0  0 0 0 1 0"/>
				</filter>
			</defs>
			<mask maskUnits="userSpaceOnUse" x="-6.5" y="-1.2" width="65.1" height="48.5" id="mask-2_1_">
				<g class="st2">
					<polygon id="path-1_1_" class="st0" points="-5.8,-0.4 57.8,-0.4 57.8,46.5 -5.8,46.5 					"/>
				</g>
			</mask>
			<path id="Fill-7" class="st3" d="M50.1,24.6c-0.9,1.9-2,4-4.5,6.2l-0.3-0.3c0,0,0,0,0,0L29.7,15c-1.1-1.1-2.9-1.1-4.1-0.1
				c-1.3,1.3-3.3,3.1-4.4,4.2L20.3,20c-0.3,0.3-0.8,0.5-1.3,0.5c-0.5,0-0.9-0.2-1.3-0.5l-0.4-0.4c0,0-0.1-0.1-0.2-0.2
				c-0.5-0.7-0.5-1.7,0.2-2.3l8.4-8c0.4-0.3,0.8-0.7,1.2-1c2.2-1.6,5.2-2,7.9-1.2C38,7.7,40.4,8,42,7.7l11.1,12.7
				C51.6,21.5,50.8,23,50.1,24.6L50.1,24.6z M44.5,35c-0.8,0.8-2.2,0.8-2.9,0l-1.2-1.2c-0.1-0.1-0.1-0.2-0.2-0.3l-5.4-5.4
				c0,0-0.1-0.1-0.1-0.1c0,0-0.1-0.1-0.1-0.1c-0.1,0-0.1,0-0.2,0c-0.1,0-0.1,0-0.2,0c0,0-0.1,0-0.1,0c-0.1,0-0.1,0-0.2,0
				c0,0-0.1,0.1-0.1,0.1c0,0-0.1,0.1-0.1,0.1c0,0,0,0,0,0c0,0,0,0,0,0c0,0-0.1,0.1-0.1,0.1c0,0.1-0.1,0.1-0.1,0.2c0,0,0,0.1,0,0.1
				c0,0.1,0,0.1,0,0.2c0,0.1,0,0.1,0,0.2c0,0,0,0.1,0,0.1c0,0.1,0.1,0.1,0.1,0.2c0,0,0,0.1,0.1,0.1l5.6,5.6c0.6,0.8,0.5,1.9-0.2,2.7
				c-0.8,0.8-2.1,0.8-2.9,0L36,37.6l-5.4-5.4c-0.3-0.3-0.9-0.3-1.2,0c-0.3,0.3-0.3,0.9,0,1.2L32,36c0,0,0,0,0,0l2.8,2.8
				c0.4,0.4,0.6,0.9,0.6,1.5c0,0.6-0.2,1.1-0.6,1.5c-0.8,0.8-2.1,0.8-2.9,0l-3.2-3.2c0,0-0.1-0.1-0.1-0.1c-0.2-0.2-0.3-0.3-0.5-0.4
				c0,0,0,0,0,0c0,0,0,0-0.1,0c-1-0.6-2.3-0.7-3.4-0.4c-0.1-0.9-0.4-1.7-1.1-2.4c-0.7-0.7-1.6-1.1-2.6-1.1c-0.4,0-0.9,0.1-1.3,0.2
				c-0.1-0.9-0.4-1.7-1.1-2.4c-0.7-0.7-1.6-1.1-2.6-1.1c-1,0-1.9,0.4-2.6,1.1l-0.2,0.2c-0.1-0.7-0.5-1.3-1-1.9
				c-0.7-0.7-1.6-1.1-2.6-1.1c-1,0-1.9,0.4-2.6,1.1l-0.2,0.2l-0.3-0.2c-1.1-1-1.2-1-1.7-1.5C3,27.1,2,25.3,1.3,23.9
				c-0.3-0.5-0.5-1-0.7-1.5c-0.4-0.9-0.8-1.7-1.3-2.4L10,7.7c1.5,0.3,3.7,0,6.5-0.8c0.2,0,0.4-0.1,0.5-0.2c2.6-0.8,5.4-0.4,7.5,1
				c0,0,0,0,0,0l-8.4,8c-1.3,1.2-1.4,3.2-0.4,4.5c0.1,0.1,0.2,0.3,0.3,0.4l0.4,0.4c0.6,0.7,1.5,1,2.4,1.1c0.9,0,1.8-0.3,2.5-1
				l0.9-0.9c1.1-1.1,3.1-2.9,4.4-4.2c0.5-0.5,1.3-0.5,1.7,0L44,31.6c0,0,0,0,0,0l0.5,0.5C45.3,32.9,45.3,34.2,44.5,35L44.5,35z
				 M27.4,42.6l-1.7,1.7c-0.1,0.1-0.2,0.2-0.3,0.2c-0.8,0.6-2,0.4-2.6-0.2c-0.7-0.7-0.8-1.8-0.2-2.7c0.1-0.1,0.1-0.2,0.2-0.2
				l0.8-0.8c0,0,0,0,0,0l0.9-0.9c0.4-0.4,0.9-0.6,1.5-0.6c0.4,0,0.8,0.1,1.1,0.3c0,0,0,0,0,0c0.1,0.1,0.2,0.2,0.3,0.2
				c0.1,0.1,0.2,0.2,0.2,0.3C28.2,40.7,28.1,41.9,27.4,42.6L27.4,42.6z M18.7,43c-0.8,0.8-2.2,0.8-2.9,0c-0.8-0.8-0.8-2.1,0-2.9
				l1.6-1.6l2.1-2.1c0.4-0.4,0.9-0.6,1.5-0.6c0.6,0,1.1,0.2,1.5,0.6c0.8,0.8,0.8,2.1,0,2.9l-0.8,0.8c0,0,0,0,0,0L18.7,43z M14.5,39
				c-0.8,0.8-2.2,0.8-2.9,0c-0.4-0.4-0.6-0.9-0.6-1.5c0-0.5,0.2-0.9,0.5-1.3c0.1-0.1,0.1-0.1,0.2-0.1l0.5-0.5
				c0.1-0.1,0.2-0.2,0.3-0.3l2.1-2.1c0.4-0.4,0.9-0.6,1.5-0.6c0.6,0,1.1,0.2,1.5,0.6c0.4,0.4,0.6,0.9,0.6,1.5c0,0.6-0.2,1.1-0.6,1.5
				l-1.2,1.2L14.5,39C14.6,38.9,14.6,38.9,14.5,39L14.5,39z M7.6,34.9c-0.8-0.8-0.8-2.1,0-2.9L8,31.5c0.4-0.4,0.9-0.6,1.5-0.6
				c0.6,0,1.1,0.2,1.5,0.6c0.4,0.4,0.6,0.9,0.6,1.5c0,0.4-0.1,0.8-0.3,1.1l-0.8,0.8c0,0-0.1,0.1-0.1,0.1C9.5,35.6,8.3,35.6,7.6,34.9
				L7.6,34.9z M57.6,18.5c-0.3-0.3-0.8-0.4-1.2-0.1l-1.6,1.4L43.1,6.5c-0.1-0.2-0.2-0.3-0.3-0.4L48.6,1c0.3-0.3,0.4-0.8,0.1-1.2
				c-0.3-0.3-0.8-0.4-1.2-0.1l-6.4,5.6c-0.2,0.2-0.3,0.5-0.3,0.8c-1.3,0-3.2-0.3-5.4-1c-3.3-1-6.8-0.4-9.4,1.5c0,0,0,0,0,0
				c-2.6-1.9-6.1-2.4-9.4-1.5c-0.2,0-0.3,0.1-0.5,0.1c-2,0.6-3.7,0.9-4.9,0.8c0-0.1,0-0.1,0-0.2c0-0.2-0.1-0.4-0.3-0.6L4.5-0.2
				C4.2-0.5,3.6-0.5,3.3-0.1C3,0.2,3.1,0.8,3.4,1.1l5.8,5C9.1,6.2,9,6.3,8.9,6.4c0,0,0,0,0,0L-2.8,19.9l-1.6-1.4
				c-0.3-0.3-0.9-0.3-1.2,0.1c-0.3,0.3-0.3,0.9,0.1,1.2l2.2,1.9c0.2,0.1,0.4,0.2,0.5,0.2c0.2,0,0.5-0.1,0.6-0.3l0.2-0.3
				c0.3,0.5,0.6,1.1,0.9,1.8c0.2,0.5,0.5,1,0.7,1.5c0.8,1.5,1.9,3.5,3.7,5.3c0.6,0.6,0.7,0.7,1.8,1.6l0.3,0.2c0,0,0.1,0,0.1,0
				c-0.7,1.4-0.4,3.1,0.7,4.2C7.1,36.8,8,37.1,9,37.1c0.1,0,0.2,0,0.4,0c0,0.1,0,0.3,0,0.4c0,1,0.4,1.9,1.1,2.6
				c0.7,0.7,1.6,1.1,2.6,1.1c0.2,0,0.3,0,0.5,0c-0.1,1.1,0.2,2.2,1.1,3c0.7,0.7,1.6,1.1,2.6,1.1c1,0,1.9-0.4,2.6-1.1l0.6-0.6
				c0.1,0.7,0.5,1.4,1,1.9c0.7,0.7,1.6,1.1,2.7,1.1c0.8,0,1.5-0.2,2.1-0.6c0.2-0.1,0.4-0.3,0.6-0.5l1.7-1.7c0.6-0.5,0.9-1.2,1-1.9
				l1.1,1.1c0.7,0.7,1.7,1.1,2.6,1.1c1,0,1.9-0.4,2.6-1.1c0.8-0.8,1.2-1.9,1.1-3c0.2,0,0.3,0,0.5,0c1,0,1.9-0.4,2.6-1.1
				c0.6-0.6,0.9-1.3,1-2.1c0.6,0.3,1.2,0.5,1.8,0.5c1,0,1.9-0.4,2.6-1.1c1.1-1.1,1.4-2.7,0.8-4c2.9-2.5,4.1-4.9,5.1-6.8
				c0.8-1.6,1.4-2.8,2.6-3.7c0.1,0.1,0.3,0.2,0.5,0.2c0,0,0,0,0.1,0c0.2,0,0.4-0.1,0.5-0.2l2.2-1.9C57.8,19.4,57.9,18.9,57.6,18.5
				L57.6,18.5z"/>
		</g>
	</g>
</g>
</svg>
