<?xml version="1.0" encoding="utf-8"?>
<!-- Generator: Adobe Illustrator 22.0.0, SVG Export Plug-In . SVG Version: 6.00 Build 0)  -->
<svg version="1.1" id="Calque_1" xmlns="http://www.w3.org/2000/svg" xmlns:xlink="http://www.w3.org/1999/xlink" x="0px" y="0px"
	 viewBox="0 0 88 82" style="enable-background:new 0 0 88 82;" xml:space="preserve">
<style type="text/css">
	.st0{fill:#FFFFFF;}
	.st1{fill:#364150;stroke:#354052;stroke-width:1.5;}
</style>
<title>icon/custom</title>
<desc>Created with Sketch.</desc>
<g id="icon_x2F_custom">
	<g id="graphic-design">
		<circle id="Oval" class="st0" cx="41" cy="41" r="41"/>
		<path id="Shape" class="st1" d="M68,22.2l-6.9-6.9c-1-1-2.6-1-3.7,0l-13,13c-0.3,0.3-0.3,0.9,0,1.2c0.3,0.3,0.9,0.3,1.2,0l13-13
			c0.2-0.2,0.4-0.3,0.6-0.3s0.5,0.1,0.6,0.3l6.9,6.9c0.2,0.2,0.3,0.4,0.3,0.6c0,0.2-0.1,0.5-0.3,0.6l-1.7,1.7L60.7,22
			c-0.3-0.3-0.9-0.3-1.2,0c-0.3,0.3-0.3,0.9,0,1.2l4.5,4.5L62,29.5l-2-2c-0.3-0.3-0.9-0.3-1.2,0c-0.3,0.3-0.3,0.9,0,1.2l2,2
			l-1.9,1.9l-2-2c-0.3-0.3-0.9-0.3-1.2,0c-0.3,0.3-0.3,0.9,0,1.2l2,2l-1.9,1.9l-4.5-4.5c-0.3-0.3-0.9-0.3-1.2,0
			c-0.3,0.3-0.3,0.9,0,1.2l4.5,4.5l-1.9,1.9l-2-2c-0.3-0.3-0.9-0.3-1.2,0c-0.3,0.3-0.3,0.9,0,1.2l2,2l-1.6,1.6l-8.2-8.2l1.5-1.5
			c0.3-0.3,0.3-0.9,0-1.2c-0.3-0.3-0.9-0.3-1.2,0l-1.5,1.5L25,16.9c-1.1-1.1-2.5-1.7-4-1.7c-1.5,0-2.9,0.6-4,1.7
			c-1.1,1.1-1.7,2.5-1.7,4c0,1.5,0.6,2.9,1.7,4l15.4,15.4l-17,17c-1,1-1,2.6,0,3.7l6.9,6.9c0.5,0.5,1.1,0.8,1.8,0.8
			c0.7,0,1.3-0.3,1.8-0.8l17-17l1.2,1.2c0.3,0.3,0.9,0.3,1.2,0c0.3-0.3,0.3-0.9,0-1.2l-1.7-1.7c0-0.1-0.1-0.1-0.1-0.1
			c0,0-0.1-0.1-0.1-0.1L25.3,30.9l2.2-2.2l1.4,1.4c0.2,0.2,0.4,0.2,0.6,0.2s0.4-0.1,0.6-0.2c0.3-0.3,0.3-0.9,0-1.2l-1.4-1.4l2.2-2.2
			l8.8,8.8c0,0,0,0,0,0l9.3,9.3c0,0,0,0.1,0.1,0.1c0,0,0.1,0.1,0.1,0.1L61.7,56l-2.2,2.2L47,45.7c0,0,0,0,0,0l-5-5c0,0,0,0,0,0
			l-8.8-8.8c-0.3-0.3-0.9-0.3-1.2,0c-0.3,0.3-0.3,0.9,0,1.2l26.4,26.4l-2.2,2.2l-7.9-7.9c-0.3-0.3-0.9-0.3-1.2,0
			c-0.3,0.3-0.3,0.9,0,1.2l8.5,8.5c0.1,0.1,0.2,0.1,0.3,0.2l10.1,3.9c0.2,0.1,0.3,0.1,0.5,0.1c0.4,0,0.7-0.1,1-0.4
			c0.4-0.4,0.5-0.9,0.3-1.5l-3.9-10.1c0-0.1-0.1-0.2-0.2-0.3L51,42.9l17-17C69,24.9,69,23.2,68,22.2z M41.7,49.8l-1.6,1.6l-2-2
			c-0.3-0.3-0.9-0.3-1.2,0c-0.3,0.3-0.3,0.9,0,1.2l2,2l-1.9,1.9l-4.4-4.4c-0.3-0.3-0.9-0.3-1.2,0c-0.3,0.3-0.3,0.9,0,1.2l4.4,4.4
			l-1.9,1.9l-2-2c-0.3-0.3-0.9-0.3-1.2,0c-0.3,0.3-0.3,0.9,0,1.2l2,2l-1.9,1.9l-2-2c-0.3-0.3-0.9-0.3-1.2,0c-0.3,0.3-0.3,0.9,0,1.2
			l2,2l-1.9,1.9l-4.4-4.4c-0.3-0.3-0.9-0.3-1.2,0c-0.3,0.3-0.3,0.9,0,1.2l4.4,4.4l-1.7,1.7c-0.2,0.2-0.4,0.3-0.6,0.3
			c-0.2,0-0.5-0.1-0.6-0.3l-6.9-6.9c-0.4-0.4-0.4-0.9,0-1.3l17-17L41.7,49.8z M18.3,24.1c-1.6-1.6-1.6-4.3,0-5.9
			c1.6-1.6,4.3-1.6,5.9,0l2.7,2.7L21,26.9L18.3,24.1z M27.2,27.2C27.2,27.2,27.2,27.2,27.2,27.2C27.2,27.2,27.2,27.2,27.2,27.2l-3,3
			L22,27.9l5.9-5.9l2.3,2.3L27.2,27.2z M65.5,65.4l-8.2-3.2l5-5L65.5,65.4z"/>
	</g>
</g>
</svg>
