<?xml version="1.0" encoding="utf-8"?>
<!-- Generator: Adobe Illustrator 22.0.0, SVG Export Plug-In . SVG Version: 6.00 Build 0)  -->
<svg version="1.1" id="Calque_1" xmlns="http://www.w3.org/2000/svg" xmlns:xlink="http://www.w3.org/1999/xlink" x="0px" y="0px"
	 viewBox="0 0 425.2 141.7" style="enable-background:new 0 0 425.2 141.7;" xml:space="preserve">
<style type="text/css">
	.st0{fill:#E82E89;}
	.st1{fill:#FDED57;}
	.st2{fill:#FDFDFD;}
</style>
<path class="st0" d="M91.5,141.7c110.9-15.7,221.8-31.5,332.7-47.2C387,63,349.9,31.5,312.7,0C208.1,15.7,103.6,31.4-1,47.1
	C29.8,78.7,60.7,110.2,91.5,141.7z"/>
<g>
	<path class="st1" d="M86.1,56.5c1.4-5.9,2.7-11.3,4-16.2c0.4-1.3,0.9-2.2,1.7-2.5c0.8-0.3,1.9-0.3,3.4,0.1c0.7,0.2,1.3,0.3,1.9,0.5
		c0.6,0.1,1.1,0.3,1.6,0.6c0.5,0.2,1.1,0.5,1.7,0.8c0.6,0.3,1.3,0.7,2.1,1.2c1.3,0.8,2.1,1.7,2.2,2.5c0.2,0.9,0.1,1.9-0.3,3.1
		c-1.1,3.4-2.2,7.3-3.3,11.6c-1.2,4.3-2.3,8.7-3.4,13.2c-1.1,4.5-2.2,8.8-3.3,13.1c-1,4.3-1.9,8-2.7,11.2c-0.3,1.8-1.7,2.4-4.2,1.8
		c-2.1-0.4-4.3-1-6.5-1.8c-2-0.8-3.5-2.2-4.3-4.2c-0.6-1.4-1.3-3.1-2-5c-0.7-1.9-1.3-3.9-2-6.1c-0.7-2.2-1.4-4.5-2.1-6.9
		c-0.7-2.4-1.3-4.8-1.9-7.2c-0.5,2.9-1,5.7-1.6,8.6c-0.5,2.9-1,5.6-1.5,8.2c-0.5,2.6-0.9,5-1.3,7.3c-0.4,2.2-0.7,4.2-0.9,5.8
		c-0.2,0.8-0.5,1.3-0.9,1.5c-0.4,0.2-1.2,0.1-2.4-0.2c-1.1-0.3-2.2-0.6-3.4-0.9c-1.1-0.3-2.2-0.8-3.3-1.4c-1-0.5-1.7-1.1-2-1.8
		c-0.3-0.7-0.5-1.6-0.4-2.8c0.1-1.2,0.2-3,0.5-5.3c0.2-2.3,0.5-4.9,0.8-7.9c0.3-2.9,0.7-6.1,1.2-9.4c0.4-3.3,0.9-6.7,1.4-10
		c0.5-3.3,1-6.5,1.6-9.6c0.5-3.1,1-5.8,1.6-8.2c0.3-1.4,0.9-2.2,1.7-2.6c0.8-0.3,2-0.3,3.4,0c1.7,0.5,3.4,1,5,1.5
		c1.6,0.5,3.3,1.2,5.1,2c1.4,0.6,2.4,1.3,3,2.2c0.6,0.9,1,2.2,1.3,4c0.2,1.3,0.5,3,0.9,5.1c0.4,2.1,0.8,4.3,1.2,6.7
		c0.5,2.4,0.9,4.9,1.5,7.5c0.5,2.6,1,5,1.5,7.4C83.3,70.2,84.2,64.5,86.1,56.5z"/>
	<path class="st2" d="M130.4,81.9c0,0.6-0.2,1.5-0.7,2.4c-0.6,1.1-1.3,2.1-2.1,3.1c-0.9,0.9-1.7,1.7-2.6,2.3
		c-0.4,0.3-0.9,0.5-1.5,0.8c-0.6,0.2-1.2,0.4-1.9,0.6c-0.7,0.2-1.4,0.3-2.1,0.3c-0.7,0.1-1.4,0.1-2.1,0c-1.5-0.1-2.8-0.3-3.9-0.7
		c-1.2-0.4-2.2-0.7-3.1-1c-0.8-0.3-1.7-0.8-2.5-1.5c-0.8-0.6-1.5-1.4-1.9-2.3c-0.8-1.3-1.4-2.9-1.7-4.7c-0.3-1.8-0.4-3.7-0.3-5.8
		c0.1-2.1,0.4-4.2,0.9-6.3c0.5-2.2,1.2-4.3,2.1-6.4c0.9-2.1,2-4,3.2-5.9c1.2-1.8,2.7-3.4,4.3-4.8c1.3-1.1,2.6-1.8,3.9-2.2
		c1.3-0.3,2.6-0.5,3.7-0.4c0.9,0.1,1.8,0.3,2.7,0.5c0.9,0.2,1.8,0.5,2.7,0.8c0.9,0.3,1.7,0.7,2.5,1.1c0.8,0.4,1.5,0.8,2.1,1.2
		c0.6,0.5,1.1,1,1.5,1.5c0.4,0.5,0.7,1,0.9,1.5c0.2,0.5,0.4,1,0.5,1.5c0.1,0.5,0.2,1.1,0.2,1.7c0,0.7,0,1.5,0,2.2
		c0,0.8-0.1,1.5-0.2,2.3c-0.1,0.8-0.2,1.5-0.4,2.2c-0.2,0.7-0.3,1.3-0.5,1.9c-0.1,0.2-0.2,0.5-0.3,0.7c-0.1,0.2-0.2,0.4-0.4,0.5
		c-0.2,0.1-0.4,0.2-0.7,0.2c-0.3,0-0.7,0-1.2-0.1c-1-0.2-1.8-0.4-2.5-0.8c-0.7-0.3-1.3-0.7-1.8-1.2c-0.5-0.4-0.8-1-1.1-1.6
		c-0.3-0.6-0.5-1.3-0.6-2c-0.1-0.6-0.1-1.2-0.1-1.8c0-1,0-1.9-0.1-2.7c-0.1-0.8-0.5-1.3-1.1-1.6c-0.6-0.2-1.3,0.2-2.2,1.1
		c-0.8,0.9-1.7,2.1-2.5,3.5c-0.9,1.4-1.7,3-2.4,4.7c-0.8,1.7-1.4,3.3-1.8,4.8c-0.4,1.5-0.7,3.1-0.9,4.6c-0.2,1.5-0.3,2.9-0.2,4.2
		c0.1,1.2,0.3,2.3,0.6,3.2c0.3,0.9,0.8,1.4,1.5,1.6c1.2,0.4,3.1-0.7,5.6-3.3c1.8-1.9,4.2-2.4,7.1-1.5
		C129.8,80.8,130.4,81.2,130.4,81.9z"/>
	<path class="st2" d="M164,56.6c0.5,1.1,0.9,2.3,1.2,3.6c0.3,2.3,0.4,4.7,0.2,7.3c-0.2,2.6-0.6,5.3-1.4,7.9c-0.7,2.6-1.7,5.1-3,7.4
		c-1.2,2.3-2.8,4.3-4.6,5.9c-1.2,1-2.5,1.6-3.9,1.9c-1.4,0.3-2.9,0.4-4.7,0.2c-1.2-0.1-2.4-0.3-3.6-0.6c-1.2-0.3-2.4-0.7-3.4-1.2
		c-0.8-0.4-1.7-1-2.5-1.7c-0.8-0.7-1.4-1.5-1.9-2.3c-0.7-1.4-1.3-3-1.7-4.8c-0.4-1.8-0.5-3.7-0.5-5.6c0-2,0.3-4,0.7-6
		c0.4-2.1,1.1-4,1.9-6c0.8-1.9,1.9-3.8,3.1-5.5c1.2-1.7,2.6-3.3,4.2-4.7c1.1-0.8,2.4-1.5,3.9-1.9c1.5-0.4,2.9-0.5,4.3-0.3
		c1.8,0.3,3.4,0.7,5,1.3c1.6,0.6,2.9,1.3,4,2.1C162.6,54.6,163.4,55.6,164,56.6z M151.8,59.1c-0.8,0.8-1.6,1.8-2.4,3.1
		c-0.8,1.3-1.6,2.7-2.2,4.3c-0.7,1.6-1.3,3.1-1.7,4.6c-0.4,1.5-0.7,3-0.9,4.5c-0.2,1.6-0.2,3-0.2,4.4c0.1,1.3,0.3,2.5,0.6,3.4
		c0.4,1,0.9,1.5,1.6,1.8c0.6,0.2,1.3,0.1,2-0.4c0.7-0.5,1.4-1.2,2.1-2.3c0.7-1,1.4-2.3,2-3.8c0.6-1.5,1.2-3.1,1.6-4.9
		c0.4-1.4,0.7-3,1-4.8c0.2-1.7,0.4-3.4,0.4-4.9c0-1.5-0.1-2.9-0.4-4c-0.3-1.1-0.7-1.7-1.4-1.9C153.3,58,152.6,58.3,151.8,59.1z"/>
	<path class="st2" d="M176,73.8c-0.4,2.1-0.7,4.1-1,6.1c-0.3,1.9-0.6,3.8-0.8,5.5c-0.2,1.7-0.4,3.2-0.5,4.5
		c-0.1,0.6-0.3,0.9-0.6,1.1c-0.3,0.2-0.8,0.2-1.5,0c-0.7-0.2-1.4-0.3-2.2-0.6c-0.7-0.2-1.4-0.5-2-0.8c-0.8-0.4-1.3-0.8-1.6-1.2
		c-0.3-0.4-0.4-1-0.3-1.9c0-1.2,0.1-2.7,0.2-4.4c0.1-1.7,0.3-3.6,0.5-5.7c0.2-2,0.4-4.1,0.7-6.3c0.2-2.2,0.5-4.4,0.8-6.5
		c0.3-2.1,0.6-4.1,0.9-6c0.3-1.9,0.6-3.6,0.9-5c0.3-1,0.7-1.7,1.2-2c0.5-0.3,1.3-0.3,2.4-0.2c1.7,0.2,3.1,0.5,4.2,0.8
		c1.2,0.3,2.3,0.7,3.5,1.1c0.7,0.3,1.3,0.6,1.8,0.9c0.4,0.3,0.8,0.7,1,1.1c0.2,0.4,0.4,0.8,0.5,1.3c0.1,0.5,0.2,1,0.3,1.6
		c0,0.3,0,0.6,0.1,1c0,0.4,0.1,1.1,0.3,2.1c0.1,1,0.3,2.4,0.6,4.2c0.3,1.8,0.7,4.3,1.2,7.5c0.5-1.1,1.1-2.3,1.7-3.7
		c0.7-1.3,1.3-2.7,2.1-4.1c0.7-1.4,1.4-2.8,2.2-4.2c0.8-1.4,1.5-2.7,2.2-3.9c0.7-1.4,1.3-2.6,1.9-3.5c0.5-0.9,1.1-1.6,1.6-2.1
		c0.6-0.5,1.2-0.7,1.9-0.8c0.7-0.1,1.6,0.1,2.7,0.4c1.3,0.3,2.6,0.7,4,1.2c1.4,0.5,2.8,1,4.1,1.6c0.9,0.4,1.5,0.9,1.7,1.5
		c0.2,0.6,0.2,1.4-0.2,2.4c-0.5,1.5-1,3.1-1.6,5c-0.6,1.9-1.2,3.9-1.8,5.9c-0.6,2.1-1.2,4.2-1.8,6.3c-0.6,2.1-1.2,4.2-1.7,6.1
		c-0.5,1.9-1,3.7-1.5,5.4c-0.4,1.6-0.8,3-1,4.1c-0.2,0.6-0.5,1-0.7,1.2c-0.3,0.2-0.8,0.3-1.6,0.1c-0.7-0.2-1.4-0.3-2.2-0.6
		c-0.7-0.2-1.4-0.5-1.9-0.8c-0.7-0.3-1.2-0.7-1.4-1.2c-0.2-0.5-0.3-1.1-0.1-1.9c0.1-0.9,0.3-2.1,0.6-3.6c0.3-1.5,0.6-3.1,1-4.9
		c0.4-1.8,0.8-3.6,1.2-5.6c0.4-1.9,0.9-3.8,1.5-5.6c-0.9,1.6-1.9,3.3-2.9,5.2c-1,1.9-2,3.7-3,5.6c-1,1.8-1.9,3.5-2.7,5.2
		c-0.8,1.6-1.5,3-2,4c-0.2,0.3-0.3,0.6-0.4,0.8c-0.1,0.2-0.2,0.3-0.4,0.4c-0.2,0.1-0.4,0.1-0.6,0.2c-0.2,0-0.6,0-1-0.1
		c-1.2-0.2-2.3-0.5-3.2-0.8c-0.3-0.1-0.6-0.3-0.9-0.4c-0.2-0.1-0.5-0.3-0.6-0.6c-0.2-0.2-0.3-0.5-0.5-0.9c-0.1-0.3-0.3-0.8-0.4-1.3
		c-0.6-2.2-1.2-4.8-1.8-7.7c-0.6-2.9-1.1-5.9-1.5-9C176.7,69.6,176.4,71.7,176,73.8z"/>
	<path class="st2" d="M218.8,85.3c-0.3,1.6-0.6,3.2-0.9,4.8c-0.2,0.5-0.4,0.8-0.6,1c-0.3,0.2-0.8,0.2-1.6,0
		c-0.8-0.2-1.6-0.4-2.3-0.6c-0.8-0.2-1.4-0.5-2-0.8c-0.6-0.3-1-0.7-1.3-1.2c-0.3-0.5-0.3-1.1-0.2-1.9c0.3-0.7,0.5-2,0.8-3.7
		c0.2-1.8,0.4-3.8,0.6-6c0.2-2.2,0.4-4.6,0.6-7s0.4-4.6,0.6-6.7c0.2-2,0.4-3.7,0.6-5.1s0.5-2.1,0.8-2.3c1.2-0.6,2.5-1.3,3.9-1.9
		c1.4-0.7,2.9-1.3,4.4-1.8c1.5-0.5,3-1,4.6-1.3c1.5-0.4,3-0.5,4.4-0.6c1.4,0,2.7,0.1,4,0.5c1.2,0.4,2.3,1,3.2,1.8
		c1,1.2,2,2.4,2.9,3.8c0.9,1.3,1.6,3,2.1,4.9c0.2,1,0.3,1.9,0.2,2.7c-0.1,0.8-0.3,1.6-0.7,2.4c-0.4,0.7-0.8,1.4-1.3,2.1
		c-0.5,0.7-1.1,1.3-1.8,2c-1,1-2.3,2.1-3.8,3.1c-1.5,1-3.1,1.9-4.8,2.8c-1.7,0.9-3.5,1.6-5.4,2.3c-1.9,0.7-3.8,1.3-5.6,1.8
		C219.4,82,219.1,83.7,218.8,85.3z M227.5,69c1.6-1,3-2,4-3.1c1-1.1,1.8-2.1,2.2-3.1c0.4-1,0.5-1.8,0.3-2.5c-0.1-0.4-0.4-0.7-1-0.9
		c-0.6-0.2-1.3-0.3-2.2-0.3c-0.9,0-1.9,0.2-3,0.4c-1.1,0.2-2.2,0.6-3.4,1.1c-0.5,1.7-1,3.4-1.4,5.2c-0.4,1.8-0.9,3.7-1.4,5.6
		C224,70.8,225.9,70,227.5,69z"/>
	<path class="st2" d="M256.4,82.4c-2.3,0.3-4.3,0.7-6.1,1.2c-0.6,1.2-1.2,2.3-1.6,3.4c-0.5,1-0.9,2-1.3,3c-0.2,0.5-0.5,0.8-0.9,0.9
		s-0.9,0-1.6-0.2c-0.4-0.2-0.8-0.3-1.3-0.5c-0.5-0.2-1-0.4-1.5-0.7c-0.4-0.2-0.7-0.5-1-0.6c-0.3-0.2-0.5-0.4-0.6-0.6
		c-0.2-0.2-0.2-0.6-0.3-0.9c0-0.4,0.1-0.9,0.3-1.5c0.7-2.1,1.7-4.6,2.9-7.5c1.2-2.9,2.5-5.8,3.8-8.9c1.4-3.1,2.8-6.1,4.2-9
		c1.4-3,2.8-5.6,4.1-7.9c0.5-0.8,1.1-1.5,1.8-2c0.7-0.5,1.8-0.7,3.3-0.6c1.3,0.1,2.4,0.2,3.4,0.3c1,0.1,1.9,0.3,2.7,0.5
		c0.8,0.2,1.6,0.4,2.3,0.6c0.7,0.2,1.4,0.4,2.1,0.6c1,0.3,1.6,0.8,1.8,1.3s0.3,1.3,0.3,2.2c-0.2,2.2-0.3,4.7-0.5,7.5
		c-0.1,2.8-0.2,5.8-0.3,8.9c-0.1,3.1-0.1,6.2-0.1,9.3c0,3.1,0,6,0,8.6c0,0.6-0.1,0.9-0.3,1.2c-0.2,0.2-0.7,0.3-1.5,0.3
		c-0.8,0-1.5,0-2.2-0.1c-0.7,0-1.4-0.2-2.1-0.4c-0.7-0.2-1.3-0.5-1.5-0.8c-0.3-0.3-0.5-0.9-0.6-1.8c-0.1-0.9-0.2-1.9-0.3-2.9
		c-0.1-1.1-0.2-2.2-0.3-3.5C261,81.7,258.7,82.1,256.4,82.4z M258.7,74.4c1.4-0.2,2.8-0.3,4.2-0.4c-0.1-2.5-0.1-5.1-0.1-7.6
		c0-2.5,0-5,0-7.5c-1.2,2.3-2.6,4.7-4,7.5c-1.4,2.7-2.9,5.6-4.3,8.5C255.9,74.7,257.2,74.5,258.7,74.4z"/>
	<path class="st2" d="M284.4,84.8c-0.4,1.7-0.7,3.4-1,5.1c-0.2,0.5-0.4,0.8-0.6,1c-0.3,0.2-0.7,0.2-1.5,0c-0.8-0.2-1.6-0.4-2.2-0.5
		c-0.6-0.1-1.3-0.3-1.9-0.6c-0.6-0.3-1-0.7-1.2-1.2c-0.2-0.5-0.3-1.1-0.2-1.9c0.1-0.6,0.1-1.6,0.3-2.8c0.1-1.2,0.2-2.6,0.4-4.2
		c0.2-1.6,0.3-3.2,0.5-5c0.2-1.8,0.4-3.6,0.6-5.4c0.2-1.8,0.5-3.5,0.8-5.2c0.3-1.7,0.6-3.2,0.9-4.5c0.3-1.3,0.6-2.5,1-3.3
		s0.8-1.4,1.2-1.6c1.9-0.9,3.9-1.7,6-2.5c2.1-0.8,4.1-1.4,6.2-1.8c2-0.4,3.9-0.4,5.7-0.1c1.8,0.3,3.4,1.1,4.7,2.4
		c1.1,1.2,2.1,2.4,2.9,3.8c0.9,1.3,1.6,3,2.1,4.9c0.4,2.1,0.2,3.8-0.5,5.1c-1.1,2.1-2.9,4.1-5.3,5.9c-2.5,1.8-5.5,3.5-8.9,5
		c0.7,0.8,1.5,1.7,2.3,2.5c0.8,0.9,1.7,1.8,2.6,2.7c0.9,0.9,1.8,1.8,2.7,2.6c0.9,0.8,1.7,1.6,2.5,2.2c0.6,0.5,0.9,0.9,0.8,1.2
		c-0.1,0.3-0.3,0.6-0.8,1c-0.6,0.4-1,0.7-1.4,0.8c-0.4,0.1-0.9,0.2-1.4,0.3c-0.7,0.2-1.4,0.2-2.2,0.2c-0.8-0.1-1.8-0.4-2.8-1.1
		c-0.7-0.5-1.5-1.1-2.5-1.9c-0.9-0.7-1.9-1.6-2.9-2.5c-1-0.9-2-1.8-3-2.8c-1-1-1.9-2-2.7-2.9C285.2,81.2,284.8,83,284.4,84.8z
		 M289.1,65.6c-0.5,1.8-1,3.7-1.6,5.7c2.1-0.7,4-1.6,5.7-2.6c1.7-1,3-2.1,4.1-3.1c1.1-1.1,1.9-2.1,2.4-3c0.5-1,0.6-1.7,0.5-2.2
		c-0.4-0.9-1.5-1.3-3.3-1.3c-0.9,0-1.9,0.1-3,0.3c-1.1,0.2-2.2,0.6-3.4,1.2C290.1,62.1,289.6,63.8,289.1,65.6z"/>
	<path class="st2" d="M317.2,52.2c1.6-0.4,3.3-0.7,5.1-1c1.8-0.3,3.6-0.6,5.5-0.8c1.9-0.2,3.7-0.4,5.6-0.4c1.8,0,2.9,0.6,3.4,2
		c0.4,0.7,0.7,1.4,0.8,2c0.2,0.6,0.3,1.3,0.5,2c0.1,0.8,0.1,1.3-0.2,1.6c-0.2,0.3-0.8,0.5-1.7,0.6c-1.9,0.2-3.8,0.4-5.7,0.6
		c-2,0.2-4.1,0.5-6.2,0.8c-0.5,1.4-0.9,2.8-1.3,4.3c-0.4,1.5-0.8,3.1-1.3,4.7c0.9-0.1,1.9-0.2,2.8-0.3c0.9-0.1,1.9-0.1,3-0.1
		c0.9,0,1.5,0,2,0.2c0.5,0.2,0.9,0.6,1.2,1.2c0.4,0.6,0.7,1.2,0.9,1.8c0.2,0.6,0.4,1.2,0.5,1.8c0.2,0.7,0.3,1.2,0.1,1.4
		c-0.2,0.2-0.7,0.5-1.6,0.6c-1.9,0.3-3.7,0.7-5.7,1c-1.9,0.3-3.8,0.6-5.6,1c-0.2,1-0.5,1.9-0.7,2.8c-0.2,0.9-0.4,1.8-0.7,2.6
		c1.5-0.2,2.8-0.4,4.1-0.6c1.3-0.2,2.7-0.3,4.3-0.4c0.9-0.1,1.5,0,2,0.2c0.5,0.2,0.9,0.6,1.2,1.1c0.4,0.6,0.7,1.2,0.9,1.7
		c0.2,0.5,0.4,1.1,0.7,1.6c0.2,0.6,0.2,1,0,1.3c-0.2,0.2-0.6,0.4-1.5,0.6c-2,0.4-4,0.8-6,1.2c-2,0.4-4,0.8-5.8,1.1
		c-1.2,0.3-2.2,0.4-2.8,0.2c-0.6-0.2-1.2-0.4-1.6-0.7c-0.5-0.3-1-0.7-1.5-1c-0.5-0.4-1-0.8-1.7-1.4c-0.5-0.4-0.9-0.9-1.2-1.5
		c-0.3-0.6-0.4-1.3-0.3-2.1l4.4-30.8C314.1,52.9,315.6,52.6,317.2,52.2z"/>
	<path class="st2" d="M344.8,84.8c-0.4,1.7-0.7,3.4-1,5.1c-0.2,0.5-0.4,0.8-0.6,1c-0.3,0.2-0.7,0.2-1.5,0c-0.8-0.2-1.6-0.4-2.2-0.5
		c-0.6-0.1-1.3-0.3-1.9-0.6c-0.6-0.3-1-0.7-1.2-1.2c-0.2-0.5-0.3-1.1-0.2-1.9c0.1-0.6,0.1-1.6,0.3-2.8c0.1-1.2,0.2-2.6,0.4-4.2
		c0.2-1.6,0.3-3.2,0.5-5c0.2-1.8,0.4-3.6,0.6-5.4c0.2-1.8,0.5-3.5,0.8-5.2c0.3-1.7,0.6-3.2,0.9-4.5c0.3-1.3,0.6-2.5,1-3.3
		c0.4-0.9,0.8-1.4,1.2-1.6c1.9-0.9,3.9-1.7,6-2.5c2.1-0.8,4.1-1.4,6.2-1.8c2-0.4,3.9-0.4,5.7-0.1c1.8,0.3,3.4,1.1,4.7,2.4
		c1.1,1.2,2.1,2.4,2.9,3.8c0.9,1.3,1.6,3,2.1,4.9c0.4,2.1,0.2,3.8-0.5,5.1c-1.1,2.1-2.9,4.1-5.3,5.9c-2.5,1.8-5.5,3.5-8.9,5
		c0.7,0.8,1.5,1.7,2.3,2.5c0.8,0.9,1.7,1.8,2.6,2.7c0.9,0.9,1.8,1.8,2.7,2.6c0.9,0.8,1.7,1.6,2.5,2.2c0.6,0.5,0.9,0.9,0.8,1.2
		c-0.1,0.3-0.3,0.6-0.8,1c-0.6,0.4-1,0.7-1.4,0.8c-0.4,0.1-0.9,0.2-1.4,0.3c-0.7,0.2-1.4,0.2-2.2,0.2c-0.8-0.1-1.8-0.4-2.8-1.1
		c-0.7-0.5-1.5-1.1-2.5-1.9c-0.9-0.7-1.9-1.6-2.9-2.5c-1-0.9-2-1.8-3-2.8c-1-1-1.9-2-2.7-2.9C345.5,81.2,345.1,83,344.8,84.8z
		 M349.5,65.6c-0.5,1.8-1,3.7-1.6,5.7c2.1-0.7,4-1.6,5.7-2.6c1.6-1,3-2.1,4.1-3.1c1.1-1.1,1.9-2.1,2.4-3c0.5-1,0.6-1.7,0.5-2.2
		c-0.4-0.9-1.5-1.3-3.3-1.3c-0.9,0-1.9,0.1-3,0.3c-1.1,0.2-2.2,0.6-3.4,1.2C350.4,62.1,349.9,63.8,349.5,65.6z"/>
</g>
</svg>
