<?xml version="1.0" encoding="utf-8"?>
<!-- Generator: Adobe Illustrator 22.0.0, SVG Export Plug-In . SVG Version: 6.00 Build 0)  -->
<svg version="1.1" id="Calque_1" xmlns="http://www.w3.org/2000/svg" xmlns:xlink="http://www.w3.org/1999/xlink" x="0px" y="0px"
	 viewBox="0 0 425.2 141.7" style="enable-background:new 0 0 425.2 141.7;" xml:space="preserve">
<style type="text/css">
	.st0{fill:#E82E89;}
	.st1{fill:#FFFFFF;}
	.st2{fill:#FDED57;}
</style>
<path class="st0" d="M91.5,141.7c110.9-15.7,221.8-31.5,332.7-47.2C387,63,349.9,31.5,312.7,0C208.1,15.7,103.6,31.4-1,47.1
	C29.8,78.7,60.7,110.2,91.5,141.7z"/>
<g>
	<path class="st1" d="M114.5,86.6c0.1,0.8-0.2,1.7-0.9,2.9c-0.7,1.3-1.5,2.5-2.5,3.6c-1,1.1-2.1,2-3.1,2.7c-0.5,0.3-1.1,0.6-1.8,0.9
		c-0.7,0.3-1.5,0.5-2.3,0.7c-0.8,0.2-1.6,0.3-2.5,0.4c-0.9,0.1-1.7,0.1-2.5,0c-1.7-0.1-3.3-0.4-4.7-0.8c-1.4-0.4-2.6-0.8-3.7-1.2
		c-1-0.4-2-1-3-1.8c-1-0.8-1.8-1.7-2.3-2.7c-1-1.6-1.6-3.4-2-5.6c-0.4-2.1-0.5-4.4-0.4-6.9c0.1-2.4,0.5-4.9,1.1-7.5
		c0.6-2.6,1.4-5.1,2.5-7.6c1.1-2.5,2.3-4.8,3.8-7c1.5-2.2,3.2-4.1,5.1-5.7c1.5-1.3,3.1-2.2,4.7-2.6c1.6-0.4,3.1-0.5,4.5-0.4
		c1,0.1,2.1,0.3,3.2,0.6c1.1,0.3,2.2,0.6,3.2,1c1,0.4,2,0.8,2.9,1.3c0.9,0.5,1.7,0.9,2.5,1.4c0.7,0.6,1.3,1.2,1.7,1.7
		c0.5,0.6,0.8,1.1,1.1,1.7c0.3,0.6,0.5,1.2,0.6,1.8c0.1,0.6,0.2,1.3,0.2,2.1c0,0.8,0,1.7,0,2.6c-0.1,0.9-0.1,1.8-0.2,2.7
		c-0.1,0.9-0.3,1.8-0.4,2.6c-0.2,0.8-0.4,1.6-0.6,2.2c-0.1,0.3-0.2,0.6-0.3,0.8c-0.1,0.3-0.3,0.5-0.5,0.6c-0.2,0.1-0.5,0.2-0.9,0.3
		c-0.4,0-0.9,0-1.5-0.1c-1.2-0.2-2.2-0.5-3-0.9c-0.8-0.4-1.5-0.8-2.1-1.4c-0.5-0.5-1-1.1-1.3-1.8c-0.3-0.7-0.6-1.5-0.7-2.4
		c-0.1-0.8-0.2-1.5-0.2-2.1c0-1.2,0-2.2-0.2-3.2c-0.1-1-0.6-1.6-1.3-1.9c-0.7-0.2-1.6,0.2-2.6,1.3c-1,1.1-2,2.4-3,4.2
		c-1,1.7-2,3.6-2.9,5.6c-0.9,2.1-1.6,4-2.1,5.7c-0.5,1.8-0.8,3.7-1.1,5.5c-0.2,1.8-0.3,3.5-0.2,4.9c0.1,1.5,0.3,2.7,0.7,3.8
		c0.4,1,1,1.7,1.8,1.9c1.5,0.5,3.7-0.8,6.7-3.9c2.2-2.2,5-2.8,8.5-1.8C113.7,85.3,114.4,85.9,114.5,86.6z"/>
	<path class="st1" d="M154.3,56.6c0.6,1.3,1.1,2.7,1.4,4.3c0.4,2.7,0.5,5.6,0.3,8.7c-0.2,3.1-0.8,6.2-1.6,9.3c-0.9,3.1-2,6-3.5,8.8
		c-1.5,2.7-3.3,5.1-5.5,7c-1.5,1.1-3,1.9-4.6,2.3c-1.6,0.4-3.5,0.5-5.6,0.2c-1.4-0.1-2.8-0.4-4.3-0.7c-1.5-0.3-2.8-0.8-4-1.4
		c-1-0.5-2-1.2-2.9-2c-1-0.8-1.7-1.7-2.3-2.7c-0.9-1.7-1.5-3.6-2-5.7c-0.4-2.1-0.6-4.4-0.6-6.7c0-2.3,0.3-4.7,0.8-7.2
		c0.5-2.4,1.3-4.8,2.3-7.1c1-2.3,2.2-4.5,3.7-6.6c1.4-2.1,3.1-3.9,5-5.6c1.3-1,2.8-1.7,4.6-2.3c1.8-0.5,3.5-0.6,5.1-0.4
		c2.1,0.3,4.1,0.8,6,1.5c1.9,0.7,3.5,1.5,4.7,2.5C152.7,54.2,153.7,55.4,154.3,56.6z M139.8,59.5c-1,0.9-1.9,2.1-2.9,3.7
		c-1,1.5-1.8,3.3-2.7,5.1c-0.8,1.9-1.5,3.7-2,5.5c-0.5,1.7-0.9,3.5-1.1,5.4c-0.2,1.9-0.3,3.6-0.2,5.2c0.1,1.6,0.3,3,0.8,4.1
		c0.4,1.1,1.1,1.8,1.9,2.1c0.8,0.3,1.6,0.1,2.4-0.5c0.8-0.6,1.7-1.5,2.5-2.7c0.8-1.2,1.6-2.7,2.4-4.5c0.8-1.8,1.4-3.7,2-5.8
		c0.5-1.7,0.9-3.6,1.2-5.7c0.3-2.1,0.4-4,0.4-5.8c0-1.8-0.2-3.4-0.5-4.7c-0.3-1.3-0.9-2.1-1.6-2.3C141.7,58.3,140.8,58.6,139.8,59.5
		z"/>
	<path class="st1" d="M168.6,77.1c-0.4,2.5-0.8,4.9-1.2,7.2c-0.4,2.3-0.7,4.5-1,6.5c-0.3,2-0.5,3.8-0.6,5.4
		c-0.1,0.7-0.4,1.1-0.7,1.3c-0.3,0.2-0.9,0.2-1.8,0c-0.8-0.2-1.7-0.4-2.6-0.7c-0.9-0.3-1.7-0.6-2.4-1c-0.9-0.4-1.5-0.9-1.9-1.4
		c-0.3-0.5-0.5-1.2-0.4-2.2c0-1.4,0.1-3.2,0.2-5.3c0.1-2.1,0.3-4.3,0.5-6.7c0.2-2.4,0.5-4.9,0.8-7.5c0.3-2.6,0.6-5.2,1-7.7
		c0.3-2.5,0.7-4.9,1-7.2c0.3-2.3,0.7-4.2,1-6c0.3-1.2,0.8-2,1.4-2.3c0.6-0.3,1.5-0.4,2.8-0.2c2,0.3,3.7,0.6,5,1
		c1.4,0.4,2.8,0.8,4.2,1.3c0.9,0.3,1.6,0.7,2.1,1.1c0.5,0.4,0.9,0.8,1.2,1.3c0.3,0.5,0.5,1,0.6,1.5c0.1,0.5,0.3,1.2,0.4,1.9
		c0,0.3,0,0.7,0.1,1.2c0.1,0.5,0.2,1.3,0.3,2.4c0.2,1.2,0.4,2.8,0.7,5c0.3,2.2,0.8,5.1,1.4,8.9c0.6-1.3,1.3-2.8,2.1-4.3
		c0.8-1.6,1.6-3.2,2.4-4.8c0.8-1.6,1.7-3.3,2.6-4.9c0.9-1.6,1.8-3.2,2.6-4.7c0.8-1.7,1.6-3.1,2.2-4.2c0.6-1.1,1.3-1.9,1.9-2.5
		c0.7-0.6,1.4-0.9,2.2-1c0.8-0.1,1.9,0.1,3.2,0.4c1.5,0.4,3.1,0.9,4.8,1.4c1.7,0.5,3.3,1.2,4.9,1.9c1.1,0.5,1.7,1.1,2,1.8
		c0.3,0.7,0.2,1.6-0.2,2.8c-0.5,1.7-1.2,3.7-1.9,5.9c-0.7,2.2-1.4,4.6-2.1,7c-0.7,2.5-1.4,4.9-2.1,7.5c-0.7,2.5-1.4,4.9-2,7.3
		c-0.6,2.3-1.2,4.4-1.7,6.4c-0.5,1.9-0.9,3.6-1.2,4.8c-0.3,0.7-0.5,1.1-0.9,1.4c-0.3,0.3-1,0.3-1.9,0.1c-0.8-0.2-1.7-0.4-2.6-0.7
		s-1.6-0.6-2.3-0.9c-0.8-0.4-1.4-0.9-1.7-1.4c-0.3-0.5-0.3-1.3-0.1-2.2c0.1-1.1,0.4-2.5,0.7-4.3c0.3-1.7,0.7-3.7,1.2-5.8
		s0.9-4.3,1.5-6.6c0.5-2.3,1.1-4.5,1.7-6.7c-1.1,1.9-2.3,4-3.5,6.2c-1.2,2.2-2.4,4.4-3.6,6.6c-1.2,2.2-2.2,4.2-3.2,6.1
		c-1,1.9-1.8,3.5-2.3,4.8c-0.2,0.4-0.3,0.7-0.5,1c-0.1,0.2-0.3,0.4-0.5,0.5c-0.2,0.1-0.4,0.2-0.7,0.2c-0.3,0-0.7,0-1.2-0.1
		c-1.5-0.3-2.7-0.6-3.8-1c-0.4-0.1-0.8-0.3-1-0.5c-0.3-0.2-0.5-0.4-0.8-0.7c-0.2-0.3-0.4-0.6-0.6-1c-0.2-0.4-0.3-0.9-0.5-1.5
		c-0.7-2.6-1.4-5.7-2.1-9.1c-0.7-3.4-1.3-7-1.8-10.7C169.5,72.1,169,74.6,168.6,77.1z"/>
	<path class="st1" d="M219.4,90.7c-0.4,1.9-0.7,3.8-1,5.7c-0.2,0.6-0.4,1-0.8,1.2c-0.3,0.2-1,0.2-1.9,0c-1-0.3-1.9-0.5-2.8-0.7
		c-0.9-0.2-1.7-0.5-2.4-0.9c-0.7-0.4-1.2-0.9-1.6-1.5c-0.3-0.6-0.4-1.4-0.2-2.3c0.3-0.9,0.6-2.4,0.9-4.5c0.3-2.1,0.5-4.5,0.7-7.1
		c0.2-2.7,0.4-5.4,0.7-8.3c0.2-2.9,0.4-5.5,0.7-7.9c0.2-2.4,0.5-4.4,0.7-6.1c0.3-1.6,0.6-2.5,1-2.7c1.4-0.7,2.9-1.5,4.6-2.3
		c1.7-0.8,3.4-1.5,5.2-2.1c1.8-0.6,3.6-1.2,5.4-1.6c1.8-0.4,3.6-0.7,5.3-0.7c1.7,0,3.3,0.2,4.7,0.6c1.4,0.4,2.7,1.1,3.8,2.2
		c1.2,1.4,2.4,2.9,3.4,4.5c1,1.6,1.9,3.5,2.4,5.9c0.3,1.1,0.3,2.2,0.2,3.2c-0.1,1-0.4,1.9-0.8,2.8c-0.4,0.9-1,1.7-1.6,2.5
		c-0.6,0.8-1.3,1.6-2.1,2.4c-1.2,1.2-2.7,2.5-4.5,3.6c-1.7,1.2-3.6,2.3-5.7,3.3s-4.2,2-6.5,2.8c-2.3,0.8-4.5,1.5-6.7,2.1
		C220.2,86.8,219.8,88.8,219.4,90.7z M229.8,71.3c1.9-1.2,3.5-2.4,4.8-3.7c1.2-1.3,2.1-2.5,2.6-3.7c0.5-1.2,0.6-2.2,0.3-3
		c-0.1-0.4-0.5-0.8-1.2-1c-0.7-0.2-1.5-0.3-2.6-0.3c-1,0-2.2,0.2-3.5,0.5c-1.3,0.3-2.6,0.7-4,1.3c-0.6,2-1.1,4-1.7,6.2
		c-0.5,2.1-1.1,4.3-1.6,6.7C225.6,73.5,227.9,72.5,229.8,71.3z"/>
	<path class="st1" d="M264.1,87.2c-2.7,0.4-5.1,0.9-7.2,1.4c-0.7,1.4-1.4,2.8-1.9,4c-0.5,1.2-1.1,2.4-1.6,3.6
		c-0.3,0.6-0.7,1-1.1,1.1c-0.4,0.1-1.1,0-1.9-0.3c-0.5-0.2-1-0.4-1.6-0.6c-0.6-0.2-1.1-0.5-1.7-0.8c-0.4-0.3-0.8-0.5-1.2-0.7
		c-0.3-0.2-0.6-0.4-0.8-0.7c-0.2-0.3-0.3-0.7-0.3-1.1s0.1-1.1,0.3-1.8c0.9-2.5,2-5.5,3.4-8.9c1.4-3.4,2.9-6.9,4.6-10.6
		c1.6-3.6,3.3-7.2,5-10.7c1.7-3.5,3.3-6.7,4.9-9.4c0.5-1,1.3-1.8,2.1-2.4c0.9-0.6,2.2-0.9,3.9-0.7c1.5,0.1,2.8,0.2,4,0.4
		c1.2,0.2,2.2,0.4,3.2,0.6c1,0.2,1.9,0.5,2.7,0.7c0.8,0.3,1.7,0.5,2.5,0.7c1.1,0.4,1.9,0.9,2.2,1.6c0.3,0.7,0.4,1.5,0.3,2.6
		c-0.2,2.6-0.4,5.6-0.5,9c-0.1,3.4-0.3,6.9-0.3,10.6c-0.1,3.7-0.1,7.3-0.1,11c0,3.7,0,7.1,0,10.3c0,0.7-0.1,1.1-0.4,1.4
		c-0.3,0.3-0.9,0.4-1.8,0.4c-1,0-1.8,0-2.6-0.1c-0.8-0.1-1.6-0.2-2.5-0.5c-0.9-0.3-1.5-0.6-1.8-1c-0.3-0.4-0.6-1.1-0.7-2.1
		c-0.1-1.1-0.3-2.2-0.4-3.5c-0.1-1.3-0.2-2.6-0.3-4.2C269.6,86.5,266.8,86.8,264.1,87.2z M266.8,77.7c1.7-0.2,3.3-0.3,5-0.4
		c-0.1-3-0.1-6-0.2-9c0-3,0-5.9,0.1-8.9c-1.5,2.7-3.1,5.6-4.8,8.9c-1.7,3.2-3.4,6.6-5.1,10.1C263.5,78.1,265.1,77.9,266.8,77.7z"/>
	<path class="st1" d="M297.4,90c-0.4,2.1-0.8,4.1-1.2,6c-0.2,0.6-0.4,1-0.7,1.2c-0.3,0.2-0.9,0.2-1.7,0c-1-0.3-1.9-0.5-2.6-0.6
		c-0.8-0.1-1.5-0.4-2.2-0.8c-0.7-0.4-1.2-0.9-1.4-1.5c-0.3-0.6-0.3-1.3-0.3-2.3c0.1-0.8,0.2-1.9,0.3-3.4c0.1-1.5,0.3-3.1,0.5-5
		c0.2-1.9,0.4-3.8,0.6-6c0.2-2.1,0.5-4.3,0.8-6.4c0.3-2.1,0.6-4.2,0.9-6.2c0.3-2,0.7-3.8,1-5.4c0.4-1.6,0.8-2.9,1.2-4
		c0.4-1,0.9-1.7,1.4-2c2.3-1,4.6-2,7.1-3c2.5-1,4.9-1.7,7.3-2.1c2.4-0.4,4.7-0.5,6.8-0.1c2.1,0.3,4,1.3,5.6,2.9
		c1.3,1.4,2.4,2.9,3.5,4.5c1,1.6,1.9,3.5,2.4,5.9c0.5,2.5,0.3,4.5-0.6,6c-1.3,2.5-3.4,4.9-6.4,7c-3,2.1-6.5,4.1-10.6,5.9
		c0.8,1,1.8,2,2.8,3c1,1.1,2,2.1,3.1,3.2c1.1,1.1,2.1,2.1,3.2,3.1c1,1,2,1.9,2.9,2.6c0.7,0.6,1.1,1.1,1,1.5
		c-0.1,0.4-0.4,0.8-0.9,1.2c-0.7,0.5-1.2,0.8-1.7,0.9c-0.5,0.1-1,0.2-1.7,0.3c-0.8,0.2-1.7,0.3-2.7,0.2c-1-0.1-2.1-0.5-3.4-1.3
		c-0.8-0.6-1.8-1.3-2.9-2.2c-1.1-0.9-2.2-1.9-3.4-2.9c-1.2-1.1-2.3-2.2-3.5-3.3c-1.2-1.2-2.2-2.3-3.2-3.5
		C298.3,85.9,297.9,88,297.4,90z M303,67.3c-0.6,2.1-1.2,4.4-1.9,6.8c2.5-0.8,4.8-1.9,6.7-3.1c2-1.2,3.6-2.5,4.9-3.7
		c1.3-1.3,2.3-2.5,2.9-3.6c0.6-1.1,0.8-2,0.5-2.6c-0.4-1-1.7-1.5-3.9-1.5c-1.1,0-2.2,0.1-3.5,0.4c-1.3,0.3-2.6,0.7-4.1,1.4
		C304.1,63.2,303.6,65.2,303,67.3z"/>
	<path class="st1" d="M336.4,51.3c1.9-0.4,3.9-0.8,6-1.2c2.1-0.4,4.3-0.7,6.5-1c2.2-0.3,4.4-0.4,6.6-0.5c2.1,0,3.4,0.8,4,2.4
		c0.5,0.9,0.8,1.7,1,2.4c0.2,0.7,0.4,1.5,0.5,2.3c0.1,1,0.1,1.6-0.2,1.9c-0.3,0.3-1,0.6-2,0.7c-2.2,0.3-4.5,0.5-6.8,0.8
		c-2.3,0.3-4.8,0.6-7.4,0.9c-0.6,1.6-1.1,3.4-1.5,5.1c-0.5,1.8-1,3.6-1.6,5.6c1.1-0.1,2.2-0.3,3.3-0.3c1.1-0.1,2.3-0.1,3.5-0.2
		c1,0,1.8,0.1,2.4,0.3s1.1,0.7,1.5,1.4c0.4,0.7,0.8,1.5,1,2.2c0.2,0.7,0.4,1.4,0.6,2.2c0.3,0.8,0.3,1.4,0.1,1.7
		c-0.2,0.3-0.9,0.6-1.9,0.8c-2.2,0.4-4.4,0.8-6.7,1.2c-2.3,0.4-4.5,0.8-6.6,1.2c-0.3,1.2-0.6,2.3-0.8,3.3c-0.3,1-0.5,2.1-0.8,3.1
		c1.7-0.3,3.4-0.5,4.9-0.7c1.6-0.2,3.3-0.3,5.1-0.4c1-0.1,1.8,0,2.4,0.2c0.6,0.2,1.1,0.7,1.5,1.3c0.4,0.7,0.8,1.4,1,2.1
		s0.5,1.3,0.8,2c0.2,0.7,0.2,1.2,0,1.5c-0.2,0.3-0.8,0.5-1.8,0.7c-2.3,0.4-4.7,0.9-7.1,1.4c-2.4,0.5-4.7,0.9-6.9,1.3
		c-1.5,0.4-2.6,0.4-3.3,0.2c-0.8-0.2-1.4-0.5-2-0.9c-0.6-0.4-1.2-0.8-1.8-1.2c-0.6-0.4-1.2-1-2-1.6c-0.6-0.5-1.1-1.1-1.5-1.8
		c-0.3-0.7-0.5-1.5-0.4-2.5l5.2-36.6C332.7,52.2,334.4,51.8,336.4,51.3z"/>
	<path class="st1" d="M369.1,90c-0.4,2.1-0.8,4.1-1.2,6c-0.2,0.6-0.4,1-0.7,1.2c-0.3,0.2-0.9,0.2-1.7,0c-1-0.3-1.9-0.5-2.6-0.6
		c-0.8-0.1-1.5-0.4-2.2-0.8c-0.7-0.4-1.2-0.9-1.4-1.5c-0.3-0.6-0.3-1.3-0.3-2.3c0.1-0.8,0.2-1.9,0.3-3.4c0.1-1.5,0.3-3.1,0.5-5
		c0.2-1.9,0.4-3.8,0.6-6c0.2-2.1,0.5-4.3,0.8-6.4c0.3-2.1,0.6-4.2,0.9-6.2c0.3-2,0.7-3.8,1-5.4c0.4-1.6,0.8-2.9,1.2-4
		c0.4-1,0.9-1.7,1.4-2c2.3-1,4.6-2,7.1-3c2.5-1,4.9-1.7,7.3-2.1c2.4-0.4,4.7-0.5,6.8-0.1c2.1,0.3,4,1.3,5.6,2.9
		c1.3,1.4,2.4,2.9,3.5,4.5c1,1.6,1.9,3.5,2.4,5.9c0.5,2.5,0.3,4.5-0.6,6c-1.3,2.5-3.4,4.9-6.4,7c-3,2.1-6.5,4.1-10.6,5.9
		c0.8,1,1.8,2,2.8,3c1,1.1,2,2.1,3.1,3.2c1.1,1.1,2.1,2.1,3.2,3.1c1,1,2,1.9,2.9,2.6c0.7,0.6,1.1,1.1,1,1.5
		c-0.1,0.4-0.4,0.8-0.9,1.2c-0.7,0.5-1.2,0.8-1.7,0.9c-0.5,0.1-1,0.2-1.7,0.3c-0.8,0.2-1.7,0.3-2.7,0.2c-1-0.1-2.1-0.5-3.4-1.3
		c-0.8-0.6-1.8-1.3-2.9-2.2c-1.1-0.9-2.2-1.9-3.4-2.9c-1.2-1.1-2.3-2.2-3.5-3.3c-1.2-1.2-2.2-2.3-3.2-3.5
		C370,85.9,369.6,88,369.1,90z M374.7,67.3c-0.6,2.1-1.2,4.4-1.9,6.8c2.5-0.8,4.8-1.9,6.7-3.1c2-1.2,3.6-2.5,4.9-3.7
		c1.3-1.3,2.3-2.5,2.9-3.6c0.6-1.1,0.8-2,0.5-2.6c-0.4-1-1.7-1.5-3.9-1.5c-1.1,0-2.2,0.1-3.5,0.4c-1.3,0.3-2.6,0.7-4.1,1.4
		C375.8,63.2,375.3,65.2,374.7,67.3z"/>
</g>
<g>
	<path class="st2" d="M71.2,56.5c1.2-5.1,2.3-9.8,3.5-14c0.3-1.2,0.8-1.9,1.5-2.2c0.7-0.3,1.6-0.3,2.9,0.1c0.6,0.2,1.1,0.3,1.6,0.4
		s0.9,0.3,1.4,0.5c0.5,0.2,0.9,0.4,1.5,0.7c0.5,0.3,1.1,0.6,1.8,1.1c1.2,0.7,1.8,1.5,1.9,2.2c0.1,0.7,0,1.6-0.3,2.7
		c-0.9,3-1.9,6.3-2.9,10.1c-1,3.8-2,7.6-3,11.5c-1,3.9-1.9,7.7-2.8,11.4s-1.7,7-2.3,9.8c-0.2,1.5-1.4,2-3.6,1.6
		c-1.8-0.4-3.7-0.9-5.6-1.6c-1.8-0.7-3-1.9-3.7-3.6c-0.6-1.2-1.1-2.7-1.7-4.3c-0.6-1.6-1.2-3.4-1.8-5.3c-0.6-1.9-1.2-3.9-1.8-5.9
		c-0.6-2.1-1.2-4.1-1.7-6.2c-0.4,2.5-0.9,5-1.4,7.4c-0.5,2.5-0.9,4.9-1.3,7.1s-0.8,4.4-1.1,6.3c-0.3,1.9-0.6,3.6-0.8,5.1
		c-0.2,0.7-0.4,1.1-0.8,1.3c-0.4,0.2-1.1,0.1-2.1-0.1c-1-0.2-1.9-0.5-2.9-0.8c-1-0.3-1.9-0.7-2.8-1.2c-0.9-0.4-1.5-0.9-1.8-1.5
		c-0.3-0.6-0.4-1.4-0.3-2.4c0.1-1.1,0.2-2.6,0.4-4.6c0.2-2,0.4-4.3,0.7-6.8c0.3-2.5,0.6-5.3,1-8.2c0.4-2.9,0.8-5.8,1.2-8.7
		c0.4-2.9,0.9-5.7,1.4-8.3c0.5-2.7,0.9-5.1,1.4-7.1c0.3-1.2,0.8-2,1.5-2.3c0.7-0.3,1.7-0.3,2.9,0c1.5,0.4,2.9,0.9,4.3,1.3
		c1.4,0.4,2.9,1,4.4,1.7c1.2,0.5,2.1,1.2,2.6,1.9c0.5,0.8,0.9,1.9,1.1,3.5c0.2,1.2,0.5,2.6,0.8,4.4c0.3,1.8,0.7,3.8,1.1,5.8
		c0.4,2.1,0.8,4.3,1.3,6.5c0.4,2.2,0.9,4.3,1.3,6.4C69,66.7,70,61.5,71.2,56.5z"/>
</g>
</svg>
