<?xml version="1.0" encoding="utf-8"?>
<!-- Generator: Adobe Illustrator 22.0.0, SVG Export Plug-In . SVG Version: 6.00 Build 0)  -->
<svg version="1.1" id="Calque_1" xmlns="http://www.w3.org/2000/svg" xmlns:xlink="http://www.w3.org/1999/xlink" x="0px" y="0px"
	 viewBox="0 0 200 50" style="enable-background:new 0 0 200 50;" xml:space="preserve">
<style type="text/css">
	.st0{fill:none;stroke:#FFFFFF;stroke-miterlimit:10;}
	.st1{fill:#FFFFFF;}
</style>
<circle class="st0" cx="25.3" cy="24.8" r="23.8"/>
<g>
	<path class="st1" d="M12.3,40.3V8.9h6.2l12.8,21v-21h5.9v31.4h-6.4L18.2,19.8v20.5H12.3z"/>
</g>
<g>
	<path class="st1" d="M67.7,20.5l4.1,1.3c-0.6,2.3-1.7,3.9-3.1,5c-1.4,1.1-3.3,1.6-5.5,1.6c-2.8,0-5-0.9-6.8-2.8
		c-1.8-1.9-2.7-4.5-2.7-7.7c0-3.5,0.9-6.1,2.7-8c1.8-1.9,4.1-2.9,7-2.9C66,7,68,7.7,69.6,9.2c0.9,0.9,1.7,2.2,2.1,3.8l-4.1,1
		c-0.2-1.1-0.8-1.9-1.5-2.5c-0.8-0.6-1.7-0.9-2.8-0.9c-1.5,0-2.8,0.6-3.7,1.7c-1,1.1-1.4,2.9-1.4,5.4c0,2.6,0.5,4.5,1.4,5.6
		c0.9,1.1,2.2,1.7,3.7,1.7c1.1,0,2.1-0.4,2.9-1.1C66.8,23.1,67.4,22,67.7,20.5z"/>
	<path class="st1" d="M74.4,20.4c0-1.3,0.3-2.6,1-3.8s1.6-2.2,2.8-2.8c1.2-0.7,2.5-1,4-1c2.3,0,4.1,0.7,5.6,2.2
		c1.5,1.5,2.2,3.3,2.2,5.6c0,2.3-0.7,4.2-2.2,5.7c-1.5,1.5-3.3,2.2-5.5,2.2c-1.4,0-2.7-0.3-3.9-0.9c-1.3-0.6-2.2-1.5-2.9-2.7
		C74.8,23.6,74.4,22.1,74.4,20.4z M78.5,20.6c0,1.5,0.4,2.6,1.1,3.4c0.7,0.8,1.6,1.2,2.6,1.2s1.9-0.4,2.6-1.2
		c0.7-0.8,1.1-1.9,1.1-3.5c0-1.5-0.4-2.6-1.1-3.4c-0.7-0.8-1.6-1.2-2.6-1.2s-1.9,0.4-2.6,1.2S78.5,19.1,78.5,20.6z"/>
	<path class="st1" d="M92.8,13.1h3.7v2.1c1.3-1.6,2.9-2.4,4.7-2.4c1,0,1.8,0.2,2.5,0.6c0.7,0.4,1.3,1,1.7,1.8
		c0.7-0.8,1.4-1.4,2.1-1.8c0.8-0.4,1.6-0.6,2.4-0.6c1.1,0,2,0.2,2.8,0.7c0.8,0.4,1.3,1.1,1.7,2c0.3,0.6,0.4,1.7,0.4,3.1v9.6h-4v-8.6
		c0-1.5-0.1-2.5-0.4-2.9c-0.4-0.6-0.9-0.8-1.7-0.8c-0.6,0-1.1,0.2-1.6,0.5s-0.8,0.8-1.1,1.5c-0.2,0.7-0.3,1.7-0.3,3.1v7.2h-4v-8.2
		c0-1.5-0.1-2.4-0.2-2.8c-0.1-0.4-0.4-0.7-0.7-0.9c-0.3-0.2-0.7-0.3-1.2-0.3c-0.6,0-1.2,0.2-1.7,0.5c-0.5,0.3-0.8,0.8-1.1,1.4
		s-0.3,1.7-0.3,3.1v7.3h-4V13.1z"/>
	<path class="st1" d="M118.7,13.1h3.7v2.2c0.5-0.8,1.1-1.4,2-1.8c0.8-0.5,1.7-0.7,2.7-0.7c1.7,0,3.2,0.7,4.4,2.1s1.8,3.3,1.8,5.7
		c0,2.5-0.6,4.5-1.8,5.9c-1.2,1.4-2.7,2.1-4.5,2.1c-0.8,0-1.6-0.2-2.3-0.5c-0.7-0.3-1.4-0.9-2.1-1.7v7.6h-4V13.1z M122.7,20.3
		c0,1.7,0.3,2.9,1,3.7c0.7,0.8,1.5,1.2,2.4,1.2c0.9,0,1.7-0.4,2.3-1.1c0.6-0.7,0.9-2,0.9-3.6c0-1.6-0.3-2.7-0.9-3.5
		s-1.4-1.1-2.4-1.1c-1,0-1.8,0.4-2.4,1.1C123,17.7,122.7,18.9,122.7,20.3z"/>
	<path class="st1" d="M139.5,17.6l-3.6-0.7c0.4-1.5,1.1-2.5,2.1-3.2s2.5-1,4.4-1c1.8,0,3.1,0.2,4,0.6c0.9,0.4,1.5,1,1.8,1.6
		c0.4,0.6,0.5,1.8,0.5,3.6l0,4.6c0,1.3,0.1,2.3,0.2,2.9c0.1,0.6,0.4,1.3,0.7,2h-3.9c-0.1-0.3-0.2-0.7-0.4-1.2
		c-0.1-0.2-0.1-0.4-0.1-0.5c-0.7,0.7-1.4,1.2-2.2,1.5c-0.8,0.3-1.6,0.5-2.5,0.5c-1.5,0-2.8-0.4-3.7-1.3c-0.9-0.8-1.3-1.9-1.3-3.2
		c0-0.8,0.2-1.6,0.6-2.3c0.4-0.7,1-1.2,1.7-1.5c0.7-0.4,1.8-0.7,3.2-0.9c1.9-0.3,3.1-0.7,3.9-1v-0.4c0-0.8-0.2-1.3-0.6-1.6
		c-0.4-0.3-1.1-0.5-2.1-0.5c-0.7,0-1.3,0.1-1.7,0.4C140.1,16.5,139.8,16.9,139.5,17.6z M144.9,20.9c-0.5,0.2-1.3,0.4-2.4,0.6
		s-1.8,0.5-2.2,0.7c-0.5,0.4-0.8,0.8-0.8,1.4c0,0.6,0.2,1,0.6,1.4c0.4,0.4,0.9,0.6,1.6,0.6c0.7,0,1.4-0.2,2.1-0.7
		c0.5-0.4,0.8-0.8,0.9-1.3c0.1-0.3,0.2-1,0.2-1.9V20.9z"/>
	<path class="st1" d="M156.5,28.1h-4v-15h3.7v2.1c0.6-1,1.2-1.7,1.7-2s1.1-0.5,1.7-0.5c0.9,0,1.8,0.3,2.6,0.8l-1.2,3.5
		c-0.7-0.4-1.3-0.7-1.9-0.7c-0.6,0-1,0.2-1.4,0.5c-0.4,0.3-0.7,0.9-0.9,1.7s-0.3,2.5-0.3,5V28.1z"/>
	<path class="st1" d="M172.7,23.3l4,0.7c-0.5,1.5-1.3,2.6-2.4,3.3s-2.5,1.1-4.1,1.1c-2.6,0-4.5-0.9-5.8-2.6c-1-1.4-1.5-3.1-1.5-5.2
		c0-2.5,0.7-4.4,2-5.9c1.3-1.4,2.9-2.1,4.9-2.1c2.2,0,4,0.7,5.3,2.2c1.3,1.5,1.9,3.7,1.9,6.8h-10c0,1.2,0.3,2.1,1,2.8
		c0.6,0.7,1.4,1,2.3,1c0.6,0,1.1-0.2,1.6-0.5S172.5,24.1,172.7,23.3z M172.9,19.3c0-1.2-0.3-2-0.9-2.6c-0.6-0.6-1.3-0.9-2.1-0.9
		c-0.9,0-1.6,0.3-2.2,0.9s-0.8,1.5-0.8,2.6H172.9z"/>
	<path class="st1" d="M183.9,28.1h-4v-15h3.7v2.1c0.6-1,1.2-1.7,1.7-2s1.1-0.5,1.7-0.5c0.9,0,1.8,0.3,2.6,0.8l-1.2,3.5
		c-0.7-0.4-1.3-0.7-1.9-0.7c-0.6,0-1,0.2-1.4,0.5c-0.4,0.3-0.7,0.9-0.9,1.7s-0.3,2.5-0.3,5V28.1z"/>
</g>
<g>
	<path class="st1" d="M61.1,40.1l1,0.1c-0.1,0.7-0.4,1.2-0.8,1.5c-0.4,0.4-1,0.6-1.6,0.6c-0.8,0-1.4-0.3-1.9-0.8
		c-0.5-0.5-0.7-1.2-0.7-2.2c0-0.6,0.1-1.2,0.3-1.6s0.5-0.8,0.9-1c0.4-0.2,0.9-0.3,1.4-0.3c0.6,0,1.1,0.2,1.5,0.5s0.6,0.8,0.8,1.3
		L61,38.3c-0.1-0.4-0.2-0.7-0.5-0.9c-0.2-0.2-0.5-0.3-0.8-0.3c-0.5,0-0.9,0.2-1.2,0.5c-0.3,0.3-0.5,0.9-0.5,1.7
		c0,0.8,0.1,1.3,0.4,1.7c0.3,0.3,0.7,0.5,1.1,0.5c0.4,0,0.7-0.1,1-0.3C60.9,41,61,40.6,61.1,40.1z"/>
	<path class="st1" d="M62.5,39.4c0-1.1,0.3-1.8,0.9-2.3c0.5-0.4,1.1-0.6,1.8-0.6c0.8,0,1.4,0.3,1.9,0.8s0.7,1.2,0.7,2.1
		c0,0.7-0.1,1.3-0.3,1.7c-0.2,0.4-0.5,0.7-1,1c-0.4,0.2-0.9,0.3-1.4,0.3c-0.8,0-1.4-0.3-1.9-0.8C62.8,41.1,62.5,40.3,62.5,39.4z
		 M63.5,39.4c0,0.7,0.2,1.3,0.5,1.6s0.7,0.5,1.2,0.5c0.5,0,0.9-0.2,1.2-0.5s0.5-0.9,0.5-1.7c0-0.7-0.2-1.2-0.5-1.6
		c-0.3-0.4-0.7-0.5-1.2-0.5c-0.5,0-0.9,0.2-1.2,0.5S63.5,38.6,63.5,39.4z"/>
	<path class="st1" d="M69,42.2v-5.7h0.9v0.8c0.2-0.3,0.4-0.5,0.7-0.7s0.6-0.3,1-0.3c0.4,0,0.8,0.1,1,0.3c0.3,0.2,0.5,0.4,0.6,0.7
		c0.5-0.7,1-1,1.8-1c0.6,0,1,0.2,1.3,0.5s0.5,0.8,0.5,1.4v3.9h-1v-3.6c0-0.4,0-0.7-0.1-0.8c-0.1-0.2-0.2-0.3-0.3-0.4
		c-0.2-0.1-0.4-0.2-0.6-0.2c-0.4,0-0.7,0.1-1,0.4s-0.4,0.7-0.4,1.3v3.3h-1v-3.7c0-0.4-0.1-0.8-0.2-1s-0.4-0.3-0.8-0.3
		c-0.3,0-0.5,0.1-0.8,0.2c-0.2,0.1-0.4,0.4-0.5,0.6C70,38.3,70,38.7,70,39.3v3H69z"/>
	<path class="st1" d="M78.2,44.4v-7.9h0.9v0.7c0.2-0.3,0.4-0.5,0.7-0.7c0.3-0.1,0.6-0.2,1-0.2c0.5,0,0.9,0.1,1.3,0.4
		s0.7,0.6,0.8,1.1c0.2,0.5,0.3,1,0.3,1.5c0,0.6-0.1,1.1-0.3,1.6c-0.2,0.5-0.5,0.8-0.9,1.1c-0.4,0.2-0.8,0.4-1.3,0.4
		c-0.3,0-0.6-0.1-0.9-0.2c-0.3-0.1-0.5-0.3-0.6-0.5v2.8H78.2z M79,39.4c0,0.7,0.1,1.3,0.4,1.6s0.7,0.5,1.1,0.5
		c0.4,0,0.8-0.2,1.1-0.5c0.3-0.4,0.5-0.9,0.5-1.7c0-0.7-0.1-1.3-0.4-1.6c-0.3-0.4-0.7-0.5-1.1-0.5c-0.4,0-0.8,0.2-1.1,0.6
		C79.2,38.1,79,38.7,79,39.4z"/>
	<path class="st1" d="M88,41.5c-0.4,0.3-0.7,0.5-1,0.6c-0.3,0.1-0.7,0.2-1.1,0.2c-0.6,0-1.1-0.2-1.4-0.5c-0.3-0.3-0.5-0.7-0.5-1.2
		c0-0.3,0.1-0.5,0.2-0.8c0.1-0.2,0.3-0.4,0.5-0.6c0.2-0.1,0.4-0.2,0.7-0.3c0.2,0,0.5-0.1,0.9-0.1c0.8-0.1,1.4-0.2,1.7-0.3
		c0-0.1,0-0.2,0-0.3c0-0.4-0.1-0.7-0.3-0.8c-0.2-0.2-0.6-0.3-1.1-0.3c-0.5,0-0.8,0.1-1,0.2c-0.2,0.2-0.4,0.4-0.5,0.8l-0.9-0.1
		c0.1-0.4,0.2-0.7,0.4-1s0.5-0.4,0.9-0.6c0.4-0.1,0.8-0.2,1.3-0.2c0.5,0,0.9,0.1,1.2,0.2s0.5,0.3,0.7,0.4s0.2,0.4,0.3,0.7
		c0,0.2,0,0.5,0,0.9v1.3c0,0.9,0,1.5,0.1,1.7c0,0.2,0.1,0.5,0.2,0.7h-1C88.1,42,88,41.8,88,41.5z M87.9,39.3
		c-0.4,0.1-0.9,0.3-1.6,0.4c-0.4,0.1-0.7,0.1-0.8,0.2c-0.2,0.1-0.3,0.2-0.4,0.3S85,40.5,85,40.7c0,0.3,0.1,0.5,0.3,0.6
		c0.2,0.2,0.5,0.3,0.9,0.3c0.4,0,0.7-0.1,1-0.2s0.5-0.4,0.6-0.7c0.1-0.2,0.2-0.5,0.2-1V39.3z"/>
	<path class="st1" d="M90.4,42.2v-5.7h0.9v0.9c0.2-0.4,0.4-0.7,0.6-0.8c0.2-0.1,0.4-0.2,0.6-0.2c0.3,0,0.7,0.1,1,0.3l-0.3,0.9
		c-0.2-0.1-0.5-0.2-0.7-0.2c-0.2,0-0.4,0.1-0.6,0.2s-0.3,0.3-0.4,0.5c-0.1,0.3-0.2,0.7-0.2,1.1v3H90.4z"/>
	<path class="st1" d="M97.8,41.5c-0.4,0.3-0.7,0.5-1,0.6c-0.3,0.1-0.7,0.2-1.1,0.2c-0.6,0-1.1-0.2-1.4-0.5c-0.3-0.3-0.5-0.7-0.5-1.2
		c0-0.3,0.1-0.5,0.2-0.8c0.1-0.2,0.3-0.4,0.5-0.6c0.2-0.1,0.4-0.2,0.7-0.3c0.2,0,0.5-0.1,0.9-0.1c0.8-0.1,1.4-0.2,1.7-0.3
		c0-0.1,0-0.2,0-0.3c0-0.4-0.1-0.7-0.3-0.8c-0.2-0.2-0.6-0.3-1.1-0.3c-0.5,0-0.8,0.1-1,0.2c-0.2,0.2-0.4,0.4-0.5,0.8l-0.9-0.1
		c0.1-0.4,0.2-0.7,0.4-1s0.5-0.4,0.9-0.6c0.4-0.1,0.8-0.2,1.3-0.2c0.5,0,0.9,0.1,1.2,0.2s0.5,0.3,0.7,0.4s0.2,0.4,0.3,0.7
		c0,0.2,0,0.5,0,0.9v1.3c0,0.9,0,1.5,0.1,1.7c0,0.2,0.1,0.5,0.2,0.7h-1C97.9,42,97.8,41.8,97.8,41.5z M97.7,39.3
		c-0.4,0.1-0.9,0.3-1.6,0.4c-0.4,0.1-0.7,0.1-0.8,0.2c-0.2,0.1-0.3,0.2-0.4,0.3s-0.1,0.3-0.1,0.5c0,0.3,0.1,0.5,0.3,0.6
		c0.2,0.2,0.5,0.3,0.9,0.3c0.4,0,0.7-0.1,1-0.2s0.5-0.4,0.6-0.7c0.1-0.2,0.2-0.5,0.2-1V39.3z"/>
	<path class="st1" d="M102.3,41.3l0.1,0.9c-0.3,0.1-0.5,0.1-0.7,0.1c-0.4,0-0.6-0.1-0.8-0.2c-0.2-0.1-0.3-0.3-0.4-0.4
		s-0.1-0.6-0.1-1.1v-3.3h-0.7v-0.8h0.7v-1.4l1-0.6v2h1v0.8h-1v3.3c0,0.3,0,0.5,0.1,0.5c0,0.1,0.1,0.1,0.2,0.2c0.1,0,0.2,0.1,0.3,0.1
		C102,41.4,102.1,41.4,102.3,41.3z"/>
	<path class="st1" d="M107.1,40.4l1,0.1c-0.2,0.6-0.4,1-0.9,1.4c-0.4,0.3-1,0.5-1.6,0.5c-0.8,0-1.5-0.3-2-0.8
		c-0.5-0.5-0.7-1.2-0.7-2.2c0-1,0.2-1.7,0.7-2.2s1.1-0.8,1.9-0.8c0.8,0,1.4,0.3,1.9,0.8c0.5,0.5,0.7,1.3,0.7,2.2c0,0.1,0,0.1,0,0.3
		h-4.3c0,0.6,0.2,1.1,0.5,1.4c0.3,0.3,0.7,0.5,1.2,0.5c0.4,0,0.7-0.1,0.9-0.3C106.8,41.1,107,40.8,107.1,40.4z M104,38.8h3.2
		c0-0.5-0.2-0.8-0.4-1.1c-0.3-0.4-0.7-0.6-1.2-0.6c-0.4,0-0.8,0.1-1.1,0.4C104.2,37.9,104,38.3,104,38.8z"/>
	<path class="st1" d="M113.1,42.2v-0.8c-0.4,0.6-1,1-1.8,1c-0.3,0-0.7-0.1-0.9-0.2s-0.5-0.3-0.7-0.5s-0.2-0.4-0.3-0.7
		c0-0.2-0.1-0.5-0.1-0.9v-3.5h1v3.2c0,0.5,0,0.8,0.1,1c0.1,0.3,0.2,0.5,0.4,0.6c0.2,0.1,0.4,0.2,0.7,0.2s0.6-0.1,0.8-0.2
		s0.4-0.4,0.5-0.6s0.2-0.6,0.2-1.1v-3.1h1v5.7H113.1z"/>
	<path class="st1" d="M115.5,42.2v-5.7h0.9v0.9c0.2-0.4,0.4-0.7,0.6-0.8c0.2-0.1,0.4-0.2,0.6-0.2c0.3,0,0.7,0.1,1,0.3l-0.3,0.9
		c-0.2-0.1-0.5-0.2-0.7-0.2c-0.2,0-0.4,0.1-0.6,0.2s-0.3,0.3-0.4,0.5c-0.1,0.3-0.2,0.7-0.2,1.1v3H115.5z"/>
	<path class="st1" d="M125.9,42.2v-0.7c-0.4,0.6-0.9,0.8-1.6,0.8c-0.5,0-0.9-0.1-1.3-0.4c-0.4-0.3-0.7-0.6-0.9-1
		c-0.2-0.4-0.3-1-0.3-1.5c0-0.6,0.1-1.1,0.3-1.5c0.2-0.5,0.5-0.8,0.9-1.1c0.4-0.2,0.8-0.4,1.3-0.4c0.3,0,0.7,0.1,0.9,0.2
		c0.3,0.1,0.5,0.3,0.7,0.6v-2.8h1v7.9H125.9z M122.8,39.4c0,0.7,0.2,1.3,0.5,1.6c0.3,0.4,0.7,0.5,1.1,0.5c0.4,0,0.8-0.2,1.1-0.5
		c0.3-0.3,0.4-0.9,0.4-1.6c0-0.8-0.2-1.4-0.5-1.7s-0.7-0.5-1.1-0.5c-0.4,0-0.8,0.2-1.1,0.5C123,38.1,122.8,38.6,122.8,39.4z"/>
	<path class="st1" d="M128.3,35.4v-1.1h1v0.9c0,0.5-0.1,0.8-0.2,1c-0.2,0.3-0.4,0.5-0.7,0.7l-0.2-0.4c0.2-0.1,0.3-0.2,0.4-0.4
		s0.1-0.4,0.2-0.7H128.3z"/>
	<path class="st1" d="M134.5,41.5c-0.4,0.3-0.7,0.5-1,0.6c-0.3,0.1-0.7,0.2-1.1,0.2c-0.6,0-1.1-0.2-1.4-0.5
		c-0.3-0.3-0.5-0.7-0.5-1.2c0-0.3,0.1-0.5,0.2-0.8c0.1-0.2,0.3-0.4,0.5-0.6s0.4-0.2,0.7-0.3c0.2,0,0.5-0.1,0.9-0.1
		c0.8-0.1,1.4-0.2,1.7-0.3c0-0.1,0-0.2,0-0.3c0-0.4-0.1-0.7-0.3-0.8c-0.2-0.2-0.6-0.3-1.1-0.3c-0.5,0-0.8,0.1-1,0.2
		s-0.4,0.4-0.5,0.8l-0.9-0.1c0.1-0.4,0.2-0.7,0.4-1s0.5-0.4,0.9-0.6c0.4-0.1,0.8-0.2,1.3-0.2c0.5,0,0.9,0.1,1.2,0.2
		c0.3,0.1,0.5,0.3,0.7,0.4s0.2,0.4,0.3,0.7c0,0.2,0,0.5,0,0.9v1.3c0,0.9,0,1.5,0.1,1.7s0.1,0.5,0.2,0.7h-1
		C134.6,42,134.5,41.8,134.5,41.5z M134.4,39.3c-0.4,0.1-0.9,0.3-1.6,0.4c-0.4,0.1-0.7,0.1-0.8,0.2c-0.2,0.1-0.3,0.2-0.4,0.3
		c-0.1,0.1-0.1,0.3-0.1,0.5c0,0.3,0.1,0.5,0.3,0.6s0.5,0.3,0.9,0.3c0.4,0,0.7-0.1,1-0.2c0.3-0.2,0.5-0.4,0.6-0.7
		c0.1-0.2,0.2-0.5,0.2-1V39.3z"/>
	<path class="st1" d="M136.5,40.5l1-0.2c0.1,0.4,0.2,0.7,0.4,0.9c0.2,0.2,0.6,0.3,1,0.3c0.4,0,0.8-0.1,1-0.3s0.3-0.4,0.3-0.6
		c0-0.2-0.1-0.4-0.3-0.5c-0.1-0.1-0.5-0.2-1-0.3c-0.7-0.2-1.2-0.3-1.5-0.5c-0.3-0.1-0.5-0.3-0.6-0.5c-0.1-0.2-0.2-0.5-0.2-0.8
		c0-0.3,0.1-0.5,0.2-0.7s0.3-0.4,0.5-0.5c0.2-0.1,0.4-0.2,0.6-0.3s0.5-0.1,0.8-0.1c0.4,0,0.8,0.1,1.2,0.2c0.3,0.1,0.6,0.3,0.7,0.5
		c0.2,0.2,0.3,0.5,0.3,0.9l-0.9,0.1c0-0.3-0.2-0.5-0.4-0.7s-0.5-0.2-0.9-0.2c-0.4,0-0.8,0.1-1,0.2c-0.2,0.1-0.3,0.3-0.3,0.5
		c0,0.1,0,0.2,0.1,0.3c0.1,0.1,0.2,0.2,0.4,0.3c0.1,0,0.4,0.1,0.9,0.2c0.7,0.2,1.2,0.3,1.4,0.4s0.5,0.3,0.6,0.5s0.2,0.5,0.2,0.8
		c0,0.3-0.1,0.6-0.3,0.9c-0.2,0.3-0.5,0.5-0.8,0.7c-0.4,0.2-0.8,0.2-1.2,0.2c-0.7,0-1.3-0.2-1.7-0.5S136.6,41.1,136.5,40.5z"/>
	<path class="st1" d="M142,40.5l1-0.2c0.1,0.4,0.2,0.7,0.4,0.9c0.2,0.2,0.6,0.3,1,0.3c0.4,0,0.8-0.1,1-0.3s0.3-0.4,0.3-0.6
		c0-0.2-0.1-0.4-0.3-0.5c-0.1-0.1-0.5-0.2-1-0.3c-0.7-0.2-1.2-0.3-1.5-0.5c-0.3-0.1-0.5-0.3-0.6-0.5c-0.1-0.2-0.2-0.5-0.2-0.8
		c0-0.3,0.1-0.5,0.2-0.7s0.3-0.4,0.5-0.5c0.2-0.1,0.4-0.2,0.6-0.3s0.5-0.1,0.8-0.1c0.4,0,0.8,0.1,1.2,0.2c0.3,0.1,0.6,0.3,0.7,0.5
		c0.2,0.2,0.3,0.5,0.3,0.9l-0.9,0.1c0-0.3-0.2-0.5-0.4-0.7s-0.5-0.2-0.9-0.2c-0.4,0-0.8,0.1-1,0.2c-0.2,0.1-0.3,0.3-0.3,0.5
		c0,0.1,0,0.2,0.1,0.3c0.1,0.1,0.2,0.2,0.4,0.3c0.1,0,0.4,0.1,0.9,0.2c0.7,0.2,1.2,0.3,1.4,0.4s0.5,0.3,0.6,0.5s0.2,0.5,0.2,0.8
		c0,0.3-0.1,0.6-0.3,0.9c-0.2,0.3-0.5,0.5-0.8,0.7c-0.4,0.2-0.8,0.2-1.2,0.2c-0.7,0-1.3-0.2-1.7-0.5S142.1,41.1,142,40.5z"/>
	<path class="st1" d="M151.6,42.2v-0.8c-0.4,0.6-1,1-1.8,1c-0.3,0-0.7-0.1-0.9-0.2s-0.5-0.3-0.7-0.5s-0.2-0.4-0.3-0.7
		c0-0.2-0.1-0.5-0.1-0.9v-3.5h1v3.2c0,0.5,0,0.8,0.1,1c0.1,0.3,0.2,0.5,0.4,0.6c0.2,0.1,0.4,0.2,0.7,0.2s0.6-0.1,0.8-0.2
		s0.4-0.4,0.5-0.6s0.2-0.6,0.2-1.1v-3.1h1v5.7H151.6z"/>
	<path class="st1" d="M154,42.2v-5.7h0.9v0.9c0.2-0.4,0.4-0.7,0.6-0.8c0.2-0.1,0.4-0.2,0.6-0.2c0.3,0,0.7,0.1,1,0.3l-0.3,0.9
		c-0.2-0.1-0.5-0.2-0.7-0.2c-0.2,0-0.4,0.1-0.6,0.2s-0.3,0.3-0.4,0.5c-0.1,0.3-0.2,0.7-0.2,1.1v3H154z"/>
	<path class="st1" d="M161.4,41.5c-0.4,0.3-0.7,0.5-1,0.6c-0.3,0.1-0.7,0.2-1.1,0.2c-0.6,0-1.1-0.2-1.4-0.5
		c-0.3-0.3-0.5-0.7-0.5-1.2c0-0.3,0.1-0.5,0.2-0.8c0.1-0.2,0.3-0.4,0.5-0.6s0.4-0.2,0.7-0.3c0.2,0,0.5-0.1,0.9-0.1
		c0.8-0.1,1.4-0.2,1.7-0.3c0-0.1,0-0.2,0-0.3c0-0.4-0.1-0.7-0.3-0.8c-0.2-0.2-0.6-0.3-1.1-0.3c-0.5,0-0.8,0.1-1,0.2
		s-0.4,0.4-0.5,0.8l-0.9-0.1c0.1-0.4,0.2-0.7,0.4-1s0.5-0.4,0.9-0.6c0.4-0.1,0.8-0.2,1.3-0.2c0.5,0,0.9,0.1,1.2,0.2
		c0.3,0.1,0.5,0.3,0.7,0.4s0.2,0.4,0.3,0.7c0,0.2,0,0.5,0,0.9v1.3c0,0.9,0,1.5,0.1,1.7s0.1,0.5,0.2,0.7h-1
		C161.5,42,161.4,41.8,161.4,41.5z M161.3,39.3c-0.4,0.1-0.9,0.3-1.6,0.4c-0.4,0.1-0.7,0.1-0.8,0.2c-0.2,0.1-0.3,0.2-0.4,0.3
		c-0.1,0.1-0.1,0.3-0.1,0.5c0,0.3,0.1,0.5,0.3,0.6s0.5,0.3,0.9,0.3c0.4,0,0.7-0.1,1-0.2c0.3-0.2,0.5-0.4,0.6-0.7
		c0.1-0.2,0.2-0.5,0.2-1V39.3z"/>
	<path class="st1" d="M163.8,42.2v-5.7h0.9v0.8c0.4-0.6,1-0.9,1.8-0.9c0.3,0,0.7,0.1,0.9,0.2c0.3,0.1,0.5,0.3,0.6,0.5
		c0.1,0.2,0.2,0.4,0.3,0.7c0,0.2,0.1,0.5,0.1,0.9v3.5h-1v-3.5c0-0.4,0-0.7-0.1-0.9c-0.1-0.2-0.2-0.4-0.4-0.5s-0.4-0.2-0.7-0.2
		c-0.4,0-0.8,0.1-1.1,0.4c-0.3,0.3-0.4,0.8-0.4,1.5v3.1H163.8z"/>
	<path class="st1" d="M173.6,40.1l1,0.1c-0.1,0.7-0.4,1.2-0.8,1.5c-0.4,0.4-1,0.6-1.6,0.6c-0.8,0-1.4-0.3-1.9-0.8
		c-0.5-0.5-0.7-1.2-0.7-2.2c0-0.6,0.1-1.2,0.3-1.6c0.2-0.5,0.5-0.8,0.9-1c0.4-0.2,0.9-0.3,1.4-0.3c0.6,0,1.1,0.2,1.5,0.5
		c0.4,0.3,0.6,0.8,0.8,1.3l-0.9,0.1c-0.1-0.4-0.2-0.7-0.5-0.9s-0.5-0.3-0.8-0.3c-0.5,0-0.9,0.2-1.2,0.5c-0.3,0.3-0.5,0.9-0.5,1.7
		c0,0.8,0.1,1.3,0.4,1.7c0.3,0.3,0.7,0.5,1.2,0.5c0.4,0,0.7-0.1,1-0.3C173.4,41,173.5,40.6,173.6,40.1z"/>
	<path class="st1" d="M179.3,40.4l1,0.1c-0.2,0.6-0.4,1-0.9,1.4c-0.4,0.3-1,0.5-1.6,0.5c-0.8,0-1.5-0.3-2-0.8
		c-0.5-0.5-0.7-1.2-0.7-2.2c0-1,0.2-1.7,0.7-2.2s1.1-0.8,1.9-0.8c0.8,0,1.4,0.3,1.9,0.8c0.5,0.5,0.7,1.3,0.7,2.2c0,0.1,0,0.1,0,0.3
		h-4.3c0,0.6,0.2,1.1,0.5,1.4c0.3,0.3,0.7,0.5,1.2,0.5c0.4,0,0.7-0.1,0.9-0.3C179,41.1,179.2,40.8,179.3,40.4z M176.1,38.8h3.2
		c0-0.5-0.2-0.8-0.4-1.1c-0.3-0.4-0.7-0.6-1.2-0.6c-0.4,0-0.8,0.1-1.1,0.4C176.3,37.9,176.2,38.3,176.1,38.8z"/>
	<path class="st1" d="M181.1,40.5l1-0.2c0.1,0.4,0.2,0.7,0.4,0.9c0.2,0.2,0.6,0.3,1,0.3c0.4,0,0.8-0.1,1-0.3s0.3-0.4,0.3-0.6
		c0-0.2-0.1-0.4-0.3-0.5c-0.1-0.1-0.5-0.2-1-0.3c-0.7-0.2-1.2-0.3-1.5-0.5c-0.3-0.1-0.5-0.3-0.6-0.5c-0.1-0.2-0.2-0.5-0.2-0.8
		c0-0.3,0.1-0.5,0.2-0.7s0.3-0.4,0.5-0.5c0.2-0.1,0.4-0.2,0.6-0.3s0.5-0.1,0.8-0.1c0.4,0,0.8,0.1,1.2,0.2c0.3,0.1,0.6,0.3,0.7,0.5
		c0.2,0.2,0.3,0.5,0.3,0.9l-0.9,0.1c0-0.3-0.2-0.5-0.4-0.7s-0.5-0.2-0.9-0.2c-0.4,0-0.8,0.1-1,0.2c-0.2,0.1-0.3,0.3-0.3,0.5
		c0,0.1,0,0.2,0.1,0.3c0.1,0.1,0.2,0.2,0.4,0.3c0.1,0,0.4,0.1,0.9,0.2c0.7,0.2,1.2,0.3,1.4,0.4s0.5,0.3,0.6,0.5s0.2,0.5,0.2,0.8
		c0,0.3-0.1,0.6-0.3,0.9c-0.2,0.3-0.5,0.5-0.8,0.7c-0.4,0.2-0.8,0.2-1.2,0.2c-0.7,0-1.3-0.2-1.7-0.5S181.2,41.1,181.1,40.5z"/>
</g>
</svg>
