<?xml version="1.0" encoding="utf-8"?>
<!-- Generator: Adobe Illustrator 22.0.0, SVG Export Plug-In . SVG Version: 6.00 Build 0)  -->
<svg version="1.1" id="Calque_1" xmlns="http://www.w3.org/2000/svg" xmlns:xlink="http://www.w3.org/1999/xlink" x="0px" y="0px"
	 viewBox="0 0 400 60" style="enable-background:new 0 0 400 60;" xml:space="preserve">
<style type="text/css">
	.st0{fill:#FFFFFF;}
</style>
<rect width="59.2" height="60"/>
<g>
	<g>
		<path class="st0" d="M23.6,49.4h-3.8l-7-9.1v9.1H9.1V34.6h3.8l7,9.1v-9.1h3.8v14.8H23.6z"/>
		<path class="st0" d="M32.5,42c0,1.5-0.5,3-1.4,4.3S29,48.5,27.6,49c-0.8,0.3-1.5,0.4-2.3,0.4h-5.6V34.6h5.6c1.4,0,2.6,0.4,3.8,1.2
			c1.1,0.8,2,1.8,2.6,3C32.2,39.8,32.5,40.9,32.5,42z M28.5,42c0-1-0.3-1.9-0.8-2.7c-0.7-1-1.9-1.5-3.3-1.5h-0.9v8.4h0.9
			c1.5,0,2.6-0.5,3.3-1.5C28.3,43.9,28.5,43,28.5,42z"/>
		<path class="st0" d="M52.8,34.6l-4.7,14.9h-3.9l-2.7-8.6l-2.8,8.6H35l-4.3-14.9h4l2.5,9.6l3.1-9.6h3l2.9,9.6l2.8-9.6H52.8z"/>
		<path class="st0" d="M55.1,49.4h-3.8V34.6h3.8V49.4z"/>
	</g>
	<rect x="45" y="32" width="15.4" height="7.1"/>
	<rect x="51.3" y="33" class="st0" width="3.8" height="3"/>
	<rect x="37.4" y="34.6" width="8.2" height="2.7"/>
	<polyline class="st0" points="41.7,33.3 39.3,36.1 44.1,36.1 	"/>
	<polyline class="st0" points="41.6,46.2 40,49.4 43.2,49.4 	"/>
</g>
<image style="overflow:visible;" width="532" height="532" xlink:href="H:\NDWI Cuisine Logo.jpg"  transform="matrix(0.1143 0 0 0.1121 -0.42 0.38)">
</image>
</svg>
