<?xml version="1.0" encoding="utf-8"?>
<!-- Generator: Adobe Illustrator 22.0.0, SVG Export Plug-In . SVG Version: 6.00 Build 0)  -->
<svg version="1.1" id="Calque_1" xmlns="http://www.w3.org/2000/svg" xmlns:xlink="http://www.w3.org/1999/xlink" x="0px" y="0px"
	 viewBox="0 0 80 49" style="enable-background:new 0 0 80 49;" xml:space="preserve">
<style type="text/css">
	.st0{fill:#FFFFFF;}
</style>
<rect width="80" height="49"/>
<g>
	<g>
		<path class="st0" d="M24.1,36.2h-5.8L7.8,22.3v13.8H2V13.6h5.8l10.5,13.8V13.6h5.8C24.1,13.6,24.1,36.2,24.1,36.2z"/>
		<path class="st0" d="M37.5,24.9c0,2.4-0.7,4.6-2,6.5s-3.2,3.4-5.3,4.2c-1.1,0.4-2.3,0.6-3.5,0.6h-8.6V13.6h8.5c2,0,4,0.6,5.8,1.7
			s3.1,2.7,4,4.6C37.1,21.6,37.5,23.2,37.5,24.9z M31.5,24.9c0-1.6-0.5-2.9-1.3-4.1c-1.1-1.5-2.8-2.3-5.1-2.3h-1.3v12.8h1.3
			c2.3,0,3.9-0.8,5.1-2.3C31.1,27.8,31.5,26.4,31.5,24.9z"/>
		<path class="st0" d="M68.3,13.6l-7.1,22.6h-5.8l-4-13.1l-4.2,13.1h-5.8l-6.6-22.6h6l3.9,14.6l4.7-14.6h4.6l4.3,14.6l4.2-14.6
			C62.3,13.6,68.3,13.6,68.3,13.6z"/>
		<path class="st0" d="M71.8,36.2H66V13.6h5.8V36.2z"/>
	</g>
	<rect x="60.2" y="8.1" width="19.8" height="12.4"/>
	<rect x="66" y="12" class="st0" width="5.8" height="5.3"/>
	<rect x="44.9" y="10.3" width="12.4" height="7.4"/>
	<polyline class="st0" points="51.5,11.7 47.8,15.9 55.3,15.9 	"/>
	<polyline class="st0" points="51.4,31.3 48.9,36.1 53.8,36.1 	"/>
</g>
</svg>
