<?xml version="1.0" encoding="utf-8"?>
<!-- Generator: Adobe Illustrator 22.0.0, SVG Export Plug-In . SVG Version: 6.00 Build 0)  -->
<svg version="1.1" id="Calque_1" xmlns="http://www.w3.org/2000/svg" xmlns:xlink="http://www.w3.org/1999/xlink" x="0px" y="0px"
	 viewBox="0 0 400 60" style="enable-background:new 0 0 400 60;" xml:space="preserve">
<style type="text/css">
	.st0{fill:#520136;}
	.st1{fill:#FFFFFF;}
</style>
<rect class="st0" width="64" height="60"/>
<g>
	<g>
		<path class="st1" d="M23.6,49.4h-3.8l-7-9.1v9.1H9.1V34.6h3.8l7,9.1v-9.1h3.8V49.4z"/>
		<path class="st1" d="M32.5,42c0,1.5-0.5,3-1.4,4.3S29,48.5,27.6,49c-0.8,0.3-1.5,0.4-2.3,0.4h-5.6V34.6h5.6c1.4,0,2.6,0.4,3.8,1.2
			c1.1,0.8,2,1.8,2.6,3C32.2,39.8,32.5,40.9,32.5,42z M28.5,42c0-1-0.3-1.9-0.8-2.7c-0.7-1-1.9-1.5-3.3-1.5h-0.9v8.4h0.9
			c1.5,0,2.6-0.5,3.3-1.5C28.3,43.9,28.5,43,28.5,42z"/>
		<path class="st1" d="M52.8,34.6l-4.7,14.9h-3.9l-2.7-8.6l-2.8,8.6H35l-4.3-14.9h4l2.5,9.6l3.1-9.6h3l2.9,9.6l2.8-9.6H52.8z"/>
		<path class="st1" d="M55.1,49.4h-3.8V34.6h3.8V49.4z"/>
	</g>
	<rect x="45" y="32" class="st0" width="15.4" height="7.1"/>
	<rect x="51.3" y="33" class="st1" width="3.8" height="3"/>
	<rect x="37.4" y="34.6" class="st0" width="8.2" height="2.7"/>
	<polyline class="st1" points="41.7,33.3 39.3,36.1 44.1,36.1 	"/>
	<polyline class="st1" points="41.6,46.2 40,49.4 43.2,49.4 	"/>
</g>
<g>
	<path class="st0" d="M78.5,12.3h4.9L89.6,24V12.3h4.2v17h-4.9l-6.2-11.7v11.7h-4.2V12.3z"/>
	<path class="st0" d="M98.1,12.3h11.8v3.3h-7.5v3.2h7v3.3h-7V26h7.7v3.3H98.1V12.3z"/>
	<path class="st0" d="M112.6,12.3h4.2l2.9,12.4l2.9-12.4h4.2l2.9,12.4l2.9-12.4h4.2l-4,17h-5.1l-3.1-12.9l-3.1,12.9h-5.1L112.6,12.3
		z"/>
	<path class="st0" d="M147.9,12.3h4.6c2.6,0,4.5,0.2,5.8,0.6c1.3,0.4,2.3,1,3.3,1.9c0.8,0.8,1.4,1.7,1.8,2.7s0.6,2.1,0.6,3.4
		c0,1.3-0.2,2.4-0.6,3.4c-0.4,1-1,1.9-1.8,2.7c-0.9,0.9-2,1.5-3.3,1.9c-1.3,0.4-3.2,0.6-5.7,0.6h-4.6V12.3z M152.3,15.6V26h1.6
		c1.8,0,3.2-0.4,4.1-1.3c0.9-0.9,1.4-2.2,1.4-3.9c0-1.7-0.5-3-1.4-3.9c-0.9-0.9-2.3-1.3-4.1-1.3H152.3z"/>
	<path class="st0" d="M167.3,12.3h11.8v3.3h-7.5v3.2h7v3.3h-7V26h7.7v3.3h-12.1V12.3z"/>
	<path class="st0" d="M195,12.8v3.6c-0.9-0.4-1.8-0.7-2.7-0.9c-0.9-0.2-1.7-0.3-2.5-0.3c-1,0-1.8,0.1-2.3,0.4
		c-0.5,0.3-0.8,0.7-0.8,1.3c0,0.5,0.2,0.8,0.5,1.1c0.3,0.3,1,0.5,1.8,0.7l1.9,0.4c1.9,0.4,3.2,1,4,1.7s1.2,1.9,1.2,3.3
		c0,1.9-0.6,3.3-1.7,4.2c-1.1,0.9-2.8,1.4-5.1,1.4c-1.1,0-2.2-0.1-3.2-0.3s-2.2-0.5-3.3-0.9v-3.7c1.1,0.6,2.1,1,3.2,1.3
		c1,0.3,2,0.4,2.9,0.4c1,0,1.7-0.2,2.2-0.5c0.5-0.3,0.8-0.8,0.8-1.4c0-0.5-0.2-0.9-0.5-1.2c-0.3-0.3-1-0.5-2.1-0.8l-1.7-0.4
		c-1.7-0.4-2.9-0.9-3.7-1.7c-0.8-0.8-1.2-1.9-1.2-3.2c0-1.7,0.5-3,1.6-3.9c1.1-0.9,2.7-1.4,4.7-1.4c0.9,0,1.9,0.1,2.9,0.2
		C193,12.4,194,12.6,195,12.8z"/>
	<path class="st0" d="M200,12.3h4.4v17H200V12.3z"/>
	<path class="st0" d="M224,28.1c-1.1,0.5-2.2,0.9-3.4,1.2c-1.2,0.3-2.4,0.4-3.6,0.4c-2.8,0-5.1-0.8-6.7-2.4
		c-1.7-1.6-2.5-3.7-2.5-6.4c0-2.7,0.8-4.9,2.5-6.5c1.7-1.6,4-2.4,6.9-2.4c1.1,0,2.2,0.1,3.3,0.3c1,0.2,2,0.5,2.9,0.9v3.5
		c-0.9-0.5-1.9-0.9-2.8-1.2c-0.9-0.3-1.9-0.4-2.8-0.4c-1.7,0-3.1,0.5-4,1.5c-0.9,1-1.4,2.4-1.4,4.2c0,1.8,0.5,3.2,1.4,4.2
		c0.9,1,2.2,1.5,3.9,1.5c0.5,0,0.9,0,1.3-0.1c0.4-0.1,0.7-0.1,1.1-0.3v-3.3h-2.7v-2.9h6.8V28.1z"/>
	<path class="st0" d="M227.9,12.3h4.9l6.2,11.7V12.3h4.2v17h-4.9L232,17.7v11.7h-4.2V12.3z"/>
	<path class="st0" d="M77.9,34.3h3.6l2.5,10.5l2.5-10.5H90l2.5,10.5l2.5-10.5h3.5l-3.4,14.4h-4.3l-2.6-11l-2.6,11h-4.3L77.9,34.3z"
		/>
	<path class="st0" d="M107.5,34c2.3,0,4.1,0.7,5.4,2c1.3,1.3,2,3.2,2,5.5c0,2.3-0.7,4.2-2,5.5c-1.3,1.3-3.1,2-5.4,2
		c-2.3,0-4.1-0.7-5.4-2c-1.3-1.3-2-3.2-2-5.5c0-2.3,0.7-4.2,2-5.5C103.4,34.7,105.2,34,107.5,34z M107.5,36.7c-1.1,0-2,0.4-2.6,1.3
		c-0.6,0.8-0.9,2-0.9,3.5c0,1.5,0.3,2.7,0.9,3.5c0.6,0.8,1.5,1.3,2.6,1.3c1.1,0,2-0.4,2.6-1.3c0.6-0.8,0.9-2,0.9-3.5
		c0-1.5-0.3-2.7-0.9-3.5C109.5,37.1,108.7,36.7,107.5,36.7z"/>
	<path class="st0" d="M124.3,34c2.3,0,4.1,0.7,5.5,2c1.3,1.3,2,3.2,2,5.5c0,2.3-0.7,4.2-2,5.5c-1.3,1.3-3.1,2-5.5,2
		c-2.3,0-4.1-0.7-5.4-2c-1.3-1.3-2-3.2-2-5.5c0-2.3,0.7-4.2,2-5.5C120.2,34.7,122,34,124.3,34z M124.3,36.7c-1.1,0-2,0.4-2.6,1.3
		c-0.6,0.8-0.9,2-0.9,3.5c0,1.5,0.3,2.7,0.9,3.5c0.6,0.8,1.5,1.3,2.6,1.3c1.1,0,2-0.4,2.6-1.3c0.6-0.8,0.9-2,0.9-3.5
		c0-1.5-0.3-2.7-0.9-3.5C126.4,37.1,125.5,36.7,124.3,36.7z"/>
	<path class="st0" d="M134.6,34.3h3.9c2.2,0,3.8,0.2,4.9,0.5c1.1,0.3,2,0.8,2.8,1.6c0.7,0.7,1.2,1.4,1.5,2.3
		c0.3,0.9,0.5,1.8,0.5,2.9c0,1.1-0.2,2.1-0.5,2.9c-0.3,0.9-0.8,1.6-1.5,2.3c-0.8,0.7-1.7,1.3-2.8,1.6s-2.7,0.5-4.9,0.5h-3.9V34.3z
		 M138.3,37.1v8.8h1.3c1.5,0,2.7-0.4,3.5-1.1c0.8-0.8,1.2-1.8,1.2-3.3c0-1.4-0.4-2.5-1.2-3.3c-0.8-0.7-2-1.1-3.5-1.1H138.3z"/>
	<path class="st0" d="M155.8,34.8h1v13.9h-1V34.8z"/>
	<path class="st0" d="M161.4,34.8h1.4l6.8,12.7V34.8h0.9v13.9h-1.3l-6.8-12.8v12.8h-1V34.8z"/>
	<path class="st0" d="M175.7,34.8h3.4c2.5,0,4.4,0.6,5.6,1.7c1.2,1.1,1.8,2.9,1.8,5.3c0,2.4-0.6,4.2-1.8,5.3
		c-1.2,1.1-3.1,1.7-5.6,1.7h-3.4V34.8z M176.6,35.6V48h2.8c2.1,0,3.6-0.5,4.6-1.5c1-1,1.5-2.6,1.5-4.7c0-2.1-0.5-3.7-1.5-4.7
		c-1-1-2.5-1.5-4.6-1.5H176.6z"/>
	<path class="st0" d="M190.2,34.8h0.9v8.5c0,1.8,0.3,3,0.9,3.8c0.6,0.8,1.6,1.2,3,1.2c1.4,0,2.4-0.4,3-1.2c0.6-0.8,0.9-2,0.9-3.8
		v-8.5h0.9v8.7c0,1.8-0.4,3.2-1.2,4.1c-0.8,0.9-2,1.4-3.6,1.4c-1.6,0-2.8-0.5-3.6-1.4c-0.8-0.9-1.2-2.3-1.2-4.1V34.8z"/>
	<path class="st0" d="M212.2,35.5v0.9c-0.6-0.3-1.3-0.6-2-0.8c-0.5-0.2-1.1-0.2-1.8-0.3c-1.1,0-2,0.2-2.7,0.7
		c-0.6,0.5-0.9,1.3-0.9,2.4c0,0.7,0.2,1.2,0.7,1.6c0.5,0.4,1.3,0.8,2.3,1l1.1,0.3c1,0.3,1.8,0.6,2.3,0.9c1,0.7,1.5,1.6,1.5,2.6
		c0,1.5-0.4,2.6-1.3,3.1c-1,0.6-2,0.9-3,0.9c-1.1,0-2-0.1-2.9-0.4c-0.5-0.2-1.1-0.5-1.7-0.9v-0.9c0.9,0.5,1.5,0.8,1.8,1
		c0.8,0.3,1.5,0.5,2.2,0.5c1.1,0,2.1-0.3,2.8-0.8c0.7-0.5,1.1-1.3,1.1-2.5c0-0.7-0.2-1.2-0.7-1.6c-0.6-0.6-1.4-1-2.4-1.2l-1.1-0.3
		c-0.9-0.2-1.7-0.5-2.3-0.9c-1-0.6-1.4-1.4-1.4-2.4c0-1.3,0.4-2.3,1.2-3c0.7-0.6,1.8-1,3.3-1c0.9,0,1.5,0.1,2,0.2
		C211.4,35.1,212,35.4,212.2,35.5z"/>
	<path class="st0" d="M214.6,34.8h10.8v0.8h-4.9v13.2h-0.9V35.6h-4.9V34.8z"/>
	<path class="st0" d="M234,42.2c0.4,0.1,0.8,0.4,1.1,0.9c0.3,0.3,0.6,0.9,1.1,1.8l2,3.8h-1l-2-3.8c-0.5-1-1-1.7-1.5-2
		c-0.5-0.3-1.1-0.5-2-0.5h-2.5v6.3h-0.9V34.8h3.8c1.4,0,2.5,0.3,3.2,1c0.7,0.7,1.1,1.7,1.1,3c0,0.9-0.2,1.6-0.6,2.2
		C235.3,41.6,234.8,42,234,42.2z M229.2,35.6v6.1h3.1c1,0,1.7-0.3,2.3-0.8s0.8-1.3,0.8-2.3c0-1-0.3-1.8-0.8-2.3
		c-0.5-0.5-1.3-0.8-2.3-0.8H229.2z"/>
	<path class="st0" d="M238.4,34.8h1.1l4.3,6.4l4.3-6.4h1.1l-4.9,7.3v6.6h-0.9v-6.6L238.4,34.8z"/>
</g>
</svg>
