<?xml version="1.0" encoding="utf-8"?>
<!-- Generator: Adobe Illustrator 22.0.0, SVG Export Plug-In . SVG Version: 6.00 Build 0)  -->
<svg version="1.1" id="Calque_1" xmlns="http://www.w3.org/2000/svg" xmlns:xlink="http://www.w3.org/1999/xlink" x="0px" y="0px"
	 viewBox="0 0 120 120" style="enable-background:new 0 0 120 120;" xml:space="preserve">
<style type="text/css">
	.st0{fill:#FFFFFF;}
</style>
<rect x="-1" y="-0.1" width="121" height="120.1"/>
<g>
	<g>
		<path class="st0" d="M46.3,98.9h-7.6L24.8,80.6v18.2h-7.6V69.1h7.6l13.9,18.2V69.1h7.6C46.3,69.1,46.3,98.9,46.3,98.9z"/>
		<path class="st0" d="M64,84c0,3.1-0.9,6-2.7,8.6s-4.2,4.5-7,5.5c-1.5,0.5-3,0.8-4.6,0.8H38.4V69.1h11.2c2.7,0,5.3,0.8,7.6,2.3
			s4.1,3.5,5.3,6.1C63.5,79.6,64,81.8,64,84z M56.1,84c0-2.1-0.6-3.8-1.7-5.4c-1.5-2-3.7-3-6.7-3H46v16.9h1.7c3,0,5.2-1,6.7-3
			C55.6,87.8,56.1,86,56.1,84z"/>
		<path class="st0" d="M104.6,69.1l-9.3,29.8h-7.7l-5.3-17.3l-5.6,17.3H69l-8.7-29.8h7.9l5.1,19.2l6.2-19.2h6l5.7,19.2l5.5-19.2
			C96.7,69.1,104.6,69.1,104.6,69.1z"/>
		<path class="st0" d="M109.2,98.9h-7.6V69.1h7.6V98.9z"/>
	</g>
	<rect x="93.9" y="61.8" width="26.1" height="16.4"/>
	<rect x="101.6" y="67" class="st0" width="7.6" height="7"/>
	<rect x="73.8" y="64.7" width="16.4" height="9.7"/>
	<polyline class="st0" points="82.5,66.6 77.6,72.1 87.4,72.1 	"/>
	<polyline class="st0" points="82.3,92.4 79,98.8 85.5,98.8 	"/>
</g>
</svg>
