<?xml version="1.0" encoding="utf-8"?>
<!-- Generator: Adobe Illustrator 22.0.0, SVG Export Plug-In . SVG Version: 6.00 Build 0)  -->
<svg version="1.1" id="Calque_1" xmlns="http://www.w3.org/2000/svg" xmlns:xlink="http://www.w3.org/1999/xlink" x="0px" y="0px"
	 viewBox="0 0 88 82" style="enable-background:new 0 0 88 82;" xml:space="preserve">
<style type="text/css">
	.st0{fill:#FFFFFF;}
	.st1{fill:#364150;stroke:#364150;}
</style>
<title>icon/scales</title>
<desc>Created with Sketch.</desc>
<g id="icon_x2F_scales">
	<g id="graphic-design">
		<circle id="Oval" class="st0" cx="41" cy="41" r="41"/>
	</g>
	<g id="balance" transform="translate(19.000000, 7.000000)">
		<path id="Shape" class="st1" d="M50.2,39.2L50.2,39.2l-8.9-19.5l2.2-1.1L42.7,17L40.6,18l-0.3-0.6c-0.2-0.5-0.7-0.7-1.2-0.4
			c-0.2,0.1-0.4,0.2-0.4,0.4L38.4,18c-1.5-0.7-3.2-1.1-4.9-1.1h-7.6v-1.8h1.8v-1.8h-1.6l0.7-2.6c0.5-2-0.7-4-2.7-4.5
			c-2-0.5-4,0.7-4.5,2.7c-0.1,0.6-0.1,1.2,0,1.8l0.7,2.6h-1.6v1.8h1.8v1.8h-7.6c-1.7,0-3.4,0.4-4.9,1.1l-0.3-0.6
			c-0.2-0.5-0.7-0.7-1.2-0.4C6.2,17,6,17.2,5.9,17.4L5.6,18L3.5,17l-0.8,1.6l2.2,1.1l-8.9,19.5c-0.1,0.1-0.1,0.2-0.1,0.4
			c0,3.5,2.8,6.4,6.4,6.4h9.1c3.5,0,6.4-2.8,6.4-6.4c0-0.1,0-0.3-0.1-0.4l-9-19.6c1.3-0.6,2.7-0.9,4.2-0.9h7.6v33.2L17.3,55H14
			c-2.5,0-4.5,2-4.5,4.5c0,0.5,0.4,0.9,0.9,0.9h25.4c0.5,0,0.9-0.4,0.9-0.9c0-2.5-2-4.5-4.5-4.5h-3.3l-3.1-3.1V18.7h7.6
			c1.4,0,2.9,0.3,4.2,0.9l-9,19.6c-0.1,0.1-0.1,0.2-0.1,0.4c0,3.5,2.8,6.4,6.4,6.4H44c3.5,0,6.4-2.8,6.4-6.4
			C50.3,39.4,50.3,39.3,50.2,39.2z M10.5,43.9H1.7c-2.1,0-3.9-1.7-4.3-3.9h17.4C14.4,42.2,12.6,43.9,10.5,43.9z M14.8,38.4H-1.8
			l8.1-18.2c0.1,0,0.3,0,0.4,0L14.8,38.4z M21.5,8.3c0.7-0.9,2-1,2.9-0.2c0.1,0.1,0.2,0.2,0.2,0.2C25,8.7,25.2,9.4,25,10l-0.8,3.1
			H22L21.2,10C21,9.4,21.2,8.7,21.5,8.3z M22.7,16.2v-1.6h1.6v1.6H22.7z M24.3,18.6V51h-1.6V18.6H24.3z M32.7,56.5
			c1.2,0,2.2,0.6,2.6,1.6H11.6c0.4-0.9,1.4-1.6,2.6-1.6H32.7z M25.9,54.9h-6.3l1.8-1.6h2.8L25.9,54.9z M38.7,20.2
			c0.1,0.1,0.3,0,0.4,0l8.1,18.2H30.6L38.7,20.2z M43.7,43.9h-8.8c-2.1,0-3.9-1.7-4.3-3.9H48C47.6,42.2,45.8,43.9,43.7,43.9z"/>
	</g>
</g>
</svg>
