<?xml version="1.0" encoding="utf-8"?>
<!-- Generator: Adobe Illustrator 22.0.0, SVG Export Plug-In . SVG Version: 6.00 Build 0)  -->
<svg version="1.1" id="Calque_1" xmlns="http://www.w3.org/2000/svg" xmlns:xlink="http://www.w3.org/1999/xlink" x="0px" y="0px"
	 viewBox="0 0 87 82" style="enable-background:new 0 0 87 82;" xml:space="preserve">
<style type="text/css">
	.st0{fill:#FFFFFF;}
	.st1{filter:url(#Adobe_OpacityMaskFilter);}
	.st2{mask:url(#b_1_);fill:#354052;}
	.st3{fill:#354052;}
</style>
<g>
	<circle class="st0" cx="41" cy="41" r="41"/>
	<g transform="translate(30 8)">
		<defs>
			<filter id="Adobe_OpacityMaskFilter" filterUnits="userSpaceOnUse" x="-12.7" y="2.1" width="49.4" height="61.9">
				<feColorMatrix  type="matrix" values="1 0 0 0 0  0 1 0 0 0  0 0 1 0 0  0 0 0 1 0"/>
			</filter>
		</defs>
		<mask maskUnits="userSpaceOnUse" x="-12.7" y="2.1" width="49.4" height="61.9" id="b_1_">
			<g class="st1">
				<path id="a_1_" class="st0" d="M-12.7,2.1h49.4v61.9h-49.4V2.1z"/>
			</g>
		</mask>
		<path class="st2" d="M10.8,60.1C0,60.1-8.8,51.4-8.8,40.7S0,21.4,10.8,21.4s19.6,8.7,19.6,19.3S21.6,60.1,10.8,60.1z M6.9,9.8h7.8
			V5.9H6.9L6.9,9.8L6.9,9.8z M31.2,23.3l2.8,2.7l2.8-2.7l-8.3-8.2l-2.8,2.7l2.8,2.7L25.9,23c-3.7-3.1-8.3-5-13.2-5.4v-4h5.9V2.1H3
			v11.6h5.9v4c-12,1-21.5,11-21.5,23.1c0,12.8,10.5,23.2,23.5,23.2c12.9,0,23.5-10.4,23.5-23.2c0-5.7-2.1-10.9-5.6-15L31.2,23.3
			L31.2,23.3z"/>
	</g>
	<path class="st3" d="M49.1,37.7l-8.3,8.3c-0.4-0.1-0.8-0.2-1.1-0.2c-2.4,0-4.4,2-4.4,4.4c0,2.4,2,4.4,4.4,4.4c2.4,0,4.4-2,4.4-4.4
		c0-0.4-0.1-0.8-0.2-1.1l8.3-8.3L49.1,37.7z"/>
</g>
</svg>
